<svg width="754" height="35" viewBox="0 0 754 35" fill="none" xmlns="http://www.w3.org/2000/svg">
<path d="M14.4195 3.664V19.344C14.4195 21.52 13.7902 23.216 12.5315 24.432C11.2728 25.6267 9.5875 26.224 7.4755 26.224C5.34217 26.224 3.61417 25.6053 2.2915 24.368C0.990167 23.1307 0.3395 21.4027 0.3395 19.184H4.8195C4.84083 20.144 5.06483 20.8907 5.4915 21.424C5.9395 21.9573 6.5795 22.224 7.4115 22.224C8.22217 22.224 8.84083 21.968 9.2675 21.456C9.69417 20.944 9.9075 20.24 9.9075 19.344V3.664H14.4195ZM27.5175 26.288C25.8108 26.288 24.2748 25.9147 22.9095 25.168C21.5442 24.4 20.4668 23.3227 19.6775 21.936C18.9095 20.5493 18.5255 18.9493 18.5255 17.136C18.5255 15.3227 18.9202 13.7227 19.7095 12.336C20.5202 10.9493 21.6188 9.88267 23.0055 9.136C24.3922 8.368 25.9388 7.984 27.6455 7.984C29.3522 7.984 30.8988 8.368 32.2855 9.136C33.6722 9.88267 34.7602 10.9493 35.5495 12.336C36.3602 13.7227 36.7655 15.3227 36.7655 17.136C36.7655 18.9493 36.3495 20.5493 35.5175 21.936C34.7068 23.3227 33.5975 24.4 32.1895 25.168C30.8028 25.9147 29.2455 26.288 27.5175 26.288ZM27.5175 22.384C28.3282 22.384 29.0855 22.192 29.7895 21.808C30.5148 21.4027 31.0908 20.8053 31.5175 20.016C31.9442 19.2267 32.1575 18.2667 32.1575 17.136C32.1575 15.4507 31.7095 14.16 30.8135 13.264C29.9388 12.3467 28.8615 11.888 27.5815 11.888C26.3015 11.888 25.2242 12.3467 24.3495 13.264C23.4962 14.16 23.0695 15.4507 23.0695 17.136C23.0695 18.8213 23.4855 20.1227 24.3175 21.04C25.1708 21.936 26.2375 22.384 27.5175 22.384ZM42.3238 6.16C41.5344 6.16 40.8731 5.91467 40.3398 5.424C39.8278 4.912 39.5718 4.28267 39.5718 3.536C39.5718 2.78933 39.8278 2.17067 40.3398 1.68C40.8731 1.168 41.5344 0.911999 42.3238 0.911999C43.1131 0.911999 43.7638 1.168 44.2758 1.68C44.8091 2.17067 45.0758 2.78933 45.0758 3.536C45.0758 4.28267 44.8091 4.912 44.2758 5.424C43.7638 5.91467 43.1131 6.16 42.3238 6.16ZM44.5318 8.272V26H40.0518V8.272H44.5318ZM58.782 8.016C60.894 8.016 62.6007 8.688 63.902 10.032C65.2033 11.3547 65.854 13.2107 65.854 15.6V26H61.374V16.208C61.374 14.8 61.022 13.7227 60.318 12.976C59.614 12.208 58.654 11.824 57.438 11.824C56.2007 11.824 55.2193 12.208 54.494 12.976C53.79 13.7227 53.438 14.8 53.438 16.208V26H48.958V8.272H53.438V10.48C54.0353 9.712 54.7927 9.11467 55.71 8.688C56.6487 8.24 57.6727 8.016 58.782 8.016ZM92.9393 3.664V7.28H86.9873V26H82.5073V7.28H76.5553V3.664H92.9393ZM104.08 26.288C102.373 26.288 100.837 25.9147 99.472 25.168C98.1067 24.4 97.0293 23.3227 96.24 21.936C95.472 20.5493 95.088 18.9493 95.088 17.136C95.088 15.3227 95.4827 13.7227 96.272 12.336C97.0827 10.9493 98.1813 9.88267 99.568 9.136C100.955 8.368 102.501 7.984 104.208 7.984C105.915 7.984 107.461 8.368 108.848 9.136C110.235 9.88267 111.323 10.9493 112.112 12.336C112.923 13.7227 113.328 15.3227 113.328 17.136C113.328 18.9493 112.912 20.5493 112.08 21.936C111.269 23.3227 110.16 24.4 108.752 25.168C107.365 25.9147 105.808 26.288 104.08 26.288ZM104.08 22.384C104.891 22.384 105.648 22.192 106.352 21.808C107.077 21.4027 107.653 20.8053 108.08 20.016C108.507 19.2267 108.72 18.2667 108.72 17.136C108.72 15.4507 108.272 14.16 107.376 13.264C106.501 12.3467 105.424 11.888 104.144 11.888C102.864 11.888 101.787 12.3467 100.912 13.264C100.059 14.16 99.632 15.4507 99.632 17.136C99.632 18.8213 100.048 20.1227 100.88 21.04C101.733 21.936 102.8 22.384 104.08 22.384ZM138.63 8.016C140.806 8.016 142.556 8.688 143.878 10.032C145.222 11.3547 145.894 13.2107 145.894 15.6V26H141.414V16.208C141.414 14.8213 141.062 13.7653 140.358 13.04C139.654 12.2933 138.694 11.92 137.478 11.92C136.262 11.92 135.292 12.2933 134.566 13.04C133.862 13.7653 133.51 14.8213 133.51 16.208V26H129.03V16.208C129.03 14.8213 128.678 13.7653 127.974 13.04C127.27 12.2933 126.31 11.92 125.094 11.92C123.857 11.92 122.876 12.2933 122.15 13.04C121.446 13.7653 121.094 14.8213 121.094 16.208V26H116.614V8.272H121.094V10.416C121.67 9.66933 122.406 9.08267 123.302 8.656C124.22 8.22933 125.222 8.016 126.31 8.016C127.697 8.016 128.934 8.31467 130.022 8.912C131.11 9.488 131.953 10.32 132.55 11.408C133.126 10.384 133.958 9.56267 135.046 8.944C136.156 8.32533 137.35 8.016 138.63 8.016ZM158.018 26.288C156.311 26.288 154.775 25.9147 153.41 25.168C152.044 24.4 150.967 23.3227 150.178 21.936C149.41 20.5493 149.026 18.9493 149.026 17.136C149.026 15.3227 149.42 13.7227 150.21 12.336C151.02 10.9493 152.119 9.88267 153.506 9.136C154.892 8.368 156.439 7.984 158.146 7.984C159.852 7.984 161.399 8.368 162.786 9.136C164.172 9.88267 165.26 10.9493 166.05 12.336C166.86 13.7227 167.266 15.3227 167.266 17.136C167.266 18.9493 166.85 20.5493 166.017 21.936C165.207 23.3227 164.098 24.4 162.69 25.168C161.303 25.9147 159.746 26.288 158.018 26.288ZM158.018 22.384C158.828 22.384 159.586 22.192 160.29 21.808C161.015 21.4027 161.591 20.8053 162.018 20.016C162.444 19.2267 162.658 18.2667 162.658 17.136C162.658 15.4507 162.21 14.16 161.314 13.264C160.439 12.3467 159.362 11.888 158.082 11.888C156.802 11.888 155.724 12.3467 154.85 13.264C153.996 14.16 153.57 15.4507 153.57 17.136C153.57 18.8213 153.986 20.1227 154.818 21.04C155.671 21.936 156.738 22.384 158.018 22.384ZM175.448 21.296L171.704 30.288H168.824L170.904 21.296H175.448ZM210.878 8.272L205.694 26H200.862L197.63 13.616L194.398 26H189.534L184.318 8.272H188.862L191.998 21.776L195.39 8.272H200.126L203.454 21.744L206.59 8.272H210.878ZM223.286 8.016C224.63 8.016 225.824 8.31467 226.87 8.912C227.915 9.488 228.726 10.352 229.302 11.504C229.899 12.6347 230.198 14 230.198 15.6V26H225.718V16.208C225.718 14.8 225.366 13.7227 224.662 12.976C223.958 12.208 222.998 11.824 221.782 11.824C220.544 11.824 219.563 12.208 218.838 12.976C218.134 13.7227 217.782 14.8 217.782 16.208V26H213.302V2.32H217.782V10.48C218.358 9.712 219.126 9.11467 220.086 8.688C221.046 8.24 222.112 8.016 223.286 8.016ZM250.938 16.752C250.938 17.392 250.895 17.968 250.81 18.48H237.85C237.957 19.76 238.405 20.7627 239.194 21.488C239.983 22.2133 240.954 22.576 242.106 22.576C243.77 22.576 244.954 21.8613 245.658 20.432H250.49C249.978 22.1387 248.997 23.5467 247.546 24.656C246.095 25.744 244.314 26.288 242.202 26.288C240.495 26.288 238.959 25.9147 237.594 25.168C236.25 24.4 235.194 23.3227 234.426 21.936C233.679 20.5493 233.306 18.9493 233.306 17.136C233.306 15.3013 233.679 13.6907 234.426 12.304C235.173 10.9173 236.218 9.85067 237.562 9.104C238.906 8.35733 240.453 7.984 242.202 7.984C243.887 7.984 245.391 8.34667 246.714 9.072C248.058 9.79733 249.093 10.832 249.818 12.176C250.565 13.4987 250.938 15.024 250.938 16.752ZM246.298 15.472C246.277 14.32 245.861 13.4027 245.05 12.72C244.239 12.016 243.247 11.664 242.074 11.664C240.965 11.664 240.026 12.0053 239.258 12.688C238.511 13.3493 238.053 14.2773 237.882 15.472H246.298ZM258.688 11.024C259.264 10.0853 260.011 9.34933 260.928 8.816C261.867 8.28267 262.933 8.016 264.128 8.016V12.72H262.944C261.536 12.72 260.469 13.0507 259.744 13.712C259.04 14.3733 258.688 15.5253 258.688 17.168V26H254.208V8.272H258.688V11.024ZM283.626 16.752C283.626 17.392 283.583 17.968 283.498 18.48H270.538C270.644 19.76 271.092 20.7627 271.882 21.488C272.671 22.2133 273.642 22.576 274.794 22.576C276.458 22.576 277.642 21.8613 278.346 20.432H283.178C282.666 22.1387 281.684 23.5467 280.234 24.656C278.783 25.744 277.002 26.288 274.89 26.288C273.183 26.288 271.647 25.9147 270.282 25.168C268.938 24.4 267.882 23.3227 267.114 21.936C266.367 20.5493 265.993 18.9493 265.993 17.136C265.993 15.3013 266.367 13.6907 267.114 12.304C267.86 10.9173 268.906 9.85067 270.25 9.104C271.594 8.35733 273.14 7.984 274.89 7.984C276.575 7.984 278.079 8.34667 279.402 9.072C280.746 9.79733 281.78 10.832 282.506 12.176C283.252 13.4987 283.626 15.024 283.626 16.752ZM278.986 15.472C278.964 14.32 278.548 13.4027 277.738 12.72C276.927 12.016 275.935 11.664 274.762 11.664C273.652 11.664 272.714 12.0053 271.946 12.688C271.199 13.3493 270.74 14.2773 270.57 15.472H278.986ZM311.481 8.272L300.505 34.384H295.737L299.577 25.552L292.473 8.272H297.497L302.073 20.656L306.713 8.272H311.481ZM321.768 26.288C320.061 26.288 318.525 25.9147 317.16 25.168C315.794 24.4 314.717 23.3227 313.928 21.936C313.16 20.5493 312.776 18.9493 312.776 17.136C312.776 15.3227 313.17 13.7227 313.96 12.336C314.77 10.9493 315.869 9.88267 317.256 9.136C318.642 8.368 320.189 7.984 321.896 7.984C323.602 7.984 325.149 8.368 326.536 9.136C327.922 9.88267 329.01 10.9493 329.8 12.336C330.61 13.7227 331.016 15.3227 331.016 17.136C331.016 18.9493 330.6 20.5493 329.767 21.936C328.957 23.3227 327.848 24.4 326.44 25.168C325.053 25.9147 323.496 26.288 321.768 26.288ZM321.768 22.384C322.578 22.384 323.336 22.192 324.04 21.808C324.765 21.4027 325.341 20.8053 325.768 20.016C326.194 19.2267 326.408 18.2667 326.408 17.136C326.408 15.4507 325.96 14.16 325.064 13.264C324.189 12.3467 323.112 11.888 321.832 11.888C320.552 11.888 319.474 12.3467 318.6 13.264C317.746 14.16 317.32 15.4507 317.32 17.136C317.32 18.8213 317.736 20.1227 318.568 21.04C319.421 21.936 320.488 22.384 321.768 22.384ZM351.038 8.272V26H346.526V23.76C345.95 24.528 345.192 25.136 344.254 25.584C343.336 26.0107 342.334 26.224 341.246 26.224C339.859 26.224 338.632 25.936 337.566 25.36C336.499 24.7627 335.656 23.8987 335.038 22.768C334.44 21.616 334.142 20.2507 334.142 18.672V8.272H338.622V18.032C338.622 19.44 338.974 20.528 339.678 21.296C340.382 22.0427 341.342 22.416 342.558 22.416C343.795 22.416 344.766 22.0427 345.47 21.296C346.174 20.528 346.526 19.44 346.526 18.032V8.272H351.038ZM359.938 11.024C360.514 10.0853 361.261 9.34933 362.178 8.816C363.117 8.28267 364.183 8.016 365.378 8.016V12.72H364.194C362.786 12.72 361.719 13.0507 360.994 13.712C360.29 14.3733 359.938 15.5253 359.938 17.168V26H355.458V8.272H359.938V11.024ZM382.805 26.288C381.354 26.288 380.053 26.032 378.901 25.52C377.749 24.9867 376.831 24.272 376.149 23.376C375.487 22.48 375.125 21.488 375.061 20.4H379.573C379.658 21.0827 379.989 21.648 380.565 22.096C381.162 22.544 381.898 22.768 382.773 22.768C383.626 22.768 384.287 22.5973 384.757 22.256C385.247 21.9147 385.493 21.4773 385.493 20.944C385.493 20.368 385.194 19.9413 384.597 19.664C384.021 19.3653 383.093 19.0453 381.812 18.704C380.49 18.384 379.402 18.0533 378.549 17.712C377.717 17.3707 376.991 16.848 376.373 16.144C375.775 15.44 375.477 14.4907 375.477 13.296C375.477 12.3147 375.754 11.4187 376.309 10.608C376.885 9.79733 377.695 9.15733 378.741 8.688C379.807 8.21867 381.055 7.984 382.485 7.984C384.597 7.984 386.282 8.51733 387.541 9.584C388.799 10.6293 389.493 12.048 389.621 13.84H385.333C385.269 13.136 384.97 12.5813 384.437 12.176C383.925 11.7493 383.231 11.536 382.357 11.536C381.546 11.536 380.917 11.6853 380.469 11.984C380.042 12.2827 379.829 12.6987 379.829 13.232C379.829 13.8293 380.127 14.288 380.725 14.608C381.322 14.9067 382.25 15.216 383.509 15.536C384.789 15.856 385.845 16.1867 386.677 16.528C387.509 16.8693 388.223 17.4027 388.821 18.128C389.439 18.832 389.759 19.7707 389.781 20.944C389.781 21.968 389.493 22.8853 388.917 23.696C388.362 24.5067 387.551 25.1467 386.485 25.616C385.439 26.064 384.213 26.288 382.805 26.288ZM401.33 26.288C399.623 26.288 398.087 25.9147 396.722 25.168C395.357 24.4 394.279 23.3227 393.49 21.936C392.722 20.5493 392.338 18.9493 392.338 17.136C392.338 15.3227 392.733 13.7227 393.522 12.336C394.333 10.9493 395.431 9.88267 396.818 9.136C398.205 8.368 399.751 7.984 401.458 7.984C403.165 7.984 404.711 8.368 406.098 9.136C407.485 9.88267 408.573 10.9493 409.362 12.336C410.173 13.7227 410.578 15.3227 410.578 17.136C410.578 18.9493 410.162 20.5493 409.33 21.936C408.519 23.3227 407.41 24.4 406.002 25.168C404.615 25.9147 403.058 26.288 401.33 26.288ZM401.33 22.384C402.141 22.384 402.898 22.192 403.602 21.808C404.327 21.4027 404.903 20.8053 405.33 20.016C405.757 19.2267 405.97 18.2667 405.97 17.136C405.97 15.4507 405.522 14.16 404.626 13.264C403.751 12.3467 402.674 11.888 401.394 11.888C400.114 11.888 399.037 12.3467 398.162 13.264C397.309 14.16 396.882 15.4507 396.882 17.136C396.882 18.8213 397.298 20.1227 398.13 21.04C398.983 21.936 400.05 22.384 401.33 22.384ZM412.712 17.136C412.712 15.3013 413.086 13.7013 413.832 12.336C414.579 10.9493 415.614 9.88267 416.936 9.136C418.259 8.368 419.774 7.984 421.48 7.984C423.678 7.984 425.491 8.53867 426.92 9.648C428.371 10.736 429.342 12.272 429.832 14.256H425C424.744 13.488 424.307 12.8907 423.688 12.464C423.091 12.016 422.344 11.792 421.448 11.792C420.168 11.792 419.155 12.2613 418.408 13.2C417.662 14.1173 417.288 15.4293 417.288 17.136C417.288 18.8213 417.662 20.1333 418.408 21.072C419.155 21.9893 420.168 22.448 421.448 22.448C423.262 22.448 424.446 21.6373 425 20.016H429.832C429.342 21.936 428.371 23.4613 426.92 24.592C425.47 25.7227 423.656 26.288 421.48 26.288C419.774 26.288 418.259 25.9147 416.936 25.168C415.614 24.4 414.579 23.3333 413.832 21.968C413.086 20.5813 412.712 18.9707 412.712 17.136ZM435.386 6.16C434.597 6.16 433.936 5.91467 433.402 5.424C432.89 4.912 432.634 4.28267 432.634 3.536C432.634 2.78933 432.89 2.17067 433.402 1.68C433.936 1.168 434.597 0.911999 435.386 0.911999C436.176 0.911999 436.826 1.168 437.338 1.68C437.872 2.17067 438.138 2.78933 438.138 3.536C438.138 4.28267 437.872 4.912 437.338 5.424C436.826 5.91467 436.176 6.16 435.386 6.16ZM437.594 8.272V26H433.114V8.272H437.594ZM440.868 17.072C440.868 15.28 441.22 13.6907 441.924 12.304C442.65 10.9173 443.621 9.85067 444.837 9.104C446.074 8.35733 447.45 7.984 448.965 7.984C450.287 7.984 451.439 8.25067 452.421 8.784C453.423 9.31733 454.223 9.98933 454.821 10.8V8.272H459.333V26H454.821V23.408C454.245 24.24 453.445 24.9333 452.421 25.488C451.418 26.0213 450.255 26.288 448.933 26.288C447.439 26.288 446.074 25.904 444.837 25.136C443.621 24.368 442.65 23.2907 441.924 21.904C441.22 20.496 440.868 18.8853 440.868 17.072ZM454.821 17.136C454.821 16.048 454.607 15.12 454.181 14.352C453.754 13.5627 453.178 12.9653 452.453 12.56C451.727 12.1333 450.949 11.92 450.117 11.92C449.285 11.92 448.517 12.1227 447.812 12.528C447.109 12.9333 446.533 13.5307 446.085 14.32C445.658 15.088 445.445 16.0053 445.445 17.072C445.445 18.1387 445.658 19.0773 446.085 19.888C446.533 20.6773 447.109 21.2853 447.812 21.712C448.538 22.1387 449.306 22.352 450.117 22.352C450.949 22.352 451.727 22.1493 452.453 21.744C453.178 21.3173 453.754 20.72 454.181 19.952C454.607 19.1627 454.821 18.224 454.821 17.136ZM468.188 2.32V26H463.708V2.32H468.188ZM479.087 17.136C479.087 15.3013 479.461 13.7013 480.207 12.336C480.954 10.9493 481.989 9.88267 483.311 9.136C484.634 8.368 486.149 7.984 487.855 7.984C490.053 7.984 491.866 8.53867 493.295 9.648C494.746 10.736 495.717 12.272 496.207 14.256H491.375C491.119 13.488 490.682 12.8907 490.063 12.464C489.466 12.016 488.719 11.792 487.823 11.792C486.543 11.792 485.53 12.2613 484.783 13.2C484.037 14.1173 483.663 15.4293 483.663 17.136C483.663 18.8213 484.037 20.1333 484.783 21.072C485.53 21.9893 486.543 22.448 487.823 22.448C489.637 22.448 490.821 21.6373 491.375 20.016H496.207C495.717 21.936 494.746 23.4613 493.295 24.592C491.845 25.7227 490.031 26.288 487.855 26.288C486.149 26.288 484.634 25.9147 483.311 25.168C481.989 24.4 480.954 23.3333 480.207 21.968C479.461 20.5813 479.087 18.9707 479.087 17.136ZM498.337 17.072C498.337 15.28 498.689 13.6907 499.393 12.304C500.119 10.9173 501.089 9.85067 502.305 9.104C503.543 8.35733 504.919 7.984 506.433 7.984C507.756 7.984 508.908 8.25067 509.889 8.784C510.892 9.31733 511.692 9.98933 512.289 10.8V8.272H516.801V26H512.289V23.408C511.713 24.24 510.913 24.9333 509.889 25.488C508.887 26.0213 507.724 26.288 506.401 26.288C504.908 26.288 503.543 25.904 502.305 25.136C501.089 24.368 500.119 23.2907 499.393 21.904C498.689 20.496 498.337 18.8853 498.337 17.072ZM512.289 17.136C512.289 16.048 512.076 15.12 511.649 14.352C511.223 13.5627 510.647 12.9653 509.921 12.56C509.196 12.1333 508.417 11.92 507.585 11.92C506.753 11.92 505.985 12.1227 505.281 12.528C504.577 12.9333 504.001 13.5307 503.553 14.32C503.127 15.088 502.913 16.0053 502.913 17.072C502.913 18.1387 503.127 19.0773 503.553 19.888C504.001 20.6773 504.577 21.2853 505.281 21.712C506.007 22.1387 506.775 22.352 507.585 22.352C508.417 22.352 509.196 22.1493 509.921 21.744C510.647 21.3173 511.223 20.72 511.649 19.952C512.076 19.1627 512.289 18.224 512.289 17.136ZM525.657 10.832C526.233 10.0213 527.022 9.34933 528.025 8.816C529.049 8.26133 530.211 7.984 531.513 7.984C533.027 7.984 534.393 8.35733 535.609 9.104C536.846 9.85067 537.817 10.9173 538.521 12.304C539.246 13.6693 539.609 15.2587 539.609 17.072C539.609 18.8853 539.246 20.496 538.521 21.904C537.817 23.2907 536.846 24.368 535.609 25.136C534.393 25.904 533.027 26.288 531.513 26.288C530.211 26.288 529.059 26.0213 528.057 25.488C527.075 24.9547 526.275 24.2827 525.657 23.472V34.448H521.177V8.272H525.657V10.832ZM535.033 17.072C535.033 16.0053 534.809 15.088 534.361 14.32C533.934 13.5307 533.358 12.9333 532.633 12.528C531.929 12.1227 531.161 11.92 530.329 11.92C529.518 11.92 528.75 12.1333 528.025 12.56C527.321 12.9653 526.745 13.5627 526.297 14.352C525.87 15.1413 525.657 16.0693 525.657 17.136C525.657 18.2027 525.87 19.1307 526.297 19.92C526.745 20.7093 527.321 21.3173 528.025 21.744C528.75 22.1493 529.518 22.352 530.329 22.352C531.161 22.352 531.929 22.1387 532.633 21.712C533.358 21.2853 533.934 20.6773 534.361 19.888C534.809 19.0987 535.033 18.16 535.033 17.072ZM545.136 6.16C544.347 6.16 543.686 5.91467 543.152 5.424C542.64 4.912 542.384 4.28267 542.384 3.536C542.384 2.78933 542.64 2.17067 543.152 1.68C543.686 1.168 544.347 0.911999 545.136 0.911999C545.926 0.911999 546.576 1.168 547.088 1.68C547.622 2.17067 547.888 2.78933 547.888 3.536C547.888 4.28267 547.622 4.912 547.088 5.424C546.576 5.91467 545.926 6.16 545.136 6.16ZM547.344 8.272V26H542.864V8.272H547.344ZM556.987 11.952V20.528C556.987 21.1253 557.125 21.5627 557.403 21.84C557.701 22.096 558.192 22.224 558.875 22.224H560.955V26H558.139C554.363 26 552.475 24.1653 552.475 20.496V11.952H550.363V8.272H552.475V3.888H556.987V8.272H560.955V11.952H556.987ZM563.025 17.072C563.025 15.28 563.377 13.6907 564.081 12.304C564.806 10.9173 565.777 9.85067 566.993 9.104C568.23 8.35733 569.606 7.984 571.121 7.984C572.443 7.984 573.595 8.25067 574.577 8.784C575.579 9.31733 576.379 9.98933 576.977 10.8V8.272H581.489V26H576.977V23.408C576.401 24.24 575.601 24.9333 574.577 25.488C573.574 26.0213 572.411 26.288 571.089 26.288C569.595 26.288 568.23 25.904 566.993 25.136C565.777 24.368 564.806 23.2907 564.081 21.904C563.377 20.496 563.025 18.8853 563.025 17.072ZM576.977 17.136C576.977 16.048 576.763 15.12 576.337 14.352C575.91 13.5627 575.334 12.9653 574.609 12.56C573.883 12.1333 573.105 11.92 572.273 11.92C571.441 11.92 570.673 12.1227 569.969 12.528C569.265 12.9333 568.689 13.5307 568.241 14.32C567.814 15.088 567.601 16.0053 567.601 17.072C567.601 18.1387 567.814 19.0773 568.241 19.888C568.689 20.6773 569.265 21.2853 569.969 21.712C570.694 22.1387 571.462 22.352 572.273 22.352C573.105 22.352 573.883 22.1493 574.609 21.744C575.334 21.3173 575.91 20.72 576.337 19.952C576.763 19.1627 576.977 18.224 576.977 17.136ZM590.344 2.32V26H585.864V2.32H590.344ZM604.668 6.16C603.878 6.16 603.217 5.91467 602.684 5.424C602.172 4.912 601.916 4.28267 601.916 3.536C601.916 2.78933 602.172 2.17067 602.684 1.68C603.217 1.168 603.878 0.911999 604.668 0.911999C605.457 0.911999 606.108 1.168 606.62 1.68C607.153 2.17067 607.42 2.78933 607.42 3.536C607.42 4.28267 607.153 4.912 606.62 5.424C606.108 5.91467 605.457 6.16 604.668 6.16ZM606.876 8.272V26H602.396V8.272H606.876ZM618.086 26.288C616.635 26.288 615.334 26.032 614.182 25.52C613.03 24.9867 612.112 24.272 611.43 23.376C610.768 22.48 610.406 21.488 610.342 20.4H614.854C614.939 21.0827 615.27 21.648 615.846 22.096C616.443 22.544 617.179 22.768 618.054 22.768C618.907 22.768 619.568 22.5973 620.038 22.256C620.528 21.9147 620.774 21.4773 620.774 20.944C620.774 20.368 620.475 19.9413 619.878 19.664C619.302 19.3653 618.374 19.0453 617.094 18.704C615.771 18.384 614.683 18.0533 613.83 17.712C612.998 17.3707 612.272 16.848 611.654 16.144C611.056 15.44 610.758 14.4907 610.758 13.296C610.758 12.3147 611.035 11.4187 611.59 10.608C612.166 9.79733 612.976 9.15733 614.022 8.688C615.088 8.21867 616.336 7.984 617.766 7.984C619.878 7.984 621.563 8.51733 622.822 9.584C624.08 10.6293 624.774 12.048 624.902 13.84H620.614C620.55 13.136 620.251 12.5813 619.718 12.176C619.206 11.7493 618.512 11.536 617.638 11.536C616.827 11.536 616.198 11.6853 615.75 11.984C615.323 12.2827 615.11 12.6987 615.11 13.232C615.11 13.8293 615.408 14.288 616.006 14.608C616.603 14.9067 617.531 15.216 618.79 15.536C620.07 15.856 621.126 16.1867 621.958 16.528C622.79 16.8693 623.504 17.4027 624.102 18.128C624.72 18.832 625.04 19.7707 625.062 20.944C625.062 21.968 624.774 22.8853 624.198 23.696C623.643 24.5067 622.832 25.1467 621.766 25.616C620.72 26.064 619.494 26.288 618.086 26.288ZM643.756 21.872L648.236 8.272H653.004L646.444 26H641.004L634.476 8.272H639.276L643.756 21.872ZM654.368 17.072C654.368 15.28 654.72 13.6907 655.424 12.304C656.15 10.9173 657.121 9.85067 658.337 9.104C659.574 8.35733 660.95 7.984 662.465 7.984C663.787 7.984 664.939 8.25067 665.921 8.784C666.923 9.31733 667.723 9.98933 668.321 10.8V8.272H672.833V26H668.321V23.408C667.745 24.24 666.945 24.9333 665.921 25.488C664.918 26.0213 663.755 26.288 662.433 26.288C660.939 26.288 659.574 25.904 658.337 25.136C657.121 24.368 656.15 23.2907 655.424 21.904C654.72 20.496 654.368 18.8853 654.368 17.072ZM668.321 17.136C668.321 16.048 668.107 15.12 667.681 14.352C667.254 13.5627 666.678 12.9653 665.953 12.56C665.227 12.1333 664.449 11.92 663.617 11.92C662.785 11.92 662.017 12.1227 661.312 12.528C660.609 12.9333 660.033 13.5307 659.585 14.32C659.158 15.088 658.945 16.0053 658.945 17.072C658.945 18.1387 659.158 19.0773 659.585 19.888C660.033 20.6773 660.609 21.2853 661.312 21.712C662.038 22.1387 662.806 22.352 663.617 22.352C664.449 22.352 665.227 22.1493 665.953 21.744C666.678 21.3173 667.254 20.72 667.681 19.952C668.107 19.1627 668.321 18.224 668.321 17.136ZM681.688 2.32V26H677.208V2.32H681.688ZM702.85 8.272V26H698.338V23.76C697.762 24.528 697.005 25.136 696.066 25.584C695.149 26.0107 694.146 26.224 693.058 26.224C691.672 26.224 690.445 25.936 689.378 25.36C688.312 24.7627 687.469 23.8987 686.85 22.768C686.253 21.616 685.954 20.2507 685.954 18.672V8.272H690.434V18.032C690.434 19.44 690.786 20.528 691.49 21.296C692.194 22.0427 693.154 22.416 694.37 22.416C695.608 22.416 696.578 22.0427 697.282 21.296C697.986 20.528 698.338 19.44 698.338 18.032V8.272H702.85ZM723.751 16.752C723.751 17.392 723.708 17.968 723.623 18.48H710.663C710.769 19.76 711.217 20.7627 712.007 21.488C712.796 22.2133 713.767 22.576 714.919 22.576C716.583 22.576 717.767 21.8613 718.471 20.432H723.303C722.791 22.1387 721.809 23.5467 720.359 24.656C718.908 25.744 717.127 26.288 715.015 26.288C713.308 26.288 711.772 25.9147 710.407 25.168C709.063 24.4 708.007 23.3227 707.239 21.936C706.492 20.5493 706.118 18.9493 706.118 17.136C706.118 15.3013 706.492 13.6907 707.239 12.304C707.985 10.9173 709.031 9.85067 710.375 9.104C711.719 8.35733 713.265 7.984 715.015 7.984C716.7 7.984 718.204 8.34667 719.527 9.072C720.871 9.79733 721.905 10.832 722.631 12.176C723.377 13.4987 723.751 15.024 723.751 16.752ZM719.111 15.472C719.089 14.32 718.673 13.4027 717.863 12.72C717.052 12.016 716.06 11.664 714.887 11.664C713.777 11.664 712.839 12.0053 712.071 12.688C711.324 13.3493 710.865 14.2773 710.695 15.472H719.111ZM725.868 17.072C725.868 15.28 726.22 13.6907 726.924 12.304C727.65 10.9173 728.631 9.85067 729.869 9.104C731.106 8.35733 732.482 7.984 733.997 7.984C735.149 7.984 736.247 8.24 737.293 8.752C738.338 9.24267 739.17 9.904 739.789 10.736V2.32H744.333V26H739.789V23.376C739.234 24.2507 738.455 24.9547 737.453 25.488C736.45 26.0213 735.287 26.288 733.965 26.288C732.471 26.288 731.106 25.904 729.869 25.136C728.631 24.368 727.65 23.2907 726.924 21.904C726.22 20.496 725.868 18.8853 725.868 17.072ZM739.821 17.136C739.821 16.048 739.607 15.12 739.181 14.352C738.754 13.5627 738.178 12.9653 737.453 12.56C736.727 12.1333 735.949 11.92 735.117 11.92C734.285 11.92 733.517 12.1227 732.812 12.528C732.109 12.9333 731.533 13.5307 731.085 14.32C730.658 15.088 730.445 16.0053 730.445 17.072C730.445 18.1387 730.658 19.0773 731.085 19.888C731.533 20.6773 732.109 21.2853 732.812 21.712C733.538 22.1387 734.306 22.352 735.117 22.352C735.949 22.352 736.727 22.1493 737.453 21.744C738.178 21.3173 738.754 20.72 739.181 19.952C739.607 19.1627 739.821 18.224 739.821 17.136ZM750.692 26.224C749.881 26.224 749.209 25.9787 748.676 25.488C748.164 24.976 747.908 24.3467 747.908 23.6C747.908 22.8533 748.164 22.2347 748.676 21.744C749.209 21.232 749.881 20.976 750.692 20.976C751.481 20.976 752.132 21.232 752.644 21.744C753.156 22.2347 753.412 22.8533 753.412 23.6C753.412 24.3467 753.156 24.976 752.644 25.488C752.132 25.9787 751.481 26.224 750.692 26.224Z" fill="url(#paint0_linear_2093_11839)"/>
<defs>
<linearGradient id="paint0_linear_2093_11839" x1="113" y1="26.1379" x2="829.042" y2="19.6507" gradientUnits="userSpaceOnUse">
<stop stop-color="#D868E5"/>
<stop offset="1" stop-color="#15DCD2"/>
</linearGradient>
</defs>
</svg>
