<svg width="530" height="160" viewBox="0 0 530 160" fill="none" xmlns="http://www.w3.org/2000/svg">
<g clip-path="url(#clip0_2093_11843)">
<path d="M80.1962 160C84.9291 147.26 89.9386 121.016 72.8916 116.297C72.7765 116.265 72.8008 116.075 72.9203 116.075C117.058 116.136 135.109 120.399 127.073 73.5569C127.058 73.4697 127.158 73.4013 127.231 73.4513C158.67 94.9716 186.21 83.3842 192.546 34.0939C192.56 33.9892 192.71 33.9743 192.746 34.0737C208.831 78.9738 254.045 72.0588 267.035 29.3693C267.065 29.271 267.21 29.2748 267.233 29.3749C277.434 73.3386 305.391 91.751 339.941 37.4629C339.995 37.3785 340.132 37.4163 340.132 37.5164C340.313 91.0466 381.659 99.2402 405.455 70.8883C405.521 70.8096 405.652 70.8675 405.635 70.9687C399.875 103.811 402.781 131.883 457.806 115.355C457.884 115.332 457.963 115.405 457.936 115.482C452.017 132.525 445.11 149.657 442.388 156.113" stroke="#121212" stroke-width="12" stroke-linecap="round"/>
</g>
<defs>
<clipPath id="clip0_2093_11843">
<rect width="530" height="160" fill="white"/>
</clipPath>
</defs>
</svg>
