<svg width="356" height="48" viewBox="0 0 356 48" fill="none" xmlns="http://www.w3.org/2000/svg">
<path d="M130.237 2.04V11.84C130.237 13.2 129.843 14.26 129.057 15.02C128.27 15.7667 127.217 16.14 125.897 16.14C124.563 16.14 123.483 15.7533 122.657 14.98C121.843 14.2067 121.437 13.1267 121.437 11.74H124.237C124.25 12.34 124.39 12.8067 124.657 13.14C124.937 13.4733 125.337 13.64 125.857 13.64C126.363 13.64 126.75 13.48 127.017 13.16C127.283 12.84 127.417 12.4 127.417 11.84V2.04H130.237ZM138.423 16.18C137.356 16.18 136.396 15.9467 135.543 15.48C134.69 15 134.016 14.3267 133.523 13.46C133.043 12.5933 132.803 11.5933 132.803 10.46C132.803 9.32667 133.05 8.32667 133.543 7.46C134.05 6.59333 134.736 5.92667 135.603 5.46C136.47 4.98 137.436 4.74 138.503 4.74C139.57 4.74 140.536 4.98 141.403 5.46C142.27 5.92667 142.95 6.59333 143.443 7.46C143.95 8.32667 144.203 9.32667 144.203 10.46C144.203 11.5933 143.943 12.5933 143.423 13.46C142.916 14.3267 142.223 15 141.343 15.48C140.476 15.9467 139.503 16.18 138.423 16.18ZM138.423 13.74C138.93 13.74 139.403 13.62 139.843 13.38C140.296 13.1267 140.656 12.7533 140.923 12.26C141.19 11.7667 141.323 11.1667 141.323 10.46C141.323 9.40667 141.043 8.6 140.483 8.04C139.936 7.46667 139.263 7.18 138.463 7.18C137.663 7.18 136.99 7.46667 136.443 8.04C135.91 8.6 135.643 9.40667 135.643 10.46C135.643 11.5133 135.903 12.3267 136.423 12.9C136.956 13.46 137.623 13.74 138.423 13.74ZM147.677 3.6C147.184 3.6 146.77 3.44667 146.437 3.14C146.117 2.82 145.957 2.42667 145.957 1.96C145.957 1.49333 146.117 1.10667 146.437 0.799999C146.77 0.479999 147.184 0.319999 147.677 0.319999C148.17 0.319999 148.577 0.479999 148.897 0.799999C149.23 1.10667 149.397 1.49333 149.397 1.96C149.397 2.42667 149.23 2.82 148.897 3.14C148.577 3.44667 148.17 3.6 147.677 3.6ZM149.057 4.92V16H146.257V4.92H149.057ZM157.963 4.76C159.283 4.76 160.35 5.18 161.163 6.02C161.977 6.84667 162.383 8.00667 162.383 9.5V16H159.583V9.88C159.583 9 159.363 8.32667 158.923 7.86C158.483 7.38 157.883 7.14 157.123 7.14C156.35 7.14 155.737 7.38 155.283 7.86C154.843 8.32667 154.623 9 154.623 9.88V16H151.823V4.92H154.623V6.3C154.997 5.82 155.47 5.44667 156.043 5.18C156.63 4.9 157.27 4.76 157.963 4.76ZM179.312 2.04V4.3H175.592V16H172.792V4.3H169.072V2.04H179.312ZM186.275 16.18C185.208 16.18 184.248 15.9467 183.395 15.48C182.541 15 181.868 14.3267 181.375 13.46C180.895 12.5933 180.655 11.5933 180.655 10.46C180.655 9.32667 180.901 8.32667 181.395 7.46C181.901 6.59333 182.588 5.92667 183.455 5.46C184.321 4.98 185.288 4.74 186.355 4.74C187.421 4.74 188.388 4.98 189.255 5.46C190.121 5.92667 190.801 6.59333 191.295 7.46C191.801 8.32667 192.055 9.32667 192.055 10.46C192.055 11.5933 191.795 12.5933 191.275 13.46C190.768 14.3267 190.075 15 189.195 15.48C188.328 15.9467 187.355 16.18 186.275 16.18ZM186.275 13.74C186.781 13.74 187.255 13.62 187.695 13.38C188.148 13.1267 188.508 12.7533 188.775 12.26C189.041 11.7667 189.175 11.1667 189.175 10.46C189.175 9.40667 188.895 8.6 188.335 8.04C187.788 7.46667 187.115 7.18 186.315 7.18C185.515 7.18 184.841 7.46667 184.295 8.04C183.761 8.6 183.495 9.40667 183.495 10.46C183.495 11.5133 183.755 12.3267 184.275 12.9C184.808 13.46 185.475 13.74 186.275 13.74ZM207.869 4.76C209.229 4.76 210.322 5.18 211.149 6.02C211.989 6.84667 212.409 8.00667 212.409 9.5V16H209.609V9.88C209.609 9.01333 209.389 8.35333 208.949 7.9C208.509 7.43333 207.909 7.2 207.149 7.2C206.389 7.2 205.782 7.43333 205.329 7.9C204.889 8.35333 204.669 9.01333 204.669 9.88V16H201.869V9.88C201.869 9.01333 201.649 8.35333 201.209 7.9C200.769 7.43333 200.169 7.2 199.409 7.2C198.635 7.2 198.022 7.43333 197.569 7.9C197.129 8.35333 196.909 9.01333 196.909 9.88V16H194.109V4.92H196.909V6.26C197.269 5.79333 197.729 5.42667 198.289 5.16C198.862 4.89333 199.489 4.76 200.169 4.76C201.035 4.76 201.809 4.94667 202.489 5.32C203.169 5.68 203.695 6.2 204.069 6.88C204.429 6.24 204.949 5.72667 205.629 5.34C206.322 4.95333 207.069 4.76 207.869 4.76ZM219.986 16.18C218.919 16.18 217.959 15.9467 217.106 15.48C216.252 15 215.579 14.3267 215.086 13.46C214.606 12.5933 214.366 11.5933 214.366 10.46C214.366 9.32667 214.612 8.32667 215.106 7.46C215.612 6.59333 216.299 5.92667 217.166 5.46C218.032 4.98 218.999 4.74 220.066 4.74C221.132 4.74 222.099 4.98 222.966 5.46C223.832 5.92667 224.512 6.59333 225.006 7.46C225.512 8.32667 225.766 9.32667 225.766 10.46C225.766 11.5933 225.506 12.5933 224.986 13.46C224.479 14.3267 223.786 15 222.906 15.48C222.039 15.9467 221.066 16.18 219.986 16.18ZM219.986 13.74C220.492 13.74 220.966 13.62 221.406 13.38C221.859 13.1267 222.219 12.7533 222.486 12.26C222.752 11.7667 222.886 11.1667 222.886 10.46C222.886 9.40667 222.606 8.6 222.046 8.04C221.499 7.46667 220.826 7.18 220.026 7.18C219.226 7.18 218.552 7.46667 218.006 8.04C217.472 8.6 217.206 9.40667 217.206 10.46C217.206 11.5133 217.466 12.3267 217.986 12.9C218.519 13.46 219.186 13.74 219.986 13.74ZM230.879 13.06L228.539 18.68H226.739L228.039 13.06H230.879ZM16.8904 30.92L13.6504 42H10.6304L8.61039 34.26L6.59039 42H3.55039L0.290391 30.92H3.13039L5.09039 39.36L7.21039 30.92H10.1704L12.2504 39.34L14.2104 30.92H16.8904ZM24.6454 30.76C25.4854 30.76 26.2321 30.9467 26.8854 31.32C27.5387 31.68 28.0454 32.22 28.4054 32.94C28.7787 33.6467 28.9654 34.5 28.9654 35.5V42H26.1654V35.88C26.1654 35 25.9454 34.3267 25.5054 33.86C25.0654 33.38 24.4654 33.14 23.7054 33.14C22.9321 33.14 22.3187 33.38 21.8654 33.86C21.4254 34.3267 21.2054 35 21.2054 35.88V42H18.4054V27.2H21.2054V32.3C21.5654 31.82 22.0454 31.4467 22.6454 31.18C23.2454 30.9 23.9121 30.76 24.6454 30.76ZM41.928 36.22C41.928 36.62 41.9014 36.98 41.848 37.3H33.748C33.8147 38.1 34.0947 38.7267 34.588 39.18C35.0814 39.6333 35.688 39.86 36.408 39.86C37.448 39.86 38.188 39.4133 38.628 38.52H41.648C41.328 39.5867 40.7147 40.4667 39.808 41.16C38.9014 41.84 37.788 42.18 36.468 42.18C35.4014 42.18 34.4414 41.9467 33.588 41.48C32.748 41 32.088 40.3267 31.608 39.46C31.1414 38.5933 30.908 37.5933 30.908 36.46C30.908 35.3133 31.1414 34.3067 31.608 33.44C32.0747 32.5733 32.728 31.9067 33.568 31.44C34.408 30.9733 35.3747 30.74 36.468 30.74C37.5214 30.74 38.4614 30.9667 39.288 31.42C40.128 31.8733 40.7747 32.52 41.228 33.36C41.6947 34.1867 41.928 35.14 41.928 36.22ZM39.028 35.42C39.0147 34.7 38.7547 34.1267 38.248 33.7C37.7414 33.26 37.1214 33.04 36.388 33.04C35.6947 33.04 35.108 33.2533 34.628 33.68C34.1614 34.0933 33.8747 34.6733 33.768 35.42H39.028ZM46.7718 32.64C47.1318 32.0533 47.5985 31.5933 48.1718 31.26C48.7585 30.9267 49.4251 30.76 50.1718 30.76V33.7H49.4318C48.5518 33.7 47.8851 33.9067 47.4318 34.32C46.9918 34.7333 46.7718 35.4533 46.7718 36.48V42H43.9718V30.92H46.7718V32.64ZM62.3577 36.22C62.3577 36.62 62.3311 36.98 62.2777 37.3H54.1777C54.2444 38.1 54.5244 38.7267 55.0177 39.18C55.5111 39.6333 56.1177 39.86 56.8377 39.86C57.8777 39.86 58.6177 39.4133 59.0577 38.52H62.0777C61.7577 39.5867 61.1444 40.4667 60.2377 41.16C59.3311 41.84 58.2177 42.18 56.8977 42.18C55.8311 42.18 54.8711 41.9467 54.0177 41.48C53.1777 41 52.5177 40.3267 52.0377 39.46C51.5711 38.5933 51.3377 37.5933 51.3377 36.46C51.3377 35.3133 51.5711 34.3067 52.0377 33.44C52.5044 32.5733 53.1577 31.9067 53.9977 31.44C54.8377 30.9733 55.8044 30.74 56.8977 30.74C57.9511 30.74 58.8911 30.9667 59.7177 31.42C60.5577 31.8733 61.2044 32.52 61.6577 33.36C62.1244 34.1867 62.3577 35.14 62.3577 36.22ZM59.4577 35.42C59.4444 34.7 59.1844 34.1267 58.6777 33.7C58.1711 33.26 57.5511 33.04 56.8177 33.04C56.1244 33.04 55.5377 33.2533 55.0577 33.68C54.5911 34.0933 54.3044 34.6733 54.1977 35.42H59.4577ZM79.7671 30.92L72.9071 47.24H69.9271L72.3271 41.72L67.8871 30.92H71.0271L73.8871 38.66L76.7871 30.92H79.7671ZM86.1965 42.18C85.1298 42.18 84.1698 41.9467 83.3165 41.48C82.4632 41 81.7898 40.3267 81.2965 39.46C80.8165 38.5933 80.5765 37.5933 80.5765 36.46C80.5765 35.3267 80.8232 34.3267 81.3165 33.46C81.8232 32.5933 82.5098 31.9267 83.3765 31.46C84.2432 30.98 85.2098 30.74 86.2765 30.74C87.3432 30.74 88.3098 30.98 89.1765 31.46C90.0432 31.9267 90.7232 32.5933 91.2165 33.46C91.7232 34.3267 91.9765 35.3267 91.9765 36.46C91.9765 37.5933 91.7165 38.5933 91.1965 39.46C90.6898 40.3267 89.9965 41 89.1165 41.48C88.2498 41.9467 87.2765 42.18 86.1965 42.18ZM86.1965 39.74C86.7032 39.74 87.1765 39.62 87.6165 39.38C88.0698 39.1267 88.4298 38.7533 88.6965 38.26C88.9632 37.7667 89.0965 37.1667 89.0965 36.46C89.0965 35.4067 88.8165 34.6 88.2565 34.04C87.7098 33.4667 87.0365 33.18 86.2365 33.18C85.4365 33.18 84.7632 33.4667 84.2165 34.04C83.6832 34.6 83.4165 35.4067 83.4165 36.46C83.4165 37.5133 83.6765 38.3267 84.1965 38.9C84.7298 39.46 85.3965 39.74 86.1965 39.74ZM104.49 30.92V42H101.67V40.6C101.31 41.08 100.837 41.46 100.25 41.74C99.6771 42.0067 99.0504 42.14 98.3704 42.14C97.5037 42.14 96.7371 41.96 96.0704 41.6C95.4037 41.2267 94.8771 40.6867 94.4904 39.98C94.1171 39.26 93.9304 38.4067 93.9304 37.42V30.92H96.7304V37.02C96.7304 37.9 96.9504 38.58 97.3904 39.06C97.8304 39.5267 98.4304 39.76 99.1904 39.76C99.9637 39.76 100.57 39.5267 101.01 39.06C101.45 38.58 101.67 37.9 101.67 37.02V30.92H104.49ZM110.053 32.64C110.413 32.0533 110.88 31.5933 111.453 31.26C112.04 30.9267 112.706 30.76 113.453 30.76V33.7H112.713C111.833 33.7 111.166 33.9067 110.713 34.32C110.273 34.7333 110.053 35.4533 110.053 36.48V42H107.253V30.92H110.053V32.64ZM124.345 42.18C123.438 42.18 122.625 42.02 121.905 41.7C121.185 41.3667 120.611 40.92 120.185 40.36C119.771 39.8 119.545 39.18 119.505 38.5H122.325C122.378 38.9267 122.585 39.28 122.945 39.56C123.318 39.84 123.778 39.98 124.325 39.98C124.858 39.98 125.271 39.8733 125.565 39.66C125.871 39.4467 126.025 39.1733 126.025 38.84C126.025 38.48 125.838 38.2133 125.465 38.04C125.105 37.8533 124.525 37.6533 123.725 37.44C122.898 37.24 122.218 37.0333 121.685 36.82C121.165 36.6067 120.711 36.28 120.325 35.84C119.951 35.4 119.765 34.8067 119.765 34.06C119.765 33.4467 119.938 32.8867 120.285 32.38C120.645 31.8733 121.151 31.4733 121.805 31.18C122.471 30.8867 123.251 30.74 124.145 30.74C125.465 30.74 126.518 31.0733 127.305 31.74C128.091 32.3933 128.525 33.28 128.605 34.4H125.925C125.885 33.96 125.698 33.6133 125.365 33.36C125.045 33.0933 124.611 32.96 124.065 32.96C123.558 32.96 123.165 33.0533 122.885 33.24C122.618 33.4267 122.485 33.6867 122.485 34.02C122.485 34.3933 122.671 34.68 123.045 34.88C123.418 35.0667 123.998 35.26 124.785 35.46C125.585 35.66 126.245 35.8667 126.765 36.08C127.285 36.2933 127.731 36.6267 128.105 37.08C128.491 37.52 128.691 38.1067 128.705 38.84C128.705 39.48 128.525 40.0533 128.165 40.56C127.818 41.0667 127.311 41.4667 126.645 41.76C125.991 42.04 125.225 42.18 124.345 42.18ZM135.923 42.18C134.856 42.18 133.896 41.9467 133.043 41.48C132.19 41 131.516 40.3267 131.023 39.46C130.543 38.5933 130.303 37.5933 130.303 36.46C130.303 35.3267 130.55 34.3267 131.043 33.46C131.55 32.5933 132.236 31.9267 133.103 31.46C133.97 30.98 134.936 30.74 136.003 30.74C137.07 30.74 138.036 30.98 138.903 31.46C139.77 31.9267 140.45 32.5933 140.943 33.46C141.45 34.3267 141.703 35.3267 141.703 36.46C141.703 37.5933 141.443 38.5933 140.923 39.46C140.416 40.3267 139.723 41 138.843 41.48C137.976 41.9467 137.003 42.18 135.923 42.18ZM135.923 39.74C136.43 39.74 136.903 39.62 137.343 39.38C137.796 39.1267 138.156 38.7533 138.423 38.26C138.69 37.7667 138.823 37.1667 138.823 36.46C138.823 35.4067 138.543 34.6 137.983 34.04C137.436 33.4667 136.763 33.18 135.963 33.18C135.163 33.18 134.49 33.4667 133.943 34.04C133.41 34.6 133.143 35.4067 133.143 36.46C133.143 37.5133 133.403 38.3267 133.923 38.9C134.456 39.46 135.123 39.74 135.923 39.74ZM143.037 36.46C143.037 35.3133 143.27 34.3133 143.737 33.46C144.204 32.5933 144.85 31.9267 145.677 31.46C146.504 30.98 147.45 30.74 148.517 30.74C149.89 30.74 151.024 31.0867 151.917 31.78C152.824 32.46 153.43 33.42 153.737 34.66H150.717C150.557 34.18 150.284 33.8067 149.897 33.54C149.524 33.26 149.057 33.12 148.497 33.12C147.697 33.12 147.064 33.4133 146.597 34C146.13 34.5733 145.897 35.3933 145.897 36.46C145.897 37.5133 146.13 38.3333 146.597 38.92C147.064 39.4933 147.697 39.78 148.497 39.78C149.63 39.78 150.37 39.2733 150.717 38.26H153.737C153.43 39.46 152.824 40.4133 151.917 41.12C151.01 41.8267 149.877 42.18 148.517 42.18C147.45 42.18 146.504 41.9467 145.677 41.48C144.85 41 144.204 40.3333 143.737 39.48C143.27 38.6133 143.037 37.6067 143.037 36.46ZM157.208 29.6C156.715 29.6 156.302 29.4467 155.968 29.14C155.648 28.82 155.488 28.4267 155.488 27.96C155.488 27.4933 155.648 27.1067 155.968 26.8C156.302 26.48 156.715 26.32 157.208 26.32C157.702 26.32 158.108 26.48 158.428 26.8C158.762 27.1067 158.928 27.4933 158.928 27.96C158.928 28.4267 158.762 28.82 158.428 29.14C158.108 29.4467 157.702 29.6 157.208 29.6ZM158.588 30.92V42H155.788V30.92H158.588ZM160.635 36.42C160.635 35.3 160.855 34.3067 161.295 33.44C161.748 32.5733 162.355 31.9067 163.115 31.44C163.888 30.9733 164.748 30.74 165.695 30.74C166.521 30.74 167.241 30.9067 167.855 31.24C168.481 31.5733 168.981 31.9933 169.355 32.5V30.92H172.175V42H169.355V40.38C168.995 40.9 168.495 41.3333 167.855 41.68C167.228 42.0133 166.501 42.18 165.675 42.18C164.741 42.18 163.888 41.94 163.115 41.46C162.355 40.98 161.748 40.3067 161.295 39.44C160.855 38.56 160.635 37.5533 160.635 36.42ZM169.355 36.46C169.355 35.78 169.221 35.2 168.955 34.72C168.688 34.2267 168.328 33.8533 167.875 33.6C167.421 33.3333 166.935 33.2 166.415 33.2C165.895 33.2 165.415 33.3267 164.975 33.58C164.535 33.8333 164.175 34.2067 163.895 34.7C163.628 35.18 163.495 35.7533 163.495 36.42C163.495 37.0867 163.628 37.6733 163.895 38.18C164.175 38.6733 164.535 39.0533 164.975 39.32C165.428 39.5867 165.908 39.72 166.415 39.72C166.935 39.72 167.421 39.5933 167.875 39.34C168.328 39.0733 168.688 38.7 168.955 38.22C169.221 37.7267 169.355 37.14 169.355 36.46ZM177.709 27.2V42H174.909V27.2H177.709ZM184.521 36.46C184.521 35.3133 184.755 34.3133 185.221 33.46C185.688 32.5933 186.335 31.9267 187.161 31.46C187.988 30.98 188.935 30.74 190.001 30.74C191.375 30.74 192.508 31.0867 193.401 31.78C194.308 32.46 194.915 33.42 195.221 34.66H192.201C192.041 34.18 191.768 33.8067 191.381 33.54C191.008 33.26 190.541 33.12 189.981 33.12C189.181 33.12 188.548 33.4133 188.081 34C187.615 34.5733 187.381 35.3933 187.381 36.46C187.381 37.5133 187.615 38.3333 188.081 38.92C188.548 39.4933 189.181 39.78 189.981 39.78C191.115 39.78 191.855 39.2733 192.201 38.26H195.221C194.915 39.46 194.308 40.4133 193.401 41.12C192.495 41.8267 191.361 42.18 190.001 42.18C188.935 42.18 187.988 41.9467 187.161 41.48C186.335 41 185.688 40.3333 185.221 39.48C184.755 38.6133 184.521 37.6067 184.521 36.46ZM196.553 36.42C196.553 35.3 196.773 34.3067 197.213 33.44C197.666 32.5733 198.273 31.9067 199.033 31.44C199.806 30.9733 200.666 30.74 201.613 30.74C202.439 30.74 203.159 30.9067 203.773 31.24C204.399 31.5733 204.899 31.9933 205.273 32.5V30.92H208.093V42H205.273V40.38C204.913 40.9 204.413 41.3333 203.773 41.68C203.146 42.0133 202.419 42.18 201.593 42.18C200.659 42.18 199.806 41.94 199.033 41.46C198.273 40.98 197.666 40.3067 197.213 39.44C196.773 38.56 196.553 37.5533 196.553 36.42ZM205.273 36.46C205.273 35.78 205.139 35.2 204.873 34.72C204.606 34.2267 204.246 33.8533 203.793 33.6C203.339 33.3333 202.853 33.2 202.333 33.2C201.813 33.2 201.333 33.3267 200.893 33.58C200.453 33.8333 200.093 34.2067 199.813 34.7C199.546 35.18 199.413 35.7533 199.413 36.42C199.413 37.0867 199.546 37.6733 199.813 38.18C200.093 38.6733 200.453 39.0533 200.893 39.32C201.346 39.5867 201.826 39.72 202.333 39.72C202.853 39.72 203.339 39.5933 203.793 39.34C204.246 39.0733 204.606 38.7 204.873 38.22C205.139 37.7267 205.273 37.14 205.273 36.46ZM213.627 32.52C213.987 32.0133 214.481 31.5933 215.107 31.26C215.747 30.9133 216.474 30.74 217.287 30.74C218.234 30.74 219.087 30.9733 219.847 31.44C220.621 31.9067 221.227 32.5733 221.667 33.44C222.121 34.2933 222.347 35.2867 222.347 36.42C222.347 37.5533 222.121 38.56 221.667 39.44C221.227 40.3067 220.621 40.98 219.847 41.46C219.087 41.94 218.234 42.18 217.287 42.18C216.474 42.18 215.754 42.0133 215.127 41.68C214.514 41.3467 214.014 40.9267 213.627 40.42V47.28H210.827V30.92H213.627V32.52ZM219.487 36.42C219.487 35.7533 219.347 35.18 219.067 34.7C218.801 34.2067 218.441 33.8333 217.987 33.58C217.547 33.3267 217.067 33.2 216.547 33.2C216.041 33.2 215.561 33.3333 215.107 33.6C214.667 33.8533 214.307 34.2267 214.027 34.72C213.761 35.2133 213.627 35.7933 213.627 36.46C213.627 37.1267 213.761 37.7067 214.027 38.2C214.307 38.6933 214.667 39.0733 215.107 39.34C215.561 39.5933 216.041 39.72 216.547 39.72C217.067 39.72 217.547 39.5867 217.987 39.32C218.441 39.0533 218.801 38.6733 219.067 38.18C219.347 37.6867 219.487 37.1 219.487 36.42ZM225.802 29.6C225.309 29.6 224.895 29.4467 224.562 29.14C224.242 28.82 224.082 28.4267 224.082 27.96C224.082 27.4933 224.242 27.1067 224.562 26.8C224.895 26.48 225.309 26.32 225.802 26.32C226.295 26.32 226.702 26.48 227.022 26.8C227.355 27.1067 227.522 27.4933 227.522 27.96C227.522 28.4267 227.355 28.82 227.022 29.14C226.702 29.4467 226.295 29.6 225.802 29.6ZM227.182 30.92V42H224.382V30.92H227.182ZM233.208 33.22V38.58C233.208 38.9533 233.295 39.2267 233.468 39.4C233.655 39.56 233.962 39.64 234.388 39.64H235.688V42H233.928C231.568 42 230.388 40.8533 230.388 38.56V33.22H229.068V30.92H230.388V28.18H233.208V30.92H235.688V33.22H233.208ZM236.982 36.42C236.982 35.3 237.202 34.3067 237.642 33.44C238.096 32.5733 238.702 31.9067 239.462 31.44C240.236 30.9733 241.096 30.74 242.042 30.74C242.869 30.74 243.589 30.9067 244.202 31.24C244.829 31.5733 245.329 31.9933 245.702 32.5V30.92H248.522V42H245.702V40.38C245.342 40.9 244.842 41.3333 244.202 41.68C243.576 42.0133 242.849 42.18 242.022 42.18C241.089 42.18 240.236 41.94 239.462 41.46C238.702 40.98 238.096 40.3067 237.642 39.44C237.202 38.56 236.982 37.5533 236.982 36.42ZM245.702 36.46C245.702 35.78 245.569 35.2 245.302 34.72C245.036 34.2267 244.676 33.8533 244.222 33.6C243.769 33.3333 243.282 33.2 242.762 33.2C242.242 33.2 241.762 33.3267 241.322 33.58C240.882 33.8333 240.522 34.2067 240.242 34.7C239.976 35.18 239.842 35.7533 239.842 36.42C239.842 37.0867 239.976 37.6733 240.242 38.18C240.522 38.6733 240.882 39.0533 241.322 39.32C241.776 39.5867 242.256 39.72 242.762 39.72C243.282 39.72 243.769 39.5933 244.222 39.34C244.676 39.0733 245.036 38.7 245.302 38.22C245.569 37.7267 245.702 37.14 245.702 36.46ZM254.057 27.2V42H251.257V27.2H254.057ZM263.009 29.6C262.516 29.6 262.102 29.4467 261.769 29.14C261.449 28.82 261.289 28.4267 261.289 27.96C261.289 27.4933 261.449 27.1067 261.769 26.8C262.102 26.48 262.516 26.32 263.009 26.32C263.502 26.32 263.909 26.48 264.229 26.8C264.562 27.1067 264.729 27.4933 264.729 27.96C264.729 28.4267 264.562 28.82 264.229 29.14C263.909 29.4467 263.502 29.6 263.009 29.6ZM264.389 30.92V42H261.589V30.92H264.389ZM271.395 42.18C270.489 42.18 269.675 42.02 268.955 41.7C268.235 41.3667 267.662 40.92 267.235 40.36C266.822 39.8 266.595 39.18 266.555 38.5H269.375C269.429 38.9267 269.635 39.28 269.995 39.56C270.369 39.84 270.829 39.98 271.375 39.98C271.909 39.98 272.322 39.8733 272.615 39.66C272.922 39.4467 273.075 39.1733 273.075 38.84C273.075 38.48 272.889 38.2133 272.515 38.04C272.155 37.8533 271.575 37.6533 270.775 37.44C269.949 37.24 269.269 37.0333 268.735 36.82C268.215 36.6067 267.762 36.28 267.375 35.84C267.002 35.4 266.815 34.8067 266.815 34.06C266.815 33.4467 266.989 32.8867 267.335 32.38C267.695 31.8733 268.202 31.4733 268.855 31.18C269.522 30.8867 270.302 30.74 271.195 30.74C272.515 30.74 273.569 31.0733 274.355 31.74C275.142 32.3933 275.575 33.28 275.655 34.4H272.975C272.935 33.96 272.749 33.6133 272.415 33.36C272.095 33.0933 271.662 32.96 271.115 32.96C270.609 32.96 270.215 33.0533 269.935 33.24C269.669 33.4267 269.535 33.6867 269.535 34.02C269.535 34.3933 269.722 34.68 270.095 34.88C270.469 35.0667 271.049 35.26 271.835 35.46C272.635 35.66 273.295 35.8667 273.815 36.08C274.335 36.2933 274.782 36.6267 275.155 37.08C275.542 37.52 275.742 38.1067 275.755 38.84C275.755 39.48 275.575 40.0533 275.215 40.56C274.869 41.0667 274.362 41.4667 273.695 41.76C273.042 42.04 272.275 42.18 271.395 42.18ZM287.439 39.42L290.239 30.92H293.219L289.119 42H285.719L281.639 30.92H284.639L287.439 39.42ZM294.072 36.42C294.072 35.3 294.292 34.3067 294.732 33.44C295.185 32.5733 295.792 31.9067 296.552 31.44C297.325 30.9733 298.185 30.74 299.132 30.74C299.959 30.74 300.679 30.9067 301.292 31.24C301.919 31.5733 302.419 31.9933 302.792 32.5V30.92H305.612V42H302.792V40.38C302.432 40.9 301.932 41.3333 301.292 41.68C300.665 42.0133 299.939 42.18 299.112 42.18C298.179 42.18 297.325 41.94 296.552 41.46C295.792 40.98 295.185 40.3067 294.732 39.44C294.292 38.56 294.072 37.5533 294.072 36.42ZM302.792 36.46C302.792 35.78 302.659 35.2 302.392 34.72C302.125 34.2267 301.765 33.8533 301.312 33.6C300.859 33.3333 300.372 33.2 299.852 33.2C299.332 33.2 298.852 33.3267 298.412 33.58C297.972 33.8333 297.612 34.2067 297.332 34.7C297.065 35.18 296.932 35.7533 296.932 36.42C296.932 37.0867 297.065 37.6733 297.332 38.18C297.612 38.6733 297.972 39.0533 298.412 39.32C298.865 39.5867 299.345 39.72 299.852 39.72C300.372 39.72 300.859 39.5933 301.312 39.34C301.765 39.0733 302.125 38.7 302.392 38.22C302.659 37.7267 302.792 37.14 302.792 36.46ZM311.147 27.2V42H308.347V27.2H311.147ZM324.373 30.92V42H321.553V40.6C321.193 41.08 320.72 41.46 320.133 41.74C319.56 42.0067 318.933 42.14 318.253 42.14C317.387 42.14 316.62 41.96 315.953 41.6C315.287 41.2267 314.76 40.6867 314.373 39.98C314 39.26 313.813 38.4067 313.813 37.42V30.92H316.613V37.02C316.613 37.9 316.833 38.58 317.273 39.06C317.713 39.5267 318.313 39.76 319.073 39.76C319.847 39.76 320.453 39.5267 320.893 39.06C321.333 38.58 321.553 37.9 321.553 37.02V30.92H324.373ZM337.436 36.22C337.436 36.62 337.409 36.98 337.356 37.3H329.256C329.323 38.1 329.603 38.7267 330.096 39.18C330.589 39.6333 331.196 39.86 331.916 39.86C332.956 39.86 333.696 39.4133 334.136 38.52H337.156C336.836 39.5867 336.223 40.4667 335.316 41.16C334.409 41.84 333.296 42.18 331.976 42.18C330.909 42.18 329.949 41.9467 329.096 41.48C328.256 41 327.596 40.3267 327.116 39.46C326.649 38.5933 326.416 37.5933 326.416 36.46C326.416 35.3133 326.649 34.3067 327.116 33.44C327.583 32.5733 328.236 31.9067 329.076 31.44C329.916 30.9733 330.883 30.74 331.976 30.74C333.029 30.74 333.969 30.9667 334.796 31.42C335.636 31.8733 336.283 32.52 336.736 33.36C337.203 34.1867 337.436 35.14 337.436 36.22ZM334.536 35.42C334.523 34.7 334.263 34.1267 333.756 33.7C333.249 33.26 332.629 33.04 331.896 33.04C331.203 33.04 330.616 33.2533 330.136 33.68C329.669 34.0933 329.383 34.6733 329.276 35.42H334.536ZM338.76 36.42C338.76 35.3 338.98 34.3067 339.42 33.44C339.873 32.5733 340.486 31.9067 341.26 31.44C342.033 30.9733 342.893 30.74 343.84 30.74C344.56 30.74 345.246 30.9 345.9 31.22C346.553 31.5267 347.073 31.94 347.46 32.46V27.2H350.3V42H347.46V40.36C347.113 40.9067 346.626 41.3467 346 41.68C345.373 42.0133 344.646 42.18 343.82 42.18C342.886 42.18 342.033 41.94 341.26 41.46C340.486 40.98 339.873 40.3067 339.42 39.44C338.98 38.56 338.76 37.5533 338.76 36.42ZM347.48 36.46C347.48 35.78 347.346 35.2 347.08 34.72C346.813 34.2267 346.453 33.8533 346 33.6C345.546 33.3333 345.06 33.2 344.54 33.2C344.02 33.2 343.54 33.3267 343.1 33.58C342.66 33.8333 342.3 34.2067 342.02 34.7C341.753 35.18 341.62 35.7533 341.62 36.42C341.62 37.0867 341.753 37.6733 342.02 38.18C342.3 38.6733 342.66 39.0533 343.1 39.32C343.553 39.5867 344.033 39.72 344.54 39.72C345.06 39.72 345.546 39.5933 346 39.34C346.453 39.0733 346.813 38.7 347.08 38.22C347.346 37.7267 347.48 37.14 347.48 36.46ZM354.274 42.14C353.768 42.14 353.348 41.9867 353.014 41.68C352.694 41.36 352.534 40.9667 352.534 40.5C352.534 40.0333 352.694 39.6467 353.014 39.34C353.348 39.02 353.768 38.86 354.274 38.86C354.768 38.86 355.174 39.02 355.494 39.34C355.814 39.6467 355.974 40.0333 355.974 40.5C355.974 40.9667 355.814 41.36 355.494 41.68C355.174 41.9867 354.768 42.14 354.274 42.14Z" fill="url(#paint0_linear_2093_12507)"/>
<defs>
<linearGradient id="paint0_linear_2093_12507" x1="74.2434" y1="37.2414" x2="357.038" y2="36.502" gradientUnits="userSpaceOnUse">
<stop stop-color="#D868E5"/>
<stop offset="1" stop-color="#15DCD2"/>
</linearGradient>
</defs>
</svg>
