<svg width="172" height="44" viewBox="0 0 172 44" fill="none" xmlns="http://www.w3.org/2000/svg">
<rect width="172" height="44" rx="6.28571" fill="white"/>
<path d="M14.3524 28.9994C14.3524 29.7274 14.8564 30.1474 15.5004 30.1474H16.6484V34.2074C16.6484 35.1314 17.4604 35.9714 18.4124 35.9714C19.3364 35.9714 20.1764 35.1594 20.1764 34.2074V30.1754H22.5284V34.2354C22.5284 35.1594 23.3404 35.9994 24.2924 35.9994C25.2164 35.9994 26.0564 35.1874 26.0564 34.2354V30.1754H27.2044C27.9324 30.1754 28.3524 29.6714 28.3524 29.0274V17.3514H14.3524V28.9994ZM11.4124 17.3514C10.4884 17.3514 9.64844 18.1634 9.64844 19.1154V27.3194C9.64844 28.2434 10.4604 29.0834 11.4124 29.0834C12.3644 29.0834 13.1764 28.2714 13.1764 27.3194V19.1154C13.1764 18.1634 12.3644 17.3514 11.4124 17.3514ZM31.3484 17.3514C30.4244 17.3514 29.5844 18.1634 29.5844 19.1154V27.3194C29.5844 28.2434 30.3964 29.0834 31.3484 29.0834C32.2724 29.0834 33.1124 28.2714 33.1124 27.3194V19.1154C33.0844 18.1634 32.2724 17.3514 31.3484 17.3514ZM25.4404 10.5194L26.9804 8.97944C27.2044 8.75544 27.2044 8.36344 26.9804 8.16744C26.7564 7.97144 26.3644 7.94344 26.1684 8.16744L24.4044 9.93144C23.5924 9.37144 22.5284 9.14744 21.3804 9.14744C20.2324 9.14744 19.1684 9.37144 18.2444 9.87544L16.5924 8.11144C16.3684 7.99944 15.8644 7.99944 15.6684 8.11144C15.5564 8.33544 15.5564 8.83944 15.6684 9.03544L17.2084 10.5754C15.5564 11.8354 14.4084 13.8794 14.4084 16.1754H28.4364C28.4084 13.8234 27.2044 11.7514 25.4404 10.5194ZM19.0284 13.8234H17.8804V12.6754H19.0284V13.8234ZM24.9084 13.8234H23.7604V12.6754H24.9084V13.8234Z" fill="#96BC2A"/>
<path d="M41.9852 16.148H47.3132C48.2972 16.148 49.1492 16.316 49.8692 16.652C50.5892 16.988 51.1772 17.45 51.6332 18.038C52.0892 18.614 52.4252 19.292 52.6412 20.072C52.8692 20.852 52.9832 21.686 52.9832 22.574C52.9832 23.462 52.8692 24.296 52.6412 25.076C52.4252 25.856 52.0892 26.54 51.6332 27.128C51.1772 27.704 50.5892 28.16 49.8692 28.496C49.1492 28.832 48.2972 29 47.3132 29H41.9852V16.148ZM44.2352 27.164H46.4492C47.3252 27.164 48.0392 27.05 48.5912 26.822C49.1552 26.582 49.5932 26.258 49.9052 25.85C50.2292 25.43 50.4452 24.944 50.5532 24.392C50.6732 23.828 50.7332 23.222 50.7332 22.574C50.7332 21.926 50.6732 21.326 50.5532 20.774C50.4452 20.21 50.2292 19.724 49.9052 19.316C49.5932 18.896 49.1552 18.572 48.5912 18.344C48.0392 18.104 47.3252 17.984 46.4492 17.984H44.2352V27.164ZM58.7734 29.252C58.0294 29.252 57.3634 29.132 56.7754 28.892C56.1994 28.64 55.7074 28.298 55.2994 27.866C54.9034 27.434 54.5974 26.918 54.3814 26.318C54.1774 25.718 54.0754 25.058 54.0754 24.338C54.0754 23.63 54.1774 22.976 54.3814 22.376C54.5974 21.776 54.9034 21.26 55.2994 20.828C55.7074 20.396 56.1994 20.06 56.7754 19.82C57.3634 19.568 58.0294 19.442 58.7734 19.442C59.5174 19.442 60.1774 19.568 60.7534 19.82C61.3414 20.06 61.8334 20.396 62.2294 20.828C62.6374 21.26 62.9434 21.776 63.1474 22.376C63.3634 22.976 63.4714 23.63 63.4714 24.338C63.4714 25.058 63.3634 25.718 63.1474 26.318C62.9434 26.918 62.6374 27.434 62.2294 27.866C61.8334 28.298 61.3414 28.64 60.7534 28.892C60.1774 29.132 59.5174 29.252 58.7734 29.252ZM58.7734 27.632C59.2294 27.632 59.6254 27.536 59.9614 27.344C60.2974 27.152 60.5734 26.9 60.7894 26.588C61.0054 26.276 61.1614 25.928 61.2574 25.544C61.3654 25.148 61.4194 24.746 61.4194 24.338C61.4194 23.942 61.3654 23.546 61.2574 23.15C61.1614 22.754 61.0054 22.406 60.7894 22.106C60.5734 21.794 60.2974 21.542 59.9614 21.35C59.6254 21.158 59.2294 21.062 58.7734 21.062C58.3174 21.062 57.9214 21.158 57.5854 21.35C57.2494 21.542 56.9734 21.794 56.7574 22.106C56.5414 22.406 56.3794 22.754 56.2714 23.15C56.1754 23.546 56.1274 23.942 56.1274 24.338C56.1274 24.746 56.1754 25.148 56.2714 25.544C56.3794 25.928 56.5414 26.276 56.7574 26.588C56.9734 26.9 57.2494 27.152 57.5854 27.344C57.9214 27.536 58.3174 27.632 58.7734 27.632ZM64.1513 19.694H66.3293L68.1473 26.642H68.1833L69.9293 19.694H71.9993L73.6733 26.642H73.7093L75.5993 19.694H77.6873L74.7713 29H72.6653L70.9373 22.088H70.9013L69.1913 29H67.0313L64.1513 19.694ZM78.8271 19.694H80.7711V21.062L80.8071 21.098C81.1191 20.582 81.5271 20.18 82.0311 19.892C82.5351 19.592 83.0931 19.442 83.7051 19.442C84.7251 19.442 85.5291 19.706 86.1171 20.234C86.7051 20.762 86.9991 21.554 86.9991 22.61V29H84.9471V23.15C84.9231 22.418 84.7671 21.89 84.4791 21.566C84.1911 21.23 83.7411 21.062 83.1291 21.062C82.7811 21.062 82.4691 21.128 82.1931 21.26C81.9171 21.38 81.6831 21.554 81.4911 21.782C81.2991 21.998 81.1491 22.256 81.0411 22.556C80.9331 22.856 80.8791 23.174 80.8791 23.51V29H78.8271V19.694ZM89.037 16.148H91.089V29H89.037V16.148ZM97.4108 29.252C96.6668 29.252 96.0008 29.132 95.4128 28.892C94.8368 28.64 94.3448 28.298 93.9368 27.866C93.5408 27.434 93.2348 26.918 93.0188 26.318C92.8148 25.718 92.7128 25.058 92.7128 24.338C92.7128 23.63 92.8148 22.976 93.0188 22.376C93.2348 21.776 93.5408 21.26 93.9368 20.828C94.3448 20.396 94.8368 20.06 95.4128 19.82C96.0008 19.568 96.6668 19.442 97.4108 19.442C98.1548 19.442 98.8148 19.568 99.3908 19.82C99.9788 20.06 100.471 20.396 100.867 20.828C101.275 21.26 101.581 21.776 101.785 22.376C102.001 22.976 102.109 23.63 102.109 24.338C102.109 25.058 102.001 25.718 101.785 26.318C101.581 26.918 101.275 27.434 100.867 27.866C100.471 28.298 99.9788 28.64 99.3908 28.892C98.8148 29.132 98.1548 29.252 97.4108 29.252ZM97.4108 27.632C97.8668 27.632 98.2628 27.536 98.5988 27.344C98.9348 27.152 99.2108 26.9 99.4268 26.588C99.6428 26.276 99.7988 25.928 99.8948 25.544C100.003 25.148 100.057 24.746 100.057 24.338C100.057 23.942 100.003 23.546 99.8948 23.15C99.7988 22.754 99.6428 22.406 99.4268 22.106C99.2108 21.794 98.9348 21.542 98.5988 21.35C98.2628 21.158 97.8668 21.062 97.4108 21.062C96.9548 21.062 96.5588 21.158 96.2228 21.35C95.8868 21.542 95.6108 21.794 95.3948 22.106C95.1788 22.406 95.0168 22.754 94.9088 23.15C94.8128 23.546 94.7648 23.942 94.7648 24.338C94.7648 24.746 94.8128 25.148 94.9088 25.544C95.0168 25.928 95.1788 26.276 95.3948 26.588C95.6108 26.9 95.8868 27.152 96.2228 27.344C96.5588 27.536 96.9548 27.632 97.4108 27.632ZM111.429 26.93C111.429 27.182 111.459 27.362 111.519 27.47C111.591 27.578 111.723 27.632 111.915 27.632C111.975 27.632 112.047 27.632 112.131 27.632C112.215 27.632 112.311 27.62 112.419 27.596V29.018C112.347 29.042 112.251 29.066 112.131 29.09C112.023 29.126 111.909 29.156 111.789 29.18C111.669 29.204 111.549 29.222 111.429 29.234C111.309 29.246 111.207 29.252 111.123 29.252C110.703 29.252 110.355 29.168 110.079 29C109.803 28.832 109.623 28.538 109.539 28.118C109.131 28.514 108.627 28.802 108.027 28.982C107.439 29.162 106.869 29.252 106.317 29.252C105.897 29.252 105.495 29.192 105.111 29.072C104.727 28.964 104.385 28.802 104.085 28.586C103.797 28.358 103.563 28.076 103.383 27.74C103.215 27.392 103.131 26.99 103.131 26.534C103.131 25.958 103.233 25.49 103.437 25.13C103.653 24.77 103.929 24.488 104.265 24.284C104.613 24.08 104.997 23.936 105.417 23.852C105.849 23.756 106.281 23.684 106.713 23.636C107.085 23.564 107.439 23.516 107.775 23.492C108.111 23.456 108.405 23.402 108.657 23.33C108.921 23.258 109.125 23.15 109.269 23.006C109.425 22.85 109.503 22.622 109.503 22.322C109.503 22.058 109.437 21.842 109.305 21.674C109.185 21.506 109.029 21.38 108.837 21.296C108.657 21.2 108.453 21.14 108.225 21.116C107.997 21.08 107.781 21.062 107.577 21.062C107.001 21.062 106.527 21.182 106.155 21.422C105.783 21.662 105.573 22.034 105.525 22.538H103.473C103.509 21.938 103.653 21.44 103.905 21.044C104.157 20.648 104.475 20.33 104.859 20.09C105.255 19.85 105.699 19.682 106.191 19.586C106.683 19.49 107.187 19.442 107.703 19.442C108.159 19.442 108.609 19.49 109.053 19.586C109.497 19.682 109.893 19.838 110.241 20.054C110.601 20.27 110.889 20.552 111.105 20.9C111.321 21.236 111.429 21.65 111.429 22.142V26.93ZM109.377 24.338C109.065 24.542 108.681 24.668 108.225 24.716C107.769 24.752 107.313 24.812 106.857 24.896C106.641 24.932 106.431 24.986 106.227 25.058C106.023 25.118 105.843 25.208 105.687 25.328C105.531 25.436 105.405 25.586 105.309 25.778C105.225 25.958 105.183 26.18 105.183 26.444C105.183 26.672 105.249 26.864 105.381 27.02C105.513 27.176 105.669 27.302 105.849 27.398C106.041 27.482 106.245 27.542 106.461 27.578C106.689 27.614 106.893 27.632 107.073 27.632C107.301 27.632 107.547 27.602 107.811 27.542C108.075 27.482 108.321 27.38 108.549 27.236C108.789 27.092 108.987 26.912 109.143 26.696C109.299 26.468 109.377 26.192 109.377 25.868V24.338ZM122.223 29H120.279V27.74H120.243C119.967 28.28 119.565 28.67 119.037 28.91C118.509 29.138 117.951 29.252 117.363 29.252C116.631 29.252 115.989 29.126 115.437 28.874C114.897 28.61 114.447 28.256 114.087 27.812C113.727 27.368 113.457 26.846 113.277 26.246C113.097 25.634 113.007 24.98 113.007 24.284C113.007 23.444 113.121 22.718 113.349 22.106C113.577 21.494 113.877 20.99 114.249 20.594C114.633 20.198 115.065 19.91 115.545 19.73C116.037 19.538 116.535 19.442 117.039 19.442C117.327 19.442 117.621 19.472 117.921 19.532C118.221 19.58 118.509 19.664 118.785 19.784C119.061 19.904 119.313 20.06 119.541 20.252C119.781 20.432 119.979 20.648 120.135 20.9H120.171V16.148H122.223V29ZM115.059 24.446C115.059 24.842 115.107 25.232 115.203 25.616C115.311 26 115.467 26.342 115.671 26.642C115.887 26.942 116.157 27.182 116.481 27.362C116.805 27.542 117.189 27.632 117.633 27.632C118.089 27.632 118.479 27.536 118.803 27.344C119.139 27.152 119.409 26.9 119.613 26.588C119.829 26.276 119.985 25.928 120.081 25.544C120.189 25.148 120.243 24.746 120.243 24.338C120.243 23.306 120.009 22.502 119.541 21.926C119.085 21.35 118.461 21.062 117.669 21.062C117.189 21.062 116.781 21.164 116.445 21.368C116.121 21.56 115.851 21.818 115.635 22.142C115.431 22.454 115.281 22.814 115.185 23.222C115.101 23.618 115.059 24.026 115.059 24.446ZM132.836 16.148H135.23L140.18 29H137.768L136.562 25.598H131.432L130.226 29H127.904L132.836 16.148ZM132.044 23.888H135.968L134.042 18.362H133.988L132.044 23.888ZM141.224 16.148H146.894C147.806 16.148 148.55 16.28 149.126 16.544C149.702 16.808 150.146 17.138 150.458 17.534C150.77 17.93 150.98 18.362 151.088 18.83C151.208 19.298 151.268 19.73 151.268 20.126C151.268 20.522 151.208 20.954 151.088 21.422C150.98 21.878 150.77 22.304 150.458 22.7C150.146 23.096 149.702 23.426 149.126 23.69C148.55 23.942 147.806 24.068 146.894 24.068H143.474V29H141.224V16.148ZM143.474 22.232H146.768C147.02 22.232 147.278 22.196 147.542 22.124C147.806 22.052 148.046 21.938 148.262 21.782C148.49 21.614 148.67 21.398 148.802 21.134C148.946 20.858 149.018 20.516 149.018 20.108C149.018 19.688 148.958 19.34 148.838 19.064C148.718 18.788 148.556 18.572 148.352 18.416C148.148 18.248 147.914 18.134 147.65 18.074C147.386 18.014 147.104 17.984 146.804 17.984H143.474V22.232ZM153.05 16.148H155.3V21.998L161.024 16.148H163.796L158.666 21.278L164.156 29H161.348L157.136 22.862L155.3 24.68V29H153.05V16.148Z" fill="#1C1E21"/>
</svg>
