<svg width="180" height="52" viewBox="0 0 180 52" fill="none" xmlns="http://www.w3.org/2000/svg">
<path d="M179 46.0029C179 48.774 176.709 51.0187 173.874 51.0187H6.13243C3.2995 51.0187 1 48.774 1 46.0029V6.00333C1 3.23349 3.2995 0.980957 6.13243 0.980957H173.873C176.709 0.980957 178.999 3.23349 178.999 6.00333L179 46.0029Z" fill="black"/>
<path d="M173.333 1.04163C176.42 1.04163 178.932 3.4905 178.932 6.5V45.5C178.932 48.5095 176.42 50.9584 173.333 50.9584H6.66667C3.58 50.9584 1.06833 48.5095 1.06833 45.5V6.5C1.06833 3.4905 3.58 1.04163 6.66667 1.04163H173.333ZM173.333 2.74817e-06H6.66667C3.00167 2.74817e-06 0 2.92663 0 6.5V45.5C0 49.0734 3.00167 52 6.66667 52H173.333C176.998 52 180 49.0734 180 45.5V6.5C180 2.92663 176.998 2.74817e-06 173.333 2.74817e-06Z" fill="#A6A6A6"/>
<path d="M55.008 20.832C56.1813 20.832 57.2107 21.0613 58.096 21.52C58.992 21.9787 59.68 22.6347 60.16 23.488C60.6507 24.3307 60.896 25.312 60.896 26.432C60.896 27.552 60.6507 28.5333 60.16 29.376C59.68 30.208 58.992 30.8533 58.096 31.312C57.2107 31.7707 56.1813 32 55.008 32H51.104V20.832H55.008ZM54.928 30.096C56.1013 30.096 57.008 29.776 57.648 29.136C58.288 28.496 58.608 27.5947 58.608 26.432C58.608 25.2693 58.288 24.3627 57.648 23.712C57.008 23.0507 56.1013 22.72 54.928 22.72H53.344V30.096H54.928ZM66.5088 32.144C65.6554 32.144 64.8874 31.9573 64.2048 31.584C63.5221 31.2 62.9834 30.6613 62.5888 29.968C62.2048 29.2747 62.0128 28.4747 62.0128 27.568C62.0128 26.6613 62.2101 25.8613 62.6048 25.168C63.0101 24.4747 63.5594 23.9413 64.2528 23.568C64.9461 23.184 65.7194 22.992 66.5728 22.992C67.4261 22.992 68.1994 23.184 68.8928 23.568C69.5861 23.9413 70.1301 24.4747 70.5248 25.168C70.9301 25.8613 71.1328 26.6613 71.1328 27.568C71.1328 28.4747 70.9248 29.2747 70.5087 29.968C70.1034 30.6613 69.5488 31.2 68.8448 31.584C68.1514 31.9573 67.3728 32.144 66.5088 32.144ZM66.5088 30.192C66.9141 30.192 67.2928 30.096 67.6448 29.904C68.0074 29.7013 68.2954 29.4027 68.5088 29.008C68.7221 28.6133 68.8288 28.1333 68.8288 27.568C68.8288 26.7253 68.6048 26.08 68.1568 25.632C67.7194 25.1733 67.1808 24.944 66.5408 24.944C65.9008 24.944 65.3621 25.1733 64.9248 25.632C64.4981 26.08 64.2848 26.7253 64.2848 27.568C64.2848 28.4107 64.4928 29.0613 64.9088 29.52C65.3354 29.968 65.8688 30.192 66.5088 30.192ZM85.0639 23.136L82.4719 32H80.0559L78.4399 25.808L76.8239 32H74.3919L71.7839 23.136H74.0559L75.6239 29.888L77.3199 23.136H79.6879L81.3519 29.872L82.9199 23.136H85.0639ZM91.1879 23.008C92.2439 23.008 93.0972 23.344 93.7479 24.016C94.3985 24.6773 94.7239 25.6053 94.7239 26.8V32H92.4839V27.104C92.4839 26.4 92.3079 25.8613 91.9559 25.488C91.6039 25.104 91.1239 24.912 90.5159 24.912C89.8972 24.912 89.4065 25.104 89.0439 25.488C88.6919 25.8613 88.5159 26.4 88.5159 27.104V32H86.2759V23.136H88.5159V24.24C88.8145 23.856 89.1932 23.5573 89.6519 23.344C90.1212 23.12 90.6332 23.008 91.1879 23.008ZM99.094 20.16V32H96.854V20.16H99.094ZM105.243 32.144C104.39 32.144 103.622 31.9573 102.939 31.584C102.256 31.2 101.718 30.6613 101.323 29.968C100.939 29.2747 100.747 28.4747 100.747 27.568C100.747 26.6613 100.944 25.8613 101.339 25.168C101.744 24.4747 102.294 23.9413 102.987 23.568C103.68 23.184 104.454 22.992 105.307 22.992C106.16 22.992 106.934 23.184 107.627 23.568C108.32 23.9413 108.864 24.4747 109.259 25.168C109.664 25.8613 109.867 26.6613 109.867 27.568C109.867 28.4747 109.659 29.2747 109.243 29.968C108.838 30.6613 108.283 31.2 107.579 31.584C106.886 31.9573 106.107 32.144 105.243 32.144ZM105.243 30.192C105.648 30.192 106.027 30.096 106.379 29.904C106.742 29.7013 107.03 29.4027 107.243 29.008C107.456 28.6133 107.563 28.1333 107.563 27.568C107.563 26.7253 107.339 26.08 106.891 25.632C106.454 25.1733 105.915 24.944 105.275 24.944C104.635 24.944 104.096 25.1733 103.659 25.632C103.232 26.08 103.019 26.7253 103.019 27.568C103.019 28.4107 103.227 29.0613 103.643 29.52C104.07 29.968 104.603 30.192 105.243 30.192ZM110.934 27.536C110.934 26.64 111.11 25.8453 111.462 25.152C111.825 24.4587 112.31 23.9253 112.918 23.552C113.537 23.1787 114.225 22.992 114.982 22.992C115.644 22.992 116.22 23.1253 116.71 23.392C117.212 23.6587 117.612 23.9947 117.91 24.4V23.136H120.166V32H117.91V30.704C117.622 31.12 117.222 31.4667 116.71 31.744C116.209 32.0107 115.628 32.144 114.966 32.144C114.22 32.144 113.537 31.952 112.918 31.568C112.31 31.184 111.825 30.6453 111.462 29.952C111.11 29.248 110.934 28.4427 110.934 27.536ZM117.91 27.568C117.91 27.024 117.804 26.56 117.59 26.176C117.377 25.7813 117.089 25.4827 116.726 25.28C116.364 25.0667 115.974 24.96 115.558 24.96C115.142 24.96 114.758 25.0613 114.406 25.264C114.054 25.4667 113.766 25.7653 113.542 26.16C113.329 26.544 113.222 27.0027 113.222 27.536C113.222 28.0693 113.329 28.5387 113.542 28.944C113.766 29.3387 114.054 29.6427 114.406 29.856C114.769 30.0693 115.153 30.176 115.558 30.176C115.974 30.176 116.364 30.0747 116.726 29.872C117.089 29.6587 117.377 29.36 117.59 28.976C117.804 28.5813 117.91 28.112 117.91 27.568ZM121.778 27.536C121.778 26.64 121.954 25.8453 122.306 25.152C122.669 24.4587 123.159 23.9253 123.778 23.552C124.397 23.1787 125.085 22.992 125.842 22.992C126.418 22.992 126.967 23.12 127.49 23.376C128.013 23.6213 128.429 23.952 128.738 24.368V20.16H131.01V32H128.738V30.688C128.461 31.1253 128.071 31.4773 127.57 31.744C127.069 32.0107 126.487 32.144 125.826 32.144C125.079 32.144 124.397 31.952 123.778 31.568C123.159 31.184 122.669 30.6453 122.306 29.952C121.954 29.248 121.778 28.4427 121.778 27.536ZM128.754 27.568C128.754 27.024 128.647 26.56 128.434 26.176C128.221 25.7813 127.933 25.4827 127.57 25.28C127.207 25.0667 126.818 24.96 126.402 24.96C125.986 24.96 125.602 25.0613 125.25 25.264C124.898 25.4667 124.61 25.7653 124.386 26.16C124.173 26.544 124.066 27.0027 124.066 27.536C124.066 28.0693 124.173 28.5387 124.386 28.944C124.61 29.3387 124.898 29.6427 125.25 29.856C125.613 30.0693 125.997 30.176 126.402 30.176C126.818 30.176 127.207 30.0747 127.57 29.872C127.933 29.6587 128.221 29.36 128.434 28.976C128.647 28.5813 128.754 28.112 128.754 27.568ZM143.858 29.872H139.41L138.674 32H136.322L140.338 20.816H142.946L146.962 32H144.594L143.858 29.872ZM143.25 28.08L141.634 23.408L140.018 28.08H143.25ZM156.607 24.288C156.607 24.8853 156.463 25.4453 156.175 25.968C155.898 26.4907 155.455 26.912 154.847 27.232C154.25 27.552 153.493 27.712 152.575 27.712H150.703V32H148.463V20.832H152.575C153.439 20.832 154.175 20.9813 154.783 21.28C155.391 21.5787 155.845 21.9893 156.143 22.512C156.453 23.0347 156.607 23.6267 156.607 24.288ZM152.479 25.904C153.098 25.904 153.557 25.7653 153.855 25.488C154.154 25.2 154.303 24.8 154.303 24.288C154.303 23.2 153.695 22.656 152.479 22.656H150.703V25.904H152.479ZM164.502 32L160.438 27.024V32H158.198V20.832H160.438V25.84L164.502 20.832H167.206L162.598 26.368L167.334 32H164.502Z" fill="white"/>
<path d="M30.3125 16.7188V15.3438H29V16.7188H30.3125ZM23.625 16.7188V15.3438H22.3125V16.7188H23.625ZM31 12.9063C33.2083 14.4896 34.3125 16.6354 34.3125 19.3438H18.3125C18.3125 16.5938 19.3958 14.4479 21.5625 12.9063L19.8125 11.1563C19.4792 10.8229 19.4792 10.5104 19.8125 10.2188C20.1458 9.92708 20.4583 9.92708 20.75 10.2188L22.75 12.2188C23.8333 11.6354 25.0208 11.3438 26.3125 11.3438C27.5625 11.3438 28.7292 11.6354 29.8125 12.2188L31.8125 10.2188C32.1458 9.92708 32.4583 9.92708 32.75 10.2188C33.0417 10.5104 33.0417 10.8229 32.75 11.1563L31 12.9063ZM36.1875 21.3438C36.6042 20.9271 37.0833 20.7188 37.625 20.7188C38.1667 20.7188 38.625 20.9271 39 21.3438C39.4167 21.7188 39.625 22.1771 39.625 22.7188V32.0313C39.625 32.6146 39.4167 33.0938 39 33.4688C38.625 33.8438 38.1667 34.0313 37.625 34.0313C37.0833 34.0313 36.6042 33.8438 36.1875 33.4688C35.8125 33.0938 35.625 32.6146 35.625 32.0313V22.7188C35.625 22.1771 35.8125 21.7188 36.1875 21.3438ZM13.5625 21.3438C13.9792 20.9271 14.4583 20.7188 15 20.7188C15.5417 20.7188 16 20.9271 16.375 21.3438C16.7917 21.7188 17 22.1771 17 22.7188V32.0313C17 32.6146 16.7917 33.0938 16.375 33.4688C16 33.8438 15.5417 34.0313 15 34.0313C14.4583 34.0313 13.9792 33.8438 13.5625 33.4688C13.1875 33.0938 13 32.6146 13 32.0313V22.7188C13 22.1771 13.1875 21.7188 13.5625 21.3438ZM18.3125 34.0313V20.7188H34.3125V34.0313C34.3125 34.4063 34.1875 34.7188 33.9375 34.9688C33.6875 35.2188 33.375 35.3438 33 35.3438H31.625V40.0313C31.625 40.6146 31.4167 41.0938 31 41.4688C30.625 41.8438 30.1667 42.0313 29.625 42.0313C29.0833 42.0313 28.6042 41.8438 28.1875 41.4688C27.8125 41.0938 27.625 40.6146 27.625 40.0313V35.3438H25V40.0313C25 40.6146 24.7917 41.0938 24.375 41.4688C24 41.8438 23.5417 42.0313 23 42.0313C22.4583 42.0313 21.9792 41.8438 21.5625 41.4688C21.1875 41.0938 21 40.6146 21 40.0313V35.3438H19.625C19.25 35.3438 18.9375 35.2188 18.6875 34.9688C18.4375 34.7188 18.3125 34.4063 18.3125 34.0313Z" fill="#A6CE37"/>
</svg>
