<svg width="179" height="44" viewBox="0 0 179 44" fill="none" xmlns="http://www.w3.org/2000/svg">
<rect width="179" height="44" rx="6.28571" fill="#F2F2F2"/>
<path d="M17.8524 28.9994C17.8524 29.7274 18.3564 30.1474 19.0004 30.1474H20.1484V34.2074C20.1484 35.1314 20.9604 35.9714 21.9124 35.9714C22.8364 35.9714 23.6764 35.1594 23.6764 34.2074V30.1754H26.0284V34.2354C26.0284 35.1594 26.8404 35.9994 27.7924 35.9994C28.7164 35.9994 29.5564 35.1874 29.5564 34.2354V30.1754H30.7044C31.4324 30.1754 31.8524 29.6714 31.8524 29.0274V17.3514H17.8524V28.9994ZM14.9124 17.3514C13.9884 17.3514 13.1484 18.1634 13.1484 19.1154V27.3194C13.1484 28.2434 13.9604 29.0834 14.9124 29.0834C15.8644 29.0834 16.6764 28.2714 16.6764 27.3194V19.1154C16.6764 18.1634 15.8644 17.3514 14.9124 17.3514ZM34.8484 17.3514C33.9244 17.3514 33.0844 18.1634 33.0844 19.1154V27.3194C33.0844 28.2434 33.8964 29.0834 34.8484 29.0834C35.7724 29.0834 36.6124 28.2714 36.6124 27.3194V19.1154C36.5844 18.1634 35.7724 17.3514 34.8484 17.3514ZM28.9404 10.5194L30.4804 8.97944C30.7044 8.75544 30.7044 8.36344 30.4804 8.16744C30.2564 7.97144 29.8644 7.94344 29.6684 8.16744L27.9044 9.93144C27.0924 9.37144 26.0284 9.14744 24.8804 9.14744C23.7324 9.14744 22.6684 9.37144 21.7444 9.87544L20.0924 8.11144C19.8684 7.99944 19.3644 7.99944 19.1684 8.11144C19.0564 8.33544 19.0564 8.83944 19.1684 9.03544L20.7084 10.5754C19.0564 11.8354 17.9084 13.8794 17.9084 16.1754H31.9364C31.9084 13.8234 30.7044 11.7514 28.9404 10.5194ZM22.5284 13.8234H21.3804V12.6754H22.5284V13.8234ZM28.4084 13.8234H27.2604V12.6754H28.4084V13.8234Z" fill="#96BC2A"/>
<path d="M45.4852 16.148H50.8132C51.7972 16.148 52.6492 16.316 53.3692 16.652C54.0892 16.988 54.6772 17.45 55.1332 18.038C55.5892 18.614 55.9252 19.292 56.1412 20.072C56.3692 20.852 56.4832 21.686 56.4832 22.574C56.4832 23.462 56.3692 24.296 56.1412 25.076C55.9252 25.856 55.5892 26.54 55.1332 27.128C54.6772 27.704 54.0892 28.16 53.3692 28.496C52.6492 28.832 51.7972 29 50.8132 29H45.4852V16.148ZM47.7352 27.164H49.9492C50.8252 27.164 51.5392 27.05 52.0912 26.822C52.6552 26.582 53.0932 26.258 53.4052 25.85C53.7292 25.43 53.9452 24.944 54.0532 24.392C54.1732 23.828 54.2332 23.222 54.2332 22.574C54.2332 21.926 54.1732 21.326 54.0532 20.774C53.9452 20.21 53.7292 19.724 53.4052 19.316C53.0932 18.896 52.6552 18.572 52.0912 18.344C51.5392 18.104 50.8252 17.984 49.9492 17.984H47.7352V27.164ZM62.2734 29.252C61.5294 29.252 60.8634 29.132 60.2754 28.892C59.6994 28.64 59.2074 28.298 58.7994 27.866C58.4034 27.434 58.0974 26.918 57.8814 26.318C57.6774 25.718 57.5754 25.058 57.5754 24.338C57.5754 23.63 57.6774 22.976 57.8814 22.376C58.0974 21.776 58.4034 21.26 58.7994 20.828C59.2074 20.396 59.6994 20.06 60.2754 19.82C60.8634 19.568 61.5294 19.442 62.2734 19.442C63.0174 19.442 63.6774 19.568 64.2534 19.82C64.8414 20.06 65.3334 20.396 65.7294 20.828C66.1374 21.26 66.4434 21.776 66.6474 22.376C66.8634 22.976 66.9714 23.63 66.9714 24.338C66.9714 25.058 66.8634 25.718 66.6474 26.318C66.4434 26.918 66.1374 27.434 65.7294 27.866C65.3334 28.298 64.8414 28.64 64.2534 28.892C63.6774 29.132 63.0174 29.252 62.2734 29.252ZM62.2734 27.632C62.7294 27.632 63.1254 27.536 63.4614 27.344C63.7974 27.152 64.0734 26.9 64.2894 26.588C64.5054 26.276 64.6614 25.928 64.7574 25.544C64.8654 25.148 64.9194 24.746 64.9194 24.338C64.9194 23.942 64.8654 23.546 64.7574 23.15C64.6614 22.754 64.5054 22.406 64.2894 22.106C64.0734 21.794 63.7974 21.542 63.4614 21.35C63.1254 21.158 62.7294 21.062 62.2734 21.062C61.8174 21.062 61.4214 21.158 61.0854 21.35C60.7494 21.542 60.4734 21.794 60.2574 22.106C60.0414 22.406 59.8794 22.754 59.7714 23.15C59.6754 23.546 59.6274 23.942 59.6274 24.338C59.6274 24.746 59.6754 25.148 59.7714 25.544C59.8794 25.928 60.0414 26.276 60.2574 26.588C60.4734 26.9 60.7494 27.152 61.0854 27.344C61.4214 27.536 61.8174 27.632 62.2734 27.632ZM67.6513 19.694H69.8293L71.6473 26.642H71.6833L73.4293 19.694H75.4993L77.1733 26.642H77.2093L79.0993 19.694H81.1873L78.2713 29H76.1653L74.4373 22.088H74.4013L72.6913 29H70.5313L67.6513 19.694ZM82.3271 19.694H84.2711V21.062L84.3071 21.098C84.6191 20.582 85.0271 20.18 85.5311 19.892C86.0351 19.592 86.5931 19.442 87.2051 19.442C88.2251 19.442 89.0291 19.706 89.6171 20.234C90.2051 20.762 90.4991 21.554 90.4991 22.61V29H88.4471V23.15C88.4231 22.418 88.2671 21.89 87.9791 21.566C87.6911 21.23 87.2411 21.062 86.6291 21.062C86.2811 21.062 85.9691 21.128 85.6931 21.26C85.4171 21.38 85.1831 21.554 84.9911 21.782C84.7991 21.998 84.6491 22.256 84.5411 22.556C84.4331 22.856 84.3791 23.174 84.3791 23.51V29H82.3271V19.694ZM92.537 16.148H94.589V29H92.537V16.148ZM100.911 29.252C100.167 29.252 99.5008 29.132 98.9128 28.892C98.3368 28.64 97.8448 28.298 97.4368 27.866C97.0408 27.434 96.7348 26.918 96.5188 26.318C96.3148 25.718 96.2128 25.058 96.2128 24.338C96.2128 23.63 96.3148 22.976 96.5188 22.376C96.7348 21.776 97.0408 21.26 97.4368 20.828C97.8448 20.396 98.3368 20.06 98.9128 19.82C99.5008 19.568 100.167 19.442 100.911 19.442C101.655 19.442 102.315 19.568 102.891 19.82C103.479 20.06 103.971 20.396 104.367 20.828C104.775 21.26 105.081 21.776 105.285 22.376C105.501 22.976 105.609 23.63 105.609 24.338C105.609 25.058 105.501 25.718 105.285 26.318C105.081 26.918 104.775 27.434 104.367 27.866C103.971 28.298 103.479 28.64 102.891 28.892C102.315 29.132 101.655 29.252 100.911 29.252ZM100.911 27.632C101.367 27.632 101.763 27.536 102.099 27.344C102.435 27.152 102.711 26.9 102.927 26.588C103.143 26.276 103.299 25.928 103.395 25.544C103.503 25.148 103.557 24.746 103.557 24.338C103.557 23.942 103.503 23.546 103.395 23.15C103.299 22.754 103.143 22.406 102.927 22.106C102.711 21.794 102.435 21.542 102.099 21.35C101.763 21.158 101.367 21.062 100.911 21.062C100.455 21.062 100.059 21.158 99.7228 21.35C99.3868 21.542 99.1108 21.794 98.8948 22.106C98.6788 22.406 98.5168 22.754 98.4088 23.15C98.3128 23.546 98.2648 23.942 98.2648 24.338C98.2648 24.746 98.3128 25.148 98.4088 25.544C98.5168 25.928 98.6788 26.276 98.8948 26.588C99.1108 26.9 99.3868 27.152 99.7228 27.344C100.059 27.536 100.455 27.632 100.911 27.632ZM114.929 26.93C114.929 27.182 114.959 27.362 115.019 27.47C115.091 27.578 115.223 27.632 115.415 27.632C115.475 27.632 115.547 27.632 115.631 27.632C115.715 27.632 115.811 27.62 115.919 27.596V29.018C115.847 29.042 115.751 29.066 115.631 29.09C115.523 29.126 115.409 29.156 115.289 29.18C115.169 29.204 115.049 29.222 114.929 29.234C114.809 29.246 114.707 29.252 114.623 29.252C114.203 29.252 113.855 29.168 113.579 29C113.303 28.832 113.123 28.538 113.039 28.118C112.631 28.514 112.127 28.802 111.527 28.982C110.939 29.162 110.369 29.252 109.817 29.252C109.397 29.252 108.995 29.192 108.611 29.072C108.227 28.964 107.885 28.802 107.585 28.586C107.297 28.358 107.063 28.076 106.883 27.74C106.715 27.392 106.631 26.99 106.631 26.534C106.631 25.958 106.733 25.49 106.937 25.13C107.153 24.77 107.429 24.488 107.765 24.284C108.113 24.08 108.497 23.936 108.917 23.852C109.349 23.756 109.781 23.684 110.213 23.636C110.585 23.564 110.939 23.516 111.275 23.492C111.611 23.456 111.905 23.402 112.157 23.33C112.421 23.258 112.625 23.15 112.769 23.006C112.925 22.85 113.003 22.622 113.003 22.322C113.003 22.058 112.937 21.842 112.805 21.674C112.685 21.506 112.529 21.38 112.337 21.296C112.157 21.2 111.953 21.14 111.725 21.116C111.497 21.08 111.281 21.062 111.077 21.062C110.501 21.062 110.027 21.182 109.655 21.422C109.283 21.662 109.073 22.034 109.025 22.538H106.973C107.009 21.938 107.153 21.44 107.405 21.044C107.657 20.648 107.975 20.33 108.359 20.09C108.755 19.85 109.199 19.682 109.691 19.586C110.183 19.49 110.687 19.442 111.203 19.442C111.659 19.442 112.109 19.49 112.553 19.586C112.997 19.682 113.393 19.838 113.741 20.054C114.101 20.27 114.389 20.552 114.605 20.9C114.821 21.236 114.929 21.65 114.929 22.142V26.93ZM112.877 24.338C112.565 24.542 112.181 24.668 111.725 24.716C111.269 24.752 110.813 24.812 110.357 24.896C110.141 24.932 109.931 24.986 109.727 25.058C109.523 25.118 109.343 25.208 109.187 25.328C109.031 25.436 108.905 25.586 108.809 25.778C108.725 25.958 108.683 26.18 108.683 26.444C108.683 26.672 108.749 26.864 108.881 27.02C109.013 27.176 109.169 27.302 109.349 27.398C109.541 27.482 109.745 27.542 109.961 27.578C110.189 27.614 110.393 27.632 110.573 27.632C110.801 27.632 111.047 27.602 111.311 27.542C111.575 27.482 111.821 27.38 112.049 27.236C112.289 27.092 112.487 26.912 112.643 26.696C112.799 26.468 112.877 26.192 112.877 25.868V24.338ZM125.723 29H123.779V27.74H123.743C123.467 28.28 123.065 28.67 122.537 28.91C122.009 29.138 121.451 29.252 120.863 29.252C120.131 29.252 119.489 29.126 118.937 28.874C118.397 28.61 117.947 28.256 117.587 27.812C117.227 27.368 116.957 26.846 116.777 26.246C116.597 25.634 116.507 24.98 116.507 24.284C116.507 23.444 116.621 22.718 116.849 22.106C117.077 21.494 117.377 20.99 117.749 20.594C118.133 20.198 118.565 19.91 119.045 19.73C119.537 19.538 120.035 19.442 120.539 19.442C120.827 19.442 121.121 19.472 121.421 19.532C121.721 19.58 122.009 19.664 122.285 19.784C122.561 19.904 122.813 20.06 123.041 20.252C123.281 20.432 123.479 20.648 123.635 20.9H123.671V16.148H125.723V29ZM118.559 24.446C118.559 24.842 118.607 25.232 118.703 25.616C118.811 26 118.967 26.342 119.171 26.642C119.387 26.942 119.657 27.182 119.981 27.362C120.305 27.542 120.689 27.632 121.133 27.632C121.589 27.632 121.979 27.536 122.303 27.344C122.639 27.152 122.909 26.9 123.113 26.588C123.329 26.276 123.485 25.928 123.581 25.544C123.689 25.148 123.743 24.746 123.743 24.338C123.743 23.306 123.509 22.502 123.041 21.926C122.585 21.35 121.961 21.062 121.169 21.062C120.689 21.062 120.281 21.164 119.945 21.368C119.621 21.56 119.351 21.818 119.135 22.142C118.931 22.454 118.781 22.814 118.685 23.222C118.601 23.618 118.559 24.026 118.559 24.446ZM136.336 16.148H138.73L143.68 29H141.268L140.062 25.598H134.932L133.726 29H131.404L136.336 16.148ZM135.544 23.888H139.468L137.542 18.362H137.488L135.544 23.888ZM144.724 16.148H150.394C151.306 16.148 152.05 16.28 152.626 16.544C153.202 16.808 153.646 17.138 153.958 17.534C154.27 17.93 154.48 18.362 154.588 18.83C154.708 19.298 154.768 19.73 154.768 20.126C154.768 20.522 154.708 20.954 154.588 21.422C154.48 21.878 154.27 22.304 153.958 22.7C153.646 23.096 153.202 23.426 152.626 23.69C152.05 23.942 151.306 24.068 150.394 24.068H146.974V29H144.724V16.148ZM146.974 22.232H150.268C150.52 22.232 150.778 22.196 151.042 22.124C151.306 22.052 151.546 21.938 151.762 21.782C151.99 21.614 152.17 21.398 152.302 21.134C152.446 20.858 152.518 20.516 152.518 20.108C152.518 19.688 152.458 19.34 152.338 19.064C152.218 18.788 152.056 18.572 151.852 18.416C151.648 18.248 151.414 18.134 151.15 18.074C150.886 18.014 150.604 17.984 150.304 17.984H146.974V22.232ZM156.55 16.148H158.8V21.998L164.524 16.148H167.296L162.166 21.278L167.656 29H164.848L160.636 22.862L158.8 24.68V29H156.55V16.148Z" fill="#1C1E21"/>
</svg>
