<svg width="167" height="44" viewBox="0 0 167 44" fill="none" xmlns="http://www.w3.org/2000/svg">
<rect x="0.523438" width="165.524" height="44" rx="6.28571" fill="#F2F2F2"/>
<path d="M43.8136 22.82C43.8263 21.8317 44.0896 20.8626 44.5789 20.003C45.0681 19.1433 45.7675 18.4211 46.6119 17.9034C46.0755 17.1394 45.3678 16.5107 44.5451 16.0672C43.7224 15.6237 42.8073 15.3776 41.8725 15.3484C39.8785 15.1397 37.9453 16.5383 36.9292 16.5383C35.8934 16.5383 34.3289 15.3691 32.6442 15.4037C31.5545 15.4388 30.4925 15.7548 29.5616 16.3209C28.6308 16.887 27.8629 17.6838 27.3327 18.6339C25.0362 22.5989 26.7492 28.4261 28.9491 31.6312C30.0498 33.2006 31.3361 34.9537 33.0193 34.8915C34.6664 34.8234 35.2816 33.8441 37.2698 33.8441C39.2395 33.8441 39.8166 34.8915 41.534 34.852C43.3014 34.8234 44.4149 33.2756 45.477 31.6913C46.2678 30.573 46.8764 29.3371 47.2801 28.0293C46.2533 27.5962 45.377 26.8713 44.7605 25.945C44.1441 25.0186 43.8147 23.9318 43.8136 22.82Z" fill="#121212"/>
<path d="M40.57 13.2403C41.5337 12.0867 42.0085 10.604 41.8935 9.10693C40.4212 9.26113 39.0613 9.96281 38.0846 11.0722C37.6071 11.6141 37.2413 12.2446 37.0083 12.9276C36.7752 13.6105 36.6795 14.3326 36.7265 15.0525C37.4629 15.0601 38.1914 14.9009 38.8571 14.587C39.5229 14.2731 40.1086 13.8127 40.57 13.2403Z" fill="#121212"/>
<path fill-rule="evenodd" clip-rule="evenodd" d="M82.7825 7.73535H83.7972V14.8646H82.7825V7.73535ZM59.8037 8.26668C59.3879 8.10563 58.9415 8.0386 58.4966 8.07044H56.0354V14.865H58.4966C60.5261 14.865 61.7026 13.6172 61.7026 11.4466C61.7587 11.0053 61.7159 10.5571 61.5773 10.1343C61.4386 9.71156 61.2076 9.32474 60.9009 9.00177C60.5942 8.6788 60.2195 8.42773 59.8037 8.26668ZM58.3784 13.9041H57.0937V9.03062H58.3784C58.6946 9.01312 59.0109 9.06559 59.3045 9.18429C59.598 9.30298 59.8616 9.48496 60.0764 9.71718C60.2911 9.9494 60.4517 10.2261 60.5466 10.5275C60.6415 10.8289 60.6684 11.1474 60.6254 11.4604C60.6718 11.7746 60.6474 12.0952 60.5539 12.3988C60.4604 12.7024 60.3002 12.9814 60.085 13.2154C59.8698 13.4495 59.6049 13.6328 59.3096 13.7519C59.0144 13.8711 58.6963 13.923 58.3784 13.9041ZM63.0119 11.3003C62.9047 11.6215 62.866 11.9615 62.8984 12.2985C62.8654 12.6358 62.9036 12.9762 63.0105 13.298C63.1174 13.6197 63.2906 13.9155 63.5189 14.1665C63.7473 14.4175 64.0258 14.6181 64.3366 14.7553C64.6473 14.8926 64.9834 14.9635 65.3233 14.9635C65.6631 14.9635 65.9992 14.8926 66.31 14.7553C66.6207 14.6181 66.8992 14.4175 67.1276 14.1665C67.356 13.9155 67.5292 13.6197 67.636 13.298C67.7429 12.9762 67.7811 12.6358 67.7482 12.2985C67.7805 11.9615 67.7418 11.6215 67.6347 11.3003C67.5275 10.9791 67.3542 10.6838 67.1259 10.4333C66.8976 10.1828 66.6193 9.98267 66.3089 9.84571C65.9984 9.70875 65.6627 9.638 65.3233 9.638C64.9838 9.638 64.6481 9.70875 64.3377 9.84571C64.0272 9.98267 63.7489 10.1828 63.5206 10.4333C63.2923 10.6838 63.119 10.9791 63.0119 11.3003ZM65.3249 10.537C66.2037 10.537 66.7044 11.187 66.7044 12.2985H66.7044C66.7044 13.4144 66.2037 14.0638 65.3249 14.0638C64.4429 14.0638 63.9467 13.4189 63.9467 12.2985C63.9467 11.187 64.4429 10.537 65.3249 10.537ZM74.194 14.865H73.1413L72.0786 11.0886H71.9983L70.94 14.865H69.8974L68.48 9.73749H69.5093L70.4304 13.6501H70.5062L71.5634 9.73749H72.5369L73.5941 13.6501H73.6744L74.591 9.73749H75.6058L74.194 14.865ZM77.7754 9.73716H76.7986L76.7985 14.8647H77.8133V11.865C77.7953 11.6964 77.8141 11.5259 77.8684 11.3652C77.9227 11.2045 78.0111 11.0574 78.1278 10.934C78.2444 10.8105 78.3864 10.7137 78.544 10.6501C78.7017 10.5866 78.8713 10.5577 79.0411 10.5656C79.7916 10.5656 80.1507 10.9754 80.1507 11.7994V14.8647H81.1655V11.5453C81.2022 11.2978 81.1826 11.0452 81.1082 10.8063C81.0337 10.5674 80.9063 10.3482 80.7354 10.1651C80.5644 9.98192 80.3544 9.83946 80.1207 9.74825C79.8871 9.65705 79.6359 9.61943 79.3857 9.63819C79.0664 9.6123 78.747 9.68641 78.4719 9.85016C78.1969 10.0139 77.9799 10.2592 77.8513 10.5517H77.7754V9.73716ZM85.3209 11.3004C85.2137 11.6216 85.175 11.9616 85.2073 12.2986C85.1744 12.6359 85.2126 12.9764 85.3196 13.2981C85.4265 13.6198 85.5997 13.9156 85.8281 14.1666C86.0565 14.4176 86.335 14.6182 86.6458 14.7554C86.9565 14.8927 87.2926 14.9636 87.6325 14.9636C87.9724 14.9636 88.3085 14.8927 88.6192 14.7554C88.93 14.6182 89.2085 14.4176 89.4369 14.1666C89.6653 13.9156 89.8385 13.6198 89.9454 13.2981C90.0523 12.9764 90.0906 12.6359 90.0577 12.2986C90.09 11.9616 90.0513 11.6216 89.9441 11.3004C89.8369 10.9792 89.6636 10.6838 89.4353 10.4333C89.2069 10.1828 88.9286 9.98267 88.6181 9.84571C88.3077 9.70875 87.972 9.638 87.6325 9.638C87.293 9.638 86.9573 9.70875 86.6468 9.84571C86.3364 9.98267 86.0581 10.1828 85.8297 10.4333C85.6014 10.6838 85.4281 10.9792 85.3209 11.3004ZM87.6339 10.5371C88.5126 10.5371 89.0133 11.1871 89.0133 12.2986C89.0133 13.4145 88.5126 14.0639 87.6339 14.0639C86.7518 14.0639 86.2556 13.4189 86.2556 12.2986C86.2556 11.1871 86.7518 10.5371 87.6339 10.5371ZM91.1266 13.4144C91.1266 12.4914 91.8157 11.9594 93.0391 11.8837L94.4319 11.8037V11.3611C94.4319 10.8195 94.0728 10.5137 93.3792 10.5137C92.8127 10.5137 92.4202 10.7211 92.3075 11.0836H91.3251C91.4288 10.2029 92.2596 9.638 93.426 9.638C94.7151 9.638 95.4422 10.278 95.4422 11.3611V14.8645H94.4653V14.1439H94.3851C94.2221 14.4024 93.9932 14.6131 93.7219 14.7546C93.4506 14.896 93.1464 14.9631 92.8406 14.949C92.6247 14.9714 92.4065 14.9484 92.2001 14.8816C91.9937 14.8147 91.8036 14.7055 91.6421 14.5609C91.4807 14.4163 91.3514 14.2396 91.2626 14.0422C91.1738 13.8447 91.1274 13.6309 91.1266 13.4144ZM94.4319 12.9763V12.5476L93.1762 12.6277C92.4681 12.6749 92.1469 12.9151 92.1469 13.3672C92.1469 13.8287 92.5484 14.0972 93.1004 14.0972C93.2622 14.1135 93.4256 14.0973 93.5809 14.0493C93.7362 14.0014 93.8802 13.9228 94.0045 13.8182C94.1287 13.7136 94.2305 13.5852 94.304 13.4406C94.3774 13.2959 94.4209 13.138 94.4319 12.9763ZM98.9103 9.65195C97.6112 9.65195 96.776 10.6784 96.776 12.2986C96.776 13.9227 97.6023 14.9491 98.9104 14.9491C99.2357 14.961 99.5582 14.884 99.8428 14.7263C100.127 14.5686 100.363 14.3363 100.525 14.0544H100.605V14.8646H101.578V7.73535H100.563V10.5515H100.487C100.337 10.2678 100.109 10.0325 99.8299 9.87324C99.5506 9.71394 99.2317 9.63718 98.9103 9.65195ZM99.1981 14.0406C98.3383 14.0406 97.8242 13.3861 97.8242 12.2986H97.8242C97.8242 11.2199 98.3439 10.561 99.1981 10.561C100.048 10.561 100.582 11.2344 100.582 12.303C100.582 13.3767 100.053 14.0406 99.1981 14.0406ZM105.776 12.2985C105.744 11.9615 105.782 11.6215 105.89 11.3003C105.997 10.9791 106.17 10.6838 106.398 10.4333C106.627 10.1828 106.905 9.98267 107.215 9.84571C107.526 9.70875 107.862 9.638 108.201 9.638C108.54 9.638 108.876 9.70875 109.187 9.84571C109.497 9.98267 109.775 10.1828 110.004 10.4333C110.232 10.6838 110.405 10.9791 110.512 11.3003C110.62 11.6215 110.658 11.9615 110.626 12.2985C110.659 12.6358 110.621 12.9762 110.514 13.298C110.407 13.6197 110.234 13.9155 110.005 14.1665C109.777 14.4175 109.498 14.6181 109.188 14.7553C108.877 14.8926 108.541 14.9635 108.201 14.9635C107.861 14.9635 107.525 14.8926 107.214 14.7553C106.904 14.6181 106.625 14.4175 106.397 14.1665C106.168 13.9155 105.995 13.6197 105.888 13.298C105.781 12.9762 105.743 12.6358 105.776 12.2985ZM109.582 12.2985C109.582 11.187 109.081 10.537 108.203 10.537C107.321 10.537 106.824 11.187 106.824 12.2985C106.824 13.4189 107.321 14.0638 108.203 14.0638C109.081 14.0638 109.582 13.4144 109.582 12.2985ZM112.965 9.73716H111.988V14.8647H113.003V11.865C112.985 11.6964 113.003 11.5259 113.058 11.3652C113.112 11.2045 113.201 11.0574 113.317 10.934C113.434 10.8105 113.576 10.7137 113.733 10.6501C113.891 10.5866 114.061 10.5577 114.23 10.5656C114.981 10.5656 115.34 10.9754 115.34 11.7994V14.8647H116.355V11.5453C116.392 11.2978 116.372 11.0452 116.298 10.8063C116.223 10.5674 116.096 10.3482 115.925 10.1651C115.754 9.98192 115.544 9.83946 115.31 9.74825C115.076 9.65705 114.825 9.61943 114.575 9.63819C114.256 9.6123 113.936 9.68641 113.661 9.85016C113.386 10.0139 113.169 10.2592 113.041 10.5517H112.965V9.73716ZM122.089 8.46019V9.76015H123.203V10.6125H122.089V13.2491C122.089 13.7863 122.31 14.0214 122.816 14.0214C122.945 14.021 123.074 14.0132 123.203 13.9981V14.841C123.02 14.8735 122.836 14.8908 122.651 14.8927C121.522 14.8927 121.073 14.4968 121.073 13.5082V10.6125H120.256V9.76011H121.073V8.46019H122.089ZM125.595 7.73535H124.589L124.589 14.8645H125.604V11.8699C125.588 11.696 125.611 11.5209 125.671 11.3568C125.73 11.1927 125.825 11.0435 125.948 10.9197C126.071 10.7958 126.22 10.7004 126.384 10.64C126.549 10.5795 126.724 10.5556 126.899 10.5699C127.616 10.5699 127.998 10.9847 127.998 11.8037V14.8646H129.014V11.5541C129.047 11.3077 129.025 11.0571 128.95 10.8201C128.875 10.5831 128.748 10.3655 128.579 10.1829C128.41 10.0004 128.203 9.85726 127.972 9.76384C127.741 9.67042 127.492 9.62898 127.243 9.64248C126.919 9.61624 126.594 9.69035 126.314 9.85472C126.033 10.0191 125.81 10.2657 125.675 10.561H125.595V7.73535ZM134.93 13.4801C134.792 13.9488 134.494 14.3541 134.086 14.6253C133.679 14.8965 133.189 15.0162 132.702 14.9636C132.363 14.9725 132.027 14.9078 131.715 14.774C131.404 14.6401 131.126 14.4404 130.9 14.1886C130.674 13.9367 130.506 13.6389 130.407 13.3157C130.308 12.9925 130.28 12.6517 130.327 12.317C130.282 11.9812 130.309 11.6396 130.408 11.3155C130.507 10.9913 130.674 10.6921 130.899 10.4381C131.124 10.1841 131.401 9.98117 131.711 9.84315C132.021 9.70513 132.358 9.63519 132.698 9.63808C134.128 9.63808 134.991 10.6128 134.991 12.223V12.5761H131.361V12.6328C131.345 12.8209 131.368 13.0104 131.43 13.1888C131.492 13.3673 131.59 13.531 131.719 13.6693C131.848 13.8076 132.005 13.9175 132.179 13.992C132.353 14.0664 132.541 14.1038 132.73 14.1017C132.973 14.1308 133.219 14.0872 133.436 13.9765C133.654 13.8658 133.834 13.693 133.953 13.4801L134.93 13.4801ZM131.361 11.8277H133.958C133.97 11.6556 133.947 11.4827 133.889 11.3202C133.831 11.1577 133.739 11.0091 133.62 10.884C133.501 10.7589 133.356 10.6601 133.197 10.5938C133.037 10.5276 132.865 10.4954 132.692 10.4994C132.516 10.4972 132.342 10.53 132.18 10.596C132.017 10.662 131.869 10.7597 131.745 10.8835C131.621 11.0073 131.523 11.1546 131.457 11.3168C131.391 11.4789 131.358 11.6526 131.361 11.8277ZM97.1865 28.914C97.3437 30.3163 98.7098 31.237 100.577 31.237C102.365 31.237 103.652 30.3162 103.652 29.0518C103.652 27.9543 102.876 27.2971 101.038 26.8467L99.2005 26.4052C96.5966 25.778 95.3878 24.5637 95.3878 22.5932C95.3878 20.1534 97.5199 18.4776 100.546 18.4776C103.544 18.4776 105.598 20.1534 105.667 22.5932H103.525C103.397 21.182 102.227 20.3302 100.517 20.3302C98.8079 20.3302 97.6381 21.192 97.6381 22.4464C97.6381 23.4461 98.3853 24.0344 100.213 24.4847L101.775 24.8672C104.685 25.5534 105.892 26.7188 105.892 28.7871C105.892 31.4326 103.78 33.0896 100.419 33.0896C97.2745 33.0896 95.1513 31.4716 95.0141 28.9139L97.1865 28.914ZM63.6059 29.0317H58.2007L56.9027 32.8537H54.6133L59.7329 18.7131H62.1115L67.2312 32.8537H64.9028L63.6059 29.0317ZM58.7605 27.268H63.045L60.9329 21.0651H60.8737L58.7605 27.268ZM78.2881 27.6997C78.2881 30.9034 76.5685 32.9618 73.9736 32.9618C73.3162 32.9961 72.6625 32.8451 72.0872 32.5261C71.5119 32.2071 71.0383 31.733 70.7207 31.158H70.6716V36.2645H68.5495V22.5443H70.6036V24.259H70.6426C70.9749 23.6869 71.4564 23.2152 72.0361 22.8943C72.6158 22.5733 73.2719 22.4151 73.9345 22.4364C76.5585 22.4364 78.2881 24.5048 78.2881 27.6997ZM76.1069 27.6997C76.1069 25.6124 75.0252 24.2401 73.3748 24.2401C71.7533 24.2401 70.6627 25.6413 70.6627 27.6997C70.6627 29.7769 71.7533 31.1681 73.3748 31.1681C75.0252 31.1681 76.1068 29.8058 76.1068 27.6997H76.1069ZM85.3521 32.9618C87.9471 32.9618 89.6672 30.9034 89.6672 27.6997C89.6672 24.5048 87.9371 22.4364 85.3131 22.4364C84.6504 22.4151 83.9943 22.5733 83.4146 22.8943C82.835 23.2152 82.3534 23.6869 82.0211 24.259H81.9821V22.5443H79.928V36.2645H82.0501V31.158H82.0992C82.4169 31.733 82.8905 32.2071 83.4658 32.5261C84.041 32.8451 84.6948 32.9961 85.3521 32.9618ZM84.7533 24.2401C86.4037 24.2401 87.4854 25.6124 87.4854 27.6997C87.4854 29.8058 86.4037 31.1681 84.7533 31.1681C83.1319 31.1681 82.0413 29.7769 82.0413 27.6997C82.0413 25.6413 83.1319 24.2401 84.7533 24.2401ZM110.475 22.5443V20.1045H108.343V22.5443H106.84V24.2201H108.343V30.1294C108.343 32.1288 109.159 32.9128 111.252 32.9128C111.648 32.9201 112.043 32.8873 112.431 32.8149V31.1491C112.199 31.1777 111.966 31.194 111.733 31.1981C110.869 31.1981 110.475 30.7866 110.475 29.9037V24.2201H112.441V22.5443H110.475ZM113.579 27.6998C113.579 24.456 115.495 22.4176 118.482 22.4176C121.48 22.4176 123.386 24.4559 123.386 27.6998C123.386 30.9525 121.49 32.9819 118.482 32.9819C115.476 32.9819 113.579 30.9524 113.579 27.6998ZM121.224 27.6998C121.224 25.4746 120.202 24.1613 118.482 24.1613C116.762 24.1613 115.74 25.4846 115.74 27.6998C115.74 29.9338 116.762 31.2371 118.482 31.2371C120.202 31.2371 121.224 29.9338 121.224 27.6998ZM127.16 22.5442H125.136L125.136 32.8538H127.258V26.7388C127.223 26.433 127.255 26.1234 127.352 25.8312C127.448 25.5389 127.607 25.2709 127.817 25.0455C128.027 24.8202 128.283 24.6429 128.569 24.5257C128.854 24.4085 129.161 24.3543 129.47 24.3668C129.792 24.3574 130.114 24.4006 130.423 24.4947V22.5153C130.185 22.462 129.941 22.4355 129.696 22.4363C129.13 22.4148 128.574 22.5882 128.121 22.9274C127.668 23.2666 127.346 23.7509 127.209 24.299H127.16V22.5442ZM140.207 29.826C139.921 31.6975 138.094 32.9819 135.755 32.9819C132.748 32.9819 130.881 30.9725 130.881 27.7487C130.881 24.5149 132.758 22.4176 135.666 22.4176C138.526 22.4176 140.325 24.377 140.325 27.5029V28.228H133.023V28.3559C132.989 28.7353 133.037 29.1175 133.163 29.4772C133.289 29.8368 133.49 30.1657 133.753 30.4419C134.016 30.7181 134.335 30.9353 134.688 31.0791C135.042 31.2229 135.422 31.2901 135.804 31.2761C136.306 31.3229 136.809 31.2071 137.239 30.9458C137.669 30.6846 138.003 30.2918 138.192 29.826L140.207 29.826ZM133.033 26.749H138.202C138.221 26.4078 138.169 26.0664 138.049 25.7462C137.93 25.426 137.745 25.1339 137.507 24.8882C137.269 24.6425 136.983 24.4485 136.666 24.3185C136.349 24.1884 136.008 24.1251 135.666 24.1324C135.32 24.1303 134.978 24.1965 134.658 24.3272C134.338 24.4579 134.047 24.6504 133.803 24.8937C133.558 25.1369 133.364 25.4261 133.232 25.7446C133.1 26.063 133.032 26.4044 133.033 26.749Z" fill="#121212"/>
</svg>
