<svg width="181" height="52" viewBox="0 0 181 52" fill="none" xmlns="http://www.w3.org/2000/svg">
<path d="M179.753 46.0034C179.753 48.7745 177.461 51.0192 174.627 51.0192H6.88512C4.05219 51.0192 1.75269 48.7745 1.75269 46.0034V6.00382C1.75269 3.23398 4.05219 0.981445 6.88512 0.981445H174.626C177.461 0.981445 179.751 3.23398 179.751 6.00382L179.753 46.0034Z" fill="#1F2024"/>
<path d="M174.086 1.04162C177.173 1.04162 179.684 3.4905 179.684 6.5V45.5C179.684 48.5095 177.173 50.9584 174.086 50.9584H7.41935C4.33269 50.9584 1.82102 48.5095 1.82102 45.5V6.5C1.82102 3.4905 4.33269 1.04162 7.41935 1.04162H174.086ZM174.086 2.74817e-06H7.41935C3.75435 2.74817e-06 0.752686 2.92663 0.752686 6.5V45.5C0.752686 49.0734 3.75435 52 7.41935 52H174.086C177.751 52 180.753 49.0734 180.753 45.5V6.5C180.753 2.92663 177.751 2.74817e-06 174.086 2.74817e-06Z" fill="#A6A6A6"/>
<path d="M40.9234 25.7191C40.8847 21.5292 44.4421 19.4908 44.6047 19.3959C42.5901 16.532 39.4674 16.1407 38.3701 16.1095C35.7474 15.8404 33.2034 17.6396 31.8674 17.6396C30.5047 17.6396 28.4474 16.1355 26.2301 16.1797C23.3767 16.2226 20.7074 17.8333 19.2434 20.3345C16.2221 25.4344 18.4754 32.9289 21.3701 37.0512C22.8181 39.0701 24.5101 41.3243 26.7247 41.245C28.8914 41.1579 29.7007 39.8982 32.3154 39.8982C34.9061 39.8982 35.6661 41.245 37.9247 41.1943C40.2501 41.1579 41.7141 39.1663 43.1114 37.1292C44.7847 34.8152 45.4567 32.5363 45.4834 32.4193C45.4287 32.4011 40.9674 30.741 40.9234 25.7191Z" fill="white"/>
<path d="M36.6567 13.3977C37.8221 11.9768 38.6194 10.0437 38.3981 8.08203C36.7114 8.15483 34.6021 9.21953 33.3874 10.6092C32.3127 11.8338 31.3527 13.841 31.6007 15.7286C33.4954 15.8664 35.4407 14.7965 36.6567 13.3977Z" fill="white"/>
<path d="M72.2793 40.9557H69.2513L67.5926 35.874H61.8273L60.2473 40.9557H57.2993L63.0113 23.6553H66.5393L72.2793 40.9557ZM67.0926 33.742L65.5926 29.2245C65.434 28.763 65.1366 27.6762 64.698 25.9654H64.6446C64.47 26.7012 64.1886 27.788 63.802 29.2245L62.3286 33.742H67.0926Z" fill="white"/>
<path d="M86.9686 34.5647C86.9686 36.6863 86.3805 38.3633 85.2045 39.5944C84.1512 40.6903 82.8432 41.2376 81.2819 41.2376C79.5965 41.2376 78.3859 40.6474 77.6485 39.467H77.5952V46.0385H74.7525V32.5874C74.7525 31.2536 74.7166 29.8847 74.6472 28.4807H77.1472L77.3059 30.458H77.3592C78.3072 28.9682 79.7459 28.2246 81.6765 28.2246C83.1859 28.2246 84.4459 28.8057 85.4539 29.9692C86.4646 31.134 86.9686 32.6654 86.9686 34.5647ZM84.0726 34.6661C84.0726 33.4519 83.7926 32.4509 83.2299 31.6631C82.6152 30.8415 81.7899 30.4307 80.7552 30.4307C80.0539 30.4307 79.4165 30.6595 78.8472 31.1106C78.2765 31.5656 77.9032 32.1597 77.7285 32.8955C77.6405 33.2387 77.5965 33.5195 77.5965 33.7405V35.8205C77.5965 36.7279 77.8819 37.4936 78.4526 38.1189C79.0232 38.7442 79.7645 39.0562 80.6765 39.0562C81.7472 39.0562 82.5805 38.6532 83.1765 37.8498C83.7739 37.0451 84.0726 35.9843 84.0726 34.6661Z" fill="white"/>
<path d="M101.685 34.5647C101.685 36.6863 101.097 38.3633 99.9194 39.5944C98.8674 40.6903 97.5594 41.2376 95.9981 41.2376C94.3127 41.2376 93.1021 40.6474 92.3661 39.467H92.3127V46.0385H89.4701V32.5874C89.4701 31.2536 89.4341 29.8847 89.3647 28.4807H91.8647L92.0234 30.458H92.0767C93.0234 28.9682 94.4621 28.2246 96.3941 28.2246C97.9021 28.2246 99.1621 28.8057 100.173 29.9692C101.179 31.134 101.685 32.6654 101.685 34.5647ZM98.7887 34.6661C98.7887 33.4519 98.5074 32.4509 97.9447 31.6631C97.3301 30.8415 96.5074 30.4307 95.4714 30.4307C94.7687 30.4307 94.1328 30.6595 93.5621 31.1106C92.9914 31.5656 92.6194 32.1597 92.4447 32.8955C92.3581 33.2387 92.3127 33.5195 92.3127 33.7405V35.8205C92.3127 36.7279 92.5981 37.4936 93.1661 38.1189C93.7367 38.7429 94.4781 39.0562 95.3928 39.0562C96.4634 39.0562 97.2968 38.6532 97.8928 37.8498C98.4901 37.0451 98.7887 35.9843 98.7887 34.6661Z" fill="white"/>
<path d="M118.138 36.1037C118.138 37.5753 117.614 38.7726 116.562 39.6969C115.406 40.707 113.797 41.2114 111.729 41.2114C109.819 41.2114 108.289 40.8526 107.13 40.1337L107.789 37.8236C109.037 38.5594 110.406 38.9286 111.898 38.9286C112.969 38.9286 113.802 38.692 114.401 38.2214C114.997 37.7508 115.294 37.119 115.294 36.3312C115.294 35.6292 115.049 35.0377 114.557 34.558C114.067 34.0783 113.25 33.6324 112.109 33.2203C109.002 32.0906 107.45 30.4357 107.45 28.2595C107.45 26.8373 107.994 25.6712 109.083 24.7638C110.169 23.8551 111.617 23.4014 113.427 23.4014C115.042 23.4014 116.383 23.6757 117.454 24.223L116.743 26.4824C115.743 25.952 114.613 25.6868 113.347 25.6868C112.347 25.6868 111.566 25.9273 111.006 26.4057C110.533 26.8334 110.295 27.3547 110.295 27.9722C110.295 28.656 110.566 29.2215 111.11 29.6661C111.583 30.0769 112.443 30.5215 113.691 31.0012C115.218 31.6005 116.339 32.3012 117.061 33.1046C117.779 33.9054 118.138 34.9077 118.138 36.1037Z" fill="white"/>
<path d="M127.537 30.5604H124.403V36.6171C124.403 38.1576 124.955 38.9272 126.062 38.9272C126.57 38.9272 126.991 38.8843 127.325 38.7985L127.403 40.9032C126.843 41.1073 126.106 41.21 125.193 41.21C124.07 41.21 123.193 40.8759 122.559 40.209C121.929 39.5408 121.611 38.4202 121.611 36.8459V30.5578H119.745V28.4778H121.611V26.1937L124.403 25.3721V28.4778H127.537V30.5604Z" fill="white"/>
<path d="M141.674 34.6151C141.674 36.5326 141.111 38.1069 139.989 39.338C138.811 40.6055 137.249 41.2373 135.301 41.2373C133.423 41.2373 131.929 40.6302 130.814 39.416C129.699 38.2018 129.142 36.6691 129.142 34.8218C129.142 32.8887 129.715 31.3053 130.866 30.0742C132.014 28.8418 133.563 28.2256 135.511 28.2256C137.389 28.2256 138.899 28.8327 140.039 30.0482C141.13 31.2273 141.674 32.7496 141.674 34.6151ZM138.725 34.7048C138.725 33.5543 138.473 32.5676 137.962 31.7447C137.366 30.7489 136.514 30.2523 135.41 30.2523C134.267 30.2523 133.399 30.7502 132.803 31.7447C132.293 32.5689 132.041 33.5712 132.041 34.7568C132.041 35.9073 132.293 36.894 132.803 37.7156C133.418 38.7114 134.277 39.208 135.385 39.208C136.47 39.208 137.322 38.701 137.937 37.6896C138.461 36.8511 138.725 35.854 138.725 34.7048Z" fill="white"/>
<path d="M150.914 30.9182C150.633 30.8675 150.333 30.8415 150.018 30.8415C149.018 30.8415 148.245 31.2094 147.701 31.9465C147.227 32.5965 146.99 33.4181 146.99 34.41V40.9555H144.149L144.175 32.4093C144.175 30.9715 144.139 29.6624 144.069 28.482H146.545L146.649 30.8688H146.727C147.027 30.0485 147.501 29.3881 148.149 28.8928C148.782 28.4469 149.466 28.2246 150.203 28.2246C150.466 28.2246 150.703 28.2428 150.914 28.2753V30.9182Z" fill="white"/>
<path d="M163.627 34.1279C163.627 34.6245 163.594 35.0431 163.523 35.385H154.995C155.029 36.6174 155.441 37.5599 156.233 38.2099C156.951 38.791 157.881 39.0822 159.022 39.0822C160.285 39.0822 161.437 38.8859 162.473 38.492L162.918 40.416C161.707 40.9308 160.278 41.1869 158.629 41.1869C156.645 41.1869 155.087 40.6175 153.954 39.48C152.823 38.3425 152.257 36.815 152.257 34.8988C152.257 33.0177 152.783 31.4512 153.838 30.2019C154.942 28.8681 156.434 28.2012 158.311 28.2012C160.155 28.2012 161.551 28.8681 162.499 30.2019C163.25 31.2614 163.627 32.5718 163.627 34.1279ZM160.917 33.409C160.935 32.5874 160.75 31.8776 160.365 31.2783C159.873 30.5074 159.117 30.1226 158.099 30.1226C157.17 30.1226 156.414 30.4983 155.837 31.2523C155.363 31.8516 155.082 32.5705 154.995 33.4077H160.917V33.409Z" fill="white"/>
<path d="M66.1526 13.0113C66.1526 14.5414 65.682 15.6932 64.742 16.4667C63.8713 17.1804 62.634 17.5379 61.0313 17.5379C60.2366 17.5379 59.5566 17.5041 58.9873 17.4365V9.07621C59.73 8.95921 60.53 8.89941 61.394 8.89941C62.9206 8.89941 64.0713 9.22311 64.8473 9.87051C65.7166 10.6024 66.1526 11.6489 66.1526 13.0113ZM64.6793 13.049C64.6793 12.0571 64.41 11.2966 63.8713 10.7662C63.3326 10.2371 62.546 9.97191 61.51 9.97191C61.07 9.97191 60.6953 10.0005 60.3846 10.0603V16.416C60.5566 16.442 60.8713 16.4537 61.3286 16.4537C62.398 16.4537 63.2233 16.1638 63.8046 15.584C64.386 15.0042 64.6793 14.1592 64.6793 13.049Z" fill="white"/>
<path d="M73.9646 14.3482C73.9646 15.2907 73.6886 16.0629 73.1366 16.6687C72.5579 17.2914 71.7913 17.6021 70.8339 17.6021C69.9113 17.6021 69.1766 17.3044 68.6286 16.7064C68.0819 16.1097 67.8086 15.357 67.8086 14.4496C67.8086 13.5006 68.0899 12.7219 68.6553 12.1174C69.2206 11.5129 69.9806 11.21 70.9379 11.21C71.8606 11.21 72.6019 11.5077 73.1633 12.1044C73.6966 12.6842 73.9646 13.433 73.9646 14.3482ZM72.5153 14.3924C72.5153 13.8269 72.3899 13.342 72.1406 12.9377C71.8473 12.4489 71.4299 12.2045 70.8873 12.2045C70.3259 12.2045 69.8993 12.4489 69.6059 12.9377C69.3553 13.342 69.2313 13.8347 69.2313 14.4171C69.2313 14.9826 69.3566 15.4675 69.6059 15.8718C69.9086 16.3606 70.3299 16.605 70.8739 16.605C71.4073 16.605 71.8259 16.3567 72.1273 15.8588C72.3859 15.4467 72.5153 14.9579 72.5153 14.3924Z" fill="white"/>
<path d="M84.4392 11.334L82.4725 17.4622H81.1925L80.3779 14.8011C80.1712 14.1368 80.0032 13.4764 79.8725 12.8212H79.8472C79.7258 13.4946 79.5579 14.1537 79.3419 14.8011L78.4765 17.4622H77.1818L75.3325 11.334H76.7685L77.4792 14.2473C77.6512 14.9363 77.7925 15.5928 77.9059 16.2142H77.9312C78.0352 15.702 78.2072 15.0494 78.4498 14.2603L79.3419 11.3353H80.4805L81.3352 14.1979C81.5418 14.896 81.7098 15.5681 81.8392 16.2155H81.8778C81.9725 15.585 82.1152 14.9129 82.3045 14.1979L83.0672 11.3353H84.4392V11.334Z" fill="white"/>
<path d="M91.6831 17.463H90.2858V13.953C90.2858 12.8714 89.8645 12.3306 89.0191 12.3306C88.6045 12.3306 88.2698 12.4788 88.0098 12.7765C87.7525 13.0742 87.6218 13.4252 87.6218 13.8269V17.4617H86.2245V13.0859C86.2245 12.5477 86.2072 11.964 86.1738 11.3322H87.4018L87.4672 12.2903H87.5058C87.6685 11.9926 87.9112 11.7469 88.2298 11.5506C88.6085 11.3218 89.0325 11.2061 89.4965 11.2061C90.0831 11.2061 90.5711 11.3907 90.9591 11.7612C91.4418 12.2149 91.6831 12.8922 91.6831 13.7918V17.463Z" fill="white"/>
<path d="M95.5366 17.4626H94.1406V8.52246H95.5366V17.4626Z" fill="white"/>
<path d="M103.763 14.3482C103.763 15.2907 103.487 16.0629 102.935 16.6687C102.357 17.2914 101.589 17.6021 100.633 17.6021C99.7088 17.6021 98.9741 17.3044 98.4274 16.7064C97.8808 16.1097 97.6074 15.357 97.6074 14.4496C97.6074 13.5006 97.8888 12.7219 98.4541 12.1174C99.0194 11.5129 99.7794 11.21 100.735 11.21C101.659 11.21 102.399 11.5077 102.962 12.1044C103.495 12.6842 103.763 13.433 103.763 14.3482ZM102.313 14.3924C102.313 13.8269 102.187 13.342 101.938 12.9377C101.646 12.4489 101.227 12.2045 100.686 12.2045C100.123 12.2045 99.6968 12.4489 99.4048 12.9377C99.1541 13.342 99.0301 13.8347 99.0301 14.4171C99.0301 14.9826 99.1554 15.4675 99.4048 15.8718C99.7074 16.3606 100.129 16.605 100.673 16.605C101.206 16.605 101.623 16.3567 101.925 15.8588C102.185 15.4467 102.313 14.9579 102.313 14.3924Z" fill="white"/>
<path d="M110.526 17.463H109.271L109.167 16.7571H109.129C108.699 17.32 108.087 17.6021 107.293 17.6021C106.699 17.6021 106.219 17.4162 105.858 17.047C105.53 16.7116 105.366 16.2943 105.366 15.799C105.366 15.0502 105.686 14.4795 106.33 14.0843C106.973 13.6891 107.877 13.4954 109.041 13.5045V13.3901C109.041 12.5828 108.606 12.1798 107.735 12.1798C107.115 12.1798 106.569 12.3319 106.097 12.6335L105.813 11.7391C106.397 11.3868 107.118 11.21 107.969 11.21C109.611 11.21 110.435 12.055 110.435 13.745V16.0018C110.435 16.6141 110.466 17.1016 110.526 17.463ZM109.075 15.357V14.4119C107.534 14.3859 106.763 14.798 106.763 15.6469C106.763 15.9667 106.851 16.2059 107.031 16.3658C107.211 16.5257 107.441 16.605 107.714 16.605C108.021 16.605 108.307 16.5101 108.569 16.3216C108.831 16.1318 108.993 15.8913 109.053 15.5962C109.067 15.5299 109.075 15.4493 109.075 15.357Z" fill="white"/>
<path d="M118.466 17.4626H117.226L117.161 16.4785H117.122C116.726 17.2273 116.051 17.6017 115.103 17.6017C114.346 17.6017 113.715 17.3118 113.215 16.732C112.715 16.1522 112.466 15.3995 112.466 14.4752C112.466 13.4833 112.737 12.6799 113.281 12.0663C113.807 11.4943 114.453 11.2083 115.221 11.2083C116.065 11.2083 116.655 11.4852 116.991 12.0403H117.018V8.52246H118.417V15.8116C118.417 16.4083 118.433 16.9582 118.466 17.4626ZM117.018 14.8782V13.8564C117.018 13.6796 117.005 13.5366 116.979 13.4274C116.901 13.0998 116.731 12.8242 116.474 12.6019C116.214 12.3796 115.901 12.2678 115.539 12.2678C115.018 12.2678 114.61 12.4693 114.31 12.8736C114.013 13.2779 113.862 13.794 113.862 14.4245C113.862 15.0303 114.005 15.5217 114.291 15.9C114.594 16.303 115.002 16.5045 115.513 16.5045C115.971 16.5045 116.338 16.3368 116.617 16.0001C116.886 15.6894 117.018 15.315 117.018 14.8782Z" fill="white"/>
<path d="M130.417 14.3482C130.417 15.2907 130.141 16.0629 129.589 16.6687C129.01 17.2914 128.245 17.6021 127.286 17.6021C126.365 17.6021 125.63 17.3044 125.081 16.7064C124.534 16.1097 124.261 15.357 124.261 14.4496C124.261 13.5006 124.542 12.7219 125.107 12.1174C125.673 11.5129 126.433 11.21 127.391 11.21C128.313 11.21 129.055 11.5077 129.615 12.1044C130.149 12.6842 130.417 13.433 130.417 14.3482ZM128.969 14.3924C128.969 13.8269 128.843 13.342 128.594 12.9377C128.299 12.4489 127.883 12.2045 127.339 12.2045C126.779 12.2045 126.353 12.4489 126.058 12.9377C125.807 13.342 125.683 13.8347 125.683 14.4171C125.683 14.9826 125.809 15.4675 126.058 15.8718C126.361 16.3606 126.782 16.605 127.326 16.605C127.859 16.605 128.279 16.3567 128.581 15.8588C128.838 15.4467 128.969 14.9579 128.969 14.3924Z" fill="white"/>
<path d="M137.93 17.463H136.534V13.953C136.534 12.8714 136.113 12.3306 135.266 12.3306C134.851 12.3306 134.517 12.4788 134.258 12.7765C133.999 13.0742 133.87 13.4252 133.87 13.8269V17.4617H132.471V13.0859C132.471 12.5477 132.455 11.964 132.422 11.3322H133.649L133.714 12.2903H133.753C133.917 11.9926 134.159 11.7469 134.477 11.5506C134.857 11.3218 135.279 11.2061 135.745 11.2061C136.33 11.2061 136.818 11.3907 137.206 11.7612C137.69 12.2149 137.93 12.8922 137.93 13.7918V17.463Z" fill="white"/>
<path d="M147.334 12.3553H145.795V15.3323C145.795 16.0889 146.069 16.4672 146.61 16.4672C146.861 16.4672 147.069 16.4464 147.233 16.4035L147.269 17.437C146.993 17.5384 146.63 17.5891 146.183 17.5891C145.631 17.5891 145.202 17.4253 144.891 17.0977C144.579 16.7701 144.425 16.2189 144.425 15.4454V12.3553H143.506V11.3348H144.425V10.2116L145.794 9.80859V11.3335H147.333V12.3553H147.334Z" fill="white"/>
<path d="M154.731 17.4626H153.333V13.9786C153.333 12.8801 152.911 12.3302 152.067 12.3302C151.419 12.3302 150.977 12.6487 150.734 13.2857C150.693 13.4196 150.669 13.5834 150.669 13.7758V17.4613H149.273V8.52246H150.669V12.2158H150.695C151.135 11.5437 151.766 11.2083 152.583 11.2083C153.162 11.2083 153.641 11.3929 154.021 11.7634C154.494 12.2249 154.731 12.9113 154.731 13.8187V17.4626Z" fill="white"/>
<path d="M162.362 14.1089C162.362 14.3533 162.343 14.5587 162.31 14.7264H158.119C158.138 15.3322 158.338 15.7937 158.726 16.1135C159.081 16.3995 159.538 16.5425 160.098 16.5425C160.718 16.5425 161.283 16.4463 161.793 16.2526L162.011 17.199C161.415 17.4512 160.714 17.5773 159.902 17.5773C158.929 17.5773 158.162 17.2978 157.607 16.7388C157.05 16.1798 156.774 15.4297 156.774 14.4885C156.774 13.5642 157.031 12.7946 157.55 12.181C158.091 11.5258 158.823 11.1982 159.747 11.1982C160.651 11.1982 161.338 11.5258 161.802 12.181C162.177 12.701 162.362 13.3445 162.362 14.1089ZM161.029 13.7566C161.039 13.3523 160.947 13.0039 160.758 12.7101C160.515 12.3318 160.146 12.142 159.646 12.142C159.19 12.142 158.818 12.3266 158.534 12.6971C158.302 12.9922 158.165 13.3445 158.119 13.7566H161.029Z" fill="white"/>
</svg>
