<svg width="172" height="44" viewBox="0 0 172 44" fill="none" xmlns="http://www.w3.org/2000/svg">
<rect width="172" height="44" rx="6.28571" fill="white"/>
<path d="M46.5284 22.82C46.5412 21.8317 46.8044 20.8626 47.2937 20.003C47.783 19.1433 48.4823 18.4211 49.3267 17.9034C48.7903 17.1394 48.0827 16.5107 47.2599 16.0672C46.4372 15.6237 45.5221 15.3776 44.5874 15.3484C42.5933 15.1397 40.6602 16.5383 39.644 16.5383C38.6082 16.5383 37.0437 15.3691 35.359 15.4037C34.2693 15.4388 33.2073 15.7548 32.2765 16.3209C31.3456 16.887 30.5777 17.6838 30.0476 18.6339C27.7511 22.5989 29.464 28.4261 31.664 31.6312C32.7646 33.2006 34.051 34.9537 35.7342 34.8915C37.3813 34.8234 37.9964 33.8441 39.9846 33.8441C41.9543 33.8441 42.5315 34.8915 44.2488 34.852C46.0162 34.8234 47.1298 33.2756 48.1918 31.6913C48.9827 30.573 49.5912 29.3371 49.9949 28.0293C48.9681 27.5962 48.0918 26.8713 47.4754 25.945C46.8589 25.0186 46.5296 23.9318 46.5284 22.82Z" fill="#121212"/>
<path d="M43.2849 13.2403C44.2485 12.0867 44.7233 10.604 44.6083 9.10693C43.1361 9.26113 41.7761 9.96281 40.7994 11.0722C40.3219 11.6141 39.9562 12.2446 39.7231 12.9276C39.4901 13.6105 39.3943 14.3326 39.4413 15.0525C40.1777 15.0601 40.9062 14.9009 41.572 14.587C42.2378 14.2731 42.8234 13.8127 43.2849 13.2403Z" fill="#121212"/>
<path fill-rule="evenodd" clip-rule="evenodd" d="M85.4935 7.73535H86.5083V14.8646H85.4935V7.73535ZM62.5147 8.26668C62.0989 8.10563 61.6525 8.0386 61.2076 8.07044H58.7465V14.865H61.2076C63.2372 14.865 64.4136 13.6172 64.4136 11.4466C64.4697 11.0053 64.4269 10.5571 64.2883 10.1343C64.1497 9.71156 63.9187 9.32474 63.612 9.00177C63.3053 8.6788 62.9305 8.42773 62.5147 8.26668ZM61.0894 13.9041H59.8047V9.03062H61.0894C61.4057 9.01312 61.7219 9.06559 62.0155 9.18429C62.3091 9.30298 62.5727 9.48496 62.7874 9.71718C63.0022 9.9494 63.1627 10.2261 63.2577 10.5275C63.3526 10.8289 63.3795 11.1474 63.3364 11.4604C63.3828 11.7746 63.3584 12.0952 63.2649 12.3988C63.1715 12.7024 63.0113 12.9814 62.796 13.2154C62.5808 13.4495 62.3159 13.6328 62.0207 13.7519C61.7254 13.8711 61.4073 13.923 61.0894 13.9041ZM65.7219 11.3003C65.6147 11.6215 65.5761 11.9615 65.6084 12.2985C65.5754 12.6358 65.6136 12.9762 65.7205 13.298C65.8274 13.6197 66.0006 13.9155 66.2289 14.1665C66.4573 14.4175 66.7358 14.6181 67.0466 14.7553C67.3573 14.8926 67.6934 14.9635 68.0333 14.9635C68.3731 14.9635 68.7092 14.8926 69.02 14.7553C69.3307 14.6181 69.6092 14.4175 69.8376 14.1665C70.066 13.9155 70.2392 13.6197 70.346 13.298C70.4529 12.9762 70.4911 12.6358 70.4582 12.2985C70.4905 11.9615 70.4518 11.6215 70.3447 11.3003C70.2375 10.9791 70.0642 10.6838 69.8359 10.4333C69.6076 10.1828 69.3293 9.98267 69.0189 9.84571C68.7084 9.70875 68.3727 9.638 68.0333 9.638C67.6938 9.638 67.3581 9.70875 67.0477 9.84571C66.7373 9.98267 66.459 10.1828 66.2306 10.4333C66.0023 10.6838 65.829 10.9791 65.7219 11.3003ZM68.0349 10.537C68.9137 10.537 69.4144 11.187 69.4144 12.2985H69.4144C69.4144 13.4144 68.9137 14.0638 68.0349 14.0638C67.1529 14.0638 66.6567 13.4189 66.6567 12.2985C66.6567 11.187 67.1529 10.537 68.0349 10.537ZM76.9051 14.8651H75.8524L74.7896 11.0886H74.7093L73.6511 14.8651H72.6084L71.191 9.73749H72.2203L73.1414 13.6501H73.2173L74.2744 9.73749H75.248L76.3051 13.6501H76.3854L77.302 9.73749H78.3168L76.9051 14.8651ZM80.4854 9.73716H79.5086L79.5086 14.8647H80.5233V11.865C80.5053 11.6964 80.5241 11.5259 80.5784 11.3652C80.6327 11.2045 80.7212 11.0574 80.8378 10.934C80.9544 10.8105 81.0964 10.7137 81.254 10.6501C81.4117 10.5866 81.5813 10.5577 81.7511 10.5656C82.5016 10.5656 82.8607 10.9754 82.8607 11.7994V14.8647H83.8755V11.5453C83.9122 11.2978 83.8926 11.0452 83.8182 10.8063C83.7437 10.5674 83.6163 10.3482 83.4454 10.1651C83.2744 9.98192 83.0644 9.83946 82.8307 9.74825C82.5971 9.65705 82.3459 9.61943 82.0957 9.63819C81.7764 9.6123 81.457 9.68641 81.1819 9.85016C80.9069 10.0139 80.6899 10.2592 80.5613 10.5517H80.4854V9.73716ZM88.0329 11.3004C87.9257 11.6216 87.8871 11.9616 87.9194 12.2986C87.8865 12.6359 87.9247 12.9764 88.0316 13.2981C88.1385 13.6198 88.3117 13.9156 88.5401 14.1666C88.7685 14.4176 89.047 14.6182 89.3578 14.7554C89.6686 14.8927 90.0047 14.9636 90.3445 14.9636C90.6844 14.9636 91.0205 14.8927 91.3313 14.7554C91.642 14.6182 91.9205 14.4176 92.1489 14.1666C92.3773 13.9156 92.5506 13.6198 92.6575 13.2981C92.7644 12.9764 92.8026 12.6359 92.7697 12.2986C92.802 11.9616 92.7633 11.6216 92.6561 11.3004C92.549 10.9792 92.3756 10.6838 92.1473 10.4333C91.919 10.1828 91.6406 9.98267 91.3302 9.84571C91.0197 9.70875 90.684 9.638 90.3445 9.638C90.0051 9.638 89.6693 9.70875 89.3589 9.84571C89.0484 9.98267 88.7701 10.1828 88.5418 10.4333C88.3134 10.6838 88.1401 10.9792 88.0329 11.3004ZM90.3459 10.5371C91.2247 10.5371 91.7254 11.1871 91.7254 12.2986C91.7254 13.4145 91.2247 14.0639 90.3459 14.0639C89.4639 14.0639 88.9676 13.4189 88.9676 12.2986C88.9676 11.1871 89.4638 10.5371 90.3459 10.5371ZM93.8376 13.4144C93.8376 12.4914 94.5268 11.9594 95.7501 11.8837L97.1429 11.8037V11.3611C97.1429 10.8195 96.7838 10.5137 96.0902 10.5137C95.5237 10.5137 95.1312 10.7211 95.0186 11.0836H94.0361C94.1398 10.2029 94.9706 9.638 96.1371 9.638C97.4262 9.638 98.1532 10.278 98.1532 11.3611V14.8645H97.1764V14.1439H97.0961C96.9331 14.4024 96.7043 14.6131 96.4329 14.7546C96.1616 14.896 95.8575 14.9631 95.5516 14.949C95.3357 14.9714 95.1176 14.9484 94.9112 14.8816C94.7047 14.8147 94.5147 14.7055 94.3532 14.5609C94.1917 14.4163 94.0624 14.2396 93.9736 14.0422C93.8848 13.8447 93.8385 13.6309 93.8376 13.4144ZM97.1429 12.9763V12.5476L95.8873 12.6277C95.1791 12.6749 94.858 12.9151 94.858 13.3672C94.858 13.8287 95.2594 14.0972 95.8115 14.0972C95.9732 14.1135 96.1366 14.0973 96.2919 14.0493C96.4472 14.0014 96.5913 13.9228 96.7155 13.8182C96.8397 13.7136 96.9416 13.5852 97.015 13.4406C97.0884 13.2959 97.1319 13.138 97.1429 12.9763ZM101.621 9.65195C100.322 9.65195 99.487 10.6784 99.487 12.2986C99.487 13.9227 100.313 14.9491 101.621 14.9491C101.947 14.961 102.269 14.884 102.554 14.7263C102.838 14.5686 103.074 14.3363 103.236 14.0544H103.316V14.8646H104.289V7.73535H103.274V10.5515H103.198C103.048 10.2678 102.82 10.0325 102.541 9.87324C102.262 9.71394 101.943 9.63718 101.621 9.65195ZM101.909 14.0406C101.049 14.0406 100.535 13.3861 100.535 12.2986H100.535C100.535 11.2199 101.055 10.561 101.909 10.561C102.759 10.561 103.293 11.2344 103.293 12.303C103.293 13.3767 102.764 14.0406 101.909 14.0406ZM108.487 12.2985C108.455 11.9615 108.493 11.6215 108.601 11.3003C108.708 10.9791 108.881 10.6838 109.109 10.4333C109.338 10.1828 109.616 9.98267 109.926 9.84571C110.237 9.70875 110.573 9.638 110.912 9.638C111.251 9.638 111.587 9.70875 111.898 9.84571C112.208 9.98267 112.486 10.1828 112.715 10.4333C112.943 10.6838 113.116 10.9791 113.223 11.3003C113.331 11.6215 113.369 11.9615 113.337 12.2985C113.37 12.6358 113.332 12.9762 113.225 13.298C113.118 13.6197 112.945 13.9155 112.716 14.1665C112.488 14.4175 112.209 14.6181 111.899 14.7553C111.588 14.8926 111.252 14.9635 110.912 14.9635C110.572 14.9635 110.236 14.8926 109.925 14.7553C109.615 14.6181 109.336 14.4175 109.108 14.1665C108.879 13.9155 108.706 13.6197 108.599 13.298C108.492 12.9762 108.454 12.6358 108.487 12.2985ZM112.293 12.2985C112.293 11.187 111.792 10.537 110.914 10.537C110.032 10.537 109.535 11.187 109.535 12.2985C109.535 13.4189 110.032 14.0638 110.914 14.0638C111.792 14.0638 112.293 13.4144 112.293 12.2985ZM115.675 9.73716H114.698V14.8647H115.713V11.865C115.695 11.6964 115.713 11.5259 115.768 11.3652C115.822 11.2045 115.911 11.0574 116.027 10.934C116.144 10.8105 116.286 10.7137 116.443 10.6501C116.601 10.5866 116.771 10.5577 116.94 10.5656C117.691 10.5656 118.05 10.9754 118.05 11.7994V14.8647H119.065V11.5453C119.102 11.2978 119.082 11.0452 119.008 10.8063C118.933 10.5674 118.806 10.3482 118.635 10.1651C118.464 9.98192 118.254 9.83946 118.02 9.74825C117.786 9.65705 117.535 9.61943 117.285 9.63819C116.966 9.6123 116.646 9.68641 116.371 9.85016C116.096 10.0139 115.879 10.2592 115.751 10.5517H115.675V9.73716ZM124.799 8.46019V9.76015H125.913V10.6125H124.799V13.2491C124.799 13.7863 125.02 14.0214 125.526 14.0214C125.655 14.021 125.784 14.0132 125.913 13.9981V14.841C125.73 14.8735 125.546 14.8908 125.361 14.8927C124.232 14.8927 123.783 14.4968 123.783 13.5082V10.6125H122.966V9.76011H123.783V8.46019H124.799ZM128.306 7.73535H127.3L127.3 14.8645H128.315V11.8699C128.299 11.696 128.322 11.5209 128.382 11.3568C128.441 11.1927 128.536 11.0435 128.659 10.9197C128.782 10.7958 128.931 10.7004 129.096 10.64C129.26 10.5795 129.435 10.5556 129.61 10.5699C130.327 10.5699 130.709 10.9847 130.709 11.8037V14.8646H131.725V11.5541C131.758 11.3077 131.736 11.0571 131.661 10.8201C131.586 10.5831 131.459 10.3655 131.29 10.1829C131.121 10.0004 130.914 9.85726 130.683 9.76384C130.452 9.67042 130.203 9.62898 129.954 9.64248C129.63 9.61624 129.305 9.69035 129.025 9.85472C128.744 10.0191 128.521 10.2657 128.386 10.561H128.306V7.73535ZM137.642 13.4801C137.504 13.9488 137.206 14.3541 136.798 14.6253C136.391 14.8965 135.901 15.0162 135.414 14.9636C135.075 14.9725 134.739 14.9078 134.428 14.774C134.116 14.6401 133.838 14.4404 133.612 14.1886C133.386 13.9367 133.218 13.6389 133.119 13.3157C133.02 12.9925 132.993 12.6517 133.039 12.317C132.994 11.9812 133.021 11.6396 133.12 11.3155C133.219 10.9913 133.386 10.6921 133.611 10.4381C133.836 10.1841 134.113 9.98117 134.423 9.84315C134.734 9.70513 135.07 9.63519 135.41 9.63808C136.84 9.63808 137.704 10.6128 137.704 12.223V12.5761H134.073V12.6328C134.057 12.8209 134.08 13.0104 134.142 13.1888C134.204 13.3673 134.303 13.531 134.431 13.6693C134.56 13.8076 134.717 13.9175 134.891 13.992C135.065 14.0664 135.253 14.1038 135.442 14.1017C135.685 14.1308 135.931 14.0872 136.148 13.9765C136.366 13.8658 136.546 13.693 136.665 13.4801L137.642 13.4801ZM134.073 11.8277H136.67C136.683 11.6556 136.659 11.4827 136.601 11.3202C136.543 11.1577 136.451 11.0091 136.332 10.884C136.213 10.7589 136.069 10.6601 135.909 10.5938C135.749 10.5276 135.577 10.4954 135.404 10.4994C135.229 10.4972 135.054 10.53 134.892 10.596C134.729 10.662 134.582 10.7597 134.457 10.8835C134.333 11.0073 134.235 11.1546 134.169 11.3168C134.103 11.4789 134.07 11.6526 134.073 11.8277ZM99.9013 28.914C100.059 30.3163 101.425 31.237 103.291 31.237C105.08 31.237 106.367 30.3163 106.367 29.0519C106.367 27.9543 105.591 27.2971 103.753 26.8467L101.915 26.4053C99.3114 25.7781 98.1026 24.5637 98.1026 22.5932C98.1026 20.1534 100.235 18.4776 103.261 18.4776C106.259 18.4776 108.313 20.1534 108.382 22.5932H106.24C106.112 21.1821 104.942 20.3303 103.232 20.3303C101.523 20.3303 100.353 21.1921 100.353 22.4464C100.353 23.4462 101.1 24.0344 102.928 24.4847L104.49 24.8673C107.4 25.5534 108.607 26.7188 108.607 28.7872C108.607 31.4327 106.495 33.0896 103.134 33.0896C99.9894 33.0896 97.8661 31.4716 97.729 28.9139L99.9013 28.914ZM66.3207 29.0317H60.9156L59.6175 32.8538H57.3281L62.4478 18.7132H64.8264L69.946 32.8538H67.6176L66.3207 29.0317ZM61.4754 27.268H65.7598L63.6477 21.0651H63.5886L61.4754 27.268ZM81.003 27.6997C81.003 30.9035 79.2834 32.9618 76.6884 32.9618C76.0311 32.9961 75.3773 32.8451 74.8021 32.5261C74.2268 32.2071 73.7532 31.733 73.4356 31.1581H73.3865V36.2645H71.2643V22.5443H73.3184V24.2591H73.3575C73.6897 23.6869 74.1713 23.2153 74.7509 22.8943C75.3306 22.5734 75.9867 22.4152 76.6494 22.4365C79.2734 22.4365 81.003 24.5048 81.003 27.6997ZM78.8217 27.6997C78.8217 25.6124 77.74 24.2402 76.0896 24.2402C74.4682 24.2402 73.3776 25.6413 73.3776 27.6997C73.3776 29.777 74.4682 31.1681 76.0896 31.1681C77.74 31.1681 78.8217 29.8059 78.8217 27.6997H78.8217ZM88.067 32.9618C90.6619 32.9618 92.382 30.9035 92.382 27.6997C92.382 24.5048 90.6519 22.4365 88.0279 22.4365C87.3652 22.4152 86.7092 22.5734 86.1295 22.8943C85.5498 23.2153 85.0682 23.6869 84.736 24.2591H84.697V22.5443H82.6429V36.2645H84.765V31.1581H84.8141C85.1317 31.733 85.6053 32.2071 86.1806 32.5261C86.7559 32.8451 87.4096 32.9961 88.067 32.9618ZM87.4681 24.2402C89.1186 24.2402 90.2003 25.6124 90.2003 27.6997C90.2003 29.8059 89.1186 31.1681 87.4681 31.1681C85.8467 31.1681 84.7561 29.777 84.7561 27.6997C84.7561 25.6413 85.8467 24.2402 87.4681 24.2402ZM113.191 22.5443V20.1045H111.059V22.5443H109.556V24.2202H111.059V30.1294C111.059 32.1289 111.875 32.9128 113.968 32.9128C114.363 32.9202 114.758 32.8874 115.147 32.815V31.1492C114.915 31.1777 114.682 31.1941 114.449 31.1981C113.585 31.1981 113.191 30.7867 113.191 29.9037V24.2202H115.157V22.5443H113.191ZM116.294 27.6998C116.294 24.456 118.209 22.4177 121.197 22.4177C124.194 22.4177 126.101 24.456 126.101 27.6998C126.101 30.9525 124.204 32.9819 121.197 32.9819C118.19 32.9819 116.294 30.9525 116.294 27.6998ZM123.939 27.6998C123.939 25.4747 122.916 24.1614 121.197 24.1614C119.477 24.1614 118.455 25.4847 118.455 27.6998C118.455 29.9339 119.477 31.2372 121.197 31.2372C122.916 31.2372 123.939 29.9339 123.939 27.6998ZM129.874 22.5442H127.85L127.85 32.8538H129.972V26.7388C129.937 26.4331 129.969 26.1235 130.066 25.8312C130.162 25.5389 130.321 25.2709 130.531 25.0456C130.741 24.8202 130.997 24.6429 131.283 24.5257C131.568 24.4086 131.875 24.3544 132.184 24.3669C132.506 24.3575 132.828 24.4007 133.137 24.4947V22.5153C132.898 22.462 132.655 22.4355 132.41 22.4364C131.844 22.4148 131.288 22.5882 130.835 22.9274C130.382 23.2666 130.06 23.751 129.923 24.299H129.874V22.5442ZM142.922 29.826C142.636 31.6976 140.808 32.982 138.47 32.982C135.462 32.982 133.596 30.9725 133.596 27.7488C133.596 24.515 135.472 22.4177 138.381 22.4177C141.241 22.4177 143.04 24.3771 143.04 27.503V28.228H135.738V28.3559C135.704 28.7353 135.752 29.1176 135.878 29.4772C136.003 29.8369 136.204 30.1657 136.468 30.4419C136.731 30.7181 137.05 30.9353 137.403 31.0791C137.757 31.223 138.137 31.2901 138.519 31.2761C139.02 31.323 139.524 31.2071 139.954 30.9459C140.384 30.6846 140.718 30.2918 140.907 29.826L142.922 29.826ZM135.748 26.749H140.917C140.936 26.4079 140.884 26.0665 140.764 25.7463C140.645 25.426 140.46 25.1339 140.222 24.8882C139.984 24.6425 139.697 24.4486 139.381 24.3185C139.064 24.1884 138.723 24.1251 138.381 24.1324C138.035 24.1304 137.693 24.1966 137.373 24.3273C137.053 24.4579 136.762 24.6504 136.518 24.8937C136.273 25.137 136.079 25.4262 135.947 25.7446C135.815 26.0631 135.747 26.4044 135.748 26.749Z" fill="#121212"/>
</svg>
