<svg xmlns="http://www.w3.org/2000/svg" width="181" height="52" viewBox="0 0 181 52" fill="none">
  <path d="M179.753 46.0034C179.753 48.7745 177.461 51.0192 174.627 51.0192H6.88512C4.05219 51.0192 1.75269 48.7745 1.75269 46.0034V6.00382C1.75269 3.23398 4.05219 0.981445 6.88512 0.981445H174.626C177.461 0.981445 179.751 3.23398 179.751 6.00382L179.753 46.0034Z" fill="#1F2024"/>
  <path d="M174.086 1.04162C177.173 1.04162 179.684 3.4905 179.684 6.5V45.5C179.684 48.5095 177.173 50.9584 174.086 50.9584H7.41935C4.33269 50.9584 1.82102 48.5095 1.82102 45.5V6.5C1.82102 3.4905 4.33269 1.04162 7.41935 1.04162H174.086ZM174.086 2.74817e-06H7.41935C3.75435 2.74817e-06 0.752686 2.92663 0.752686 6.5V45.5C0.752686 49.0734 3.75435 52 7.41935 52H174.086C177.751 52 180.753 49.0734 180.753 45.5V6.5C180.753 2.92663 177.751 2.74817e-06 174.086 2.74817e-06Z" fill="#A6A6A6"/>
  <path d="M40.9234 25.7192C40.8847 21.5293 44.4421 19.4909 44.6047 19.396C42.5901 16.5321 39.4674 16.1408 38.3701 16.1096C35.7474 15.8405 33.2034 17.6397 31.8674 17.6397C30.5047 17.6397 28.4474 16.1356 26.2301 16.1798C23.3767 16.2227 20.7074 17.8334 19.2434 20.3346C16.2221 25.4345 18.4754 32.929 21.3701 37.0513C22.8181 39.0702 24.5101 41.3244 26.7247 41.2451C28.8914 41.158 29.7007 39.8983 32.3154 39.8983C34.9061 39.8983 35.6661 41.2451 37.9247 41.1944C40.2501 41.158 41.7141 39.1664 43.1114 37.1293C44.7847 34.8153 45.4567 32.5364 45.4834 32.4194C45.4287 32.4012 40.9674 30.7411 40.9234 25.7192Z" fill="white"/>
  <path d="M36.6567 13.3978C37.8221 11.9769 38.6194 10.0438 38.3981 8.08208C36.7114 8.15488 34.6021 9.21958 33.3874 10.6093C32.3127 11.8339 31.3527 13.8411 31.6007 15.7287C33.4954 15.8665 35.4407 14.7966 36.6567 13.3978Z" fill="white"/>
  <path d="M71.98 35.5543H68.952L67.2933 30.4726H61.528L59.948 35.5543H57L62.712 18.2539H66.24L71.98 35.5543ZM66.7933 28.3406L65.2933 23.8231C65.1347 23.3616 64.8373 22.2748 64.3987 20.564H64.3453C64.1707 21.2998 63.8893 22.3866 63.5027 23.8231L62.0293 28.3406H66.7933Z" fill="white"/>
  <path d="M86.6692 29.1631C86.6692 31.2847 86.0812 32.9617 84.9052 34.1928C83.8519 35.2887 82.5439 35.836 80.9826 35.836C79.2972 35.836 78.0866 35.2458 77.3492 34.0654H77.2959V40.6369H74.4532V27.1858C74.4532 25.852 74.4172 24.4831 74.3479 23.0791H76.8479L77.0066 25.0564H77.0599C78.0079 23.5666 79.4466 22.823 81.3772 22.823C82.8866 22.823 84.1466 23.4041 85.1546 24.5676C86.1652 25.7324 86.6692 27.2638 86.6692 29.1631ZM83.7732 29.2645C83.7732 28.0503 83.4932 27.0493 82.9306 26.2615C82.3159 25.4399 81.4906 25.0291 80.4559 25.0291C79.7546 25.0291 79.1172 25.2579 78.5479 25.709C77.9772 26.164 77.6039 26.7581 77.4292 27.4939C77.3412 27.8371 77.2972 28.1179 77.2972 28.3389V30.4189C77.2972 31.3263 77.5826 32.092 78.1532 32.7173C78.7239 33.3426 79.4652 33.6546 80.3772 33.6546C81.4479 33.6546 82.2812 33.2516 82.8772 32.4482C83.4746 31.6435 83.7732 30.5827 83.7732 29.2645Z" fill="white"/>
  <path d="M101.385 29.1631C101.385 31.2847 100.797 32.9617 99.6201 34.1928C98.5681 35.2887 97.2601 35.836 95.6988 35.836C94.0134 35.836 92.8028 35.2458 92.0668 34.0654H92.0134V40.6369H89.1708V27.1858C89.1708 25.852 89.1348 24.4831 89.0654 23.0791H91.5654L91.7241 25.0564H91.7774C92.7241 23.5666 94.1628 22.823 96.0948 22.823C97.6028 22.823 98.8628 23.4041 99.8734 24.5676C100.88 25.7324 101.385 27.2638 101.385 29.1631ZM98.4894 29.2645C98.4894 28.0503 98.2081 27.0493 97.6454 26.2615C97.0308 25.4399 96.2081 25.0291 95.1721 25.0291C94.4694 25.0291 93.8334 25.2579 93.2628 25.709C92.6921 26.164 92.3201 26.7581 92.1454 27.4939C92.0588 27.8371 92.0134 28.1179 92.0134 28.3389V30.4189C92.0134 31.3263 92.2988 32.092 92.8668 32.7173C93.4374 33.3413 94.1788 33.6546 95.0934 33.6546C96.1641 33.6546 96.9974 33.2516 97.5934 32.4482C98.1908 31.6435 98.4894 30.5827 98.4894 29.2645Z" fill="white"/>
  <path d="M117.839 30.7023C117.839 32.1739 117.315 33.3712 116.263 34.2955C115.107 35.3056 113.497 35.81 111.429 35.81C109.52 35.81 107.989 35.4512 106.831 34.7323L107.489 32.4222C108.737 33.158 110.107 33.5272 111.599 33.5272C112.669 33.5272 113.503 33.2906 114.101 32.82C114.697 32.3494 114.995 31.7176 114.995 30.9298C114.995 30.2278 114.749 29.6363 114.257 29.1566C113.768 28.6769 112.951 28.231 111.809 27.8189C108.703 26.6892 107.151 25.0343 107.151 22.8581C107.151 21.4359 107.695 20.2698 108.784 19.3624C109.869 18.4537 111.317 18 113.128 18C114.743 18 116.084 18.2743 117.155 18.8216L116.444 21.081C115.444 20.5506 114.313 20.2854 113.048 20.2854C112.048 20.2854 111.267 20.5259 110.707 21.0043C110.233 21.432 109.996 21.9533 109.996 22.5708C109.996 23.2546 110.267 23.8201 110.811 24.2647C111.284 24.6755 112.144 25.1201 113.392 25.5998C114.919 26.1991 116.04 26.8998 116.761 27.7032C117.48 28.504 117.839 29.5063 117.839 30.7023Z" fill="white"/>
  <path d="M127.237 25.1591H124.104V31.2158C124.104 32.7563 124.656 33.5259 125.763 33.5259C126.271 33.5259 126.692 33.483 127.025 33.3972L127.104 35.5019C126.544 35.706 125.807 35.8087 124.893 35.8087C123.771 35.8087 122.893 35.4746 122.26 34.8077C121.629 34.1395 121.312 33.0189 121.312 31.4446V25.1565H119.445V23.0765H121.312V20.7924L124.104 19.9708V23.0765H127.237V25.1591Z" fill="white"/>
  <path d="M141.375 29.2138C141.375 31.1313 140.812 32.7056 139.689 33.9367C138.512 35.2042 136.949 35.836 135.001 35.836C133.124 35.836 131.629 35.2289 130.515 34.0147C129.4 32.8005 128.843 31.2678 128.843 29.4205C128.843 27.4874 129.416 25.904 130.567 24.6729C131.715 23.4405 133.264 22.8243 135.212 22.8243C137.089 22.8243 138.6 23.4314 139.74 24.6469C140.831 25.826 141.375 27.3483 141.375 29.2138ZM138.425 29.3035C138.425 28.153 138.173 27.1663 137.663 26.3434C137.067 25.3476 136.215 24.851 135.111 24.851C133.968 24.851 133.1 25.3489 132.504 26.3434C131.993 27.1676 131.741 28.1699 131.741 29.3555C131.741 30.506 131.993 31.4927 132.504 32.3143C133.119 33.3101 133.977 33.8067 135.085 33.8067C136.171 33.8067 137.023 33.2997 137.637 32.2883C138.161 31.4498 138.425 30.4527 138.425 29.3035Z" fill="white"/>
  <path d="M150.615 25.5166C150.333 25.4659 150.033 25.4399 149.719 25.4399C148.719 25.4399 147.945 25.8078 147.401 26.5449C146.928 27.1949 146.691 28.0165 146.691 29.0084V35.5539H143.849L143.876 27.0077C143.876 25.5699 143.84 24.2608 143.769 23.0804H146.245L146.349 25.4672H146.428C146.728 24.6469 147.201 23.9865 147.849 23.4912C148.483 23.0453 149.167 22.823 149.904 22.823C150.167 22.823 150.404 22.8412 150.615 22.8737V25.5166Z" fill="white"/>
  <path d="M163.328 28.7263C163.328 29.2229 163.295 29.6415 163.224 29.9834H154.696C154.729 31.2158 155.141 32.1583 155.933 32.8083C156.652 33.3894 157.581 33.6806 158.723 33.6806C159.985 33.6806 161.137 33.4843 162.173 33.0904L162.619 35.0144C161.408 35.5292 159.979 35.7853 158.329 35.7853C156.345 35.7853 154.788 35.2159 153.655 34.0784C152.524 32.9409 151.957 31.4134 151.957 29.4972C151.957 27.6161 152.484 26.0496 153.539 24.8003C154.643 23.4665 156.135 22.7996 158.012 22.7996C159.856 22.7996 161.252 23.4665 162.2 24.8003C162.951 25.8598 163.328 27.1702 163.328 28.7263ZM160.617 28.0074C160.636 27.1858 160.451 26.476 160.065 25.8767C159.573 25.1058 158.817 24.721 157.8 24.721C156.871 24.721 156.115 25.0967 155.537 25.8507C155.064 26.45 154.783 27.1689 154.696 28.0061H160.617V28.0074Z" fill="white"/>
</svg>