<svg width="180" height="52" viewBox="0 0 180 52" fill="none" xmlns="http://www.w3.org/2000/svg">
<path d="M179 46.0029C179 48.774 176.709 51.0187 173.874 51.0187H6.13243C3.2995 51.0187 1 48.774 1 46.0029V6.00333C1 3.23349 3.2995 0.980957 6.13243 0.980957H173.873C176.709 0.980957 178.999 3.23349 178.999 6.00333L179 46.0029Z" fill="black"/>
<path d="M173.333 1.04163C176.42 1.04163 178.932 3.4905 178.932 6.5V45.5C178.932 48.5095 176.42 50.9584 173.333 50.9584H6.66667C3.58 50.9584 1.06833 48.5095 1.06833 45.5V6.5C1.06833 3.4905 3.58 1.04163 6.66667 1.04163H173.333ZM173.333 2.74817e-06H6.66667C3.00167 2.74817e-06 0 2.92663 0 6.5V45.5C0 49.0734 3.00167 52 6.66667 52H173.333C176.998 52 180 49.0734 180 45.5V6.5C180 2.92663 176.998 2.74817e-06 173.333 2.74817e-06Z" fill="#A6A6A6"/>
<path d="M63.88 24.192C63.624 23.7227 63.272 23.3653 62.824 23.12C62.376 22.8747 61.8533 22.752 61.256 22.752C60.5947 22.752 60.008 22.9013 59.496 23.2C58.984 23.4987 58.584 23.9253 58.296 24.48C58.008 25.0347 57.864 25.6747 57.864 26.4C57.864 27.1467 58.008 27.7973 58.296 28.352C58.5947 28.9067 59.0053 29.3333 59.528 29.632C60.0507 29.9307 60.6587 30.08 61.352 30.08C62.2053 30.08 62.904 29.856 63.448 29.408C63.992 28.9493 64.3493 28.3147 64.52 27.504H60.68V25.792H66.728V27.744C66.5787 28.5227 66.2587 29.2427 65.768 29.904C65.2773 30.5653 64.6427 31.0987 63.864 31.504C63.096 31.8987 62.232 32.096 61.272 32.096C60.1947 32.096 59.2187 31.856 58.344 31.376C57.48 30.8853 56.7973 30.208 56.296 29.344C55.8053 28.48 55.56 27.4987 55.56 26.4C55.56 25.3013 55.8053 24.32 56.296 23.456C56.7973 22.5813 57.48 21.904 58.344 21.424C59.2187 20.9333 60.1893 20.688 61.256 20.688C62.5147 20.688 63.608 20.9973 64.536 21.616C65.464 22.224 66.104 23.0827 66.456 24.192H63.88ZM76.6253 27.376C76.6253 27.696 76.6039 27.984 76.5613 28.24H70.0813C70.1346 28.88 70.3586 29.3813 70.7533 29.744C71.1479 30.1067 71.6333 30.288 72.2093 30.288C73.0413 30.288 73.6333 29.9307 73.9853 29.216H76.4013C76.1453 30.0693 75.6546 30.7733 74.9293 31.328C74.2039 31.872 73.3133 32.144 72.2573 32.144C71.4039 32.144 70.6359 31.9573 69.9533 31.584C69.2813 31.2 68.7533 30.6613 68.3693 29.968C67.9959 29.2747 67.8092 28.4747 67.8092 27.568C67.8092 26.6507 67.9959 25.8453 68.3693 25.152C68.7426 24.4587 69.2653 23.9253 69.9373 23.552C70.6093 23.1787 71.3826 22.992 72.2573 22.992C73.0999 22.992 73.8519 23.1733 74.5133 23.536C75.1853 23.8987 75.7026 24.416 76.0653 25.088C76.4386 25.7493 76.6253 26.512 76.6253 27.376ZM74.3053 26.736C74.2946 26.16 74.0866 25.7013 73.6813 25.36C73.2759 25.008 72.7799 24.832 72.1933 24.832C71.6386 24.832 71.1693 25.0027 70.7853 25.344C70.4119 25.6747 70.1826 26.1387 70.0973 26.736H74.3053ZM80.8683 24.976V29.264C80.8683 29.5627 80.9376 29.7813 81.0763 29.92C81.2256 30.048 81.4709 30.112 81.8123 30.112H82.8523V32H81.4443C79.5563 32 78.6123 31.0827 78.6123 29.248V24.976H77.5563V23.136H78.6123V20.944H80.8683V23.136H82.8523V24.976H80.8683ZM90.5159 22.64V25.44H94.2759V27.216H90.5159V30.176H94.7559V32H88.2759V20.816H94.7559V22.64H90.5159ZM101.688 32L99.8635 29.248L98.2475 32H95.8475L98.7435 27.552L95.8155 23.136H98.3435L100.152 25.872L101.784 23.136H104.184L101.272 27.552L104.216 32H101.688ZM108.04 24.976V29.264C108.04 29.5627 108.109 29.7813 108.248 29.92C108.397 30.048 108.643 30.112 108.984 30.112H110.024V32H108.616C106.728 32 105.784 31.0827 105.784 29.248V24.976H104.728V23.136H105.784V20.944H108.04V23.136H110.024V24.976H108.04ZM119.875 27.376C119.875 27.696 119.854 27.984 119.811 28.24H113.331C113.385 28.88 113.609 29.3813 114.003 29.744C114.398 30.1067 114.883 30.288 115.459 30.288C116.291 30.288 116.883 29.9307 117.235 29.216H119.651C119.395 30.0693 118.905 30.7733 118.179 31.328C117.454 31.872 116.563 32.144 115.507 32.144C114.654 32.144 113.886 31.9573 113.203 31.584C112.531 31.2 112.003 30.6613 111.619 29.968C111.246 29.2747 111.059 28.4747 111.059 27.568C111.059 26.6507 111.246 25.8453 111.619 25.152C111.993 24.4587 112.515 23.9253 113.187 23.552C113.859 23.1787 114.633 22.992 115.507 22.992C116.35 22.992 117.102 23.1733 117.763 23.536C118.435 23.8987 118.953 24.416 119.315 25.088C119.689 25.7493 119.875 26.512 119.875 27.376ZM117.555 26.736C117.545 26.16 117.337 25.7013 116.931 25.36C116.526 25.008 116.03 24.832 115.443 24.832C114.889 24.832 114.419 25.0027 114.035 25.344C113.662 25.6747 113.433 26.1387 113.347 26.736H117.555ZM126.422 23.008C127.478 23.008 128.332 23.344 128.982 24.016C129.633 24.6773 129.958 25.6053 129.958 26.8V32H127.718V27.104C127.718 26.4 127.542 25.8613 127.19 25.488C126.838 25.104 126.358 24.912 125.75 24.912C125.132 24.912 124.641 25.104 124.278 25.488C123.926 25.8613 123.75 26.4 123.75 27.104V32H121.51V23.136H123.75V24.24C124.049 23.856 124.428 23.5573 124.886 23.344C125.356 23.12 125.868 23.008 126.422 23.008ZM135.48 32.144C134.755 32.144 134.104 32.016 133.528 31.76C132.952 31.4933 132.494 31.136 132.152 30.688C131.822 30.24 131.64 29.744 131.608 29.2H133.864C133.907 29.5413 134.072 29.824 134.36 30.048C134.659 30.272 135.027 30.384 135.464 30.384C135.891 30.384 136.222 30.2987 136.456 30.128C136.702 29.9573 136.824 29.7387 136.824 29.472C136.824 29.184 136.675 28.9707 136.376 28.832C136.088 28.6827 135.624 28.5227 134.984 28.352C134.323 28.192 133.779 28.0267 133.352 27.856C132.936 27.6853 132.574 27.424 132.264 27.072C131.966 26.72 131.816 26.2453 131.816 25.648C131.816 25.1573 131.955 24.7093 132.232 24.304C132.52 23.8987 132.926 23.5787 133.448 23.344C133.982 23.1093 134.606 22.992 135.32 22.992C136.376 22.992 137.219 23.2587 137.848 23.792C138.478 24.3147 138.824 25.024 138.888 25.92H136.744C136.712 25.568 136.563 25.2907 136.296 25.088C136.04 24.8747 135.694 24.768 135.256 24.768C134.851 24.768 134.536 24.8427 134.312 24.992C134.099 25.1413 133.992 25.3493 133.992 25.616C133.992 25.9147 134.142 26.144 134.44 26.304C134.739 26.4533 135.203 26.608 135.832 26.768C136.472 26.928 137 27.0933 137.416 27.264C137.832 27.4347 138.19 27.7013 138.488 28.064C138.798 28.416 138.958 28.8853 138.968 29.472C138.968 29.984 138.824 30.4427 138.536 30.848C138.259 31.2533 137.854 31.5733 137.32 31.808C136.798 32.032 136.184 32.144 135.48 32.144ZM141.943 22.08C141.548 22.08 141.218 21.9573 140.951 21.712C140.695 21.456 140.567 21.1413 140.567 20.768C140.567 20.3947 140.695 20.0853 140.951 19.84C141.218 19.584 141.548 19.456 141.943 19.456C142.338 19.456 142.663 19.584 142.919 19.84C143.186 20.0853 143.319 20.3947 143.319 20.768C143.319 21.1413 143.186 21.456 142.919 21.712C142.663 21.9573 142.338 22.08 141.943 22.08ZM143.047 23.136V32H140.807V23.136H143.047ZM149.196 32.144C148.343 32.144 147.575 31.9573 146.892 31.584C146.21 31.2 145.671 30.6613 145.276 29.968C144.892 29.2747 144.7 28.4747 144.7 27.568C144.7 26.6613 144.898 25.8613 145.292 25.168C145.698 24.4747 146.247 23.9413 146.94 23.568C147.634 23.184 148.407 22.992 149.26 22.992C150.114 22.992 150.887 23.184 151.58 23.568C152.274 23.9413 152.818 24.4747 153.212 25.168C153.618 25.8613 153.82 26.6613 153.82 27.568C153.82 28.4747 153.612 29.2747 153.196 29.968C152.791 30.6613 152.236 31.2 151.532 31.584C150.839 31.9573 150.06 32.144 149.196 32.144ZM149.196 30.192C149.602 30.192 149.98 30.096 150.332 29.904C150.695 29.7013 150.983 29.4027 151.196 29.008C151.41 28.6133 151.516 28.1333 151.516 27.568C151.516 26.7253 151.292 26.08 150.844 25.632C150.407 25.1733 149.868 24.944 149.228 24.944C148.588 24.944 148.05 25.1733 147.612 25.632C147.186 26.08 146.972 26.7253 146.972 27.568C146.972 28.4107 147.18 29.0613 147.596 29.52C148.023 29.968 148.556 30.192 149.196 30.192ZM160.375 23.008C161.431 23.008 162.285 23.344 162.935 24.016C163.586 24.6773 163.911 25.6053 163.911 26.8V32H161.671V27.104C161.671 26.4 161.495 25.8613 161.143 25.488C160.791 25.104 160.311 24.912 159.703 24.912C159.085 24.912 158.594 25.104 158.231 25.488C157.879 25.8613 157.703 26.4 157.703 27.104V32H155.463V23.136H157.703V24.24C158.002 23.856 158.381 23.5573 158.839 23.344C159.309 23.12 159.821 23.008 160.375 23.008Z" fill="white"/>
<mask id="mask0_499_1817" style="mask-type:luminance" maskUnits="userSpaceOnUse" x="12" y="11" width="30" height="30">
<path d="M27 41C35.2843 41 42 34.2843 42 26C42 17.7157 35.2843 11 27 11C18.7157 11 12 17.7157 12 26C12 34.2843 18.7157 41 27 41Z" fill="white"/>
</mask>
<g mask="url(#mask0_499_1817)">
<path d="M14.3862 11V29.4091H21.1021L26.9999 19.1818H41.9999V11H14.3862Z" fill="#DB4437"/>
<path d="M14.3862 11V29.4091H21.1021L26.9999 19.1818H41.9999V11H14.3862Z" fill="url(#paint0_linear_499_1817)"/>
<path d="M12 41H26.2841L32.9318 34.3523V29.4091H21.0682L12 13.8125V41Z" fill="#0F9D58"/>
<path d="M12 41H26.2841L32.9318 34.3523V29.4091H21.0682L12 13.8125V41Z" fill="url(#paint1_linear_499_1817)"/>
<path d="M27.0002 19.1816L32.8979 29.4089L26.3184 40.9998H42.0002V19.1816H27.0002Z" fill="#FFCD40"/>
<path d="M27.0002 19.1816L32.8979 29.4089L26.3184 40.9998H42.0002V19.1816H27.0002Z" fill="url(#paint2_linear_499_1817)"/>
<path d="M21.2555 29.3578L14.3862 17.8862L21.034 29.443L21.2555 29.3578Z" fill="#3E2723" fill-opacity="0.1"/>
<path d="M32.7614 29.6307L32.625 29.5625L26.2671 40.983L32.7955 29.5625L32.7614 29.6307Z" fill="#263238" fill-opacity="0.1"/>
<path d="M27 19.1816V22.7612L40.3636 19.1816H27Z" fill="url(#paint3_radial_499_1817)"/>
<path d="M14.3862 17.9033L24.1362 27.6533L21.1021 29.409L14.3862 17.9033Z" fill="url(#paint4_radial_499_1817)"/>
<path d="M26.2842 40.9999L29.8637 27.6533L32.8978 29.409L26.2842 40.9999Z" fill="url(#paint5_radial_499_1817)"/>
<path d="M26.9998 32.818C30.7654 32.818 33.818 29.7654 33.818 25.9998C33.818 22.2342 30.7654 19.1816 26.9998 19.1816C23.2342 19.1816 20.1816 22.2342 20.1816 25.9998C20.1816 29.7654 23.2342 32.818 26.9998 32.818Z" fill="#F1F1F1"/>
<path d="M27 31.4545C30.0124 31.4545 32.4545 29.0124 32.4545 26C32.4545 22.9875 30.0124 20.5454 27 20.5454C23.9875 20.5454 21.5454 22.9875 21.5454 26C21.5454 29.0124 23.9875 31.4545 27 31.4545Z" fill="#4285F4"/>
<path d="M27 41C35.2843 41 42 34.2843 42 26C42 17.7157 35.2843 11 27 11C18.7157 11 12 17.7157 12 26C12 34.2843 18.7157 41 27 41Z" fill="url(#paint6_radial_499_1817)"/>
<path d="M32.8977 29.409C32.2984 30.4423 31.4381 31.2999 30.403 31.8961C29.368 32.4923 28.1945 32.8061 27 32.8061C25.8055 32.8061 24.632 32.4923 23.597 31.8961C22.5619 31.2999 21.7016 30.4423 21.1023 29.409L12 13.9829L21.1023 29.5795C21.7016 30.6127 22.5619 31.4704 23.597 32.0665C24.632 32.6627 25.8055 32.9765 27 32.9765C28.1945 32.9765 29.368 32.6627 30.403 32.0665C31.4381 31.4704 32.2984 30.6127 32.8977 29.5795V29.409Z" fill="white" fill-opacity="0.1"/>
<path d="M27.1705 19.1816H27.0852C28.8935 19.1816 30.6278 19.9 31.9064 21.1786C33.1851 22.4573 33.9034 24.1915 33.9034 25.9998C33.9034 27.8081 33.1851 29.5423 31.9064 30.821C30.6278 32.0997 28.8935 32.818 27.0852 32.818H27.1705C30.9205 32.818 33.9886 29.7498 33.9886 25.9998C33.9886 22.2498 30.9205 19.1816 27.1705 19.1816ZM27 40.8294C30.9635 40.8294 34.766 39.2608 37.5766 36.4661C40.3872 33.6715 41.9775 29.8781 42 25.9146V25.9998C42 29.9781 40.4196 33.7934 37.6066 36.6064C34.7936 39.4195 30.9782 40.9998 27 40.9998C23.0218 40.9998 19.2064 39.4195 16.3934 36.6064C13.5804 33.7934 12 29.9781 12 25.9998V25.9146C12.0225 29.8781 13.6128 33.6715 16.4234 36.4661C19.234 39.2608 23.0365 40.8294 27 40.8294Z" fill="#3E2723" fill-opacity="0.1"/>
<path d="M32.9659 29.6307C33.4419 28.8139 33.7397 27.9056 33.8396 26.9654C33.9395 26.0253 33.8392 25.0747 33.5455 24.1761C33.8105 25.045 33.8898 25.96 33.7782 26.8615C33.6666 27.763 33.3666 28.631 32.8977 29.4091L26.4886 41L33 29.6648L32.9659 29.6307ZM27 11.1705C30.9635 11.1704 34.766 12.739 37.5766 15.5337C40.3872 18.3283 41.9775 22.1218 42 26.0852V26C42 22.0218 40.4196 18.2064 37.6066 15.3934C34.7936 12.5804 30.9782 11 27 11C23.0218 11 19.2064 12.5804 16.3934 15.3934C13.5804 18.2064 12 22.0218 12 26V26.0852C12.0225 22.1218 13.6128 18.3283 16.4234 15.5337C19.234 12.739 23.0365 11.1704 27 11.1705Z" fill="white" fill-opacity="0.2"/>
<path d="M26.9998 19.0112C23.2498 19.0112 20.1816 22.0794 20.1816 25.8294V25.9999C20.1816 22.2499 23.2498 19.1817 26.9998 19.1817H41.9998V19.0112H26.9998Z" fill="#3E2723" fill-opacity="0.2"/>
</g>
<defs>
<linearGradient id="paint0_linear_499_1817" x1="15.6305" y1="22.5909" x2="24.5794" y2="17.375" gradientUnits="userSpaceOnUse">
<stop stop-color="#A52714" stop-opacity="0.6"/>
<stop offset="0.7" stop-color="#A52714" stop-opacity="0"/>
</linearGradient>
<linearGradient id="paint1_linear_499_1817" x1="29.5398" y1="37.8466" x2="19.5852" y2="32.017" gradientUnits="userSpaceOnUse">
<stop stop-color="#055524" stop-opacity="0.4"/>
<stop offset="0.3" stop-color="#055524" stop-opacity="0"/>
</linearGradient>
<linearGradient id="paint2_linear_499_1817" x1="31.5854" y1="18.2953" x2="34.0911" y2="29.2555" gradientUnits="userSpaceOnUse">
<stop stop-color="#EA6100" stop-opacity="0.3"/>
<stop offset="0.7" stop-color="#EA6100" stop-opacity="0"/>
</linearGradient>
<radialGradient id="paint3_radial_499_1817" cx="0" cy="0" r="1" gradientUnits="userSpaceOnUse" gradientTransform="translate(26.3523 19.1816) scale(14.3352)">
<stop stop-color="#3E2723" stop-opacity="0.2"/>
<stop offset="1" stop-color="#3E2723" stop-opacity="0"/>
</radialGradient>
<radialGradient id="paint4_radial_499_1817" cx="0" cy="0" r="1" gradientUnits="userSpaceOnUse" gradientTransform="translate(14.3692 17.9033) scale(13.2955)">
<stop stop-color="#3E2723" stop-opacity="0.2"/>
<stop offset="1" stop-color="#3E2723" stop-opacity="0"/>
</radialGradient>
<radialGradient id="paint5_radial_499_1817" cx="0" cy="0" r="1" gradientUnits="userSpaceOnUse" gradientTransform="translate(26.966 26.017) scale(14.983)">
<stop stop-color="#263238" stop-opacity="0.2"/>
<stop offset="1" stop-color="#263238" stop-opacity="0"/>
</radialGradient>
<radialGradient id="paint6_radial_499_1817" cx="0" cy="0" r="1" gradientUnits="userSpaceOnUse" gradientTransform="translate(16.483 15.0909) scale(30.1364)">
<stop stop-color="white" stop-opacity="0.1"/>
<stop offset="1" stop-color="white" stop-opacity="0"/>
</radialGradient>
</defs>
</svg>
