<svg width="172" height="44" viewBox="0 0 172 44" fill="none" xmlns="http://www.w3.org/2000/svg">
<rect width="172" height="44" rx="6.28571" fill="white"/>
<path d="M20.5753 7.81018C20.2 8.25385 20.0085 8.82416 20.0401 9.40438V34.5928C20.0013 35.174 20.1937 35.7469 20.5753 36.187L20.655 36.2781L34.7637 22.1694V21.8278L20.655 7.73047L20.5753 7.81018Z" fill="url(#paint0_linear_2264_17727)"/>
<path d="M39.4305 26.8724L34.7617 22.1695V21.8279L39.4305 17.125L39.5329 17.1933L45.124 20.359C46.7182 21.2585 46.7182 22.7389 45.124 23.6498L39.5557 26.8155L39.4305 26.8724Z" fill="url(#paint1_linear_2264_17727)"/>
<path d="M39.568 26.8039L34.7626 21.9985L20.5742 36.1869C20.896 36.4734 21.3079 36.6381 21.7384 36.6527C22.1689 36.6673 22.591 36.5307 22.9314 36.2667L39.568 26.8039Z" fill="url(#paint2_linear_2264_17727)"/>
<path d="M39.568 17.1934L22.9314 7.74206C22.5932 7.47436 22.1715 7.33447 21.7403 7.34696C21.3092 7.35946 20.8963 7.52355 20.5742 7.81038L34.7626 21.9988L39.568 17.1934Z" fill="url(#paint3_linear_2264_17727)"/>
<path opacity="0.2" d="M39.4314 26.7017L22.9314 36.0961C22.6033 36.3436 22.2036 36.4775 21.7926 36.4775C21.3817 36.4775 20.9819 36.3436 20.6539 36.0961L20.5742 36.1758L20.6539 36.2669C20.9819 36.5144 21.3817 36.6484 21.7926 36.6484C22.2036 36.6484 22.6033 36.5144 22.9314 36.2669L39.568 26.8041L39.4314 26.7017Z" fill="black"/>
<path opacity="0.12" d="M20.574 36.0275C20.2082 35.5758 20.029 35.0014 20.0729 34.4219V34.5927C20.0342 35.1739 20.2265 35.7468 20.6081 36.1869L20.6878 36.1072L20.574 36.0275Z" fill="black"/>
<path opacity="0.12" d="M45.1272 23.4789L39.4336 26.7014L39.5361 26.8039L45.1272 23.6383C45.4572 23.4987 45.7435 23.2728 45.9559 22.9842C46.1683 22.6956 46.299 22.3551 46.3342 21.9985C46.263 22.3226 46.1167 22.6254 45.907 22.8825C45.6974 23.1396 45.4303 23.3439 45.1272 23.4789Z" fill="black"/>
<path opacity="0.25" d="M22.9314 7.90145L45.125 20.5184C45.4281 20.6534 45.6952 20.8577 45.9049 21.1148C46.1145 21.3719 46.2608 21.6747 46.332 21.9988C46.2968 21.6422 46.1662 21.3017 45.9537 21.0131C45.7413 20.7245 45.455 20.4986 45.125 20.359L22.9314 7.74203C21.3486 6.83106 20.0391 7.58261 20.0391 9.40456V9.57537C20.0732 7.75342 21.3486 7.00187 22.9314 7.90145Z" fill="white"/>
<path fill-rule="evenodd" clip-rule="evenodd" d="M62.1491 10.2672C62.1678 10.6848 62.1018 11.1018 61.955 11.4932C61.8082 11.8846 61.5837 12.2423 61.2951 12.5446C60.9716 12.8786 60.5812 13.1405 60.1495 13.3132C59.7178 13.4858 59.2545 13.5654 58.7899 13.5467C58.3226 13.5571 57.8582 13.4715 57.4253 13.2952C56.9925 13.1189 56.6004 12.8557 56.2733 12.5218C55.6098 11.8431 55.2383 10.9316 55.2383 9.98248C55.2383 9.03331 55.6098 8.12185 56.2733 7.44314C56.7806 6.94744 57.4231 6.61271 58.12 6.48102C58.817 6.34933 59.5373 6.42655 60.1905 6.70297C60.6011 6.87177 60.9674 7.13282 61.2609 7.46591L60.6574 8.06943C60.4312 7.79702 60.1447 7.58108 59.8205 7.43876C59.4964 7.29644 59.1435 7.23166 58.7899 7.24956C58.3435 7.25264 57.9047 7.36501 57.5118 7.57684C57.1189 7.78867 56.7839 8.09351 56.536 8.46471C56.2881 8.83592 56.135 9.26219 56.0899 9.70627C56.0447 10.1503 56.1091 10.5987 56.2773 11.0122C56.4455 11.4256 56.7124 11.7916 57.0547 12.0781C57.397 12.3646 57.8042 12.5629 58.2408 12.6557C58.6774 12.7484 59.1301 12.7328 59.5593 12.6102C59.9885 12.4877 60.3812 12.2618 60.7029 11.9525C61.0507 11.5711 61.2524 11.079 61.2723 10.5632H58.7899V9.74335H62.1035C62.1295 9.91685 62.1447 10.0918 62.1491 10.2672ZM67.3653 7.42043H64.2907V9.58399H67.092V10.4039H64.2907V12.5674H67.3653V13.4101H63.4025V6.57778H67.3653V7.42043ZM70.2222 13.4101H71.099V7.42043H73.0576V6.57778H68.3092V7.42043H70.2222V13.4101ZM76.4057 13.4101V6.57778H77.2825V13.4101H76.4057ZM80.2994 13.4101H81.1762V7.42043H83.0779V6.57778H78.3864V7.42043H80.2994V13.4101ZM91.9716 12.5222C91.6427 12.8513 91.2522 13.1125 90.8223 13.2906C90.3925 13.4688 89.9317 13.5605 89.4664 13.5605C89.0011 13.5605 88.5404 13.4688 88.1105 13.2906C87.6807 13.1125 87.2901 12.8513 86.9612 12.5222C86.3175 11.8379 85.9591 10.9338 85.9591 9.99424C85.9591 9.05473 86.3175 8.15061 86.9612 7.46629C87.283 7.12787 87.6723 6.86076 88.1038 6.68226C88.5354 6.50376 88.9996 6.41784 89.4664 6.43006C89.9326 6.42269 90.3954 6.51082 90.8262 6.68903C91.257 6.86724 91.6468 7.13176 91.9716 7.46629C92.299 7.79936 92.5564 8.19465 92.7285 8.62884C92.9006 9.06303 92.984 9.5273 92.9737 9.99424C92.9886 10.4618 92.9074 10.9274 92.735 11.3622C92.5626 11.7971 92.3028 12.1919 91.9716 12.5222ZM87.6103 11.9528C87.8529 12.1987 88.1419 12.3938 88.4605 12.5271C88.7791 12.6603 89.1211 12.7289 89.4664 12.7289C89.8118 12.7289 90.1537 12.6603 90.4723 12.5271C90.791 12.3938 91.08 12.1987 91.3225 11.9528C91.8139 11.4189 92.0866 10.7198 92.0866 9.99424C92.0866 9.26865 91.8139 8.56957 91.3225 8.03565C91.08 7.78983 90.791 7.59464 90.4723 7.46142C90.1537 7.32819 89.8118 7.25959 89.4664 7.25959C89.1211 7.25959 88.7791 7.32819 88.4605 7.46142C88.1419 7.59464 87.8529 7.78983 87.6103 8.03565C87.119 8.56957 86.8462 9.26865 86.8462 9.99424C86.8462 10.7198 87.119 11.4189 87.6103 11.9528ZM94.2152 6.57778V13.4101H95.092V9.15128V7.84175L98.5651 13.4101H99.4761V6.57778H98.5993V10.5747V11.8956L95.2742 6.57778H94.2152Z" fill="#121212"/>
<path d="M61.955 11.4932L62.0558 11.531L61.955 11.4932ZM62.1491 10.2672L62.0414 10.2699L62.0415 10.272L62.1491 10.2672ZM61.2951 12.5446L61.3724 12.6195L61.373 12.619L61.2951 12.5446ZM60.1495 13.3132L60.1895 13.4132L60.1495 13.3132ZM58.7899 13.5467L58.7942 13.4388L58.7875 13.439L58.7899 13.5467ZM57.4253 13.2952L57.4659 13.1954L57.4253 13.2952ZM56.2733 12.5218L56.1963 12.5971L56.1964 12.5972L56.2733 12.5218ZM56.2733 7.44314L56.198 7.36607L56.1963 7.36783L56.2733 7.44314ZM58.12 6.48102L58.1 6.37518L58.12 6.48102ZM60.1905 6.70297L60.1485 6.80218L60.1495 6.80261L60.1905 6.70297ZM61.2609 7.46591L61.3371 7.54209L61.4086 7.47057L61.3417 7.3947L61.2609 7.46591ZM60.6574 8.06943L60.5745 8.13824L60.65 8.22917L60.7335 8.1456L60.6574 8.06943ZM59.8205 7.43876L59.7772 7.53739L59.8205 7.43876ZM58.7899 7.24956L58.7906 7.35738L58.7953 7.35714L58.7899 7.24956ZM57.5118 7.57684L57.563 7.67166L57.5118 7.57684ZM56.536 8.46471L56.4464 8.40489L56.536 8.46471ZM57.0547 12.0781L56.9855 12.1607L56.9855 12.1607L57.0547 12.0781ZM59.5593 12.6102L59.5889 12.7138H59.5889L59.5593 12.6102ZM60.7029 11.9525L60.7777 12.0303L60.7825 12.025L60.7029 11.9525ZM61.2723 10.5632L61.3799 10.5674L61.3842 10.4555H61.2723V10.5632ZM58.7899 10.5632H58.6822V10.6709H58.7899V10.5632ZM58.7899 9.74335V9.63562H58.6822V9.74335H58.7899ZM62.1035 9.74335L62.2101 9.72743L62.1964 9.63562H62.1035V9.74335ZM64.2907 7.42043V7.3127H64.183V7.42043H64.2907ZM67.3653 7.42043V7.52815H67.473V7.42043H67.3653ZM64.2907 9.58399H64.183V9.69171H64.2907V9.58399ZM67.092 9.58399H67.1997V9.47626H67.092V9.58399ZM67.092 10.4039V10.5116H67.1997V10.4039H67.092ZM64.2907 10.4039V10.2961H64.183V10.4039H64.2907ZM64.2907 12.5674H64.183V12.6751H64.2907V12.5674ZM67.3653 12.5674H67.473V12.4597H67.3653V12.5674ZM67.3653 13.4101V13.5178H67.473V13.4101H67.3653ZM63.4025 13.4101H63.2948V13.5178H63.4025V13.4101ZM63.4025 6.57778V6.47005H63.2948V6.57778H63.4025ZM67.3653 6.57778H67.473V6.47005H67.3653V6.57778ZM71.099 13.4101V13.5178H71.2067V13.4101H71.099ZM70.2222 13.4101H70.1145V13.5178H70.2222V13.4101ZM71.099 7.42043V7.3127H70.9913V7.42043H71.099ZM73.0576 7.42043V7.52815H73.1653V7.42043H73.0576ZM73.0576 6.57778H73.1653V6.47005H73.0576V6.57778ZM68.3092 6.57778V6.47005H68.2014V6.57778H68.3092ZM68.3092 7.42043H68.2014V7.52815H68.3092V7.42043ZM70.2222 7.42043H70.3299V7.3127H70.2222V7.42043ZM76.4057 6.57778V6.47005H76.298V6.57778H76.4057ZM76.4057 13.4101H76.298V13.5178H76.4057V13.4101ZM77.2825 6.57778H77.3902V6.47005H77.2825V6.57778ZM77.2825 13.4101V13.5178H77.3902V13.4101H77.2825ZM81.1762 13.4101V13.5178H81.2839V13.4101H81.1762ZM80.2994 13.4101H80.1917V13.5178H80.2994V13.4101ZM81.1762 7.42043V7.3127H81.0685V7.42043H81.1762ZM83.0779 7.42043V7.52815H83.1856V7.42043H83.0779ZM83.0779 6.57778H83.1856V6.47005H83.0779V6.57778ZM78.3864 6.57778V6.47005H78.2786V6.57778H78.3864ZM78.3864 7.42043H78.2786V7.52815H78.3864V7.42043ZM80.2994 7.42043H80.4071V7.3127H80.2994V7.42043ZM90.8223 13.2906L90.7811 13.1911L90.8223 13.2906ZM91.9716 12.5222L91.8955 12.4459L91.8954 12.4461L91.9716 12.5222ZM88.1105 13.2906L88.1518 13.1911L88.1105 13.2906ZM86.9612 12.5222L86.8827 12.596L86.885 12.5983L86.9612 12.5222ZM86.9612 7.46629L86.8832 7.39206L86.8828 7.39248L86.9612 7.46629ZM88.1038 6.68226L88.145 6.78181V6.78181L88.1038 6.68226ZM89.4664 6.43006L89.4636 6.53784L89.4681 6.53777L89.4664 6.43006ZM90.8262 6.68903L90.8674 6.58949L90.8262 6.68903ZM91.9716 7.46629L91.8943 7.54133L91.8948 7.54181L91.9716 7.46629ZM92.9737 9.99424L92.8658 9.99186L92.866 9.99768L92.9737 9.99424ZM92.735 11.3622L92.6349 11.3225L92.735 11.3622ZM88.4605 12.5271L88.419 12.6265V12.6265L88.4605 12.5271ZM87.6103 11.9528L87.531 12.0258L87.5336 12.0285L87.6103 11.9528ZM90.4723 12.5271L90.4308 12.4277L90.4723 12.5271ZM91.3225 11.9528L91.3993 12.0285L91.4018 12.0258L91.3225 11.9528ZM91.3225 8.03565L91.4019 7.96266L91.3992 7.95999L91.3225 8.03565ZM90.4723 7.46142L90.5139 7.36203L90.4723 7.46142ZM88.4605 7.46142L88.419 7.36203V7.36203L88.4605 7.46142ZM87.6103 8.03565L87.5336 7.95994L87.531 7.96271L87.6103 8.03565ZM94.2152 13.4101H94.1075V13.5178H94.2152V13.4101ZM94.2152 6.57778V6.47005H94.1075V6.57778H94.2152ZM95.092 13.4101V13.5178H95.1998V13.4101H95.092ZM95.092 7.84175L95.1834 7.78474L94.9843 7.46549V7.84175H95.092ZM98.5651 13.4101L98.4737 13.4671L98.5053 13.5178H98.5651V13.4101ZM99.4761 13.4101V13.5178H99.5838V13.4101H99.4761ZM99.4761 6.57778H99.5838V6.47005H99.4761V6.57778ZM98.5993 6.57778V6.47005H98.4916V6.57778H98.5993ZM98.5993 11.8956L98.5079 11.9527L98.707 12.2711V11.8956H98.5993ZM95.2742 6.57778L95.3656 6.52067L95.3339 6.47005H95.2742V6.57778ZM62.0558 11.531C62.2077 11.126 62.2761 10.6945 62.2567 10.2623L62.0415 10.272C62.0595 10.675 61.9958 11.0776 61.8541 11.4554L62.0558 11.531ZM61.373 12.619C61.6717 12.3061 61.904 11.9361 62.0558 11.531L61.8541 11.4554C61.7125 11.8332 61.4958 12.1784 61.2171 12.4702L61.373 12.619ZM60.1895 13.4132C60.6353 13.2349 61.0384 12.9644 61.3724 12.6195L61.2177 12.4696C60.9047 12.7927 60.5271 13.0461 60.1095 13.2131L60.1895 13.4132ZM58.7855 13.6543C59.2653 13.6737 59.7437 13.5915 60.1895 13.4132L60.1095 13.2131C59.6918 13.3802 59.2437 13.4572 58.7942 13.439L58.7855 13.6543ZM57.3847 13.395C57.8312 13.5768 58.3103 13.6651 58.7923 13.6544L58.7875 13.439C58.3349 13.449 57.8852 13.3662 57.4659 13.1954L57.3847 13.395ZM56.1964 12.5972C56.5337 12.9416 56.9382 13.2131 57.3847 13.395L57.4659 13.1954C57.0467 13.0247 56.667 12.7698 56.3503 12.4464L56.1964 12.5972ZM55.1306 9.98248C55.1306 10.9598 55.5131 11.8983 56.1963 12.5971L56.3503 12.4465C55.7065 11.7879 55.346 10.9035 55.346 9.98248H55.1306ZM56.1963 7.36783C55.5131 8.06667 55.1306 9.00517 55.1306 9.98248H55.346C55.346 9.06146 55.7065 8.17703 56.3503 7.51844L56.1963 7.36783ZM58.1 6.37518C57.3822 6.51081 56.7205 6.85555 56.198 7.36609L56.3486 7.52019C56.8407 7.03932 57.464 6.71462 58.14 6.58687L58.1 6.37518ZM60.2325 6.60377C59.5597 6.31907 58.8178 6.23954 58.1 6.37518L58.14 6.58687C58.8161 6.45913 59.5149 6.53403 60.1485 6.80218L60.2325 6.60377ZM61.3417 7.3947C61.0373 7.0492 60.6574 6.77842 60.2315 6.60334L60.1495 6.80261C60.5449 6.96511 60.8975 7.21644 61.1801 7.53713L61.3417 7.3947ZM60.7335 8.1456L61.3371 7.54209L61.1847 7.38974L60.5812 7.99326L60.7335 8.1456ZM59.7772 7.53739C60.0861 7.67298 60.3591 7.87871 60.5745 8.13824L60.7403 8.00063C60.5034 7.71533 60.2033 7.48918 59.8638 7.34012L59.7772 7.53739ZM58.7953 7.35714C59.1322 7.34009 59.4684 7.4018 59.7772 7.53739L59.8638 7.34012C59.5243 7.19107 59.1547 7.12323 58.7844 7.14197L58.7953 7.35714ZM57.563 7.67166C57.9404 7.46818 58.3619 7.36024 58.7906 7.35728L58.7891 7.14184C58.3252 7.14505 57.8691 7.26184 57.4607 7.48202L57.563 7.67166ZM56.6256 8.52454C56.8637 8.16796 57.1855 7.87514 57.563 7.67166L57.4607 7.48202C57.0523 7.7022 56.7041 8.01905 56.4464 8.40489L56.6256 8.52454ZM56.197 9.71715C56.2403 9.29058 56.3875 8.88111 56.6256 8.52454L56.4464 8.40489C56.1888 8.79073 56.0296 9.2338 55.9827 9.69538L56.197 9.71715ZM56.3771 10.9716C56.2155 10.5744 56.1537 10.1437 56.197 9.71715L55.9827 9.69538C55.9358 10.157 56.0027 10.623 56.1775 11.0528L56.3771 10.9716ZM57.1238 11.9955C56.795 11.7203 56.5386 11.3687 56.3771 10.9716L56.1775 11.0528C56.3523 11.4825 56.6297 11.8629 56.9855 12.1607L57.1238 11.9955ZM58.2632 12.5503C57.8438 12.4612 57.4526 12.2707 57.1238 11.9955L56.9855 12.1607C57.3413 12.4585 57.7646 12.6646 58.2184 12.761L58.2632 12.5503ZM59.5297 12.5067C59.1175 12.6244 58.6826 12.6394 58.2632 12.5503L58.2184 12.761C58.6723 12.8575 59.1428 12.8412 59.5889 12.7138L59.5297 12.5067ZM60.6283 11.8748C60.3192 12.172 59.942 12.3889 59.5297 12.5067L59.5889 12.7138C60.035 12.5864 60.4431 12.3517 60.7776 12.0301L60.6283 11.8748ZM61.1646 10.5591C61.1458 11.0494 60.954 11.5173 60.6233 11.8799L60.7825 12.025C61.1475 11.6249 61.3591 11.1085 61.3799 10.5674L61.1646 10.5591ZM58.7899 10.6709H61.2723V10.4555H58.7899V10.6709ZM58.6822 9.74335V10.5632H58.8976V9.74335H58.6822ZM62.1035 9.63562H58.7899V9.85107H62.1035V9.63562ZM62.2568 10.2644C62.2523 10.0847 62.2367 9.90531 62.2101 9.72743L61.997 9.75927C62.0223 9.92839 62.0371 10.0989 62.0414 10.2699L62.2568 10.2644ZM64.2907 7.52815H67.3653V7.3127H64.2907V7.52815ZM64.3985 9.58399V7.42043H64.183V9.58399H64.3985ZM67.092 9.47626H64.2907V9.69171H67.092V9.47626ZM67.1997 10.4039V9.58399H66.9843V10.4039H67.1997ZM64.2907 10.5116H67.092V10.2961H64.2907V10.5116ZM64.3985 12.5674V10.4039H64.183V12.5674H64.3985ZM67.3653 12.4597H64.2907V12.6751H67.3653V12.4597ZM67.473 13.4101V12.5674H67.2575V13.4101H67.473ZM63.4025 13.5178H67.3653V13.3024H63.4025V13.5178ZM63.2948 6.57778V13.4101H63.5103V6.57778H63.2948ZM67.3653 6.47005H63.4025V6.6855H67.3653V6.47005ZM67.473 7.42043V6.57778H67.2575V7.42043H67.473ZM71.099 13.3024H70.2222V13.5178H71.099V13.3024ZM70.9913 7.42043V13.4101H71.2067V7.42043H70.9913ZM73.0576 7.3127H71.099V7.52815H73.0576V7.3127ZM72.9499 6.57778V7.42043H73.1653V6.57778H72.9499ZM68.3092 6.6855H73.0576V6.47005H68.3092V6.6855ZM68.4169 7.42043V6.57778H68.2014V7.42043H68.4169ZM70.2222 7.3127H68.3092V7.52815H70.2222V7.3127ZM70.3299 13.4101V7.42043H70.1145V13.4101H70.3299ZM76.298 6.57778V13.4101H76.5134V6.57778H76.298ZM77.2825 6.47005H76.4057V6.6855H77.2825V6.47005ZM77.3902 13.4101V6.57778H77.1748V13.4101H77.3902ZM76.4057 13.5178H77.2825V13.3024H76.4057V13.5178ZM81.1762 13.3024H80.2994V13.5178H81.1762V13.3024ZM81.0685 7.42043V13.4101H81.2839V7.42043H81.0685ZM83.0779 7.3127H81.1762V7.52815H83.0779V7.3127ZM82.9701 6.57778V7.42043H83.1856V6.57778H82.9701ZM78.3864 6.6855H83.0779V6.47005H78.3864V6.6855ZM78.4941 7.42043V6.57778H78.2786V7.42043H78.4941ZM80.2994 7.3127H78.3864V7.52815H80.2994V7.3127ZM80.4071 13.4101V7.42043H80.1917V13.4101H80.4071ZM90.8636 13.3901C91.3065 13.2066 91.7089 12.9375 92.0478 12.5983L91.8954 12.4461C91.5765 12.7652 91.1979 13.0184 90.7811 13.1911L90.8636 13.3901ZM89.4664 13.6682C89.9459 13.6682 90.4206 13.5737 90.8636 13.3901L90.7811 13.1911C90.3643 13.3638 89.9176 13.4527 89.4664 13.4527V13.6682ZM88.0693 13.3901C88.5122 13.5737 88.987 13.6682 89.4664 13.6682V13.4527C89.0153 13.4527 88.5685 13.3638 88.1518 13.1911L88.0693 13.3901ZM86.885 12.5983C87.2239 12.9375 87.6263 13.2066 88.0693 13.3901L88.1518 13.1911C87.735 13.0184 87.3563 12.7652 87.0374 12.4461L86.885 12.5983ZM85.8514 9.99424C85.8514 10.9612 86.2202 11.8917 86.8828 12.596L87.0397 12.4484C86.4148 11.7841 86.0668 10.9063 86.0668 9.99424H85.8514ZM86.8828 7.39248C86.2202 8.09678 85.8514 9.0273 85.8514 9.99424H86.0668C86.0668 9.08216 86.4148 8.20444 87.0397 7.5401L86.8828 7.39248ZM88.0627 6.58272C87.6172 6.76698 87.2154 7.04271 86.8832 7.39207L87.0393 7.54052C87.3507 7.21302 87.7274 6.95454 88.145 6.78181L88.0627 6.58272ZM89.4692 6.32238C88.9873 6.30976 88.5081 6.39846 88.0627 6.58272L88.145 6.78181C88.5626 6.60907 89.0118 6.52592 89.4636 6.53775L89.4692 6.32238ZM90.8674 6.58949C90.423 6.40566 89.9456 6.31475 89.4647 6.32235L89.4681 6.53777C89.9196 6.53063 90.3678 6.61598 90.785 6.78857L90.8674 6.58949ZM92.0489 7.39126C91.7139 7.04618 91.3118 6.77332 90.8674 6.58949L90.785 6.78857C91.2023 6.96116 91.5798 7.21734 91.8943 7.54133L92.0489 7.39126ZM92.8287 8.58914C92.6512 8.14158 92.3859 7.7341 92.0484 7.39078L91.8948 7.54181C92.2121 7.86461 92.4616 8.24773 92.6284 8.66854L92.8287 8.58914ZM93.0814 9.99662C93.092 9.51529 93.0061 9.03671 92.8287 8.58914L92.6284 8.66854C92.7952 9.08934 92.876 9.53931 92.866 9.99187L93.0814 9.99662ZM92.8352 11.4019C93.013 10.9534 93.0968 10.4731 93.0813 9.9908L92.866 9.99768C92.8805 10.4505 92.8018 10.9014 92.6349 11.3225L92.8352 11.4019ZM92.0477 12.5985C92.3893 12.2577 92.6573 11.8505 92.8352 11.4019L92.6349 11.3225C92.4679 11.7437 92.2163 12.126 91.8955 12.4459L92.0477 12.5985ZM88.5021 12.4277C88.1966 12.3 87.9195 12.1128 87.687 11.8772L87.5336 12.0285C87.7862 12.2845 88.0872 12.4877 88.419 12.6265L88.5021 12.4277ZM89.4664 12.6212C89.1353 12.6212 88.8075 12.5554 88.5021 12.4277L88.419 12.6265C88.7507 12.7652 89.1068 12.8366 89.4664 12.8366V12.6212ZM90.4308 12.4277C90.1253 12.5554 89.7975 12.6212 89.4664 12.6212V12.8366C89.8261 12.8366 90.1821 12.7652 90.5139 12.6265L90.4308 12.4277ZM91.2459 11.8772C91.0133 12.1128 90.7362 12.3 90.4308 12.4277L90.5139 12.6265C90.8457 12.4877 91.1466 12.2845 91.3992 12.0285L91.2459 11.8772ZM91.9789 9.99424C91.9789 10.6928 91.7163 11.3659 91.2433 11.8799L91.4018 12.0258C91.9114 11.472 92.1943 10.7469 92.1943 9.99424H91.9789ZM91.2433 8.1086C91.7163 8.62263 91.9789 9.29568 91.9789 9.99424H92.1943C92.1943 9.24163 91.9114 8.5165 91.4018 7.96271L91.2433 8.1086ZM90.4308 7.5608C90.7362 7.68852 91.0133 7.87565 91.2459 8.11132L91.3992 7.95999C91.1466 7.70401 90.8457 7.50076 90.5139 7.36203L90.4308 7.5608ZM89.4664 7.36731C89.7975 7.36731 90.1253 7.43308 90.4308 7.5608L90.5139 7.36203C90.1821 7.2233 89.8261 7.15187 89.4664 7.15187V7.36731ZM88.5021 7.5608C88.8075 7.43308 89.1353 7.36731 89.4664 7.36731V7.15187C89.1068 7.15187 88.7507 7.2233 88.419 7.36203L88.5021 7.5608ZM87.687 8.11132C87.9195 7.87565 88.1966 7.68852 88.5021 7.5608L88.419 7.36203C88.0872 7.50076 87.7862 7.70401 87.5336 7.95999L87.687 8.11132ZM86.954 9.99424C86.954 9.29568 87.2165 8.62263 87.6896 8.1086L87.531 7.96271C87.0214 8.5165 86.7385 9.24163 86.7385 9.99424H86.954ZM87.6896 11.8799C87.2165 11.3659 86.954 10.6928 86.954 9.99424H86.7385C86.7385 10.7469 87.0214 11.472 87.531 12.0258L87.6896 11.8799ZM94.3229 13.4101V6.57778H94.1075V13.4101H94.3229ZM95.092 13.3024H94.2152V13.5178H95.092V13.3024ZM94.9843 9.15128V13.4101H95.1998V9.15128H94.9843ZM94.9843 7.84175V9.15128H95.1998V7.84175H94.9843ZM98.6565 13.3531L95.1834 7.78474L95.0006 7.89876L98.4737 13.4671L98.6565 13.3531ZM99.4761 13.3024H98.5651V13.5178H99.4761V13.3024ZM99.3684 6.57778V13.4101H99.5838V6.57778H99.3684ZM98.5993 6.6855H99.4761V6.47005H98.5993V6.6855ZM98.707 10.5747V6.57778H98.4916V10.5747H98.707ZM98.707 11.8956V10.5747H98.4916V11.8956H98.707ZM95.1829 6.63489L98.5079 11.9527L98.6906 11.8385L95.3656 6.52067L95.1829 6.63489ZM94.2152 6.6855H95.2742V6.47005H94.2152V6.6855Z" fill="#121212"/>
<path d="M86.2877 23.6326C85.3283 23.6348 84.3911 23.9215 83.5946 24.4564C82.7981 24.9913 82.1782 25.7504 81.8131 26.6376C81.448 27.5249 81.3543 28.5005 81.5436 29.441C81.733 30.3816 82.1971 31.2448 82.8771 31.9217C83.5571 32.5985 84.4225 33.0584 85.3639 33.2434C86.3053 33.4284 87.2805 33.33 88.166 32.9608C89.0515 32.5916 89.8077 31.968 90.3388 31.169C90.87 30.3701 91.1523 29.4315 91.15 28.4721C91.1593 27.8321 91.0397 27.1967 90.7984 26.6039C90.557 26.011 90.1988 25.4728 89.7452 25.0212C89.2915 24.5697 88.7516 24.214 88.1576 23.9755C87.5636 23.7369 86.9277 23.6203 86.2877 23.6326ZM86.2877 31.41C85.6997 31.4511 85.1128 31.3144 84.6035 31.0176C84.0942 30.7208 83.686 30.2776 83.4318 29.7457C83.1777 29.2138 83.0895 28.6177 83.1787 28.035C83.2678 27.4523 83.5302 26.9099 83.9317 26.4783C84.3332 26.0466 84.8553 25.7458 85.43 25.6148C86.0048 25.4838 86.6056 25.5288 87.1545 25.7438C87.7034 25.9589 88.1749 26.3341 88.5077 26.8206C88.8405 27.3072 89.0192 27.8826 89.0206 28.4721C89.039 28.8456 88.9823 29.219 88.8541 29.5703C88.7258 29.9216 88.5285 30.2436 88.2738 30.5174C88.0191 30.7913 87.7121 31.0113 87.371 31.1646C87.0299 31.3179 86.6616 31.4013 86.2877 31.41ZM75.6749 23.6326C74.7155 23.6348 73.7783 23.9215 72.9818 24.4564C72.1853 24.9913 71.5653 25.7504 71.2003 26.6376C70.8352 27.5249 70.7414 28.5005 70.9308 29.441C71.1202 30.3816 71.5842 31.2448 72.2642 31.9217C72.9442 32.5985 73.8097 33.0584 74.7511 33.2434C75.6925 33.4284 76.6676 33.33 77.5532 32.9608C78.4387 32.5916 79.1948 31.968 79.726 31.169C80.2572 30.3701 80.5394 29.4315 80.5372 28.4721C80.5465 27.8321 80.4269 27.1967 80.1855 26.6039C79.9442 26.011 79.586 25.4728 79.1323 25.0212C78.6786 24.5697 78.1387 24.214 77.5448 23.9755C76.9508 23.7369 76.3149 23.6203 75.6749 23.6326ZM75.6749 31.41C75.0868 31.4511 74.5 31.3144 73.9907 31.0176C73.4814 30.7208 73.0731 30.2776 72.819 29.7457C72.5649 29.2138 72.4767 28.6177 72.5658 28.035C72.655 27.4523 72.9173 26.9099 73.3188 26.4783C73.7204 26.0466 74.2424 25.7458 74.8172 25.6148C75.3919 25.4838 75.9928 25.5288 76.5417 25.7438C77.0905 25.9589 77.562 26.3341 77.8948 26.8206C78.2276 27.3072 78.4064 27.8826 78.4078 28.4721C78.4261 28.8456 78.3695 29.219 78.2412 29.5703C78.113 29.9216 77.9157 30.2436 77.661 30.5174C77.4063 30.7913 77.0993 31.0113 76.7582 31.1646C76.4171 31.3179 76.0487 31.4013 75.6749 31.41ZM63.0579 25.1243V27.174H67.9772C67.9 28.1394 67.4987 29.0503 66.8384 29.7589C66.345 30.2616 65.7515 30.6552 65.0963 30.9141C64.4412 31.173 63.739 31.2915 63.0351 31.262C61.5855 31.262 60.1952 30.6861 59.1702 29.6611C58.1452 28.636 57.5693 27.2458 57.5693 25.7961C57.5693 24.3465 58.1452 22.9562 59.1702 21.9312C60.1952 20.9062 61.5855 20.3303 63.0351 20.3303C64.4249 20.3096 65.7668 20.8374 66.7701 21.7992L68.2163 20.3531C67.5376 19.6818 66.7318 19.1527 65.846 18.7969C64.9602 18.441 64.0124 18.2655 63.0579 18.2806C62.0456 18.2412 61.0357 18.4066 60.0888 18.7668C59.142 19.127 58.2775 19.6747 57.5474 20.377C56.8172 21.0793 56.2364 21.9217 55.8396 22.8539C55.4428 23.7861 55.2383 24.7887 55.2383 25.8018C55.2383 26.8149 55.4428 27.8176 55.8396 28.7497C56.2364 29.6819 56.8172 30.5244 57.5474 31.2267C58.2775 31.9289 59.142 32.4766 60.0888 32.8368C61.0357 33.1971 62.0456 33.3624 63.0579 33.323C64.032 33.3619 65.0033 33.1944 65.908 32.8313C66.8127 32.4682 67.6304 31.9179 68.3074 31.2164C69.5032 29.9028 70.1403 28.1751 70.0838 26.3996C70.0879 25.9723 70.0536 25.5455 69.9813 25.1243H63.0579ZM114.653 26.7185C114.356 25.8448 113.801 25.0819 113.061 24.5308C112.32 23.9798 111.43 23.6665 110.508 23.6326C109.885 23.6313 109.269 23.7579 108.697 24.0044C108.125 24.2509 107.609 24.6121 107.182 25.0657C106.756 25.5193 106.426 26.0556 106.215 26.6415C106.003 27.2274 105.914 27.8504 105.953 28.4721C105.944 29.5116 106.27 30.5263 106.885 31.3647C107.499 32.2032 108.369 32.8203 109.363 33.1239C110.357 33.4276 111.423 33.4014 112.401 33.0494C113.379 32.6974 114.217 32.0384 114.79 31.1709L113.139 30.0321C112.893 30.4424 112.543 30.7812 112.126 31.0149C111.708 31.2486 111.237 31.3691 110.759 31.3644C110.265 31.3848 109.777 31.2554 109.358 30.9933C108.94 30.7311 108.61 30.3484 108.413 29.8955L114.892 27.2195L114.653 26.7185ZM108.049 28.3355C108.026 27.9818 108.073 27.627 108.189 27.292C108.305 26.9569 108.486 26.6483 108.723 26.3843C108.959 26.1202 109.246 25.906 109.566 25.7542C109.886 25.6024 110.234 25.516 110.588 25.5001C110.955 25.4777 111.32 25.564 111.638 25.7484C111.956 25.9327 112.213 26.2068 112.376 26.5363L108.049 28.3355ZM102.788 33.027H104.917V18.793H102.788V33.027ZM99.3033 24.7143H99.2235C98.9054 24.3521 98.5129 24.0628 98.0726 23.8662C97.6324 23.6697 97.1549 23.5706 96.6728 23.5756C95.4284 23.636 94.2549 24.1728 93.3956 25.0748C92.5362 25.9769 92.0568 27.175 92.0568 28.4209C92.0568 29.6667 92.5362 30.8648 93.3956 31.7669C94.2549 32.6689 95.4284 33.2058 96.6728 33.2661C97.1556 33.2758 97.6345 33.1787 98.0755 32.9819C98.5164 32.7851 98.9084 32.4933 99.2235 32.1274H99.3033V32.822C99.3033 34.6781 98.3126 35.6688 96.7184 35.6688C96.1858 35.6571 95.6688 35.4874 95.2328 35.1812C94.7969 34.8751 94.4619 34.4463 94.2701 33.9493L92.4254 34.7123C92.7665 35.5689 93.3594 36.3018 94.126 36.8142C94.8925 37.3265 95.7965 37.5942 96.7184 37.5818C99.2122 37.5818 101.273 36.1129 101.273 32.5373V23.9172H99.3033V24.7143ZM96.855 31.41C96.1089 31.3635 95.4086 31.0343 94.8968 30.4895C94.3849 29.9447 94.0999 29.2253 94.0999 28.4778C94.0999 27.7303 94.3849 27.0109 94.8968 26.4661C95.4086 25.9213 96.1089 25.5921 96.855 25.5456C97.2197 25.5613 97.5774 25.6503 97.907 25.8071C98.2366 25.9639 98.5313 26.1854 98.7735 26.4585C99.0157 26.7315 99.2006 27.0505 99.317 27.3964C99.4334 27.7424 99.4791 28.1082 99.4513 28.4721C99.4823 28.8373 99.439 29.205 99.3239 29.5529C99.2088 29.9009 99.0244 30.2219 98.7817 30.4965C98.539 30.7711 98.2431 30.9937 97.912 31.1507C97.5808 31.3077 97.2212 31.3959 96.855 31.41ZM124.628 18.793H119.527V33.027H121.656V27.6295H124.628C125.235 27.6731 125.845 27.5912 126.418 27.3889C126.992 27.1866 127.518 26.8683 127.964 26.4537C128.409 26.0392 128.764 25.5373 129.007 24.9795C129.25 24.4216 129.375 23.8197 129.375 23.2112C129.375 22.6028 129.25 22.0009 129.007 21.443C128.764 20.8851 128.409 20.3833 127.964 19.9688C127.518 19.5542 126.992 19.2359 126.418 19.0336C125.845 18.8313 125.235 18.7494 124.628 18.793ZM124.628 25.6253H121.656V20.7744H124.674C124.994 20.7744 125.311 20.8374 125.606 20.9599C125.902 21.0823 126.171 21.2618 126.397 21.4881C126.623 21.7144 126.803 21.983 126.925 22.2787C127.048 22.5743 127.111 22.8912 127.111 23.2112C127.111 23.5312 127.048 23.8481 126.925 24.1438C126.803 24.4394 126.623 24.7081 126.397 24.9344C126.171 25.1606 125.902 25.3401 125.606 25.4626C125.311 25.5851 124.994 25.6481 124.674 25.6481L124.628 25.6253ZM137.769 23.587C136.994 23.5392 136.221 23.7197 135.547 24.1063C134.873 24.4928 134.327 25.0685 133.977 25.762L135.856 26.5477C136.046 26.2054 136.331 25.9254 136.676 25.7415C137.022 25.5576 137.413 25.4777 137.803 25.5114C138.074 25.4799 138.347 25.5025 138.609 25.5779C138.87 25.6533 139.114 25.78 139.326 25.9507C139.538 26.1213 139.714 26.3325 139.844 26.5718C139.973 26.8112 140.054 27.074 140.081 27.3448V27.4814C139.396 27.1215 138.634 26.9339 137.86 26.9348C135.833 26.9348 133.761 28.0736 133.761 30.146C133.781 30.5865 133.889 31.0185 134.079 31.4163C134.27 31.8141 134.538 32.1696 134.868 32.4617C135.199 32.7538 135.584 32.9766 136.002 33.1167C136.421 33.2568 136.863 33.3115 137.302 33.2775C137.837 33.307 138.369 33.194 138.845 32.9498C139.322 32.7057 139.724 32.3393 140.012 31.8883H140.081V33.027H142.13V27.5497C142.13 25.056 140.24 23.6098 137.815 23.6098L137.769 23.587ZM137.507 31.3872C136.813 31.3872 135.845 31.0342 135.845 30.1802C135.845 29.0415 137.052 28.6543 138.122 28.6543C138.799 28.6376 139.467 28.8028 140.058 29.1326C139.986 29.751 139.693 30.3225 139.233 30.7412C138.772 31.16 138.175 31.3976 137.553 31.41L137.507 31.3872ZM149.6 23.9172L147.164 30.0891H147.095L144.567 23.9172H142.29L146.082 32.5487L143.918 37.3427H146.139L151.969 23.9172H149.6ZM130.47 33.027H132.588V18.793H130.47V33.027Z" fill="#121212"/>
<defs>
<linearGradient id="paint0_linear_2264_17727" x1="33.5111" y1="9.14248" x2="14.4034" y2="28.2501" gradientUnits="userSpaceOnUse">
<stop stop-color="#00A0FF"/>
<stop offset="0.01" stop-color="#00A1FF"/>
<stop offset="0.26" stop-color="#00BEFF"/>
<stop offset="0.51" stop-color="#00D2FF"/>
<stop offset="0.76" stop-color="#00DFFF"/>
<stop offset="1" stop-color="#00E3FF"/>
</linearGradient>
<linearGradient id="paint1_linear_2264_17727" x1="47.2079" y1="21.9987" x2="19.6623" y2="21.9987" gradientUnits="userSpaceOnUse">
<stop stop-color="#FFE000"/>
<stop offset="0.41" stop-color="#FFBD00"/>
<stop offset="0.78" stop-color="#FFA500"/>
<stop offset="1" stop-color="#FF9C00"/>
</linearGradient>
<linearGradient id="paint2_linear_2264_17727" x1="36.9603" y1="24.6176" x2="11.0432" y2="50.5234" gradientUnits="userSpaceOnUse">
<stop stop-color="#FF3A44"/>
<stop offset="1" stop-color="#C31162"/>
</linearGradient>
<linearGradient id="paint3_linear_2264_17727" x1="16.9986" y1="-0.570568" x2="28.568" y2="10.9988" gradientUnits="userSpaceOnUse">
<stop stop-color="#32A071"/>
<stop offset="0.07" stop-color="#2DA771"/>
<stop offset="0.48" stop-color="#15CF74"/>
<stop offset="0.8" stop-color="#06E775"/>
<stop offset="1" stop-color="#00F076"/>
</linearGradient>
</defs>
</svg>
