<svg width="166" height="44" viewBox="0 0 166 44" fill="none" xmlns="http://www.w3.org/2000/svg">
<rect width="165.524" height="44" rx="6.28571" fill="#F2F2F2"/>
<path d="M17.337 7.81018C16.9617 8.25385 16.7703 8.82416 16.8018 9.40438V34.5928C16.763 35.174 16.9554 35.7469 17.337 36.187L17.4167 36.2781L31.5254 22.1694V21.8278L17.4167 7.73047L17.337 7.81018Z" fill="url(#paint0_linear_2193_13735)"/>
<path d="M36.1922 26.8724L31.5234 22.1695V21.8279L36.1922 17.125L36.2947 17.1933L41.8858 20.359C43.48 21.2585 43.48 22.7389 41.8858 23.6498L36.3174 26.8155L36.1922 26.8724Z" fill="url(#paint1_linear_2193_13735)"/>
<path d="M36.3297 26.8039L31.5243 21.9985L17.3359 36.1869C17.6577 36.4734 18.0696 36.6381 18.5001 36.6527C18.9306 36.6673 19.3527 36.5307 19.6931 36.2667L36.3297 26.8039Z" fill="url(#paint2_linear_2193_13735)"/>
<path d="M36.3297 17.1934L19.6931 7.74206C19.3549 7.47436 18.9332 7.33447 18.5021 7.34696C18.0709 7.35946 17.658 7.52355 17.3359 7.81038L31.5243 21.9988L36.3297 17.1934Z" fill="url(#paint3_linear_2193_13735)"/>
<path opacity="0.2" d="M36.1931 26.7017L19.6931 36.0961C19.3651 36.3436 18.9653 36.4775 18.5544 36.4775C18.1434 36.4775 17.7437 36.3436 17.4156 36.0961L17.3359 36.1758L17.4156 36.2669C17.7437 36.5144 18.1434 36.6484 18.5544 36.6484C18.9653 36.6484 19.3651 36.5144 19.6931 36.2669L36.3297 26.8041L36.1931 26.7017Z" fill="black"/>
<path opacity="0.12" d="M17.3357 36.0275C16.9699 35.5758 16.7907 35.0014 16.8347 34.4219V34.5927C16.7959 35.1739 16.9883 35.7468 17.3699 36.1869L17.4496 36.1072L17.3357 36.0275Z" fill="black"/>
<path opacity="0.12" d="M41.8889 23.4789L36.1953 26.7014L36.2978 26.8039L41.8889 23.6383C42.2189 23.4987 42.5052 23.2728 42.7176 22.9842C42.9301 22.6956 43.0608 22.3551 43.0959 21.9985C43.0247 22.3226 42.8784 22.6254 42.6688 22.8825C42.4591 23.1396 42.192 23.3439 41.8889 23.4789Z" fill="black"/>
<path opacity="0.25" d="M19.6931 7.90145L41.8867 20.5184C42.1898 20.6534 42.4569 20.8577 42.6666 21.1148C42.8762 21.3719 43.0226 21.6747 43.0938 21.9988C43.0586 21.6422 42.9279 21.3017 42.7155 21.0131C42.503 20.7245 42.2167 20.4986 41.8867 20.359L19.6931 7.74203C18.1103 6.83106 16.8008 7.58261 16.8008 9.40456V9.57537C16.8349 7.75342 18.1103 7.00187 19.6931 7.90145Z" fill="white"/>
<path fill-rule="evenodd" clip-rule="evenodd" d="M58.9108 10.2672C58.9295 10.6848 58.8635 11.1018 58.7167 11.4932C58.5699 11.8846 58.3454 12.2423 58.0568 12.5446C57.7333 12.8786 57.3429 13.1405 56.9112 13.3132C56.4795 13.4858 56.0162 13.5654 55.5516 13.5467C55.0843 13.5571 54.6199 13.4715 54.187 13.2952C53.7542 13.1189 53.3621 12.8557 53.035 12.5218C52.3715 11.8431 52 10.9316 52 9.98248C52 9.03331 52.3715 8.12185 53.035 7.44314C53.5423 6.94744 54.1848 6.61271 54.8818 6.48102C55.5787 6.34933 56.299 6.42655 56.9522 6.70297C57.3628 6.87177 57.7291 7.13282 58.0226 7.46591L57.4191 8.06943C57.193 7.79702 56.9064 7.58108 56.5823 7.43876C56.2581 7.29644 55.9052 7.23166 55.5516 7.24956C55.1052 7.25264 54.6664 7.36501 54.2735 7.57684C53.8807 7.78867 53.5456 8.09351 53.2977 8.46471C53.0499 8.83592 52.8967 9.26219 52.8516 9.70627C52.8065 10.1503 52.8708 10.5987 53.039 11.0122C53.2072 11.4256 53.4741 11.7916 53.8164 12.0781C54.1587 12.3646 54.5659 12.5629 55.0025 12.6557C55.4391 12.7484 55.8918 12.7328 56.321 12.6102C56.7502 12.4877 57.1429 12.2618 57.4646 11.9525C57.8125 11.5711 58.0142 11.079 58.034 10.5632H55.5516V9.74335H58.8653C58.8912 9.91685 58.9064 10.0918 58.9108 10.2672ZM64.1258 7.42019H61.0512V9.58375H63.8525V10.4036H61.0512V12.5672H64.1258V13.4098H60.163V6.57754H64.1258V7.42019ZM66.9837 13.4098H67.8605V7.42019H69.8191V6.57754H65.0707V7.42019H66.9837V13.4098ZM73.1672 13.4098V6.57754H74.044V13.4098H73.1672ZM77.0619 13.4098H77.9388V7.42019H79.8404V6.57754H75.1489V7.42019H77.0619V13.4098ZM88.7342 12.522C88.4053 12.8511 88.0147 13.1122 87.5849 13.2904C87.155 13.4685 86.6943 13.5602 86.229 13.5602C85.7637 13.5602 85.3029 13.4685 84.8731 13.2904C84.4432 13.1122 84.0527 12.8511 83.7238 12.522C83.0801 11.8376 82.7216 10.9335 82.7216 9.99401C82.7216 9.0545 83.0801 8.15037 83.7238 7.46606C84.0456 7.12763 84.4349 6.86053 84.8664 6.68203C85.2979 6.50353 85.7621 6.41761 86.229 6.42983C86.6952 6.42246 87.1579 6.51059 87.5888 6.6888C88.0196 6.86701 88.4094 7.13153 88.7342 7.46606C89.0616 7.79912 89.319 8.19442 89.4911 8.62861C89.6632 9.0628 89.7465 9.52707 89.7362 9.99401C89.7512 10.4615 89.6699 10.9271 89.4976 11.362C89.3252 11.7968 89.0654 12.1916 88.7342 12.522ZM84.3729 11.9526C84.6154 12.1984 84.9044 12.3936 85.2231 12.5268C85.5417 12.6601 85.8836 12.7287 86.229 12.7287C86.5743 12.7287 86.9163 12.6601 87.2349 12.5268C87.5535 12.3936 87.8425 12.1984 88.0851 11.9526C88.5764 11.4187 88.8492 10.7196 88.8492 9.99401C88.8492 9.26842 88.5764 8.56933 88.0851 8.03542C87.8425 7.7896 87.5535 7.59441 87.2349 7.46118C86.9163 7.32796 86.5743 7.25936 86.229 7.25936C85.8836 7.25936 85.5417 7.32796 85.2231 7.46118C84.9044 7.59441 84.6154 7.7896 84.3729 8.03542C83.8815 8.56933 83.6088 9.26842 83.6088 9.99401C83.6088 10.7196 83.8815 11.4187 84.3729 11.9526ZM90.9767 6.57754V13.4098H91.8536V9.15104V7.84152L95.3266 13.4098H96.2376V6.57754H95.3608V10.5744V11.8953L92.0358 6.57754H90.9767Z" fill="#121212"/>
<path d="M58.7167 11.4932L58.8176 11.531L58.7167 11.4932ZM58.9108 10.2672L58.8031 10.2699L58.8032 10.272L58.9108 10.2672ZM58.0568 12.5446L58.1342 12.6195L58.1347 12.619L58.0568 12.5446ZM56.9112 13.3132L56.9512 13.4132L56.9112 13.3132ZM55.5516 13.5467L55.556 13.4388L55.5492 13.439L55.5516 13.5467ZM54.187 13.2952L54.2277 13.1954H54.2277L54.187 13.2952ZM53.035 12.5218L52.958 12.5971L52.9581 12.5972L53.035 12.5218ZM53.035 7.44314L52.9597 7.36607L52.958 7.36783L53.035 7.44314ZM54.8818 6.48102L54.8618 6.37518L54.8818 6.48102ZM56.9522 6.70297L56.9102 6.80218L56.9113 6.80261L56.9522 6.70297ZM58.0226 7.46591L58.0988 7.54209L58.1703 7.47057L58.1034 7.3947L58.0226 7.46591ZM57.4191 8.06943L57.3362 8.13824L57.4117 8.22917L57.4953 8.1456L57.4191 8.06943ZM56.5823 7.43876L56.539 7.53739L56.5823 7.43876ZM55.5516 7.24956L55.5523 7.35738L55.557 7.35714L55.5516 7.24956ZM54.2735 7.57684L54.3247 7.67166L54.2735 7.57684ZM53.2977 8.46471L53.3873 8.52454V8.52454L53.2977 8.46471ZM52.8516 9.70627L52.7444 9.69538L52.8516 9.70627ZM53.8164 12.0781L53.7472 12.1607H53.7472L53.8164 12.0781ZM56.321 12.6102L56.2915 12.5067L56.321 12.6102ZM57.4646 11.9525L57.5395 12.0303L57.5442 12.025L57.4646 11.9525ZM58.034 10.5632L58.1416 10.5674L58.146 10.4555H58.034V10.5632ZM55.5516 10.5632H55.4439V10.6709H55.5516V10.5632ZM55.5516 9.74335V9.63562H55.4439V9.74335H55.5516ZM58.8653 9.74335L58.9718 9.72743L58.9581 9.63562H58.8653V9.74335ZM61.0512 7.42019V7.31247H60.9435V7.42019H61.0512ZM64.1258 7.42019V7.52792H64.2335V7.42019H64.1258ZM61.0512 9.58375H60.9435V9.69148H61.0512V9.58375ZM63.8525 9.58375H63.9602V9.47603H63.8525V9.58375ZM63.8525 10.4036V10.5114H63.9602V10.4036H63.8525ZM61.0512 10.4036V10.2959H60.9435V10.4036H61.0512ZM61.0512 12.5672H60.9435V12.6749H61.0512V12.5672ZM64.1258 12.5672H64.2335V12.4595H64.1258V12.5672ZM64.1258 13.4098V13.5176H64.2335V13.4098H64.1258ZM60.163 13.4098H60.0553V13.5176H60.163V13.4098ZM60.163 6.57754V6.46982H60.0553V6.57754H60.163ZM64.1258 6.57754H64.2335V6.46982H64.1258V6.57754ZM67.8605 13.4098V13.5176H67.9683V13.4098H67.8605ZM66.9837 13.4098H66.876V13.5176H66.9837V13.4098ZM67.8605 7.42019V7.31247H67.7528V7.42019H67.8605ZM69.8191 7.42019V7.52792H69.9269V7.42019H69.8191ZM69.8191 6.57754H69.9269V6.46982H69.8191V6.57754ZM65.0707 6.57754V6.46982H64.963V6.57754H65.0707ZM65.0707 7.42019H64.963V7.52792H65.0707V7.42019ZM66.9837 7.42019H67.0915V7.31247H66.9837V7.42019ZM73.1672 6.57754V6.46982H73.0595V6.57754H73.1672ZM73.1672 13.4098H73.0595V13.5176H73.1672V13.4098ZM74.044 6.57754H74.1518V6.46982H74.044V6.57754ZM74.044 13.4098V13.5176H74.1518V13.4098H74.044ZM77.9388 13.4098V13.5176H78.0465V13.4098H77.9388ZM77.0619 13.4098H76.9542V13.5176H77.0619V13.4098ZM77.9388 7.42019V7.31247H77.831V7.42019H77.9388ZM79.8404 7.42019V7.52792H79.9481V7.42019H79.8404ZM79.8404 6.57754H79.9481V6.46982H79.8404V6.57754ZM75.1489 6.57754V6.46982H75.0412V6.57754H75.1489ZM75.1489 7.42019H75.0412V7.52792H75.1489V7.42019ZM77.0619 7.42019H77.1697V7.31247H77.0619V7.42019ZM87.5849 13.2904L87.5436 13.1909L87.5849 13.2904ZM88.7342 12.522L88.6581 12.4457L88.658 12.4458L88.7342 12.522ZM84.8731 13.2904L84.9143 13.1909L84.8731 13.2904ZM83.7238 12.522L83.6453 12.5958L83.6476 12.5981L83.7238 12.522ZM83.7238 7.46606L83.6457 7.39183L83.6453 7.39225L83.7238 7.46606ZM84.8664 6.68203L84.9076 6.78157L84.8664 6.68203ZM86.229 6.42983L86.2262 6.53761L86.2307 6.53754L86.229 6.42983ZM87.5888 6.6888L87.6299 6.58925L87.5888 6.6888ZM88.7342 7.46606L88.6569 7.5411L88.6573 7.54158L88.7342 7.46606ZM89.4911 8.62861L89.5912 8.58891V8.58891L89.4911 8.62861ZM89.7362 9.99401L89.6284 9.99163L89.6286 9.99745L89.7362 9.99401ZM89.4976 11.362L89.3974 11.3223L89.4976 11.362ZM85.2231 12.5268L85.2646 12.4275L85.2231 12.5268ZM84.3729 11.9526L84.2936 12.0256L84.2962 12.0283L84.3729 11.9526ZM87.2349 12.5268L87.1933 12.4275L87.2349 12.5268ZM88.0851 11.9526L88.1618 12.0283L88.1644 12.0255L88.0851 11.9526ZM88.0851 8.03542L88.1644 7.96243L88.1618 7.95976L88.0851 8.03542ZM87.2349 7.46118L87.2764 7.3618L87.2349 7.46118ZM85.2231 7.46118L85.1815 7.3618L85.2231 7.46118ZM84.3729 8.03542L84.2961 7.95971L84.2936 7.96247L84.3729 8.03542ZM90.9767 13.4098H90.869V13.5176H90.9767V13.4098ZM90.9767 6.57754V6.46982H90.869V6.57754H90.9767ZM91.8536 13.4098V13.5176H91.9613V13.4098H91.8536ZM91.8536 7.84152L91.945 7.78451L91.7458 7.46526V7.84152H91.8536ZM95.3266 13.4098L95.2352 13.4669L95.2669 13.5176H95.3266V13.4098ZM96.2376 13.4098V13.5176H96.3453V13.4098H96.2376ZM96.2376 6.57754H96.3453V6.46982H96.2376V6.57754ZM95.3608 6.57754V6.46982H95.2531V6.57754H95.3608ZM95.3608 11.8953L95.2695 11.9525L95.4685 12.2708V11.8953H95.3608ZM92.0358 6.57754L92.1271 6.52043L92.0954 6.46982H92.0358V6.57754ZM58.8176 11.531C58.9694 11.126 59.0378 10.6945 59.0184 10.2623L58.8032 10.272C58.8212 10.675 58.7575 11.0776 58.6158 11.4554L58.8176 11.531ZM58.1347 12.619C58.4334 12.3061 58.6657 11.9361 58.8176 11.531L58.6158 11.4554C58.4742 11.8332 58.2575 12.1784 57.9789 12.4702L58.1347 12.619ZM56.9512 13.4132C57.397 13.2349 57.8001 12.9644 58.1341 12.6195L57.9794 12.4696C57.6665 12.7927 57.2888 13.0461 56.8712 13.2131L56.9512 13.4132ZM55.5473 13.6543C56.027 13.6737 56.5054 13.5915 56.9512 13.4132L56.8712 13.2131C56.4536 13.3802 56.0054 13.4572 55.5559 13.439L55.5473 13.6543ZM54.1464 13.395C54.5929 13.5768 55.072 13.6651 55.554 13.6544L55.5492 13.439C55.0967 13.449 54.6469 13.3662 54.2277 13.1954L54.1464 13.395ZM52.9581 12.5972C53.2954 12.9416 53.6999 13.2131 54.1464 13.395L54.2277 13.1954C53.8085 13.0247 53.4287 12.7698 53.112 12.4464L52.9581 12.5972ZM51.8923 9.98248C51.8923 10.9598 52.2748 11.8983 52.958 12.5971L53.1121 12.4465C52.4682 11.7879 52.1077 10.9035 52.1077 9.98248H51.8923ZM52.958 7.36783C52.2748 8.06667 51.8923 9.00517 51.8923 9.98248H52.1077C52.1077 9.06146 52.4682 8.17703 53.1121 7.51844L52.958 7.36783ZM54.8618 6.37518C54.144 6.51081 53.4822 6.85555 52.9597 7.36609L53.1103 7.52019C53.6024 7.03932 54.2257 6.71462 54.9018 6.58687L54.8618 6.37518ZM56.9942 6.60377C56.3215 6.31907 55.5796 6.23954 54.8618 6.37518L54.9018 6.58687C55.5778 6.45913 56.2766 6.53403 56.9102 6.80218L56.9942 6.60377ZM58.1034 7.3947C57.799 7.0492 57.4191 6.77842 56.9932 6.60334L56.9113 6.80261C57.3066 6.96511 57.6592 7.21644 57.9418 7.53713L58.1034 7.3947ZM57.4953 8.1456L58.0988 7.54209L57.9464 7.38974L57.3429 7.99326L57.4953 8.1456ZM56.539 7.53739C56.8478 7.67298 57.1208 7.87871 57.3362 8.13824L57.502 8.00063C57.2652 7.71533 56.9651 7.48918 56.6256 7.34012L56.539 7.53739ZM55.557 7.35714C55.8939 7.34009 56.2301 7.4018 56.539 7.53739L56.6256 7.34012C56.286 7.19107 55.9165 7.12323 55.5462 7.14197L55.557 7.35714ZM54.3247 7.67166C54.7021 7.46818 55.1236 7.36024 55.5523 7.35728L55.5509 7.14184C55.0869 7.14505 54.6308 7.26184 54.2224 7.48202L54.3247 7.67166ZM53.3873 8.52454C53.6254 8.16796 53.9473 7.87514 54.3247 7.67166L54.2224 7.48202C53.814 7.7022 53.4658 8.01905 53.2082 8.40489L53.3873 8.52454ZM52.9587 9.71715C53.0021 9.29058 53.1492 8.88111 53.3873 8.52454L53.2082 8.40489C52.9505 8.79073 52.7913 9.2338 52.7444 9.69538L52.9587 9.71715ZM53.1388 10.9716C52.9772 10.5744 52.9154 10.1437 52.9587 9.71715L52.7444 9.69538C52.6975 10.157 52.7644 10.623 52.9392 11.0528L53.1388 10.9716ZM53.8855 11.9955C53.5567 11.7203 53.3003 11.3687 53.1388 10.9716L52.9392 11.0528C53.114 11.4825 53.3915 11.8629 53.7472 12.1607L53.8855 11.9955ZM55.0249 12.5503C54.6055 12.4612 54.2143 12.2707 53.8855 11.9955L53.7472 12.1607C54.103 12.4585 54.5263 12.6646 54.9801 12.761L55.0249 12.5503ZM56.2915 12.5067C55.8792 12.6244 55.4443 12.6394 55.0249 12.5503L54.9801 12.761C55.434 12.8575 55.9045 12.8412 56.3506 12.7138L56.2915 12.5067ZM57.39 11.8748C57.0809 12.172 56.7037 12.3889 56.2915 12.5067L56.3506 12.7138C56.7967 12.5864 57.2049 12.3517 57.5393 12.0301L57.39 11.8748ZM57.9264 10.5591C57.9075 11.0494 57.7157 11.5173 57.3851 11.8799L57.5442 12.025C57.9092 11.6249 58.1208 11.1085 58.1416 10.5674L57.9264 10.5591ZM55.5516 10.6709H58.034V10.4555H55.5516V10.6709ZM55.4439 9.74335V10.5632H55.6593V9.74335H55.4439ZM58.8653 9.63562H55.5516V9.85107H58.8653V9.63562ZM59.0185 10.2644C59.014 10.0847 58.9984 9.90531 58.9718 9.72743L58.7587 9.75927C58.784 9.92839 58.7988 10.0989 58.8031 10.2699L59.0185 10.2644ZM61.0512 7.52792H64.1258V7.31247H61.0512V7.52792ZM61.159 9.58375V7.42019H60.9435V9.58375H61.159ZM63.8525 9.47603H61.0512V9.69148H63.8525V9.47603ZM63.9602 10.4036V9.58375H63.7448V10.4036H63.9602ZM61.0512 10.5114H63.8525V10.2959H61.0512V10.5114ZM61.159 12.5672V10.4036H60.9435V12.5672H61.159ZM64.1258 12.4595H61.0512V12.6749H64.1258V12.4595ZM64.2335 13.4098V12.5672H64.0181V13.4098H64.2335ZM60.163 13.5176H64.1258V13.3021H60.163V13.5176ZM60.0553 6.57754V13.4098H60.2708V6.57754H60.0553ZM64.1258 6.46982H60.163V6.68527H64.1258V6.46982ZM64.2335 7.42019V6.57754H64.0181V7.42019H64.2335ZM67.8605 13.3021H66.9837V13.5176H67.8605V13.3021ZM67.7528 7.42019V13.4098H67.9683V7.42019H67.7528ZM69.8191 7.31247H67.8605V7.52792H69.8191V7.31247ZM69.7114 6.57754V7.42019H69.9269V6.57754H69.7114ZM65.0707 6.68527H69.8191V6.46982H65.0707V6.68527ZM65.1784 7.42019V6.57754H64.963V7.42019H65.1784ZM66.9837 7.31247H65.0707V7.52792H66.9837V7.31247ZM67.0915 13.4098V7.42019H66.876V13.4098H67.0915ZM73.0595 6.57754V13.4098H73.2749V6.57754H73.0595ZM74.044 6.46982H73.1672V6.68527H74.044V6.46982ZM74.1518 13.4098V6.57754H73.9363V13.4098H74.1518ZM73.1672 13.5176H74.044V13.3021H73.1672V13.5176ZM77.9388 13.3021H77.0619V13.5176H77.9388V13.3021ZM77.831 7.42019V13.4098H78.0465V7.42019H77.831ZM79.8404 7.31247H77.9388V7.52792H79.8404V7.31247ZM79.7327 6.57754V7.42019H79.9481V6.57754H79.7327ZM75.1489 6.68527H79.8404V6.46982H75.1489V6.68527ZM75.2566 7.42019V6.57754H75.0412V7.42019H75.2566ZM77.0619 7.31247H75.1489V7.52792H77.0619V7.31247ZM77.1697 13.4098V7.42019H76.9542V13.4098H77.1697ZM87.6261 13.3899C88.0691 13.2063 88.4715 12.9373 88.8104 12.5981L88.658 12.4458C88.3391 12.765 87.9604 13.0181 87.5436 13.1909L87.6261 13.3899ZM86.229 13.668C86.7084 13.668 87.1832 13.5735 87.6261 13.3899L87.5436 13.1909C87.1269 13.3636 86.6801 13.4525 86.229 13.4525V13.668ZM84.8318 13.3899C85.2748 13.5735 85.7495 13.668 86.229 13.668V13.4525C85.7778 13.4525 85.3311 13.3636 84.9143 13.1909L84.8318 13.3899ZM83.6476 12.5981C83.9865 12.9373 84.3889 13.2063 84.8318 13.3899L84.9143 13.1909C84.4975 13.0181 84.1189 12.765 83.8 12.4458L83.6476 12.5981ZM82.6139 9.99401C82.6139 10.961 82.9828 11.8915 83.6453 12.5958L83.8023 12.4482C83.1773 11.7838 82.8294 10.9061 82.8294 9.99401H82.6139ZM83.6453 7.39225C82.9828 8.09654 82.6139 9.02707 82.6139 9.99401H82.8294C82.8294 9.08193 83.1773 8.2042 83.8023 7.53987L83.6453 7.39225ZM84.8252 6.58249C84.3798 6.76675 83.9779 7.04248 83.6457 7.39183L83.8019 7.54029C84.1133 7.21279 84.49 6.95431 84.9076 6.78157L84.8252 6.58249ZM86.2318 6.32214C85.7499 6.30953 85.2707 6.39822 84.8252 6.58249L84.9076 6.78157C85.3252 6.60884 85.7744 6.52569 86.2262 6.53752L86.2318 6.32214ZM87.6299 6.58925C87.1855 6.40542 86.7082 6.31451 86.2273 6.32212L86.2307 6.53754C86.6822 6.5304 87.1303 6.61575 87.5476 6.78834L87.6299 6.58925ZM88.8114 7.39103C88.4764 7.04594 88.0744 6.77309 87.6299 6.58925L87.5476 6.78834C87.9648 6.96093 88.3423 7.21711 88.6569 7.54109L88.8114 7.39103ZM89.5912 8.58891C89.4138 8.14135 89.1485 7.73387 88.811 7.39054L88.6573 7.54158C88.9747 7.86438 89.2241 8.2475 89.3909 8.6683L89.5912 8.58891ZM89.8439 9.99639C89.8545 9.51506 89.7686 9.03648 89.5912 8.58891L89.3909 8.6683C89.5577 9.08911 89.6385 9.53908 89.6285 9.99163L89.8439 9.99639ZM89.5977 11.4017C89.7755 10.9531 89.8593 10.4728 89.8439 9.99057L89.6286 9.99745C89.643 10.4502 89.5644 10.9012 89.3974 11.3223L89.5977 11.4017ZM88.8102 12.5982C89.1519 12.2575 89.4199 11.8502 89.5977 11.4017L89.3974 11.3223C89.2305 11.7434 88.9788 12.1258 88.6581 12.4457L88.8102 12.5982ZM85.2646 12.4275C84.9592 12.2997 84.6821 12.1126 84.4495 11.8769L84.2962 12.0283C84.5488 12.2842 84.8497 12.4875 85.1815 12.6262L85.2646 12.4275ZM86.229 12.6209C85.8979 12.6209 85.5701 12.5552 85.2646 12.4275L85.1815 12.6262C85.5133 12.7649 85.8694 12.8364 86.229 12.8364V12.6209ZM87.1933 12.4275C86.8879 12.5552 86.5601 12.6209 86.229 12.6209V12.8364C86.5886 12.8364 86.9447 12.7649 87.2764 12.6262L87.1933 12.4275ZM88.0084 11.8769C87.7759 12.1126 87.4988 12.2997 87.1933 12.4275L87.2764 12.6262C87.6082 12.4875 87.9092 12.2842 88.1618 12.0283L88.0084 11.8769ZM88.7414 9.99401C88.7414 10.6926 88.4789 11.3656 88.0058 11.8797L88.1644 12.0255C88.674 11.4718 88.9569 10.7466 88.9569 9.99401H88.7414ZM88.0058 8.10837C88.4789 8.62239 88.7414 9.29544 88.7414 9.99401H88.9569C88.9569 9.24139 88.674 8.51627 88.1644 7.96247L88.0058 8.10837ZM87.1933 7.56057C87.4988 7.68829 87.7759 7.87541 88.0084 8.11108L88.1618 7.95976C87.9092 7.70378 87.6082 7.50052 87.2764 7.3618L87.1933 7.56057ZM86.229 7.36708C86.5601 7.36708 86.8879 7.43285 87.1933 7.56057L87.2764 7.3618C86.9447 7.22307 86.5886 7.15164 86.229 7.15164V7.36708ZM85.2646 7.56057C85.5701 7.43285 85.8979 7.36708 86.229 7.36708V7.15164C85.8694 7.15164 85.5133 7.22307 85.1815 7.3618L85.2646 7.56057ZM84.4495 8.11108C84.6821 7.87541 84.9592 7.68829 85.2646 7.56057L85.1815 7.3618C84.8497 7.50052 84.5488 7.70378 84.2962 7.95976L84.4495 8.11108ZM83.7165 9.99401C83.7165 9.29544 83.9791 8.62239 84.4521 8.10837L84.2936 7.96247C83.784 8.51627 83.5011 9.24139 83.5011 9.99401H83.7165ZM84.4521 11.8797C83.9791 11.3656 83.7165 10.6926 83.7165 9.99401H83.5011C83.5011 10.7466 83.784 11.4718 84.2936 12.0255L84.4521 11.8797ZM91.0845 13.4098V6.57754H90.869V13.4098H91.0845ZM91.8536 13.3021H90.9767V13.5176H91.8536V13.3021ZM91.7458 9.15104V13.4098H91.9613V9.15104H91.7458ZM91.7458 7.84152V9.15104H91.9613V7.84152H91.7458ZM95.418 13.3528L91.945 7.78451L91.7622 7.89853L95.2352 13.4669L95.418 13.3528ZM96.2376 13.3021H95.3266V13.5176H96.2376V13.3021ZM96.1299 6.57754V13.4098H96.3453V6.57754H96.1299ZM95.3608 6.68527H96.2376V6.46982H95.3608V6.68527ZM95.4685 10.5744V6.57754H95.2531V10.5744H95.4685ZM95.4685 11.8953V10.5744H95.2531V11.8953H95.4685ZM91.9444 6.63465L95.2695 11.9525L95.4521 11.8382L92.1271 6.52043L91.9444 6.63465ZM90.9767 6.68527H92.0358V6.46982H90.9767V6.68527Z" fill="#121212"/>
<path d="M83.0494 23.6321C82.09 23.6343 81.1528 23.921 80.3563 24.4559C79.5599 24.9908 78.9399 25.7499 78.5748 26.6372C78.2097 27.5244 78.116 28.5 78.3054 29.4405C78.4947 30.3811 78.9588 31.2443 79.6388 31.9212C80.3188 32.598 81.1842 33.058 82.1256 33.2429C83.0671 33.4279 84.0422 33.3295 84.9277 32.9603C85.8133 32.5911 86.5694 31.9675 87.1006 31.1686C87.6317 30.3696 87.914 29.431 87.9118 28.4716C87.921 27.8316 87.8015 27.1962 87.5601 26.6034C87.3187 26.0105 86.9606 25.4723 86.5069 25.0207C86.0532 24.5692 85.5133 24.2135 84.9193 23.975C84.3253 23.7364 83.6894 23.6198 83.0494 23.6321ZM83.0494 31.4095C82.4614 31.4506 81.8746 31.3139 81.3652 31.0171C80.8559 30.7203 80.4477 30.2771 80.1936 29.7452C79.9395 29.2133 79.8512 28.6172 79.9404 28.0345C80.0295 27.4518 80.2919 26.9094 80.6934 26.4778C81.0949 26.0462 81.617 25.7453 82.1917 25.6143C82.7665 25.4833 83.3673 25.5283 83.9162 25.7434C84.4651 25.9584 84.9366 26.3336 85.2694 26.8201C85.6022 27.3067 85.7809 27.8821 85.7824 28.4716C85.8007 28.8451 85.7441 29.2185 85.6158 29.5698C85.4875 29.9211 85.2902 30.2431 85.0355 30.517C84.7808 30.7908 84.4739 31.0108 84.1328 31.1641C83.7917 31.3174 83.4233 31.4008 83.0494 31.4095ZM72.4366 23.6321C71.4772 23.6343 70.54 23.921 69.7435 24.4559C68.947 24.9908 68.327 25.7499 67.962 26.6372C67.5969 27.5244 67.5031 28.5 67.6925 29.4405C67.8819 30.3811 68.3459 31.2443 69.0259 31.9212C69.7059 32.598 70.5714 33.058 71.5128 33.2429C72.4542 33.4279 73.4294 33.3295 74.3149 32.9603C75.2004 32.5911 75.9566 31.9675 76.4877 31.1686C77.0189 30.3696 77.3012 29.431 77.2989 28.4716C77.3082 27.8316 77.1886 27.1962 76.9473 26.6034C76.7059 26.0105 76.3477 25.4723 75.894 25.0207C75.4404 24.5692 74.9005 24.2135 74.3065 23.975C73.7125 23.7364 73.0766 23.6198 72.4366 23.6321ZM72.4366 31.4095C71.8485 31.4506 71.2617 31.3139 70.7524 31.0171C70.2431 30.7203 69.8348 30.2771 69.5807 29.7452C69.3266 29.2133 69.2384 28.6172 69.3275 28.0345C69.4167 27.4518 69.6791 26.9094 70.0806 26.4778C70.4821 26.0462 71.0041 25.7453 71.5789 25.6143C72.1536 25.4833 72.7545 25.5283 73.3034 25.7434C73.8522 25.9584 74.3237 26.3336 74.6565 26.8201C74.9893 27.3067 75.1681 27.8821 75.1695 28.4716C75.1879 28.8451 75.1312 29.2185 75.003 29.5698C74.8747 29.9211 74.6774 30.2431 74.4227 30.517C74.168 30.7908 73.861 31.0108 73.5199 31.1641C73.1788 31.3174 72.8105 31.4008 72.4366 31.4095ZM59.8196 25.1238V27.1735H64.7389C64.6617 28.1389 64.2604 29.0499 63.6002 29.7584C63.1067 30.2611 62.5132 30.6547 61.8581 30.9136C61.2029 31.1725 60.5007 31.291 59.7969 31.2615C58.3472 31.2615 56.957 30.6856 55.9319 29.6606C54.9069 28.6355 54.331 27.2453 54.331 25.7956C54.331 24.346 54.9069 22.9557 55.9319 21.9307C56.957 20.9057 58.3472 20.3298 59.7969 20.3298C61.1866 20.3091 62.5285 20.8369 63.5318 21.7987L64.978 20.3526C64.2993 19.6813 63.4935 19.1522 62.6077 18.7964C61.722 18.4405 60.7741 18.265 59.8196 18.2801C58.8073 18.2407 57.7974 18.4061 56.8506 18.7663C55.9037 19.1265 55.0393 19.6742 54.3091 20.3765C53.5789 21.0788 52.9981 21.9213 52.6013 22.8534C52.2045 23.7856 52 24.7882 52 25.8013C52 26.8144 52.2045 27.8171 52.6013 28.7492C52.9981 29.6814 53.5789 30.5239 54.3091 31.2262C55.0393 31.9285 55.9037 32.4761 56.8506 32.8364C57.7974 33.1966 58.8073 33.3619 59.8196 33.3225C60.7937 33.3615 61.765 33.1939 62.6697 32.8308C63.5744 32.4677 64.3921 31.9174 65.0691 31.2159C66.2649 29.9023 66.9021 28.1746 66.8455 26.3992C66.8496 25.9718 66.8153 25.545 66.743 25.1238H59.8196ZM111.415 26.718C111.118 25.8443 110.563 25.0814 109.822 24.5304C109.082 23.9793 108.192 23.666 107.27 23.6321C106.647 23.6309 106.031 23.7574 105.459 24.0039C104.886 24.2504 104.371 24.6116 103.944 25.0652C103.517 25.5188 103.188 26.0551 102.977 26.641C102.765 27.2269 102.676 27.85 102.715 28.4716C102.705 29.5111 103.032 30.5258 103.647 31.3643C104.261 32.2027 105.13 32.8198 106.125 33.1234C107.119 33.4271 108.185 33.4009 109.163 33.0489C110.141 32.6969 110.979 32.0379 111.552 31.1704L109.9 30.0317C109.654 30.4419 109.305 30.7807 108.888 31.0144C108.47 31.2481 107.999 31.3686 107.52 31.364C107.027 31.3843 106.539 31.2549 106.12 30.9928C105.701 30.7306 105.372 30.3479 105.175 29.895L111.654 27.219L111.415 26.718ZM104.81 28.335C104.787 27.9813 104.835 27.6265 104.951 27.2915C105.066 26.9564 105.248 26.6479 105.484 26.3838C105.721 26.1198 106.008 25.9055 106.328 25.7537C106.648 25.6019 106.996 25.5155 107.35 25.4996C107.717 25.4772 108.082 25.5636 108.4 25.7479C108.718 25.9322 108.975 26.2063 109.137 26.5358L104.81 28.335ZM99.5494 33.0265H101.679V18.7925H99.5494V33.0265ZM96.065 24.7139H95.9853C95.6672 24.3516 95.2746 24.0623 94.8343 23.8658C94.3941 23.6692 93.9166 23.5701 93.4345 23.5751C92.1901 23.6355 91.0166 24.1723 90.1573 25.0744C89.2979 25.9764 88.8186 27.1745 88.8186 28.4204C88.8186 29.6663 89.2979 30.8644 90.1573 31.7664C91.0166 32.6684 92.1901 33.2053 93.4345 33.2656C93.9173 33.2753 94.3963 33.1783 94.8372 32.9814C95.2781 32.7846 95.6701 32.4928 95.9853 32.1269H96.065V32.8215C96.065 34.6776 95.0743 35.6683 93.4801 35.6683C92.9475 35.6566 92.4305 35.4869 91.9946 35.1808C91.5587 34.8746 91.2236 34.4458 91.0318 33.9488L89.1871 34.7118C89.5282 35.5684 90.1212 36.3013 90.8877 36.8137C91.6542 37.326 92.5582 37.5937 93.4801 37.5814C95.9739 37.5814 98.035 36.1124 98.035 32.5368V23.9168H96.065V24.7139ZM93.6167 31.4095C92.8706 31.363 92.1704 31.0338 91.6585 30.489C91.1466 29.9443 90.8617 29.2248 90.8617 28.4773C90.8617 27.7298 91.1466 27.0104 91.6585 26.4656C92.1704 25.9208 92.8706 25.5916 93.6167 25.5451C93.9814 25.5609 94.3392 25.6498 94.6688 25.8066C94.9983 25.9634 95.293 26.185 95.5352 26.458C95.7775 26.731 95.9623 27.05 96.0787 27.3959C96.1952 27.7419 96.2408 28.1077 96.213 28.4716C96.2441 28.8368 96.2007 29.2045 96.0857 29.5524C95.9706 29.9004 95.7861 30.2214 95.5434 30.496C95.3007 30.7706 95.0048 30.9932 94.6737 31.1502C94.3425 31.3072 93.983 31.3954 93.6167 31.4095ZM121.39 18.7925H116.289V33.0265H118.418V27.629H121.39C121.997 27.6726 122.606 27.5907 123.18 27.3884C123.754 27.1861 124.28 26.8678 124.725 26.4532C125.171 26.0387 125.526 25.5369 125.769 24.979C126.012 24.4211 126.137 23.8192 126.137 23.2107C126.137 22.6023 126.012 22.0004 125.769 21.4425C125.526 20.8846 125.171 20.3828 124.725 19.9683C124.28 19.5537 123.754 19.2354 123.18 19.0331C122.606 18.8308 121.997 18.7489 121.39 18.7925ZM121.39 25.6248H118.418V20.7739H121.436C121.756 20.7739 122.072 20.8369 122.368 20.9594C122.664 21.0819 122.932 21.2614 123.159 21.4876C123.385 21.7139 123.564 21.9826 123.687 22.2782C123.809 22.5739 123.872 22.8907 123.872 23.2107C123.872 23.5308 123.809 23.8476 123.687 24.1433C123.564 24.4389 123.385 24.7076 123.159 24.9339C122.932 25.1601 122.664 25.3396 122.368 25.4621C122.072 25.5846 121.756 25.6476 121.436 25.6476L121.39 25.6248ZM134.531 23.5865C133.755 23.5387 132.983 23.7192 132.309 24.1058C131.635 24.4924 131.089 25.068 130.739 25.7615L132.618 26.5472C132.808 26.2049 133.093 25.9249 133.438 25.741C133.784 25.5571 134.175 25.4772 134.565 25.511C134.835 25.4794 135.109 25.502 135.371 25.5774C135.632 25.6528 135.876 25.7795 136.088 25.9502C136.3 26.1208 136.476 26.332 136.605 26.5714C136.735 26.8107 136.816 27.0735 136.842 27.3443V27.4809C136.158 27.121 135.395 26.9334 134.622 26.9344C132.595 26.9344 130.523 28.0731 130.523 30.1455C130.543 30.586 130.651 31.018 130.841 31.4158C131.031 31.8136 131.3 32.1691 131.63 32.4612C131.96 32.7533 132.346 32.9761 132.764 33.1162C133.182 33.2563 133.624 33.311 134.064 33.277C134.598 33.3066 135.131 33.1935 135.607 32.9494C136.083 32.7052 136.486 32.3389 136.774 31.8878H136.842V33.0265H138.892V27.5493C138.892 25.0555 137.002 23.6093 134.576 23.6093L134.531 23.5865ZM134.269 31.3867C133.574 31.3867 132.606 31.0337 132.606 30.1797C132.606 29.041 133.813 28.6538 134.884 28.6538C135.56 28.6371 136.229 28.8023 136.82 29.1321C136.748 29.7505 136.455 30.322 135.994 30.7408C135.534 31.1595 134.937 31.3971 134.314 31.4095L134.269 31.3867ZM146.362 23.9168L143.925 30.0886H143.857L141.329 23.9168H139.052L142.843 32.5482L140.68 37.3422H142.9L148.731 23.9168H146.362ZM127.232 33.0265H129.35V18.7925H127.232V33.0265Z" fill="#121212"/>
<defs>
<linearGradient id="paint0_linear_2193_13735" x1="30.2728" y1="9.14248" x2="11.1651" y2="28.2501" gradientUnits="userSpaceOnUse">
<stop stop-color="#00A0FF"/>
<stop offset="0.01" stop-color="#00A1FF"/>
<stop offset="0.26" stop-color="#00BEFF"/>
<stop offset="0.51" stop-color="#00D2FF"/>
<stop offset="0.76" stop-color="#00DFFF"/>
<stop offset="1" stop-color="#00E3FF"/>
</linearGradient>
<linearGradient id="paint1_linear_2193_13735" x1="43.9696" y1="21.9987" x2="16.4241" y2="21.9987" gradientUnits="userSpaceOnUse">
<stop stop-color="#FFE000"/>
<stop offset="0.41" stop-color="#FFBD00"/>
<stop offset="0.78" stop-color="#FFA500"/>
<stop offset="1" stop-color="#FF9C00"/>
</linearGradient>
<linearGradient id="paint2_linear_2193_13735" x1="33.7221" y1="24.6176" x2="7.80488" y2="50.5234" gradientUnits="userSpaceOnUse">
<stop stop-color="#FF3A44"/>
<stop offset="1" stop-color="#C31162"/>
</linearGradient>
<linearGradient id="paint3_linear_2193_13735" x1="13.7604" y1="-0.570568" x2="25.3297" y2="10.9988" gradientUnits="userSpaceOnUse">
<stop stop-color="#32A071"/>
<stop offset="0.07" stop-color="#2DA771"/>
<stop offset="0.48" stop-color="#15CF74"/>
<stop offset="0.8" stop-color="#06E775"/>
<stop offset="1" stop-color="#00F076"/>
</linearGradient>
</defs>
</svg>
