<svg xmlns="http://www.w3.org/2000/svg" width="180" height="52" viewBox="0 0 180 52" fill="none">
  <path d="M173.095 52H6.6575C2.99754 52 0 49.0734 0 45.5V6.5C0 2.92663 2.99754 2.74817e-06 6.6575 2.74817e-06H173.095C176.755 2.74817e-06 179.753 2.92663 179.753 6.5V45.5C179.753 49.0734 176.755 52 173.095 52Z" fill="#1F2024"/>
  <path d="M173.095 1.04162C176.177 1.04162 178.686 3.4905 178.686 6.5V45.5C178.686 48.5095 176.177 50.9584 173.095 50.9584H6.6575C3.57508 50.9584 1.06686 48.5095 1.06686 45.5V6.5C1.06686 3.4905 3.57508 1.04162 6.6575 1.04162H173.095ZM173.095 2.74817e-06H6.6575C2.99754 2.74817e-06 0 2.92663 0 6.5V45.5C0 49.0734 2.99754 52 6.6575 52H173.095C176.755 52 179.753 49.0734 179.753 45.5V6.5C179.753 2.92663 176.755 2.74817e-06 173.095 2.74817e-06Z" fill="#A6A6A6"/>
  <path d="M88.077 23.1181C84.9496 23.1181 82.3948 25.4419 82.3948 28.648C82.3948 31.8281 84.9496 34.1763 88.077 34.1763C91.211 34.1763 93.7658 31.8281 93.7658 28.648C93.7658 25.4419 91.211 23.1181 88.077 23.1181ZM88.077 31.9988C86.361 31.9988 84.8847 30.6159 84.8847 28.648C84.8847 26.6541 86.361 25.2956 88.077 25.2956C89.793 25.2956 91.2759 26.6541 91.2759 28.648C91.2759 30.6159 89.793 31.9988 88.077 31.9988ZM75.6791 23.1181C72.545 23.1181 69.9969 25.4419 69.9969 28.648C69.9969 31.8281 72.545 34.1763 75.6791 34.1763C78.8114 34.1763 81.3612 31.8281 81.3612 28.648C81.3612 25.4419 78.8114 23.1181 75.6791 23.1181ZM75.6791 31.9988C73.9614 31.9988 72.4801 30.6159 72.4801 28.648C72.4801 26.6541 73.9614 25.2956 75.6791 25.2956C77.395 25.2956 78.8713 26.6541 78.8713 28.648C78.8713 30.6159 77.395 31.9988 75.6791 31.9988ZM60.926 24.813V27.1628H66.6731C66.505 28.4758 66.0556 29.441 65.3666 30.1138C64.5277 30.9263 63.2212 31.8281 60.926 31.8281C57.3892 31.8281 54.6197 29.0413 54.6197 25.5881C54.6197 22.135 57.3892 19.3481 60.926 19.3481C62.8384 19.3481 64.2298 20.0778 65.2567 21.0235L66.9527 19.3676C65.5164 18.0286 63.6057 17 60.926 17C56.0761 17 52 20.8529 52 25.5881C52 30.3234 56.0761 34.1763 60.926 34.1763C63.5474 34.1763 65.5164 33.3378 67.0643 31.7648C68.6504 30.2161 69.1447 28.0386 69.1447 26.2804C69.1447 25.7344 69.0981 25.2323 69.0149 24.813H60.926ZM121.253 26.6346C120.785 25.398 119.342 23.1181 116.403 23.1181C113.49 23.1181 111.065 25.359 111.065 28.648C111.065 31.7453 113.465 34.1763 116.683 34.1763C119.284 34.1763 120.785 32.6276 121.403 31.7258L119.472 30.4696C118.828 31.3894 117.951 31.9988 116.683 31.9988C115.423 31.9988 114.519 31.4349 113.94 30.3234L121.514 27.2635L121.253 26.6346ZM113.53 28.4758C113.465 26.3438 115.226 25.2518 116.488 25.2518C117.477 25.2518 118.315 25.7344 118.595 26.425L113.53 28.4758ZM107.374 33.8399H109.864V17.5899H107.374V33.8399ZM103.296 24.3499H103.213C102.654 23.7031 101.587 23.1181 100.235 23.1181C97.3992 23.1181 94.8061 25.5491 94.8061 28.6659C94.8061 31.7648 97.3992 34.1763 100.235 34.1763C101.587 34.1763 102.654 33.5864 103.213 32.9201H103.296V33.7131C103.296 35.8273 102.139 36.9631 100.274 36.9631C98.7523 36.9631 97.8086 35.8906 97.4191 34.9888L95.2538 35.8711C95.8779 37.3369 97.5306 39.1406 100.274 39.1406C103.193 39.1406 105.656 37.4636 105.656 33.3833V23.4545H103.296V24.3499ZM100.448 31.9988C98.7323 31.9988 97.296 30.5964 97.296 28.6659C97.296 26.7175 98.7323 25.2956 100.448 25.2956C102.139 25.2956 103.472 26.7175 103.472 28.6659C103.472 30.5964 102.139 31.9988 100.448 31.9988ZM132.91 17.5899H126.955V33.8399H129.438V27.6828H132.91C135.668 27.6828 138.373 25.7344 138.373 22.6355C138.373 19.5383 135.661 17.5899 132.91 17.5899ZM132.975 25.4224H129.438V19.8503H132.975C134.829 19.8503 135.888 21.3534 135.888 22.6355C135.888 23.8933 134.829 25.4224 132.975 25.4224ZM148.326 23.0873C146.532 23.0873 144.666 23.8608 143.898 25.5751L146.102 26.477C146.576 25.5751 147.449 25.2826 148.371 25.2826C149.659 25.2826 150.965 26.0383 150.985 27.3724V27.543C150.536 27.2895 149.574 26.9141 148.391 26.9141C146.017 26.9141 143.599 28.1898 143.599 30.5704C143.599 32.7479 145.543 34.1503 147.728 34.1503C149.399 34.1503 150.321 33.4141 150.9 32.5578H150.985V33.8139H153.384V27.5804C153.384 24.6993 151.18 23.0873 148.326 23.0873ZM148.026 31.9923C147.214 31.9923 146.082 31.599 146.082 30.6159C146.082 29.3581 147.494 28.8755 148.715 28.8755C149.809 28.8755 150.321 29.1111 150.985 29.4215C150.791 30.9263 149.464 31.9923 148.026 31.9923ZM162.122 23.4431L159.267 30.4875H159.182L156.231 23.4431H153.554L157.987 33.2874L155.458 38.7653H158.052L164.885 23.4431H162.122ZM139.738 33.8399H142.227V17.5899H139.738V33.8399Z" fill="white"/>
  <path d="M13.8941 9.80044C13.503 10.2002 13.2766 10.8226 13.2766 11.6286V40.3781C13.2766 41.1841 13.503 41.8064 13.8941 42.2062L13.9906 42.2939L30.4912 26.1902V25.8099L13.9906 9.7062L13.8941 9.80044Z" fill="url(#paint0_linear_8534_80589)"/>
  <path d="M35.9853 31.5605L30.4912 26.1899V25.8097L35.992 20.439L36.1151 20.5089L42.6295 24.1278C44.4886 25.1548 44.4886 26.8448 42.6295 27.8783L36.1151 31.4907L35.9853 31.5605Z" fill="url(#paint1_linear_8534_80589)"/>
  <path d="M36.1151 31.4912L30.4912 26.0003L13.894 42.2065C14.5115 42.8402 15.5185 42.9166 16.6636 42.2828L36.1151 31.4912Z" fill="url(#paint2_linear_8534_80589)"/>
  <path d="M36.1151 20.5091L16.6636 9.71751C15.5185 9.09025 14.5115 9.16663 13.894 9.80038L30.4912 26L36.1151 20.5091Z" fill="url(#paint3_linear_8534_80589)"/>
  <defs>
    <linearGradient id="paint0_linear_8534_80589" x1="29.0262" y1="40.6775" x2="7.21532" y2="18.3381" gradientUnits="userSpaceOnUse">
      <stop stop-color="#00A0FF"/>
      <stop offset="0.0066" stop-color="#00A1FF"/>
      <stop offset="0.2601" stop-color="#00BEFF"/>
      <stop offset="0.5122" stop-color="#00D2FF"/>
      <stop offset="0.7604" stop-color="#00DFFF"/>
      <stop offset="1" stop-color="#00E3FF"/>
    </linearGradient>
    <linearGradient id="paint1_linear_8534_80589" x1="45.0504" y1="25.998" x2="12.8322" y2="25.998" gradientUnits="userSpaceOnUse">
      <stop stop-color="#FFE000"/>
      <stop offset="0.4087" stop-color="#FFBD00"/>
      <stop offset="0.7754" stop-color="#FFA500"/>
      <stop offset="1" stop-color="#FF9C00"/>
    </linearGradient>
    <linearGradient id="paint2_linear_8534_80589" x1="33.057" y1="23.0154" x2="3.47969" y2="-7.2786" gradientUnits="userSpaceOnUse">
      <stop stop-color="#FF3A44"/>
      <stop offset="1" stop-color="#C31162"/>
    </linearGradient>
    <linearGradient id="paint3_linear_8534_80589" x1="9.71619" y1="51.7709" x2="22.9238" y2="38.2434" gradientUnits="userSpaceOnUse">
      <stop stop-color="#32A071"/>
      <stop offset="0.0685" stop-color="#2DA771"/>
      <stop offset="0.4762" stop-color="#15CF74"/>
      <stop offset="0.8009" stop-color="#06E775"/>
      <stop offset="1" stop-color="#00F076"/>
    </linearGradient>
  </defs>
</svg>