<svg width="23" height="24" viewBox="0 0 23 24" fill="none" xmlns="http://www.w3.org/2000/svg">
<path fill-rule="evenodd" clip-rule="evenodd" d="M10.8087 3.4486C10.8011 3.45625 10.6809 3.47523 10.5417 3.49075C9.97019 3.55451 9.84307 3.5743 9.74673 3.61456C9.69875 3.63459 9.61755 3.65099 9.56627 3.65099C9.51499 3.65099 9.46557 3.66307 9.45644 3.67784C9.44732 3.6926 9.39526 3.70511 9.34077 3.70562C9.28627 3.70616 9.21148 3.72385 9.17456 3.74495C9.13765 3.76605 9.06345 3.78374 9.00965 3.78428C8.94818 3.78487 8.90611 3.80017 8.89639 3.82549C8.88624 3.85193 8.84434 3.86576 8.7743 3.86576C8.71567 3.86576 8.6602 3.87784 8.65107 3.8926C8.64195 3.90737 8.61406 3.91953 8.58909 3.91961C8.56412 3.91972 8.50909 3.93784 8.46681 3.95988C8.4245 3.98195 8.3747 3.99999 8.35612 3.99999C8.33754 3.99999 8.26342 4.02562 8.1914 4.05698C8.1194 4.08834 8.00611 4.1376 7.93967 4.16646C7.87322 4.19529 7.74836 4.25421 7.66219 4.29736C7.57601 4.34052 7.48842 4.37583 7.46756 4.37583C7.44667 4.37583 7.42954 4.3849 7.42949 4.39596C7.42944 4.40702 7.37207 4.43937 7.30197 4.4678C7.23191 4.49625 7.16852 4.52793 7.16114 4.53819C7.15376 4.54847 7.08732 4.58412 7.01349 4.61744C6.93967 4.65075 6.87322 4.68552 6.86584 4.6947C6.85846 4.70388 6.80713 4.73443 6.75175 4.76259C6.69639 4.79078 6.65108 4.82399 6.65108 4.83642C6.65108 4.84887 6.63827 4.85905 6.62262 4.85905C6.60697 4.85905 6.53878 4.90133 6.4711 4.95301C6.40342 5.00468 6.33027 5.04697 6.30855 5.04697C6.28683 5.04697 6.23722 5.07872 6.19832 5.11754C6.15942 5.15634 6.00074 5.28348 5.84571 5.40004C5.69067 5.5166 5.52377 5.6449 5.47481 5.68517C5.36246 5.77754 4.5307 6.59902 4.4765 6.67113C4.4543 6.70066 4.35765 6.82071 4.26173 6.93792C4.16579 7.05515 4.05108 7.2017 4.00678 7.26364C3.8001 7.5526 3.7012 7.69864 3.6536 7.78522C3.62517 7.8369 3.54587 7.96554 3.47741 8.0711C3.34227 8.27937 3.08294 8.78753 2.99647 9.01341C2.96681 9.09091 2.93132 9.15435 2.9176 9.15435C2.90391 9.15435 2.89269 9.18383 2.89269 9.21988C2.89269 9.25593 2.88216 9.29191 2.86933 9.29985C2.85647 9.3078 2.81827 9.39005 2.78442 9.48264C2.75057 9.57523 2.71389 9.66307 2.70291 9.67784C2.69193 9.6926 2.67438 9.76221 2.66391 9.83252C2.65344 9.90286 2.63419 9.96699 2.62114 9.97505C2.60807 9.98313 2.59738 10.0185 2.59738 10.0537C2.59738 10.0888 2.586 10.1247 2.5721 10.1332C2.55819 10.1419 2.53867 10.2031 2.52871 10.2694C2.51878 10.3357 2.50066 10.3961 2.48844 10.4036C2.47626 10.4112 2.4584 10.4745 2.44882 10.5442C2.43924 10.614 2.42128 10.7074 2.4089 10.7517C2.36981 10.8916 2.25277 11.5731 2.21985 11.8523C2.1641 12.3257 2.15725 13.2262 2.20592 13.6913C2.22987 13.9201 2.2609 14.1617 2.27491 14.2282C2.28893 14.2946 2.3194 14.4698 2.34259 14.6174C2.36579 14.7651 2.39755 14.9161 2.41314 14.953C2.42874 14.9899 2.45156 15.0745 2.46385 15.1409C2.49628 15.3162 2.54117 15.4953 2.5681 15.557C2.58098 15.5866 2.61129 15.6765 2.63542 15.7569C2.70756 15.9971 2.8834 16.4578 2.97419 16.6443C3.08305 16.8679 3.34694 17.3951 3.41478 17.5245C3.44353 17.5793 3.49408 17.6534 3.5271 17.6891C3.5601 17.7248 3.59475 17.7844 3.60407 17.8215C3.61338 17.8586 3.6474 17.9223 3.67967 17.963C3.71193 18.0037 3.79873 18.1238 3.87255 18.2297C3.94638 18.3357 4.07926 18.5126 4.16785 18.6227C4.25644 18.7329 4.38232 18.8916 4.44759 18.9753C4.56887 19.1309 5.32058 19.8926 5.35287 19.8926C5.36267 19.8926 5.43368 19.95 5.51062 20.0201C5.7263 20.2167 6.0281 20.4564 6.05991 20.4564C6.07564 20.4564 6.14361 20.5072 6.21094 20.5692C6.27827 20.6313 6.3478 20.6842 6.36544 20.6868C6.39384 20.6909 6.56565 20.7957 6.63765 20.8527C6.68785 20.8925 6.93258 21.0324 7.03032 21.0773C7.08385 21.1018 7.13591 21.1353 7.146 21.1516C7.15607 21.1679 7.18627 21.1812 7.21314 21.1812C7.23999 21.1812 7.27698 21.1993 7.29537 21.2215C7.31376 21.2436 7.35148 21.2617 7.37918 21.2617C7.40691 21.2617 7.4296 21.2738 7.4296 21.2886C7.4296 21.3033 7.44286 21.3154 7.4591 21.3154C7.49129 21.3154 7.63078 21.3738 7.77859 21.4492C7.90686 21.5146 8.35526 21.6913 8.39303 21.6913C8.40984 21.6913 8.44461 21.7019 8.47024 21.7148C8.60042 21.7807 8.72638 21.8255 8.78109 21.8255C8.81467 21.8255 8.8656 21.8432 8.89427 21.8649C8.92291 21.8866 8.97658 21.9046 9.01349 21.905C9.0504 21.9054 9.13497 21.9229 9.20141 21.9438C9.37658 21.9989 9.56708 22.0401 9.65145 22.0411C9.69185 22.0416 9.74836 22.0597 9.77701 22.0814C9.80783 22.1047 9.88809 22.1208 9.97341 22.1208C10.0528 22.1208 10.1386 22.132 10.1641 22.1456C10.225 22.1782 10.817 22.227 11.3893 22.2467C11.8804 22.2636 12.6247 22.2219 12.9598 22.1588C13.0705 22.1379 13.1997 22.1208 13.2468 22.1208C13.2939 22.1208 13.3392 22.1098 13.3475 22.0965C13.3558 22.0831 13.4259 22.064 13.5035 22.0541C13.581 22.0441 13.6927 22.0225 13.7517 22.006C13.8108 21.9895 13.8772 21.9736 13.8994 21.9706C13.9496 21.9639 14.2076 21.8921 14.3155 21.855C14.3598 21.8397 14.5108 21.7901 14.6511 21.7446C14.7913 21.6992 14.9573 21.6384 15.0199 21.6095C15.0825 21.5807 15.1395 21.557 15.1466 21.557C15.1886 21.557 16.235 21.0507 16.2618 21.0174C16.2692 21.0083 16.3175 20.9791 16.3692 20.9526C16.4209 20.9261 16.4934 20.8837 16.5303 20.8584C16.5672 20.8331 16.7001 20.7458 16.8256 20.6643C16.9511 20.5829 17.0779 20.4937 17.1075 20.4662C17.137 20.4386 17.2095 20.384 17.2685 20.3448C17.3276 20.3057 17.4128 20.2392 17.4579 20.1972C17.503 20.1552 17.6057 20.0705 17.6861 20.0091C17.9421 19.8134 18.6721 19.0724 18.8192 18.859C18.8599 18.8 18.9353 18.705 18.9869 18.648C19.0384 18.591 19.0806 18.5367 19.0806 18.5272C19.0806 18.5178 19.1275 18.4587 19.1849 18.396C19.2422 18.3332 19.2843 18.2819 19.2783 18.2819C19.2724 18.2819 19.3314 18.1883 19.4095 18.0738C19.6592 17.708 19.7699 17.5202 19.9612 17.1383C20.2326 16.5966 20.2887 16.4767 20.2887 16.4385C20.2887 16.4197 20.3189 16.3382 20.3558 16.2575C20.3927 16.1768 20.4229 16.1028 20.4229 16.093C20.4229 16.0832 20.4394 16.0371 20.4597 15.9906C20.4799 15.9441 20.511 15.8517 20.5288 15.7852C20.5466 15.7188 20.5784 15.6302 20.5994 15.5884C20.6204 15.5466 20.6381 15.4741 20.6386 15.4273C20.6391 15.3806 20.6568 15.3121 20.6779 15.2752C20.699 15.2382 20.7167 15.1695 20.7172 15.1224C20.7178 15.0753 20.7287 15.0302 20.7415 15.0223C20.7543 15.0144 20.7729 14.9442 20.7828 14.8663C20.7927 14.7885 20.8117 14.6886 20.825 14.6443C20.8384 14.6 20.8555 14.5033 20.8629 14.4295C20.8705 14.3557 20.8883 14.247 20.9026 14.1879C20.9539 13.9767 20.9866 13.4469 20.9866 12.8304C20.9866 12.1678 20.9563 11.7237 20.8914 11.4362C20.8697 11.3403 20.8521 11.2275 20.8522 11.1856C20.8524 11.1138 20.7967 10.8512 20.7427 10.6692C20.7292 10.6239 20.7178 10.5514 20.7173 10.5081C20.7169 10.4649 20.6988 10.4061 20.6771 10.3774C20.6554 10.3487 20.6377 10.2817 20.6377 10.2284C20.6377 10.1751 20.6269 10.12 20.6138 10.106C20.6007 10.092 20.5625 9.99596 20.529 9.8926C20.4955 9.78925 20.4579 9.69322 20.4455 9.67918C20.4331 9.66517 20.4229 9.62662 20.4229 9.59352C20.4229 9.56042 20.4108 9.52589 20.396 9.51677C20.3813 9.50764 20.3692 9.482 20.3692 9.45977C20.3692 9.43754 20.339 9.35333 20.3021 9.27263C20.2652 9.19193 20.235 9.11915 20.235 9.11091C20.235 9.10264 20.1806 8.98264 20.1142 8.8442C20.0477 8.70576 19.9934 8.58519 19.9934 8.57625C19.9934 8.56732 19.9588 8.50949 19.9164 8.44777C19.8741 8.38605 19.8059 8.26911 19.765 8.18791C19.724 8.1067 19.6408 7.96519 19.5801 7.87344C19.5195 7.7817 19.4247 7.63674 19.3694 7.55129C19.3141 7.46587 19.2451 7.36576 19.216 7.32885C19.1869 7.29193 19.0399 7.10468 18.8893 6.91274C18.618 6.56686 18.1538 6.08313 17.8202 5.79864C17.725 5.71744 17.6204 5.62549 17.5878 5.59435C17.5553 5.56318 17.4852 5.51086 17.4321 5.47805C17.3791 5.44528 17.3356 5.41035 17.3355 5.40047C17.3353 5.39062 17.2901 5.35266 17.2348 5.31612C17.1795 5.27958 17.086 5.21217 17.0269 5.1663C16.9679 5.12044 16.8816 5.05972 16.8353 5.0314C16.7889 5.00305 16.6862 4.93666 16.6071 4.88388C16.5279 4.8311 16.3967 4.75464 16.3155 4.71397C16.2343 4.67333 16.1497 4.62409 16.1276 4.60463C16.001 4.49327 15.1592 4.11625 14.6779 3.9554C14.5967 3.92823 14.5262 3.89695 14.5213 3.88589C14.5164 3.87483 14.4734 3.86576 14.4258 3.86576C14.3782 3.86576 14.3157 3.84801 14.2871 3.82635C14.2584 3.80466 14.201 3.78654 14.1594 3.78608C14.1178 3.7856 14.0574 3.77081 14.0251 3.75319C13.9929 3.73558 13.9121 3.71199 13.8457 3.70074C13.6884 3.67413 13.5129 3.63832 13.3625 3.60213C13.1657 3.55483 12.8829 3.50989 12.6108 3.48275C12.3302 3.45475 10.831 3.42635 10.8087 3.4486ZM11.1746 7.76216C10.4432 7.79024 9.68224 7.86404 9.56383 7.91835C9.5343 7.93188 9.46785 7.94874 9.41618 7.95583C9.26361 7.97668 9.05572 8.03064 9.02826 8.0565C9.01422 8.06971 8.97193 8.08047 8.9343 8.08039C8.86538 8.08026 8.66954 8.13835 8.51279 8.20541C8.46627 8.2253 8.41427 8.2416 8.39728 8.2416C8.38026 8.2416 8.32189 8.2718 8.26759 8.30871C8.21325 8.34562 8.15964 8.37583 8.14839 8.37583C8.07808 8.37583 7.74922 8.7216 7.63776 8.91274C7.52452 9.10694 7.49545 9.17435 7.47285 9.29529C7.45822 9.37349 7.46259 9.39596 7.49242 9.39596C7.51355 9.39596 7.56544 9.414 7.60775 9.43607C7.65003 9.45811 7.70981 9.47623 7.74055 9.47634C7.77132 9.47642 7.80554 9.48554 7.81661 9.49663C7.82769 9.50772 7.86291 9.51864 7.89491 9.52095C7.92691 9.52326 8.00745 9.54372 8.07389 9.56643C8.20611 9.61161 8.40487 9.65451 8.64487 9.68968C8.73006 9.70216 8.81462 9.72313 8.83279 9.73625C8.85097 9.74938 8.93228 9.76385 9.01349 9.76839C9.0947 9.77293 9.17263 9.78764 9.18665 9.80106C9.20069 9.81451 9.28525 9.82603 9.37457 9.82667C9.46391 9.82732 9.59134 9.84082 9.65779 9.85666C9.72423 9.87252 9.90544 9.89521 10.0605 9.9071C10.2155 9.91897 10.439 9.94211 10.5571 9.95854C10.8451 9.99856 13.3491 9.97572 13.3491 9.93306C13.3491 9.93089 13.4759 9.92321 13.6309 9.91599C13.786 9.90879 13.9751 9.88546 14.0512 9.86417C14.1273 9.84291 14.2618 9.82549 14.3501 9.82549C14.4404 9.82549 14.5444 9.80793 14.5876 9.78538C14.6299 9.76334 14.7279 9.74522 14.8054 9.74511C14.883 9.74503 14.9464 9.73287 14.9464 9.71811C14.9464 9.70334 15.0098 9.69089 15.0873 9.6904C15.1684 9.68992 15.2504 9.67282 15.2804 9.65013C15.309 9.62847 15.372 9.61072 15.4204 9.61072C15.4687 9.61072 15.5498 9.59094 15.6005 9.56678L15.6926 9.52283L15.645 9.38428C15.4984 8.95835 15.229 8.63038 14.8826 8.45628C14.7664 8.39784 14.6577 8.33977 14.641 8.32729C14.6244 8.31481 14.5021 8.27099 14.3692 8.22995C14.2363 8.1889 14.109 8.14603 14.0863 8.13467C14.0636 8.12332 13.9911 8.10511 13.9252 8.09424C13.8593 8.08334 13.7934 8.06517 13.7786 8.05381C13.7638 8.04248 13.7095 8.02689 13.6578 8.01918C13.4586 7.98944 13.153 7.92592 13.1246 7.90828C13.1081 7.89816 13.013 7.88404 12.9131 7.87693C12.8133 7.86981 12.6954 7.85301 12.6511 7.83958C12.6068 7.82616 12.4014 7.80391 12.1947 7.79011C11.988 7.77631 11.8007 7.7595 11.7786 7.75276C11.7564 7.746 11.4846 7.75024 11.1746 7.76216ZM7.26971 10.372C7.23376 10.4079 7.23502 11.3191 7.27129 11.5033C7.28581 11.5772 7.30474 11.708 7.31333 11.794C7.32772 11.9379 7.33567 11.9531 7.41285 11.985C7.57387 12.0514 8.00879 12.1879 8.05937 12.1879C8.08742 12.1879 8.14745 12.199 8.19279 12.2127C8.4598 12.2928 8.5845 12.3221 8.6584 12.3221C8.70412 12.3221 8.77328 12.3342 8.81209 12.349C8.85089 12.3637 8.9755 12.3831 9.08901 12.3921C9.20251 12.401 9.30686 12.4192 9.32087 12.4324C9.33489 12.4456 9.41567 12.4564 9.50034 12.4564C9.58501 12.4564 9.68831 12.4697 9.72987 12.4859C9.77142 12.5021 9.98061 12.5252 10.1947 12.5373C10.4088 12.5494 10.6987 12.5736 10.839 12.5911C11.1854 12.6343 13.1598 12.6161 13.2067 12.5692C13.2275 12.5484 13.335 12.5367 13.5088 12.5363C13.6572 12.5359 13.8269 12.5234 13.886 12.5084C13.945 12.4934 14.084 12.47 14.1947 12.4563C14.6787 12.3966 14.8189 12.3741 14.8659 12.349C14.8935 12.3342 14.9621 12.3221 15.0184 12.322C15.0748 12.3219 15.1555 12.3037 15.1978 12.2817C15.2401 12.2596 15.3065 12.2415 15.3454 12.2413C15.3843 12.2411 15.4724 12.2239 15.5412 12.203C15.61 12.1822 15.6727 12.1715 15.6804 12.1792C15.6882 12.187 15.7219 12.1743 15.7552 12.1509C15.8732 12.0683 15.8994 11.8874 15.8994 11.1543V10.4832L15.77 10.4925C15.6988 10.4976 15.6082 10.5187 15.5686 10.5393C15.5291 10.56 15.4446 10.5769 15.3808 10.577C15.3171 10.5771 15.2401 10.5905 15.2096 10.6068C15.1557 10.6356 15.0207 10.6626 14.6913 10.7103C14.6028 10.7232 14.4155 10.752 14.2752 10.7744C14.135 10.7967 13.9719 10.8226 13.9128 10.8319C13.4548 10.9037 10.8381 10.9592 10.6702 10.9007C10.6282 10.886 10.4527 10.8667 10.2802 10.8578C10.1077 10.8488 9.93631 10.8313 9.8994 10.8188C9.86248 10.8063 9.73564 10.789 9.61752 10.7803C9.40707 10.7649 9.17494 10.7301 8.71819 10.6454C8.59269 10.6222 8.41865 10.5912 8.33142 10.5765C8.24423 10.5619 8.15967 10.5392 8.1435 10.5262C8.12737 10.5131 8.0598 10.4959 7.99336 10.488C7.81693 10.4671 7.63376 10.4293 7.59634 10.4062C7.53379 10.3675 7.29875 10.3429 7.26971 10.372ZM7.68364 13.0486C7.67389 13.0643 7.68525 13.0985 7.70885 13.1246C7.73244 13.1507 7.75175 13.1924 7.75175 13.2172C7.75175 13.2421 7.7634 13.2835 7.77765 13.3091C7.79191 13.3347 7.82879 13.4161 7.85967 13.4899C7.94828 13.702 7.97014 13.7506 8.03475 13.8792C8.16042 14.1292 8.26852 14.3236 8.30482 14.3645C8.32546 14.3878 8.34235 14.4185 8.34235 14.4327C8.34235 14.4468 8.37559 14.4981 8.41618 14.5467C8.4954 14.6414 8.54842 14.657 9.12087 14.754C9.35048 14.793 9.47585 14.8105 9.87255 14.8593C11.1972 15.0222 12.4945 15.031 13.7249 14.8855C13.784 14.8785 13.8818 14.8685 13.9424 14.8633C14.0029 14.858 14.0639 14.8467 14.0778 14.8381C14.0917 14.8295 14.2086 14.8139 14.3375 14.8034C14.4665 14.793 14.5784 14.774 14.5863 14.7613C14.5941 14.7486 14.6512 14.7382 14.7131 14.7381C14.8122 14.7379 14.8334 14.7263 14.8919 14.6406C14.9283 14.587 14.9803 14.4938 15.0073 14.4334C15.0344 14.3731 15.0861 14.2849 15.1222 14.2374C15.1584 14.19 15.188 14.1338 15.188 14.1124C15.188 14.0911 15.2061 14.0586 15.2283 14.0403C15.2504 14.0219 15.2685 13.9841 15.2685 13.9564C15.2685 13.9287 15.2806 13.906 15.2954 13.906C15.3101 13.906 15.3222 13.8883 15.3222 13.8667C15.3222 13.8292 15.3785 13.6838 15.436 13.5726C15.4548 13.5362 15.5907 13.18 15.5907 13.167C15.5907 13.1499 15.4541 13.1633 15.4428 13.1816C15.4338 13.1961 15.3752 13.208 15.3126 13.208C15.2499 13.208 15.1858 13.221 15.1701 13.2367C15.1543 13.2525 15.0522 13.2763 14.9432 13.2895C14.7669 13.3109 14.4075 13.3692 14.2215 13.4064C14.1377 13.4232 13.5515 13.4923 13.1657 13.5309C12.8226 13.5651 11.0329 13.5616 11.0112 13.5266C11.003 13.5133 10.9869 13.5083 10.9755 13.5154C10.9522 13.5298 10.1336 13.4644 9.81886 13.4231C9.70812 13.4086 9.50879 13.3839 9.37591 13.3682C9.24302 13.3526 9.0972 13.3282 9.05185 13.3142C9.00651 13.3001 8.91814 13.2886 8.85545 13.2886C8.79279 13.2886 8.71599 13.2749 8.68482 13.2582C8.65365 13.2416 8.56082 13.218 8.47854 13.206C8.19609 13.1645 8.03811 13.1293 8.01038 13.1016C7.9951 13.0863 7.94195 13.0738 7.89226 13.0738C7.84257 13.0738 7.77926 13.0617 7.75161 13.0469C7.7173 13.0285 7.69569 13.0291 7.68364 13.0486ZM9.2551 15.843C9.2551 15.8666 9.62471 16.2894 9.81768 16.4864C9.93336 16.6046 10.6132 17.2143 10.7646 17.3358C10.8246 17.3839 10.9462 17.4866 11.0348 17.564C11.1235 17.6414 11.2274 17.7239 11.2658 17.7473C11.3042 17.7708 11.3522 17.81 11.3725 17.8346C11.4129 17.8835 11.5772 17.8959 11.6043 17.852C11.6136 17.837 11.6657 17.8019 11.72 17.774C11.7744 17.7462 11.8491 17.6967 11.886 17.664C11.9229 17.6314 12.0141 17.5701 12.0886 17.5277C12.1631 17.4854 12.2718 17.4082 12.3302 17.3562C12.3886 17.3043 12.4508 17.2618 12.4685 17.2618C12.4862 17.2617 12.5104 17.2461 12.5222 17.227C12.534 17.2079 12.6162 17.135 12.7048 17.0651C12.7934 16.9951 12.9142 16.8971 12.9734 16.8471C13.1244 16.7197 13.6789 16.1764 13.8357 16.0023C13.9484 15.8772 13.9572 15.8598 13.8994 15.8767C13.8625 15.8875 13.6632 15.9071 13.4564 15.9203C13.2497 15.9335 12.9296 15.9565 12.745 15.9715C12.3488 16.0036 11.2502 16.0025 10.9061 15.9697C10.7732 15.9571 10.4893 15.9347 10.2752 15.92C10.0611 15.9054 9.80141 15.8821 9.69805 15.8684C9.36665 15.8245 9.2551 15.8181 9.2551 15.843Z" fill="black"/>
</svg>
