<svg xmlns="http://www.w3.org/2000/svg" width="22" height="22" viewBox="0 0 22 22" fill="none">
  <path d="M8.22304 19.057C7.57178 19.057 7.6825 18.8111 7.45788 18.191L5.54297 11.8889L20.2834 3.14404" fill="#F21F7F"/>
  <path d="M8.21875 19.0571C8.72126 19.0571 8.94321 18.8273 9.22378 18.5546L11.9038 15.9485L8.56079 13.9326" fill="white"/>
  <path d="M8.56305 13.9328L16.6636 19.9176C17.588 20.4276 18.255 20.1635 18.4853 19.0595L21.7827 3.52126C22.1202 2.16782 21.2667 1.55375 20.3823 1.95526L1.02049 9.4211C-0.301116 9.95125 -0.293244 10.6886 0.779622 11.0171L5.7483 12.568L17.2513 5.31088C17.7944 4.98156 18.2929 5.15845 17.8838 5.5216" fill="white"/>
</svg>