<svg width="204" height="24" viewBox="0 0 204 24" fill="none" xmlns="http://www.w3.org/2000/svg">
<path d="M5.04738 19.448H12.4074V23H0.567375V0.664H5.04738V19.448ZM19.7349 0.664V23H15.2549V0.664H19.7349ZM44.2251 0.664L36.0331 23H30.5931L22.4011 0.664H27.2011L33.3451 18.424L39.4571 0.664H44.2251ZM51.3911 4.28V9.88H58.9111V13.432H51.3911V19.352H59.8711V23H46.9111V0.631998H59.8711V4.28H51.3911ZM81.9354 23.224C79.8447 23.224 77.9247 22.7333 76.1754 21.752C74.426 20.7707 73.0394 19.416 72.0154 17.688C70.9914 15.9387 70.4794 13.9653 70.4794 11.768C70.4794 9.592 70.9914 7.64 72.0154 5.912C73.0394 4.16267 74.426 2.79733 76.1754 1.816C77.9247 0.834666 79.8447 0.344 81.9354 0.344C84.0474 0.344 85.9674 0.834666 87.6954 1.816C89.4447 2.79733 90.8207 4.16267 91.8234 5.912C92.8474 7.64 93.3594 9.592 93.3594 11.768C93.3594 13.9653 92.8474 15.9387 91.8234 17.688C90.8207 19.416 89.4447 20.7707 87.6954 21.752C85.946 22.7333 84.026 23.224 81.9354 23.224ZM81.9354 19.224C83.2794 19.224 84.4634 18.9253 85.4874 18.328C86.5114 17.7093 87.3114 16.8347 87.8874 15.704C88.4634 14.5733 88.7514 13.2613 88.7514 11.768C88.7514 10.2747 88.4634 8.97333 87.8874 7.864C87.3114 6.73333 86.5114 5.86933 85.4874 5.272C84.4634 4.67467 83.2794 4.376 81.9354 4.376C80.5914 4.376 79.3967 4.67467 78.3514 5.272C77.3274 5.86933 76.5274 6.73333 75.9514 7.864C75.3754 8.97333 75.0874 10.2747 75.0874 11.768C75.0874 13.2613 75.3754 14.5733 75.9514 15.704C76.5274 16.8347 77.3274 17.7093 78.3514 18.328C79.3967 18.9253 80.5914 19.224 81.9354 19.224ZM115.796 23H111.316L101.172 7.672V23H96.6924V0.631998H101.172L111.316 15.992V0.631998H115.796V23ZM140.521 11.544C141.779 11.7787 142.814 12.408 143.625 13.432C144.435 14.456 144.841 15.6293 144.841 16.952C144.841 18.1467 144.542 19.2027 143.945 20.12C143.369 21.016 142.526 21.72 141.417 22.232C140.307 22.744 138.995 23 137.481 23H127.849V0.664H137.065C138.579 0.664 139.881 0.909333 140.969 1.4C142.078 1.89067 142.91 2.57333 143.465 3.448C144.041 4.32267 144.329 5.31467 144.329 6.424C144.329 7.72533 143.977 8.81333 143.273 9.688C142.59 10.5627 141.673 11.1813 140.521 11.544ZM132.329 9.88H136.425C137.491 9.88 138.313 9.64533 138.889 9.176C139.465 8.68533 139.753 7.992 139.753 7.096C139.753 6.2 139.465 5.50667 138.889 5.016C138.313 4.52533 137.491 4.28 136.425 4.28H132.329V9.88ZM136.841 19.352C137.929 19.352 138.771 19.096 139.369 18.584C139.987 18.072 140.297 17.3467 140.297 16.408C140.297 15.448 139.977 14.7013 139.337 14.168C138.697 13.6133 137.833 13.336 136.745 13.336H132.329V19.352H136.841ZM162.107 18.744H153.211L151.739 23H147.035L155.067 0.631998H160.283L168.315 23H163.579L162.107 18.744ZM160.891 15.16L157.659 5.816L154.427 15.16H160.891ZM179.029 23.224C177.472 23.224 176.064 22.9573 174.805 22.424C173.568 21.8907 172.587 21.1227 171.861 20.12C171.136 19.1173 170.763 17.9333 170.741 16.568H175.541C175.605 17.4853 175.925 18.2107 176.501 18.744C177.099 19.2773 177.909 19.544 178.933 19.544C179.979 19.544 180.8 19.2987 181.397 18.808C181.995 18.296 182.293 17.6347 182.293 16.824C182.293 16.1627 182.091 15.6187 181.685 15.192C181.28 14.7653 180.768 14.4347 180.149 14.2C179.552 13.944 178.72 13.6667 177.653 13.368C176.203 12.9413 175.019 12.5253 174.101 12.12C173.205 11.6933 172.427 11.064 171.765 10.232C171.125 9.37867 170.805 8.248 170.805 6.84C170.805 5.51733 171.136 4.36533 171.797 3.384C172.459 2.40267 173.387 1.656 174.581 1.144C175.776 0.610666 177.141 0.344 178.677 0.344C180.981 0.344 182.848 0.909333 184.277 2.04C185.728 3.14933 186.528 4.70667 186.677 6.712H181.749C181.707 5.944 181.376 5.31467 180.757 4.824C180.16 4.312 179.36 4.056 178.357 4.056C177.483 4.056 176.779 4.28 176.245 4.728C175.733 5.176 175.477 5.82667 175.477 6.68C175.477 7.27733 175.669 7.77867 176.053 8.184C176.459 8.568 176.949 8.888 177.525 9.144C178.123 9.37867 178.955 9.656 180.021 9.976C181.472 10.4027 182.656 10.8293 183.573 11.256C184.491 11.6827 185.28 12.3227 185.941 13.176C186.603 14.0293 186.933 15.1493 186.933 16.536C186.933 17.7307 186.624 18.84 186.005 19.864C185.387 20.888 184.48 21.7093 183.285 22.328C182.091 22.9253 180.672 23.224 179.029 23.224ZM195.297 4.28V9.88H202.817V13.432H195.297V19.352H203.777V23H190.817V0.631998H203.777V4.28H195.297Z" fill="url(#paint0_linear_2237_6999)"/>
<defs>
<linearGradient id="paint0_linear_2237_6999" x1="5" y1="12" x2="231.49" y2="13.4711" gradientUnits="userSpaceOnUse">
<stop stop-color="#D868E5"/>
<stop offset="1" stop-color="#15DCD2"/>
</linearGradient>
</defs>
</svg>
