<svg width="128" height="16" viewBox="0 0 128 16" fill="none" xmlns="http://www.w3.org/2000/svg">
<path d="M3.40461 12.78H8.00461V15H0.604609V1.04H3.40461V12.78ZM12.5843 1.04V15H9.7843V1.04H12.5843ZM27.8907 1.04L22.7707 15H19.3707L14.2507 1.04H17.2507L21.0907 12.14L24.9107 1.04H27.8907ZM32.3695 3.3V6.8H37.0695V9.02H32.3695V12.72H37.6695V15H29.5695V1.02H37.6695V3.3H32.3695ZM51.4596 15.14C50.1529 15.14 48.9529 14.8333 47.8596 14.22C46.7663 13.6067 45.8996 12.76 45.2596 11.68C44.6196 10.5867 44.2996 9.35333 44.2996 7.98C44.2996 6.62 44.6196 5.4 45.2596 4.32C45.8996 3.22667 46.7663 2.37333 47.8596 1.76C48.9529 1.14667 50.1529 0.84 51.4596 0.84C52.7796 0.84 53.9796 1.14667 55.0596 1.76C56.1529 2.37333 57.0129 3.22667 57.6396 4.32C58.2796 5.4 58.5996 6.62 58.5996 7.98C58.5996 9.35333 58.2796 10.5867 57.6396 11.68C57.0129 12.76 56.1529 13.6067 55.0596 14.22C53.9663 14.8333 52.7663 15.14 51.4596 15.14ZM51.4596 12.64C52.2996 12.64 53.0396 12.4533 53.6796 12.08C54.3196 11.6933 54.8196 11.1467 55.1796 10.44C55.5396 9.73333 55.7196 8.91333 55.7196 7.98C55.7196 7.04667 55.5396 6.23333 55.1796 5.54C54.8196 4.83333 54.3196 4.29333 53.6796 3.92C53.0396 3.54667 52.2996 3.36 51.4596 3.36C50.6196 3.36 49.8729 3.54667 49.2196 3.92C48.5796 4.29333 48.0796 4.83333 47.7196 5.54C47.3596 6.23333 47.1796 7.04667 47.1796 7.98C47.1796 8.91333 47.3596 9.73333 47.7196 10.44C48.0796 11.1467 48.5796 11.6933 49.2196 12.08C49.8729 12.4533 50.6196 12.64 51.4596 12.64ZM72.6227 15H69.8227L63.4827 5.42V15H60.6827V1.02H63.4827L69.8227 10.62V1.02H72.6227V15ZM88.0754 7.84C88.8621 7.98667 89.5087 8.38 90.0154 9.02C90.5221 9.66 90.7754 10.3933 90.7754 11.22C90.7754 11.9667 90.5887 12.6267 90.2154 13.2C89.8554 13.76 89.3287 14.2 88.6354 14.52C87.9421 14.84 87.1221 15 86.1754 15H80.1554V1.04H85.9154C86.8621 1.04 87.6754 1.19333 88.3554 1.5C89.0487 1.80667 89.5687 2.23333 89.9154 2.78C90.2754 3.32667 90.4554 3.94667 90.4554 4.64C90.4554 5.45333 90.2354 6.13333 89.7954 6.68C89.3687 7.22667 88.7954 7.61333 88.0754 7.84ZM82.9554 6.8H85.5154C86.1821 6.8 86.6954 6.65333 87.0554 6.36C87.4154 6.05333 87.5954 5.62 87.5954 5.06C87.5954 4.5 87.4154 4.06667 87.0554 3.76C86.6954 3.45333 86.1821 3.3 85.5154 3.3H82.9554V6.8ZM85.7754 12.72C86.4554 12.72 86.9821 12.56 87.3554 12.24C87.7421 11.92 87.9354 11.4667 87.9354 10.88C87.9354 10.28 87.7354 9.81333 87.3354 9.48C86.9354 9.13333 86.3954 8.96 85.7154 8.96H82.9554V12.72H85.7754ZM101.567 12.34H96.007L95.087 15H92.147L97.167 1.02H100.427L105.447 15H102.487L101.567 12.34ZM100.807 10.1L98.787 4.26L96.767 10.1H100.807ZM112.143 15.14C111.17 15.14 110.29 14.9733 109.503 14.64C108.73 14.3067 108.117 13.8267 107.663 13.2C107.21 12.5733 106.977 11.8333 106.963 10.98H109.963C110.003 11.5533 110.203 12.0067 110.563 12.34C110.937 12.6733 111.443 12.84 112.083 12.84C112.737 12.84 113.25 12.6867 113.623 12.38C113.997 12.06 114.183 11.6467 114.183 11.14C114.183 10.7267 114.057 10.3867 113.803 10.12C113.55 9.85333 113.23 9.64667 112.843 9.5C112.47 9.34 111.95 9.16667 111.283 8.98C110.377 8.71333 109.637 8.45333 109.063 8.2C108.503 7.93333 108.017 7.54 107.603 7.02C107.203 6.48667 107.003 5.78 107.003 4.9C107.003 4.07333 107.21 3.35333 107.623 2.74C108.037 2.12667 108.617 1.66 109.363 1.34C110.11 1.00667 110.963 0.84 111.923 0.84C113.363 0.84 114.53 1.19333 115.423 1.9C116.33 2.59333 116.83 3.56667 116.923 4.82H113.843C113.817 4.34 113.61 3.94667 113.223 3.64C112.85 3.32 112.35 3.16 111.723 3.16C111.177 3.16 110.737 3.3 110.403 3.58C110.083 3.86 109.923 4.26667 109.923 4.8C109.923 5.17333 110.043 5.48667 110.283 5.74C110.537 5.98 110.843 6.18 111.203 6.34C111.577 6.48667 112.097 6.66 112.763 6.86C113.67 7.12667 114.41 7.39333 114.983 7.66C115.557 7.92667 116.05 8.32667 116.463 8.86C116.877 9.39333 117.083 10.0933 117.083 10.96C117.083 11.7067 116.89 12.4 116.503 13.04C116.117 13.68 115.55 14.1933 114.803 14.58C114.057 14.9533 113.17 15.14 112.143 15.14ZM122.311 3.3V6.8H127.011V9.02H122.311V12.72H127.611V15H119.511V1.02H127.611V3.3H122.311Z" fill="url(#paint0_linear_2237_7007)"/>
<defs>
<linearGradient id="paint0_linear_2237_7007" x1="26.0354" y1="15.6207" x2="129.014" y2="15.4246" gradientUnits="userSpaceOnUse">
<stop stop-color="#D868E5"/>
<stop offset="1" stop-color="#15DCD2"/>
</linearGradient>
</defs>
</svg>
