<svg width="126" height="17" viewBox="0 0 126 17" fill="none" xmlns="http://www.w3.org/2000/svg">
<path d="M3.59602 13.78H8.19602V16H0.796016V2.04H3.59602V13.78ZM11.3957 3.6C10.9024 3.6 10.489 3.44667 10.1557 3.14C9.8357 2.82 9.6757 2.42667 9.6757 1.96C9.6757 1.49333 9.8357 1.10667 10.1557 0.799999C10.489 0.479999 10.9024 0.319999 11.3957 0.319999C11.889 0.319999 12.2957 0.479999 12.6157 0.799999C12.949 1.10667 13.1157 1.49333 13.1157 1.96C13.1157 2.42667 12.949 2.82 12.6157 3.14C12.2957 3.44667 11.889 3.6 11.3957 3.6ZM12.7757 4.92V16H9.9757V4.92H12.7757ZM20.1621 13.42L22.9621 4.92H25.9421L21.8421 16H18.4421L14.3621 4.92H17.3621L20.1621 13.42ZM37.8148 10.22C37.8148 10.62 37.7881 10.98 37.7348 11.3H29.6348C29.7014 12.1 29.9814 12.7267 30.4748 13.18C30.9681 13.6333 31.5748 13.86 32.2948 13.86C33.3348 13.86 34.0748 13.4133 34.5148 12.52H37.5348C37.2148 13.5867 36.6014 14.4667 35.6948 15.16C34.7881 15.84 33.6748 16.18 32.3548 16.18C31.2881 16.18 30.3281 15.9467 29.4748 15.48C28.6348 15 27.9748 14.3267 27.4948 13.46C27.0281 12.5933 26.7948 11.5933 26.7948 10.46C26.7948 9.31333 27.0281 8.30667 27.4948 7.44C27.9614 6.57333 28.6148 5.90667 29.4548 5.44C30.2948 4.97333 31.2614 4.74 32.3548 4.74C33.4081 4.74 34.3481 4.96667 35.1748 5.42C36.0148 5.87333 36.6614 6.52 37.1148 7.36C37.5814 8.18667 37.8148 9.14 37.8148 10.22ZM34.9148 9.42C34.9014 8.7 34.6414 8.12667 34.1348 7.7C33.6281 7.26 33.0081 7.04 32.2748 7.04C31.5814 7.04 30.9948 7.25333 30.5148 7.68C30.0481 8.09333 29.7614 8.67333 29.6548 9.42H34.9148ZM51.1041 16.14C49.7975 16.14 48.5975 15.8333 47.5041 15.22C46.4108 14.6067 45.5441 13.76 44.9041 12.68C44.2641 11.5867 43.9441 10.3533 43.9441 8.98C43.9441 7.62 44.2641 6.4 44.9041 5.32C45.5441 4.22667 46.4108 3.37333 47.5041 2.76C48.5975 2.14667 49.7975 1.84 51.1041 1.84C52.4241 1.84 53.6241 2.14667 54.7041 2.76C55.7975 3.37333 56.6575 4.22667 57.2841 5.32C57.9241 6.4 58.2441 7.62 58.2441 8.98C58.2441 10.3533 57.9241 11.5867 57.2841 12.68C56.6575 13.76 55.7975 14.6067 54.7041 15.22C53.6108 15.8333 52.4108 16.14 51.1041 16.14ZM51.1041 13.64C51.9441 13.64 52.6841 13.4533 53.3241 13.08C53.9641 12.6933 54.4641 12.1467 54.8241 11.44C55.1841 10.7333 55.3641 9.91333 55.3641 8.98C55.3641 8.04667 55.1841 7.23333 54.8241 6.54C54.4641 5.83333 53.9641 5.29333 53.3241 4.92C52.6841 4.54667 51.9441 4.36 51.1041 4.36C50.2641 4.36 49.5175 4.54667 48.8641 4.92C48.2241 5.29333 47.7241 5.83333 47.3641 6.54C47.0041 7.23333 46.8241 8.04667 46.8241 8.98C46.8241 9.91333 47.0041 10.7333 47.3641 11.44C47.7241 12.1467 48.2241 12.6933 48.8641 13.08C49.5175 13.4533 50.2641 13.64 51.1041 13.64ZM66.4673 4.76C67.7873 4.76 68.8539 5.18 69.6673 6.02C70.4806 6.84667 70.8873 8.00667 70.8873 9.5V16H68.0873V9.88C68.0873 9 67.8673 8.32667 67.4273 7.86C66.9873 7.38 66.3873 7.14 65.6273 7.14C64.8539 7.14 64.2406 7.38 63.7873 7.86C63.3473 8.32667 63.1273 9 63.1273 9.88V16H60.3273V4.92H63.1273V6.3C63.5006 5.82 63.9739 5.44667 64.5473 5.18C65.1339 4.9 65.7739 4.76 66.4673 4.76ZM86.2355 8.84C87.0222 8.98667 87.6689 9.38 88.1755 10.02C88.6822 10.66 88.9355 11.3933 88.9355 12.22C88.9355 12.9667 88.7489 13.6267 88.3755 14.2C88.0155 14.76 87.4889 15.2 86.7955 15.52C86.1022 15.84 85.2822 16 84.3355 16H78.3155V2.04H84.0755C85.0222 2.04 85.8355 2.19333 86.5155 2.5C87.2089 2.80667 87.7289 3.23333 88.0755 3.78C88.4355 4.32667 88.6155 4.94667 88.6155 5.64C88.6155 6.45333 88.3955 7.13333 87.9555 7.68C87.5289 8.22667 86.9555 8.61333 86.2355 8.84ZM81.1155 7.8H83.6755C84.3422 7.8 84.8555 7.65333 85.2155 7.36C85.5755 7.05333 85.7555 6.62 85.7555 6.06C85.7555 5.5 85.5755 5.06667 85.2155 4.76C84.8555 4.45333 84.3422 4.3 83.6755 4.3H81.1155V7.8ZM83.9355 13.72C84.6155 13.72 85.1422 13.56 85.5155 13.24C85.9022 12.92 86.0955 12.4667 86.0955 11.88C86.0955 11.28 85.8955 10.8133 85.4955 10.48C85.0955 10.1333 84.5555 9.96 83.8755 9.96H81.1155V13.72H83.9355ZM90.4471 10.42C90.4471 9.3 90.6671 8.30667 91.1071 7.44C91.5604 6.57333 92.1671 5.90667 92.9271 5.44C93.7004 4.97333 94.5604 4.74 95.5071 4.74C96.3338 4.74 97.0538 4.90667 97.6671 5.24C98.2938 5.57333 98.7938 5.99333 99.1671 6.5V4.92H101.987V16H99.1671V14.38C98.8071 14.9 98.3071 15.3333 97.6671 15.68C97.0404 16.0133 96.3138 16.18 95.4871 16.18C94.5538 16.18 93.7004 15.94 92.9271 15.46C92.1671 14.98 91.5604 14.3067 91.1071 13.44C90.6671 12.56 90.4471 11.5533 90.4471 10.42ZM99.1671 10.46C99.1671 9.78 99.0338 9.2 98.7671 8.72C98.5004 8.22667 98.1404 7.85333 97.6871 7.6C97.2338 7.33333 96.7471 7.2 96.2271 7.2C95.7071 7.2 95.2271 7.32667 94.7871 7.58C94.3471 7.83333 93.9871 8.20667 93.7071 8.7C93.4404 9.18 93.3071 9.75333 93.3071 10.42C93.3071 11.0867 93.4404 11.6733 93.7071 12.18C93.9871 12.6733 94.3471 13.0533 94.7871 13.32C95.2404 13.5867 95.7204 13.72 96.2271 13.72C96.7471 13.72 97.2338 13.5933 97.6871 13.34C98.1404 13.0733 98.5004 12.7 98.7671 12.22C99.0338 11.7267 99.1671 11.14 99.1671 10.46ZM108.962 16.18C108.055 16.18 107.242 16.02 106.522 15.7C105.802 15.3667 105.228 14.92 104.802 14.36C104.388 13.8 104.162 13.18 104.122 12.5H106.942C106.995 12.9267 107.202 13.28 107.562 13.56C107.935 13.84 108.395 13.98 108.942 13.98C109.475 13.98 109.888 13.8733 110.182 13.66C110.488 13.4467 110.642 13.1733 110.642 12.84C110.642 12.48 110.455 12.2133 110.082 12.04C109.722 11.8533 109.142 11.6533 108.342 11.44C107.515 11.24 106.835 11.0333 106.302 10.82C105.782 10.6067 105.328 10.28 104.942 9.84C104.568 9.4 104.382 8.80667 104.382 8.06C104.382 7.44667 104.555 6.88667 104.902 6.38C105.262 5.87333 105.768 5.47333 106.422 5.18C107.088 4.88667 107.868 4.74 108.762 4.74C110.082 4.74 111.135 5.07333 111.922 5.74C112.708 6.39333 113.142 7.28 113.222 8.4H110.542C110.502 7.96 110.315 7.61333 109.982 7.36C109.662 7.09333 109.228 6.96 108.682 6.96C108.175 6.96 107.782 7.05333 107.502 7.24C107.235 7.42667 107.102 7.68667 107.102 8.02C107.102 8.39333 107.288 8.68 107.662 8.88C108.035 9.06667 108.615 9.26 109.402 9.46C110.202 9.66 110.862 9.86667 111.382 10.08C111.902 10.2933 112.348 10.6267 112.722 11.08C113.108 11.52 113.308 12.1067 113.322 12.84C113.322 13.48 113.142 14.0533 112.782 14.56C112.435 15.0667 111.928 15.4667 111.262 15.76C110.608 16.04 109.842 16.18 108.962 16.18ZM125.92 10.22C125.92 10.62 125.894 10.98 125.84 11.3H117.74C117.807 12.1 118.087 12.7267 118.58 13.18C119.074 13.6333 119.68 13.86 120.4 13.86C121.44 13.86 122.18 13.4133 122.62 12.52H125.64C125.32 13.5867 124.707 14.4667 123.8 15.16C122.894 15.84 121.78 16.18 120.46 16.18C119.394 16.18 118.434 15.9467 117.58 15.48C116.74 15 116.08 14.3267 115.6 13.46C115.134 12.5933 114.9 11.5933 114.9 10.46C114.9 9.31333 115.134 8.30667 115.6 7.44C116.067 6.57333 116.72 5.90667 117.56 5.44C118.4 4.97333 119.367 4.74 120.46 4.74C121.514 4.74 122.454 4.96667 123.28 5.42C124.12 5.87333 124.767 6.52 125.22 7.36C125.687 8.18667 125.92 9.14 125.92 10.22ZM123.02 9.42C123.007 8.7 122.747 8.12667 122.24 7.7C121.734 7.26 121.114 7.04 120.38 7.04C119.687 7.04 119.1 7.25333 118.62 7.68C118.154 8.09333 117.867 8.67333 117.76 9.42H123.02Z" fill="url(#paint0_linear_2237_7007)"/>
<defs>
<linearGradient id="paint0_linear_2237_7007" x1="25.6195" y1="16.6207" x2="127.014" y2="16.4306" gradientUnits="userSpaceOnUse">
<stop stop-color="#D868E5"/>
<stop offset="1" stop-color="#15DCD2"/>
</linearGradient>
</defs>
</svg>
