<svg width="160" height="43" viewBox="0 0 160 43" fill="none" xmlns="http://www.w3.org/2000/svg">
    <path d="M0.658379 31.4681C-0.964531 25.9661 0.582534 20.2224 3.44556 15.239C4.44929 13.4926 5.43363 12.182 6.66492 10.5908C7.83552 9.06517 9.1042 7.61737 10.4629 6.25656C11.2955 5.42923 12.1105 4.5825 13.0137 3.83102C13.7757 3.19773 15.2752 1.79885 16.3653 2.39862C17.0921 2.79729 17.2474 3.66167 17.1644 4.38669C17.0762 5.16815 16.5982 6.15072 17.4096 6.63936C18.0323 7.01862 19.0273 6.59879 19.5406 6.09251C20.7754 4.88238 27.4893 -1.26351 28.9023 1.74417C29.0981 2.16401 28.9499 2.66323 28.7453 3.07954C28.2778 4.03565 27.6534 5.37278 28.7859 6.16483C29.652 6.77695 30.6293 6.23892 31.4831 5.91434C32.9825 5.34279 34.5543 4.78712 36.1613 4.64777C36.9833 4.57368 38.19 4.56133 38.548 5.4945C39.0226 6.72932 37.9871 7.67485 37.225 8.49336C36.7999 8.95201 36.0678 9.5112 35.9902 10.3227C35.865 11.621 37.8583 11.8979 38.8462 12.0761C39.4272 12.1554 40.0024 12.2733 40.5679 12.4289C41.4146 12.66 42.5806 13.1945 42.6 14.2141C42.6194 15.3184 41.3511 15.8847 40.6596 16.3821C40.6596 16.3821 37.1474 18.1744 37.0557 20.1942C36.9904 21.6372 38.2358 22.5068 39.4441 23.2036C40.185 23.6323 41.0477 23.8105 41.7798 24.262C42.2472 24.5513 42.72 25.0911 42.6618 25.6733C42.6018 26.2995 41.8997 26.7899 41.3864 27.0457C40.8025 27.3385 40.1374 27.4091 39.5165 27.5925C38.7787 27.8065 38.0633 28.0913 37.3802 28.4428C36.724 28.785 35.9955 29.2437 35.6744 29.9422C35.2934 30.7731 35.4169 31.3147 35.7838 32.1314C36.1507 32.9481 37.0804 33.6785 37.3591 34.5552C37.8883 36.2222 36.1648 36.9666 34.8418 37.2577C32.6291 37.7567 30.4436 38.369 28.2937 39.0923C25.8399 39.9055 23.4144 41.0944 20.7878 41.4561C18.8128 41.7369 16.814 41.812 14.8236 41.6801C11.0133 41.4102 7.13237 40.2336 4.30462 37.5629C2.57278 35.8885 1.31481 33.7858 0.658379 31.4681Z" fill="url(#paint0_radial_1_2028)"/>
    <path d="M2.42581 27.0876C2.64279 25.4824 3.62005 23.8189 5.36644 23.646C8.01249 23.3867 9.69715 25.2019 11.4665 25.8581C13.1882 26.4967 14.1796 26.5637 16.0036 26.3044C18.9848 25.8757 24.0687 24.3216 24.6773 28.5289C25.0954 31.4166 24.4833 33.8545 22.1283 35.9643C19.3993 38.4251 15.1657 39.0072 10.5122 37.9188C8.45176 37.4372 6.39137 36.2165 4.86725 34.7435C2.79451 32.7484 2.03067 30.0159 2.42581 27.0876Z" fill="white"/>
    <path d="M6.81901 31.1751C7.54677 31.1751 8.13674 30.383 8.13674 29.4058C8.13674 28.4286 7.54677 27.6365 6.81901 27.6365C6.09125 27.6365 5.50128 28.4286 5.50128 29.4058C5.50128 30.383 6.09125 31.1751 6.81901 31.1751Z" fill="#221F20"/>
    <path d="M16.0987 32.8689C16.9687 32.8689 17.674 31.9212 17.674 30.7521C17.674 29.583 16.9687 28.6353 16.0987 28.6353C15.2287 28.6353 14.5234 29.583 14.5234 30.7521C14.5234 31.9212 15.2287 32.8689 16.0987 32.8689Z" fill="#221F20"/>
    <path d="M8.91405 33.2479C9.41676 33.2479 9.82428 32.8301 9.82428 32.3148C9.82428 31.7994 9.41676 31.3816 8.91405 31.3816C8.41134 31.3816 8.00378 31.7994 8.00378 32.3148C8.00378 32.8301 8.41134 33.2479 8.91405 33.2479Z" fill="#221F20"/>
    <path d="M10.5001 34.6962C10.1332 34.6974 9.76943 34.6298 9.42752 34.4969C9.34541 34.4637 9.27987 34.3992 9.2453 34.3177C9.21073 34.2361 9.20997 34.1442 9.24319 34.0621C9.27641 33.98 9.34089 33.9144 9.42243 33.8798C9.50398 33.8453 9.59589 33.8445 9.67799 33.8777C9.75032 33.9059 11.4227 34.5481 12.3135 32.8934C12.3342 32.8547 12.3624 32.8205 12.3963 32.7927C12.4303 32.7649 12.4694 32.744 12.5114 32.7313C12.5534 32.7186 12.5975 32.7143 12.6412 32.7187C12.6849 32.723 12.7273 32.7359 12.766 32.7567C12.8046 32.7774 12.8389 32.8056 12.8667 32.8395C12.8945 32.8735 12.9153 32.9126 12.928 32.9546C12.9407 32.9966 12.945 33.0407 12.9407 33.0844C12.9363 33.1281 12.9234 33.1705 12.9027 33.2092C12.2817 34.3681 11.3133 34.6962 10.5001 34.6962Z" fill="#221F20"/>
    <path fill-rule="evenodd" clip-rule="evenodd" d="M86.7267 10.5063C84.5854 10.5059 82.4921 11.1404 80.7115 12.3297C78.9309 13.5189 77.5429 15.2095 76.7232 17.1877C75.9034 19.1658 75.6887 21.3426 76.1061 23.4428C76.5236 25.5429 77.5544 27.4721 79.0683 28.9864C80.5823 30.5007 82.5113 31.532 84.6113 31.9499C86.7114 32.3678 88.8883 32.1536 90.8666 31.3342C92.8449 30.5149 94.5358 29.1274 95.7255 27.347C96.9151 25.5666 97.5501 23.4735 97.5501 21.3322C97.5501 18.4614 96.4099 15.7082 94.3801 13.678C92.3504 11.6478 89.5975 10.507 86.7267 10.5063ZM86.7267 28.9353C85.2223 28.9358 83.7515 28.4901 82.5004 27.6545C81.2493 26.819 80.2741 25.6312 79.6982 24.2414C79.1222 22.8516 78.9715 21.3222 79.2649 19.8466C79.5583 18.3711 80.2826 17.0157 81.3464 15.9519C82.4101 14.8881 83.7656 14.1637 85.2411 13.8704C86.7167 13.577 88.2461 13.7278 89.6359 14.3037C91.0257 14.8797 92.2135 15.8548 93.049 17.1059C93.8845 18.357 94.3303 19.8278 94.3298 21.3322C94.3298 23.3487 93.5287 25.2826 92.1028 26.7084C90.677 28.1343 88.7432 28.9353 86.7267 28.9353ZM111.348 22.1363L106.457 10.8449C106.414 10.7453 106.346 10.6605 106.259 10.6005C106.172 10.5405 106.071 10.5078 105.967 10.5063H102.157C102.012 10.507 101.873 10.5678 101.77 10.6756C101.668 10.7834 101.61 10.9295 101.609 11.0819V31.5849C101.61 31.7372 101.668 31.8829 101.771 31.9904C101.873 32.0978 102.012 32.1581 102.157 32.1581H104.124C104.269 32.1581 104.407 32.0977 104.51 31.9902C104.612 31.8827 104.669 31.7369 104.669 31.5849V16.9247C104.669 16.7936 104.712 16.6663 104.79 16.5641C104.868 16.4618 104.977 16.3907 105.099 16.3625C105.221 16.3343 105.348 16.3506 105.46 16.4089C105.572 16.4672 105.661 16.5638 105.714 16.6829L110.379 27.1835C110.423 27.2823 110.493 27.366 110.581 27.4246C110.669 27.4833 110.77 27.5146 110.874 27.5148H112.65C112.754 27.5149 112.856 27.4837 112.943 27.425C113.031 27.3663 113.101 27.2825 113.145 27.1835L117.746 16.8328C117.799 16.7152 117.889 16.6199 118 16.5627C118.111 16.5054 118.238 16.4895 118.359 16.5176C118.48 16.5457 118.588 16.616 118.666 16.7172C118.744 16.8184 118.787 16.9444 118.788 17.0747V31.5849C118.788 31.7369 118.846 31.8827 118.948 31.9902C119.05 32.0977 119.189 32.1581 119.333 32.1581H121.36C121.505 32.1581 121.644 32.0978 121.747 31.9904C121.849 31.8829 121.907 31.7372 121.908 31.5849V11.0819C121.907 10.9295 121.849 10.7834 121.747 10.6756C121.644 10.5678 121.505 10.507 121.36 10.5063H117.776C117.665 10.5068 117.557 10.5406 117.464 10.6036C117.371 10.6666 117.297 10.7562 117.251 10.8619L112.342 22.1363C112.298 22.236 112.228 22.3204 112.14 22.3796C112.052 22.4388 111.949 22.4702 111.845 22.4702C111.74 22.4702 111.638 22.4388 111.55 22.3796C111.462 22.3204 111.392 22.236 111.348 22.1363ZM73.1919 12.8086V11.0819C73.1916 11.006 73.1775 10.9309 73.1502 10.8609C73.1229 10.7909 73.083 10.7274 73.0328 10.6739C72.9827 10.6205 72.9233 10.5782 72.8579 10.5494C72.7925 10.5207 72.7225 10.506 72.6519 10.5064H57.4887C57.3466 10.5064 57.2104 10.567 57.11 10.6749C57.0095 10.7829 56.9531 10.9293 56.9531 11.0819V12.8086C56.9531 12.9613 57.0095 13.1077 57.11 13.2156C57.2104 13.3236 57.3466 13.3842 57.4887 13.3842H62.9594C63.1009 13.3842 63.2365 13.4446 63.3365 13.5521C63.4366 13.6596 63.4928 13.8054 63.4928 13.9574V31.5849C63.4934 31.7372 63.55 31.8829 63.6504 31.9904C63.7507 32.0978 63.8867 32.1581 64.0284 32.1581H66.0965C66.2381 32.1581 66.374 32.0978 66.4744 31.9904C66.5747 31.8829 66.6314 31.7372 66.632 31.5849V13.9574C66.632 13.8054 66.6883 13.6596 66.7883 13.5521C66.8883 13.4446 67.024 13.3842 67.1654 13.3842H72.6564C72.7982 13.3836 72.9342 13.3227 73.0345 13.2149C73.1348 13.1071 73.1913 12.9611 73.1919 12.8086ZM130.779 12.3308C132.559 11.1413 134.652 10.5063 136.793 10.5063C138.215 10.506 139.623 10.7858 140.937 11.3298C142.25 11.8737 143.444 12.6711 144.449 13.6765C145.454 14.6818 146.252 15.8754 146.796 17.189C147.34 18.5026 147.619 19.9105 147.619 21.3322C147.619 23.4734 146.984 25.5664 145.795 27.3468C144.605 29.1271 142.914 30.5146 140.936 31.334C138.958 32.1534 136.781 32.3678 134.681 31.9501C132.581 31.5323 130.652 30.5013 129.138 28.9873C127.624 27.4732 126.593 25.5443 126.175 23.4442C125.758 21.3442 125.972 19.1675 126.792 17.1893C127.611 15.2112 128.999 13.5204 130.779 12.3308ZM132.568 27.6534C133.818 28.4892 135.289 28.9353 136.793 28.9353C137.792 28.9359 138.781 28.7397 139.704 28.3579C140.627 27.976 141.465 27.4161 142.172 26.71C142.878 26.0039 143.438 25.1655 143.82 24.2427C144.203 23.32 144.399 22.331 144.399 21.3322C144.399 19.8279 143.954 18.3572 143.118 17.1062C142.283 15.8552 141.095 14.88 139.705 14.304C138.316 13.7279 136.787 13.577 135.311 13.8702C133.836 14.1634 132.48 14.8875 131.416 15.9511C130.352 17.0146 129.628 18.3698 129.334 19.8452C129.041 21.3206 129.191 22.8499 129.767 24.2398C130.342 25.6296 131.317 26.8176 132.568 27.6534Z" fill="white"/>
    <defs>
        <radialGradient id="paint0_radial_1_2028" cx="0" cy="0" r="1" gradientUnits="userSpaceOnUse" gradientTransform="translate(21.3346 21.3408) scale(26.584 26.584)">
            <stop offset="0.47" stop-color="#F21F7F"/>
            <stop offset="0.6" stop-color="#EB3F9F"/>
            <stop offset="0.73" stop-color="#E558B9"/>
            <stop offset="0.85" stop-color="#E168C9"/>
            <stop offset="0.94" stop-color="#E06DCE"/>
        </radialGradient>
    </defs>
</svg>
