<svg width="167" height="37" viewBox="0 0 167 37" fill="none" xmlns="http://www.w3.org/2000/svg">
<g clip-path="url(#clip0_2040_6456)">
<path d="M15.6087 10.3002C14.8908 10.5156 13.5495 9.34553 12.605 8.34933C12.3783 8.11026 11.9288 8.26666 11.88 8.59246C11.708 9.74133 11.217 11.2198 10.083 11.8084C8.95763 12.3924 7.53964 11.7165 6.5544 10.9932C6.28048 10.7921 5.82481 11.0248 5.84122 11.3642C5.89963 12.5729 5.7977 14.1273 5.1494 14.8247C4.48866 15.5355 2.98616 15.3899 1.8418 15.1082C1.52126 15.0293 1.20843 15.3978 1.338 15.7014C1.75241 16.6725 2.1647 18.059 1.99187 19.252C1.8222 20.4232 0.409858 20.8651 -0.855204 20.9858C-1.21634 21.0203 -1.42407 21.6088 -1.17168 21.8694C-0.47254 22.5912 0.154214 23.5787 -0.0802526 24.5549C-0.32577 25.5772 -1.33962 26.3174 -2.25193 26.7628C-2.56524 26.9158 -2.57517 27.4752 -2.26444 27.6334C-1.22272 28.1635 -0.0802526 29.0282 -0.0802526 30.1012C-0.0802526 31.3721 -2.53337 32.2311 -4.27754 32.6226C-4.57675 32.6897 -4.67897 33.0889 -4.45172 33.2948C-3.46686 34.1871 -2.20171 35.6084 -2.20171 36.7177C-2.20171 37.8097 -3.87133 38.8912 -5.20302 39.5363C-5.50019 39.6803 -5.4901 40.1516 -5.18863 40.2864C-3.93235 40.848 -2.35723 41.8282 -2.20171 42.9937C-2.05382 44.1021 -3.15288 45.3708 -4.14904 46.2306C-4.41233 46.4578 -4.25729 46.9629 -3.91159 47.0008C-2.32661 47.1747 -0.328842 47.7268 -0.0802526 49.0751C0.102161 50.0644 -0.200624 50.9607 -0.606202 51.6381C-0.794941 51.9534 -0.470884 52.5644 -0.104173 52.5413C1.30053 52.4528 3.02749 52.6167 3.76798 53.5996C4.54394 54.6297 4.67298 56.1512 4.61156 57.2386C4.59354 57.5577 4.98364 57.8049 5.26574 57.6547C6.43317 57.033 8.17798 56.5158 9.34299 57.5404C10.263 58.3495 10.6961 59.3814 10.8742 60.2248C10.9471 60.5701 11.5264 60.7724 11.7791 60.5259C12.8041 59.5257 14.3226 58.5265 15.6087 59.1459C16.9136 59.7743 17.816 61.0757 18.298 62.0417C18.4361 62.3185 18.8657 62.3492 19.032 62.0884C19.8019 60.8813 21.1353 59.2739 22.4664 59.1459C23.7773 59.0198 25.2199 60.0557 26.0965 60.8935C26.3116 61.099 26.695 60.9929 26.7653 60.7038C27.1023 59.3164 27.8063 57.3637 28.8308 57.0052C29.7577 56.6809 31.2904 57.1737 32.4082 57.6714C32.7139 57.8075 33.1065 57.4737 33.0519 57.1436C32.8868 56.146 32.9421 54.7642 33.8138 53.5996C34.7665 52.3268 36.5587 52.5347 37.8722 52.8728C38.196 52.9562 38.5159 52.5656 38.3908 52.2556C37.9569 51.1802 37.5985 49.6165 38.0074 48.6372C38.4374 47.6075 40.1699 47.1591 41.5219 47.0032C41.8552 46.9647 42.0093 46.4987 41.7648 46.269C40.8493 45.409 39.7835 44.1188 39.7835 42.9937C39.7835 41.8728 41.2194 40.9232 42.4588 40.3526C42.7748 40.2072 42.7672 39.6716 42.4492 39.5304C41.2121 38.9807 39.7835 38.0123 39.7835 36.7177C39.7835 35.4215 40.8388 34.1735 41.7512 33.3832C42.0026 33.1654 41.8839 32.69 41.5582 32.6218C40.0429 32.3048 38.1028 31.5444 38.0074 30.1012C37.9271 28.8866 38.7958 28.081 39.671 27.6176C39.9841 27.4518 40.0021 26.8632 39.6834 26.7084C38.6295 26.1967 37.4576 25.4163 37.3167 24.5549C37.1622 23.6103 38.2073 22.3853 39.1024 21.5711C39.3383 21.3566 39.2206 20.9284 38.9074 20.8683C37.6515 20.6275 35.9729 20.1145 35.4419 19.252C34.9199 18.4042 35.3792 16.9912 35.8722 15.9932C36.0104 15.7134 35.7641 15.3579 35.4543 15.3943C34.2424 15.5367 32.5368 15.5341 31.6923 14.8247C30.9711 14.2189 31.0227 13.0441 31.2691 12.0513C31.3555 11.7033 30.894 11.3143 30.5677 11.463C29.57 11.9178 28.2762 12.2623 27.3014 11.8084C26.2543 11.3208 25.8038 9.88737 25.6458 8.71911C25.5999 8.37955 25.1029 8.21448 24.8685 8.46438C24.0554 9.33113 22.8723 10.3002 21.8251 10.3002C20.6348 10.3002 19.5231 8.63879 18.9132 7.40356C18.7835 7.14093 18.4007 7.11426 18.2433 7.3613C17.5189 8.49854 16.3659 10.0729 15.6087 10.3002Z" fill="white"/>
<path fill-rule="evenodd" clip-rule="evenodd" d="M18.5536 7.81477C18.2026 8.3542 17.7684 8.97062 17.326 9.49787C17.0798 9.7912 16.8234 10.0661 16.5709 10.2867C16.3271 10.4996 16.0475 10.6974 15.7542 10.7854C15.4166 10.8868 15.0702 10.8104 14.7841 10.6979C14.4884 10.5816 14.1857 10.3984 13.8965 10.1907C13.363 9.80751 12.8157 9.29692 12.356 8.8216C12.2591 9.39346 12.0862 10.0398 11.7971 10.6328C11.4828 11.2778 11.0123 11.8968 10.3161 12.2581C9.59589 12.6319 8.81272 12.5849 8.12007 12.3761C7.47036 12.1803 6.85534 11.83 6.3524 11.4722C6.375 12.0661 6.35925 12.7399 6.26018 13.3659C6.15658 14.0204 5.94943 14.7079 5.52005 15.1698C5.04965 15.6759 4.33684 15.8266 3.69144 15.8451C3.07767 15.8627 2.424 15.7639 1.85775 15.6329C2.26591 16.6251 2.67775 18.0479 2.49272 19.3251C2.37621 20.1293 1.82883 20.6476 1.20931 20.9641C0.612889 21.2687 -0.104709 21.4188 -0.753993 21.4849C-0.758491 21.4929 -0.762944 21.5024 -0.766764 21.5131C-0.771435 21.5262 -0.774371 21.5389 -0.775801 21.55C-0.775859 21.5504 -0.775914 21.5509 -0.775967 21.5513C-0.413308 21.9308 -0.0566039 22.3916 0.182534 22.9029C0.429611 23.4311 0.563608 24.0417 0.411825 24.6737C0.258319 25.3128 -0.128078 25.836 -0.572313 26.2472C-1.00394 26.6466 -1.51272 26.9616 -1.98575 27.1964C-1.98599 27.199 -1.98615 27.2018 -1.98619 27.2046C-1.98621 27.2057 -1.98621 27.2068 -1.98619 27.2079C-1.45239 27.4838 -0.876937 27.8525 -0.423549 28.3067C0.0404272 28.7715 0.42582 29.3772 0.42582 30.1017C0.42582 30.5945 0.18567 31.006 -0.127432 31.3291C-0.43879 31.6503 -0.854186 31.919 -1.29553 32.1434C-2.11039 32.5576 -3.10393 32.865 -3.95227 33.0673C-3.48352 33.5058 -2.96633 34.0514 -2.5478 34.6282C-2.09495 35.2522 -1.69564 35.9958 -1.69564 36.7183C-1.69564 37.5088 -2.2804 38.1841 -2.87863 38.6836C-3.45342 39.1636 -4.1646 39.5833 -4.80605 39.9054C-4.19874 40.1889 -3.52588 40.5666 -2.96426 41.0205C-2.36309 41.5065 -1.80399 42.1487 -1.70009 42.9273C-1.60172 43.6645 -1.92059 44.3882 -2.32712 44.9894C-2.71191 45.5585 -3.22118 46.086 -3.70579 46.5158C-2.9226 46.6117 -2.03518 46.7995 -1.28689 47.1367C-0.50506 47.489 0.24771 48.0634 0.417431 48.9839C0.626308 50.1167 0.283246 51.1271 -0.154969 51.87C-0.152337 51.8949 -0.141697 51.9336 -0.119227 51.9748C-0.104756 52.0013 -0.0899253 52.0206 -0.0782299 52.0332C0.637073 51.9918 1.44708 52.0128 2.1889 52.1748C2.94156 52.3391 3.69692 52.6648 4.17219 53.2957C5.03166 54.4366 5.17153 56.0434 5.12229 57.1591C5.72504 56.8487 6.47797 56.5614 7.25067 56.4776C8.07001 56.3887 8.95567 56.5263 9.6772 57.1609C10.6882 58.0501 11.164 59.175 11.3623 60.0879C11.3668 60.0914 11.3728 60.0955 11.3802 60.0998C11.3924 60.1069 11.4066 60.1134 11.4218 60.1186C11.4368 60.1237 11.4508 60.1268 11.4627 60.1283C11.9928 59.6167 12.6635 59.09 13.3903 58.7667C14.1352 58.4353 15.0021 58.2926 15.8283 58.6904C17.2223 59.3618 18.1689 60.6953 18.6868 61.6907C19.0774 61.0942 19.5967 60.4124 20.1893 59.8469C20.8113 59.2533 21.5811 58.7232 22.418 58.6426C23.2168 58.5658 24.0111 58.8438 24.6878 59.2151C25.3095 59.5563 25.8746 59.9996 26.3177 60.4077C26.4915 59.73 26.7475 58.9367 27.0858 58.2465C27.2699 57.8707 27.4856 57.5106 27.7365 57.2134C27.9852 56.9187 28.2917 56.6582 28.6637 56.5281C29.2649 56.3177 29.9956 56.3864 30.6598 56.537C31.3145 56.6855 31.9818 56.9321 32.5448 57.179C32.3763 56.1067 32.4388 54.5926 33.4086 53.2969C33.9968 52.5111 34.8375 52.2018 35.663 52.1286C36.434 52.0602 37.2281 52.1927 37.8855 52.3548C37.6705 51.8042 37.4764 51.1417 37.382 50.4826C37.2842 49.799 37.2843 49.056 37.5403 48.4428C37.8362 47.7343 38.5399 47.2974 39.2322 47.0227C39.8884 46.7622 40.635 46.6075 41.2957 46.5216C40.8545 46.095 40.384 45.5729 40.0099 45.0122C39.6078 44.4099 39.2774 43.7046 39.2774 42.9943C39.2774 42.213 39.7722 41.5675 40.3234 41.0861C40.8558 40.6212 41.5235 40.2356 42.1367 39.9451C41.5186 39.6612 40.8453 39.271 40.309 38.7757C39.7446 38.2545 39.2774 37.5639 39.2774 36.7183C39.2774 35.9348 39.5944 35.2016 40.0027 34.5826C40.3851 34.003 40.8683 33.4918 41.3202 33.0887C40.5651 32.9208 39.7019 32.6438 38.9907 32.2188C38.2457 31.7737 37.5662 31.1009 37.5024 30.1351C37.4031 28.6343 38.4742 27.6877 39.4024 27.1878C39.403 27.186 39.4035 27.1839 39.404 27.1817C39.4063 27.172 39.4078 27.1608 39.4081 27.1492C39.4082 27.1451 39.4081 27.1412 39.4079 27.1376C38.8763 26.876 38.3038 26.542 37.8346 26.153C37.3647 25.7634 36.9179 25.2527 36.8172 24.6372C36.7074 23.9657 37.0253 23.2832 37.396 22.7322C37.7422 22.2174 38.1953 21.7282 38.6207 21.3278C38.0161 21.2029 37.3284 21.0178 36.7092 20.7615C36.0459 20.4869 35.3645 20.0921 35.0109 19.5179C34.6515 18.9341 34.6593 18.2151 34.7793 17.5848C34.8908 16.9991 35.1142 16.4105 35.3478 15.9157C34.752 15.9771 34.0521 16.0029 33.3828 15.9328C32.6659 15.8578 31.9055 15.6653 31.3668 15.2128C30.8693 14.7949 30.6678 14.203 30.614 13.6311C30.5618 13.0772 30.642 12.4931 30.7663 11.9775C30.7644 11.9752 30.7623 11.9729 30.76 11.9705C30.7562 11.9665 30.752 11.9626 30.7475 11.9588C30.743 11.9551 30.7385 11.9517 30.734 11.9486C30.7324 11.9476 30.731 11.9467 30.7295 11.9458C30.2137 12.1771 29.613 12.3849 29.0016 12.4774C28.3741 12.5723 27.6967 12.5513 27.0877 12.2677C26.4146 11.9543 25.9715 11.3561 25.6814 10.7332C25.4062 10.1422 25.2464 9.48236 25.1593 8.89374C24.7501 9.32104 24.251 9.77339 23.7144 10.1295C23.1525 10.5024 22.4944 10.8068 21.8251 10.8068C21.001 10.8068 20.2965 10.2446 19.7721 9.65055C19.2807 9.09391 18.8628 8.41323 18.5536 7.81477ZM-0.15552 51.8559C-0.155496 51.8559 -0.15551 51.8564 -0.155634 51.8574C-0.155603 51.8564 -0.155544 51.8559 -0.15552 51.8559ZM17.8165 7.08995C18.1939 6.49738 19.0694 6.57752 19.3669 7.18004C19.6609 7.77536 20.0683 8.45663 20.5309 8.98069C21.0124 9.52617 21.4588 9.79462 21.8251 9.79462C22.2029 9.79462 22.66 9.6145 23.1547 9.28617C23.64 8.96414 24.1093 8.53447 24.4994 8.11866L24.8685 8.46493L24.4994 8.11866C24.7887 7.81024 25.1981 7.79566 25.4862 7.89056C25.7741 7.98541 26.0914 8.23842 26.1473 8.65183C26.2222 9.20548 26.3643 9.80203 26.599 10.3059C26.8354 10.8136 27.141 11.176 27.515 11.3501C27.8808 11.5205 28.3378 11.5541 28.8502 11.4766C29.3598 11.3995 29.8863 11.2179 30.3577 11.0031C30.7647 10.8175 31.169 10.9909 31.3987 11.184C31.6286 11.3772 31.867 11.7435 31.7603 12.1738C31.6447 12.6394 31.5825 13.1202 31.6217 13.5362C31.6608 13.9513 31.7941 14.2498 32.0178 14.4378L31.6923 14.8253L32.0178 14.4378C32.3236 14.6946 32.8382 14.8581 33.4882 14.9261C34.1228 14.9925 34.8125 14.9607 35.3952 14.8922C35.7692 14.8482 36.0778 15.0441 36.2466 15.2866C36.4152 15.5288 36.4909 15.8838 36.3259 16.2178C36.0911 16.6932 35.8732 17.2508 35.7736 17.7742C35.6712 18.3119 35.7103 18.7232 35.8728 18.9872C36.0503 19.2755 36.4737 19.5684 37.0964 19.8262C37.6969 20.0748 38.3946 20.2553 39.0027 20.3719C39.3825 20.4447 39.6182 20.7367 39.6986 21.0275C39.7789 21.318 39.7268 21.6878 39.4429 21.9461C39.0119 22.3381 38.5587 22.8171 38.2358 23.2971C37.8987 23.7983 37.7714 24.2006 37.8161 24.4738C37.8563 24.7197 38.0659 25.0299 38.4806 25.3738C38.88 25.7049 39.3972 26.0074 39.9044 26.2537C40.3085 26.4499 40.4261 26.8723 40.42 27.1697C40.414 27.4688 40.2816 27.8675 39.9078 28.0654C39.0928 28.4969 38.4521 29.1571 38.5124 30.0683C38.5439 30.5458 38.8822 30.9748 39.5099 31.3499C40.1289 31.7198 40.932 31.9743 41.6618 32.127C42.0597 32.2103 42.2881 32.5307 42.3618 32.8233C42.4355 33.1155 42.3864 33.5031 42.0825 33.7663C41.6497 34.1412 41.1928 34.6168 40.8476 35.14C40.5002 35.6666 40.2896 36.2054 40.2896 36.7183C40.2896 37.1673 40.5366 37.6081 40.9958 38.0321C41.4519 38.4534 42.0641 38.806 42.6547 39.0684C43.0444 39.2415 43.1939 39.6279 43.1978 39.9341C43.2017 40.2403 43.0613 40.633 42.6704 40.8129C42.0735 41.0877 41.4526 41.4439 40.9893 41.8485C40.5127 42.2648 40.2896 42.6546 40.2896 42.9943C40.2896 43.409 40.492 43.9113 40.8518 44.4503C41.2044 44.9788 41.671 45.4871 42.1113 45.9007C42.4097 46.1811 42.4366 46.5768 42.3405 46.8673C42.2443 47.1579 41.9867 47.4595 41.5798 47.5065C40.9278 47.5817 40.2048 47.7256 39.6056 47.9635C38.9861 48.2093 38.6085 48.5115 38.4744 48.8328C38.3215 49.1988 38.2964 49.7273 38.384 50.3392C38.4699 50.939 38.6553 51.5591 38.8601 52.0668C39.0098 52.4378 38.8797 52.8066 38.6888 53.036C38.4975 53.2659 38.1496 53.4674 37.746 53.3635C37.1106 53.1999 36.3993 53.0794 35.7524 53.1368C35.1152 53.1933 34.5835 53.4164 34.2189 53.9035C33.4599 54.9175 33.3988 56.1412 33.5512 57.0615C33.6156 57.4509 33.4154 57.7836 33.1887 57.972C32.9619 58.1606 32.5845 58.3044 32.2023 58.1342C31.6616 57.8935 31.0318 57.6593 30.436 57.5241C29.8227 57.3851 29.3235 57.3695 28.998 57.4835C28.8576 57.5326 28.692 57.6506 28.51 57.8662C28.3302 58.0793 28.1567 58.3613 27.9947 58.6919C27.6705 59.3534 27.4207 60.15 27.257 60.8238C27.0913 61.5059 26.2331 61.7246 25.7468 61.2599C25.3299 60.8615 24.7854 60.4232 24.2008 60.1024C23.6094 59.7779 23.0269 59.6009 22.5149 59.6502C22.0206 59.6977 21.4581 60.0352 20.8881 60.5792C20.331 61.1108 19.83 61.7788 19.4587 62.3611C19.257 62.6774 18.9122 62.7916 18.6208 62.7722C18.3303 62.7529 18.0087 62.5961 17.8451 62.2682C17.383 61.342 16.5453 60.1592 15.3891 59.6024C14.9291 59.3809 14.3937 59.4281 13.8017 59.6915C13.2085 59.9554 12.6218 60.4112 12.1325 60.8887C11.8132 61.2003 11.3726 61.1707 11.0967 61.0771C10.8184 60.9827 10.4665 60.7442 10.379 60.3299C10.2168 59.5618 9.82557 58.6394 9.00873 57.921C8.56525 57.5309 7.99601 57.4149 7.35983 57.4839C6.71793 57.5535 6.05348 57.8091 5.50359 58.1019C5.16613 58.2816 4.80181 58.2073 4.55473 58.0504C4.30755 57.8934 4.08458 57.5943 4.10625 57.2106C4.16595 56.1536 4.02786 54.7863 3.36373 53.9047C3.0985 53.5526 2.62014 53.3049 1.97303 53.1637C1.33512 53.0244 0.603077 53.0044 -0.0723686 53.0469C-0.549235 53.077 -0.868261 52.7152 -1.00778 52.4595C-1.15024 52.1984 -1.26788 51.7586 -1.04045 51.3787C-0.675581 50.7693 -0.424726 49.9986 -0.577978 49.1674C-0.656846 48.7397 -1.02726 48.3639 -1.7027 48.0595C-2.36329 47.7619 -3.20025 47.5885 -3.9668 47.5044C-4.39376 47.4576 -4.65155 47.1313 -4.74241 46.8361C-4.83325 46.5409 -4.80351 46.1274 -4.47972 45.848C-4.00078 45.4346 -3.51251 44.9355 -3.16563 44.4225C-2.81056 43.8973 -2.65385 43.4324 -2.70338 43.0612C-2.755 42.6743 -3.06121 42.2437 -3.60055 41.8077C-4.12454 41.3842 -4.78966 41.0197 -5.39519 40.749C-5.76041 40.5857 -5.92019 40.2318 -5.92633 39.9255C-5.93247 39.6189 -5.78633 39.2571 -5.42368 39.0814C-4.77682 38.7681 -4.06706 38.3573 -3.52738 37.9067C-2.95788 37.4311 -2.70783 37.0197 -2.70783 36.7183C-2.70783 36.3314 -2.94109 35.8096 -3.36703 35.2226C-3.77913 34.6547 -4.31478 34.1024 -4.79155 33.6704C-5.3171 33.1942 -5.09526 32.2879 -4.38839 32.1293C-3.53561 31.9379 -2.53216 31.6365 -1.75417 31.2411C-1.36422 31.0428 -1.05732 30.8341 -0.854218 30.6246C-0.652856 30.4168 -0.586367 30.2444 -0.586367 30.1017C-0.586367 29.7533 -0.77221 29.3901 -1.1399 29.0218C-1.50435 28.6567 -1.9996 28.3366 -2.494 28.085C-2.878 27.8896 -3.00295 27.4882 -2.99825 27.1888C-2.99355 26.8892 -2.85665 26.4954 -2.47398 26.3086L-2.25195 26.7633L-2.47398 26.3086C-2.04704 26.1001 -1.6111 25.8294 -1.25982 25.5043C-0.90767 25.1784 -0.664383 24.8204 -0.572372 24.4373C-0.489688 24.093 -0.551835 23.7218 -0.734303 23.3317C-0.917633 22.9398 -1.20974 22.5581 -1.53522 22.222C-1.8469 21.9002 -1.8211 21.4566 -1.7203 21.1736C-1.61974 20.8912 -1.357 20.5258 -0.903282 20.4825C-0.301293 20.4251 0.296755 20.2936 0.748861 20.0627C1.19419 19.8352 1.43782 19.5469 1.49099 19.18C1.64341 18.1278 1.27661 16.8475 0.872507 15.9006C0.715086 15.5318 0.840638 15.1636 1.03531 14.9344C1.23 14.7051 1.57307 14.5214 1.96275 14.6173C2.51098 14.7523 3.12382 14.8488 3.66243 14.8333C4.21956 14.8173 4.58837 14.6854 4.7787 14.4807C4.99763 14.2452 5.16559 13.8068 5.26044 13.2076C5.35239 12.6267 5.36392 11.9732 5.33569 11.3892C5.31538 10.969 5.58671 10.6664 5.85665 10.5269C6.12615 10.3877 6.52319 10.343 6.85388 10.5858C7.31922 10.9274 7.86788 11.243 8.4122 11.407C8.95621 11.571 9.44473 11.57 9.84987 11.3597C10.2877 11.1325 10.6297 10.7179 10.8873 10.1894C11.144 9.66251 11.2984 9.05909 11.3795 8.51805C11.4376 8.12955 11.7266 7.87782 12.0128 7.78048C12.3002 7.68273 12.692 7.7061 12.9722 8.00167C13.4344 8.48911 13.9808 9.00504 14.487 9.36863C14.7409 9.55101 14.9672 9.68225 15.1545 9.75591C15.3513 9.8333 15.4418 9.82242 15.4632 9.81598C15.5484 9.7904 15.6969 9.70615 15.905 9.52442C16.1042 9.35041 16.3233 9.11801 16.5506 8.84719C17.0047 8.30615 17.4608 7.64826 17.8165 7.08995L18.2433 7.36185L18.2458 7.3634M17.8165 7.08995L18.2433 7.36185L17.8165 7.08995Z" fill="#151923"/>
<path fill-rule="evenodd" clip-rule="evenodd" d="M27.9328 16.924V17.9674H29.1072V16.552C29.1072 15.8614 28.3873 15.4069 27.7638 15.7037L25.5047 16.7795L26.0097 17.8398L27.9328 16.924ZM26.5665 25.3053C26.6915 26.3061 26.2027 27.1912 25.4748 27.2821C24.747 27.373 24.0556 26.6353 23.9306 25.6344C23.8056 24.6336 24.2943 23.7486 25.0222 23.6577C25.7501 23.5668 26.4415 24.3044 26.5665 25.3053ZM14.7089 25.6477C14.7723 26.6543 14.2301 27.5077 13.4981 27.5538C12.766 27.5999 12.1211 26.8212 12.0577 25.8146C11.9944 24.8079 12.5365 23.9545 13.2686 23.9085C14.0007 23.8624 14.6455 24.641 14.7089 25.6477ZM19.775 27.0541C20.1834 27.0385 20.5168 27.1479 20.7242 27.287C20.9326 27.4267 20.9531 27.5439 20.9543 27.5762C20.9555 27.6085 20.944 27.7269 20.7468 27.8821C20.5506 28.0365 20.2265 28.1709 19.8181 28.1864C19.4096 28.2019 19.0763 28.0926 18.8689 27.9535C18.6605 27.8137 18.64 27.6966 18.6387 27.6643C18.6375 27.6319 18.649 27.5136 18.8462 27.3584C19.0425 27.2039 19.3665 27.0696 19.775 27.0541ZM19.7365 26.0426C20.9345 25.997 21.9326 26.6664 21.9657 27.5377C21.9897 28.168 21.5022 28.7313 20.7772 29.0119C20.8082 29.157 20.8592 29.3367 20.9355 29.5277C21.0793 29.8873 21.2822 30.2075 21.525 30.3925C21.7798 30.5866 22.1123 30.5582 22.5869 30.2656C22.9601 30.0354 23.283 29.7247 23.5243 29.4926L23.5243 29.4925L23.5244 29.4924C23.5837 29.4353 23.6381 29.383 23.6871 29.3377C23.8925 29.1482 24.2127 29.161 24.4023 29.3664C24.5919 29.5717 24.5791 29.8919 24.3737 30.0815C24.3438 30.1091 24.3051 30.1466 24.2585 30.1916C24.0255 30.4172 23.5975 30.8316 23.1181 31.1271C22.5526 31.4758 21.6928 31.7928 20.9115 31.1976C20.5532 30.9246 20.2958 30.5441 20.1166 30.1767C19.9963 30.5397 19.8133 30.9289 19.5368 31.2647C19.0302 31.8798 18.2282 31.9708 17.6153 31.9091C17.2946 31.8768 16.985 31.8001 16.7212 31.7016C16.4676 31.6069 16.2156 31.477 16.04 31.3149C15.8346 31.1253 15.8218 30.8051 16.0114 30.5997C16.201 30.3943 16.5211 30.3815 16.7265 30.5711C16.7647 30.6063 16.8786 30.6799 17.0752 30.7533C17.2616 30.8229 17.4865 30.8788 17.7167 30.902C18.2056 30.9512 18.5712 30.8449 18.7554 30.6213C18.9705 30.36 19.1177 30.0187 19.2101 29.6773C19.2605 29.4913 19.2918 29.3156 19.3099 29.1684C18.3688 29.0282 17.6552 28.4372 17.6273 27.7027C17.5942 26.8314 18.5385 26.0882 19.7365 26.0426ZM10.919 18.5801L9.11189 17.5814L9.11188 19.7929L7.9375 19.7929L7.9375 17.1833C7.9375 16.4679 8.70526 16.0149 9.33143 16.361L11.487 17.5522L10.919 18.5801Z" fill="#151923"/>
</g>
<path d="M54.8753 17.8619C54.8753 17.1316 54.2832 16.5395 53.5528 16.5395H49.4728C48.7425 16.5395 48.1504 15.9474 48.1504 15.217V14.6521C48.1504 13.9218 48.7425 13.3297 49.4728 13.3297H63.8555C64.5859 13.3297 65.178 13.9218 65.178 14.6521V15.217C65.178 15.9474 64.5859 16.5395 63.8555 16.5395H59.7755C59.0452 16.5395 58.4531 17.1316 58.4531 17.8619V34.3461C58.4531 35.0764 57.861 35.6685 57.1306 35.6685H56.1977C55.4674 35.6685 54.8753 35.0764 54.8753 34.3461V17.8619Z" fill="white"/>
<path d="M78.9202 18.809C77.3632 20.3977 76.6013 22.3106 76.6013 24.5477C76.6013 26.7849 77.3632 28.6978 78.9202 30.2864C80.4772 31.8427 82.3655 32.6208 84.6182 32.6208C86.8708 32.6208 88.7591 31.8427 90.3161 30.2864C91.8731 28.6978 92.6682 26.7849 92.6682 24.5477C92.6682 22.3106 91.8731 20.3977 90.3161 18.809C88.7591 17.2203 86.8708 16.4422 84.6182 16.4422C82.3655 16.4422 80.4772 17.2203 78.9202 18.809ZM73.0898 24.5477C73.0898 21.3379 74.2161 18.6469 76.4357 16.4098C78.6552 14.1727 81.4048 13.0703 84.6182 13.0703C87.8647 13.0703 90.6143 14.1727 92.8338 16.4098C95.0865 18.6469 96.2128 21.3379 96.2128 24.5477C96.2128 27.7251 95.0865 30.4161 92.8338 32.6533C90.6143 34.8904 87.8647 35.9927 84.6182 35.9927C81.4048 35.9927 78.6552 34.8904 76.4357 32.6533C74.2161 30.4161 73.0898 27.7251 73.0898 24.5477Z" fill="white"/>
<path d="M110.657 13.3297C111.163 13.3297 111.625 13.6183 111.846 14.0732L118.047 26.8072C118.53 27.7985 119.943 27.7985 120.425 26.8072L126.626 14.0732C126.848 13.6183 127.309 13.3297 127.815 13.3297H128.967C129.634 13.3297 130.197 13.8266 130.28 14.4887L132.733 34.1826C132.831 34.9717 132.216 35.6685 131.421 35.6685H130.577C129.909 35.6685 129.345 35.1701 129.264 34.5069L127.987 24.0882C127.828 22.7863 126.075 22.4857 125.491 23.6601L121.125 32.4385C120.901 32.8879 120.443 33.172 119.941 33.172H118.596C118.095 33.172 117.637 32.8889 117.413 32.4408L113.016 23.6422C112.43 22.4702 110.679 22.7721 110.52 24.0726L109.242 34.5069C109.16 35.1701 108.597 35.6685 107.929 35.6685H107.085C106.29 35.6685 105.674 34.9717 105.773 34.1826L108.226 14.4887C108.308 13.8266 108.871 13.3297 109.538 13.3297H110.657Z" fill="white"/>
<path d="M148.115 18.809C146.558 20.3977 145.797 22.3106 145.797 24.5477C145.797 26.7849 146.558 28.6978 148.115 30.2864C149.672 31.8427 151.561 32.6208 153.813 32.6208C156.066 32.6208 157.954 31.8427 159.511 30.2864C161.068 28.6978 161.863 26.7849 161.863 24.5477C161.863 22.3106 161.068 20.3977 159.511 18.809C157.954 17.2203 156.066 16.4422 153.813 16.4422C151.561 16.4422 149.672 17.2203 148.115 18.809ZM142.285 24.5477C142.285 21.3379 143.411 18.6469 145.631 16.4098C147.85 14.1727 150.6 13.0703 153.813 13.0703C157.06 13.0703 159.81 14.1727 162.029 16.4098C164.282 18.6469 165.408 21.3379 165.408 24.5477C165.408 27.7251 164.282 30.4161 162.029 32.6533C159.81 34.8904 157.06 35.9927 153.813 35.9927C150.6 35.9927 147.85 34.8904 145.631 32.6533C143.411 30.4161 142.285 27.7251 142.285 24.5477Z" fill="white"/>
<defs>
<clipPath id="clip0_2040_6456">
<rect x="0.699219" y="0.103516" width="36.0001" height="36.0001" rx="4.4297" fill="white"/>
</clipPath>
</defs>
</svg>
