<svg width="180" height="40" viewBox="0 0 180 40" fill="none" xmlns="http://www.w3.org/2000/svg">
<path fill-rule="evenodd" clip-rule="evenodd" d="M18.6097 8.15324C19.0241 7.67736 19.7634 7.67735 20.1778 8.15324L21.6859 9.88508C21.9967 10.242 22.5093 10.344 22.9331 10.1332L24.9891 9.11027C25.5541 8.82919 26.2372 9.11213 26.4379 9.71037L27.1685 11.8875C27.319 12.3362 27.7536 12.6266 28.2258 12.594L30.5167 12.4358C31.1463 12.3923 31.6691 12.9151 31.6256 13.5446L31.4674 15.8356C31.4348 16.3077 31.7252 16.7423 32.1738 16.8929L34.351 17.6234C34.9492 17.8242 35.2321 18.5072 34.9511 19.0722L33.9282 21.1283C33.7174 21.552 33.8194 22.0646 34.1763 22.3754L35.9081 23.8835C36.384 24.2979 36.384 25.0373 35.9081 25.4517L34.2917 26.8593C33.8839 27.2144 33.8164 27.8227 34.1364 28.2586L35.1776 29.677C35.6818 30.3637 35.1914 31.3319 34.3396 31.3319H31.412H26.229C28.8814 30.3735 30.1008 27.3034 28.8174 24.7829C27.4137 22.0259 23.7746 21.3551 21.4801 23.4302L21.3372 23.5594C20.23 24.5607 18.5444 24.5607 17.4373 23.5594L17.2944 23.4302C14.9999 21.3551 11.3608 22.0259 9.95706 24.7829C8.6737 27.3034 9.89308 30.3735 12.5455 31.3319H7.37547H4.44792C3.59607 31.3319 3.10572 30.3637 3.60983 29.677L4.65111 28.2586C4.9711 27.8227 4.90357 27.2144 4.4958 26.8593L2.87937 25.4517C2.40349 25.0373 2.40349 24.2979 2.87937 23.8835L4.61121 22.3754C4.96813 22.0646 5.0701 21.552 4.85929 21.1283L3.8364 19.0722C3.55533 18.5072 3.83826 17.8242 4.43651 17.6234L6.61364 16.8929C7.06233 16.7423 7.35271 16.3077 7.32011 15.8356L7.1619 13.5446C7.11842 12.9151 7.64121 12.3923 8.27074 12.4358L10.5617 12.594C11.0339 12.6266 11.4685 12.3362 11.619 11.8875L12.3496 9.71037C12.5503 9.11213 13.2334 8.82919 13.7984 9.11027L15.8544 10.1332C16.2781 10.344 16.7908 10.242 17.1016 9.88508L18.6097 8.15324ZM19.4937 31.0863C20.7496 31.0863 21.7677 30.4291 21.7677 29.6184C21.7677 28.8078 20.7496 28.1506 19.4937 28.1506C18.2378 28.1506 17.2197 28.8078 17.2197 29.6184C17.2197 30.4291 18.2378 31.0863 19.4937 31.0863ZM15.3817 26.7983C15.3817 27.5467 14.775 28.1533 14.0267 28.1533C13.2784 28.1533 12.6717 27.5467 12.6717 26.7983C12.6717 26.05 13.2784 25.4433 14.0267 25.4433C14.775 25.4433 15.3817 26.05 15.3817 26.7983ZM24.9631 28.1533C25.7114 28.1533 26.3181 27.5467 26.3181 26.7983C26.3181 26.05 25.7114 25.4433 24.9631 25.4433C24.2147 25.4433 23.6081 26.05 23.6081 26.7983C23.6081 27.5467 24.2147 28.1533 24.9631 28.1533Z" fill="#FE3C9C"/>
<path fill-rule="evenodd" clip-rule="evenodd" d="M109.686 30.3909C110.854 30.8807 112.126 31.1257 113.501 31.1257C114.877 31.1257 116.139 30.8807 117.288 30.3909C118.457 29.8821 119.465 29.1756 120.312 28.2712C121.179 27.3668 121.848 26.3022 122.319 25.0775C122.79 23.8339 123.026 22.4868 123.026 21.036C123.026 19.5851 122.79 18.2474 122.319 17.0227C121.848 15.798 121.179 14.7428 120.312 13.8573C119.465 12.9529 118.457 12.2557 117.288 11.7658C116.139 11.2571 114.877 11.0027 113.501 11.0027C112.126 11.0027 110.854 11.2571 109.686 11.7658C108.518 12.2557 107.509 12.9529 106.662 13.8573C105.814 14.7428 105.154 15.798 104.683 17.0227C104.212 18.2474 103.977 19.5851 103.977 21.036C103.977 22.4868 104.212 23.8339 104.683 25.0775C105.154 26.3022 105.814 27.3668 106.662 28.2712C107.509 29.1756 108.518 29.8821 109.686 30.3909ZM115.875 25.8689C115.216 26.3211 114.424 26.5472 113.501 26.5472C112.597 26.5472 111.805 26.3211 111.127 25.8689C110.468 25.3978 109.949 24.7478 109.573 23.9187C109.215 23.0897 109.036 22.1288 109.036 21.036C109.036 19.9431 109.215 18.9916 109.573 18.1814C109.949 17.3524 110.468 16.7118 111.127 16.2596C111.805 15.8074 112.597 15.5813 113.501 15.5813C114.424 15.5813 115.216 15.8168 115.875 16.2878C116.535 16.74 117.043 17.3712 117.401 18.1814C117.778 18.9916 117.967 19.9431 117.967 21.036C117.967 22.1288 117.778 23.0897 117.401 23.9187C117.043 24.7478 116.535 25.3978 115.875 25.8689ZM81.0585 21.0639V30.6732H83.4043H85.7218V24.2858V17.8702C86.287 19.9805 86.8523 22.119 87.4176 24.2858C87.9828 26.4338 88.5481 28.5629 89.1133 30.6732H91.2613H93.4092C93.9745 28.5252 94.5491 26.3584 95.1332 24.1728C95.7173 21.9683 96.292 19.7921 96.8572 17.6441V24.1728V30.6732H99.2313H101.634C101.615 27.5078 101.596 24.3047 101.577 21.0639C101.558 17.8231 101.539 14.62 101.521 11.4546H98.0443H94.5397C94.0121 13.3765 93.4752 15.3266 92.9287 17.305C92.4012 19.2645 91.8736 21.2052 91.346 23.1271C90.8185 21.2052 90.2815 19.2645 89.7351 17.305C89.2075 15.3266 88.6705 13.3765 88.1241 11.4546H84.5913H81.0585V21.0639ZM69.1912 31.1257C67.8157 31.1257 66.5439 30.8807 65.3757 30.3909C64.2076 29.8821 63.1995 29.1756 62.3517 28.2712C61.5038 27.3668 60.8443 26.3022 60.3733 25.0775C59.9022 23.8339 59.6667 22.4868 59.6667 21.036C59.6667 19.5851 59.9022 18.2474 60.3733 17.0227C60.8443 15.798 61.5038 14.7428 62.3517 13.8573C63.1995 12.9529 64.2076 12.2557 65.3757 11.7658C66.5439 11.2571 67.8157 11.0027 69.1912 11.0027C70.5666 11.0027 71.829 11.2571 72.9784 11.7658C74.1466 12.2557 75.1546 12.9529 76.0025 13.8573C76.8692 14.7428 77.5381 15.798 78.0091 17.0227C78.4802 18.2474 78.7157 19.5851 78.7157 21.036C78.7157 22.4868 78.4802 23.8339 78.0091 25.0775C77.5381 26.3022 76.8692 27.3668 76.0025 28.2712C75.1546 29.1756 74.1466 29.8821 72.9784 30.3909C71.829 30.8807 70.5666 31.1257 69.1912 31.1257ZM69.1912 26.5472C70.1144 26.5472 70.9058 26.3211 71.5652 25.8689C72.2247 25.3978 72.7334 24.7478 73.0914 23.9187C73.4683 23.0897 73.6567 22.1288 73.6567 21.036C73.6567 19.9431 73.4683 18.9916 73.0914 18.1814C72.7334 17.3712 72.2247 16.74 71.5652 16.2878C70.9058 15.8168 70.1144 15.5813 69.1912 15.5813C68.2868 15.5813 67.4954 15.8074 66.8171 16.2596C66.1577 16.7118 65.6395 17.3524 65.2627 18.1814C64.9047 18.9916 64.7257 19.9431 64.7257 21.036C64.7257 22.1288 64.9047 23.0897 65.2627 23.9187C65.6395 24.7478 66.1577 25.3978 66.8171 25.8689C67.4954 26.3211 68.2868 26.5472 69.1912 26.5472ZM48.0536 23.3249V30.6732H50.5407H52.9995V23.3249V15.9484H55.1757H57.3237V13.7156V11.4546H50.5124H43.7011V13.7156V15.9484H45.8773H48.0536V23.3249Z" fill="#FE3C9C"/>
<path d="M131.96 30C131.96 26.864 131.96 23.6907 131.96 20.48C131.96 17.2693 131.96 14.096 131.96 10.96C132.781 10.96 133.603 10.96 134.424 10.96C135.245 10.96 136.057 10.96 136.86 10.96C136.86 14.096 136.86 17.2693 136.86 20.48C136.86 23.6907 136.86 26.864 136.86 30C136.057 30 135.245 30 134.424 30C133.603 30 132.781 30 131.96 30ZM140.372 30C140.372 27.6107 140.372 25.2027 140.372 22.776C140.372 20.3307 140.372 17.9133 140.372 15.524C141.137 15.524 141.912 15.524 142.696 15.524C143.48 15.524 144.245 15.524 144.992 15.524C144.992 15.6547 144.992 15.776 144.992 15.888C144.992 16 144.992 16.1213 144.992 16.252C145.496 15.8973 146.056 15.6267 146.672 15.44C147.307 15.2347 147.988 15.132 148.716 15.132C149.78 15.132 150.713 15.3747 151.516 15.86C152.337 16.3453 152.972 17.0453 153.42 17.96C153.887 18.856 154.12 19.9387 154.12 21.208C154.12 22.664 154.12 24.1293 154.12 25.604C154.12 27.0787 154.12 28.544 154.12 30C153.373 30 152.608 30 151.824 30C151.04 30 150.265 30 149.5 30C149.5 28.656 149.5 27.2933 149.5 25.912C149.5 24.5307 149.5 23.168 149.5 21.824C149.5 21.0773 149.323 20.48 148.968 20.032C148.632 19.5653 148.091 19.332 147.344 19.332C146.597 19.332 146.019 19.5467 145.608 19.976C145.197 20.4053 144.992 21.0213 144.992 21.824C144.992 23.168 144.992 24.5307 144.992 25.912C144.992 27.2933 144.992 28.656 144.992 30C144.245 30 143.48 30 142.696 30C141.912 30 141.137 30 140.372 30ZM156.186 22.748C156.186 21.3293 156.475 20.088 157.054 19.024C157.632 17.9413 158.435 17.0733 159.462 16.42C160.488 15.7667 161.683 15.3747 163.046 15.244C164.408 15.0947 165.864 15.2533 167.414 15.72C167.414 16.4293 167.414 17.148 167.414 17.876C167.414 18.604 167.414 19.3227 167.414 20.032C166.331 19.5093 165.295 19.2667 164.306 19.304C163.316 19.3413 162.504 19.6493 161.87 20.228C161.235 20.788 160.918 21.628 160.918 22.748C160.918 23.868 161.235 24.7173 161.87 25.296C162.504 25.856 163.316 26.1547 164.306 26.192C165.295 26.2107 166.331 25.968 167.414 25.464C167.414 26.1733 167.414 26.892 167.414 27.62C167.414 28.348 167.414 29.0667 167.414 29.776C165.864 30.2427 164.408 30.4013 163.046 30.252C161.683 30.1213 160.488 29.7293 159.462 29.076C158.435 28.4227 157.632 27.564 157.054 26.5C156.475 25.4173 156.186 24.1667 156.186 22.748ZM172.834 30.448C172.293 30.448 171.789 30.3173 171.322 30.056C170.874 29.7947 170.519 29.44 170.258 28.992C169.997 28.544 169.866 28.0587 169.866 27.536C169.866 27.0133 169.997 26.5373 170.258 26.108C170.519 25.66 170.874 25.3053 171.322 25.044C171.789 24.7827 172.293 24.652 172.834 24.652C173.375 24.652 173.861 24.7827 174.29 25.044C174.738 25.3053 175.093 25.66 175.354 26.108C175.634 26.5373 175.774 27.0133 175.774 27.536C175.774 28.0587 175.634 28.544 175.354 28.992C175.093 29.44 174.738 29.7947 174.29 30.056C173.861 30.3173 173.375 30.448 172.834 30.448Z" fill="#FE3C9C"/>
</svg>
