<svg width="188" height="50" viewBox="0 0 188 50" fill="none" xmlns="http://www.w3.org/2000/svg">
    <path d="M0.771538 36.877C-1.13031 30.4293 0.682658 23.6985 4.03777 17.8585C5.21402 15.812 6.36753 14.276 7.81045 12.4114C9.18225 10.6236 10.669 8.92692 12.2612 7.33222C13.2369 6.36269 14.192 5.37042 15.2504 4.48979C16.1434 3.74765 17.9006 2.10834 19.1781 2.8112C20.0298 3.27839 20.2117 4.29133 20.1146 5.14096C20.0112 6.05674 19.451 7.20819 20.4019 7.78081C21.1316 8.22526 22.2976 7.73327 22.8991 7.13997C24.3462 5.72185 32.2141 -1.48036 33.8699 2.04426C34.0994 2.53626 33.9257 3.12128 33.6859 3.60915C33.1381 4.72958 32.4063 6.29654 33.7334 7.22473C34.7485 7.94205 35.8937 7.31155 36.8942 6.93118C38.6514 6.2614 40.4933 5.61022 42.3765 5.44691C43.3399 5.36009 44.7538 5.34562 45.1735 6.43918C45.7296 7.88624 44.5161 8.99427 43.6231 9.95347C43.1249 10.4909 42.267 11.1463 42.176 12.0972C42.0292 13.6187 44.3652 13.9432 45.5228 14.152C46.2038 14.2449 46.8778 14.3831 47.5405 14.5654C48.5327 14.8363 49.8992 15.4626 49.9219 16.6575C49.9446 17.9516 48.4583 18.6151 47.648 19.1981C47.648 19.1981 43.5321 21.2984 43.4246 23.6654C43.3481 25.3564 44.8076 26.3755 46.2236 27.1921C47.0919 27.6944 48.1028 27.9032 48.9607 28.4324C49.5085 28.7714 50.0625 29.404 49.9943 30.0862C49.924 30.82 49.1012 31.3947 48.4996 31.6945C47.8154 32.0376 47.0361 32.1203 46.3084 32.3353C45.4438 32.5861 44.6054 32.9198 43.805 33.3317C43.036 33.7328 42.1822 34.2702 41.806 35.0889C41.3595 36.0625 41.5041 36.6972 41.9341 37.6543C42.3641 38.6114 43.4536 39.4673 43.7802 40.4947C44.4004 42.4482 42.3807 43.3206 40.8303 43.6617C38.2373 44.2464 35.676 44.964 33.1567 45.8116C30.2812 46.7646 27.4388 48.1579 24.3607 48.5816C22.0463 48.9108 19.7039 48.9988 17.3714 48.8442C12.9062 48.5279 8.35824 47.1491 5.04448 44.0193C3.01498 42.0572 1.54079 39.5931 0.771538 36.877Z" fill="url(#paint0_radial_1_2008)"/>
    <path d="M2.84277 31.7438C3.09704 29.8626 4.24227 27.9132 6.28882 27.7106C9.38966 27.4068 11.3639 29.5339 13.4373 30.3029C15.4549 31.0513 16.6167 31.1298 18.7542 30.8259C22.2478 30.3236 28.2055 28.5024 28.9187 33.4327C29.4087 36.8168 28.6914 39.6737 25.9316 42.1461C22.7336 45.0299 17.7723 45.712 12.319 44.4366C9.90443 43.8722 7.48991 42.4417 5.70383 40.7156C3.27484 38.3775 2.37971 35.1754 2.84277 31.7438Z" fill="white"/>
    <path d="M7.99105 36.5338C8.8439 36.5338 9.53526 35.6055 9.53526 34.4604C9.53526 33.3153 8.8439 32.387 7.99105 32.387C7.1382 32.387 6.44684 33.3153 6.44684 34.4604C6.44684 35.6055 7.1382 36.5338 7.99105 36.5338Z" fill="#221F20"/>
    <path d="M18.8657 38.5185C19.8852 38.5185 20.7117 37.4078 20.7117 36.0378C20.7117 34.6678 19.8852 33.5571 18.8657 33.5571C17.8461 33.5571 17.0197 34.6678 17.0197 36.0378C17.0197 37.4078 17.8461 38.5185 18.8657 38.5185Z" fill="#221F20"/>
    <path d="M10.4462 38.9628C11.0353 38.9628 11.5128 38.4732 11.5128 37.8692C11.5128 37.2652 11.0353 36.7756 10.4462 36.7756C9.85706 36.7756 9.37946 37.2652 9.37946 37.8692C9.37946 38.4732 9.85706 38.9628 10.4462 38.9628Z" fill="#221F20"/>
    <path d="M12.3047 40.6599C11.8749 40.6613 11.4485 40.5821 11.0479 40.4263C10.9516 40.3874 10.8748 40.3119 10.8343 40.2163C10.7938 40.1207 10.7929 40.013 10.8319 39.9168C10.8708 39.8206 10.9463 39.7437 11.0419 39.7032C11.1375 39.6627 11.2452 39.6618 11.3414 39.7007C11.4261 39.7338 13.3859 40.4863 14.4299 38.5472C14.4542 38.5019 14.4871 38.4618 14.5269 38.4292C14.5667 38.3966 14.6125 38.3722 14.6618 38.3573C14.711 38.3424 14.7627 38.3374 14.8139 38.3425C14.8651 38.3476 14.9148 38.3627 14.9601 38.387C15.0054 38.4113 15.0456 38.4443 15.0781 38.4841C15.1107 38.5239 15.1351 38.5697 15.15 38.619C15.1649 38.6682 15.1699 38.7199 15.1648 38.7711C15.1598 38.8223 15.1446 38.8719 15.1203 38.9173C14.3926 40.2754 13.2577 40.6599 12.3047 40.6599Z" fill="#221F20"/>
    <path fill-rule="evenodd" clip-rule="evenodd" d="M99.1954 12.3123C96.6861 12.3117 94.233 13.0553 92.1463 14.449C90.0596 15.8426 88.4331 17.8238 87.4724 20.1419C86.5118 22.4601 86.2602 25.011 86.7494 27.4721C87.2386 29.9333 88.4466 32.1941 90.2207 33.9686C91.9949 35.7431 94.2554 36.9517 96.7164 37.4414C99.1774 37.9312 101.728 37.6801 104.047 36.72C106.365 35.7598 108.347 34.1338 109.741 32.0474C111.135 29.961 111.879 27.5081 111.879 24.9988C111.879 21.6346 110.543 18.4082 108.164 16.0291C105.786 13.65 102.56 12.313 99.1954 12.3123ZM99.1954 33.9087C97.4324 33.9092 95.7088 33.3869 94.2427 32.4078C92.7766 31.4287 91.6337 30.0367 90.9588 28.408C90.2838 26.7794 90.1072 24.9871 90.451 23.2579C90.7948 21.5288 91.6436 19.9404 92.8903 18.6938C94.1369 17.4472 95.7253 16.5983 97.4545 16.2544C99.1836 15.9106 100.976 16.0874 102.605 16.7623C104.233 17.4372 105.625 18.58 106.604 20.0461C107.583 21.5123 108.106 23.2358 108.105 24.9988C108.105 27.3619 107.166 29.6281 105.496 31.299C103.825 32.97 101.558 33.9087 99.1954 33.9087ZM128.048 25.9411L122.317 12.709C122.267 12.5922 122.186 12.4929 122.084 12.4226C121.983 12.3523 121.864 12.314 121.742 12.3123H117.278C117.108 12.313 116.945 12.3843 116.825 12.5106C116.704 12.637 116.637 12.8081 116.636 12.9868V37.0137C116.637 37.1921 116.705 37.363 116.825 37.4888C116.945 37.6147 117.108 37.6854 117.278 37.6854H119.583C119.752 37.6854 119.915 37.6146 120.035 37.4887C120.154 37.3627 120.222 37.1919 120.222 37.0137V19.8338C120.222 19.6801 120.272 19.531 120.363 19.4111C120.455 19.2913 120.583 19.208 120.725 19.1749C120.868 19.1418 121.017 19.161 121.148 19.2293C121.279 19.2976 121.384 19.4109 121.446 19.5504L126.913 31.8558C126.965 31.9716 127.047 32.0696 127.15 32.1384C127.252 32.2071 127.371 32.2438 127.493 32.244H129.574C129.696 32.2441 129.815 32.2076 129.918 32.1388C130.021 32.07 130.103 31.9718 130.154 31.8558L135.546 19.7261C135.608 19.5882 135.713 19.4766 135.844 19.4095C135.974 19.3424 136.122 19.3238 136.264 19.3567C136.406 19.3896 136.533 19.4721 136.624 19.5906C136.716 19.7092 136.766 19.8569 136.767 20.0095V37.0137C136.767 37.1919 136.835 37.3627 136.955 37.4887C137.074 37.6146 137.237 37.6854 137.406 37.6854H139.782C139.951 37.6854 140.114 37.6147 140.234 37.4888C140.355 37.363 140.423 37.1921 140.423 37.0137V12.9868C140.423 12.8081 140.355 12.637 140.235 12.5106C140.114 12.3843 139.952 12.313 139.782 12.3123H135.581C135.452 12.3128 135.325 12.3524 135.216 12.4262C135.107 12.5 135.02 12.605 134.966 12.7289L129.213 25.9411C129.162 26.058 129.079 26.1569 128.976 26.2262C128.873 26.2956 128.753 26.3324 128.631 26.3324C128.508 26.3324 128.388 26.2956 128.285 26.2262C128.182 26.1569 128.1 26.058 128.048 25.9411ZM83.3343 15.0103V12.9868C83.3339 12.8978 83.3174 12.8098 83.2854 12.7278C83.2534 12.6457 83.2066 12.5713 83.1478 12.5086C83.0891 12.446 83.0194 12.3964 82.9428 12.3627C82.8662 12.329 82.7842 12.3119 82.7014 12.3123H64.9321C64.7656 12.3123 64.606 12.3833 64.4883 12.5098C64.3706 12.6363 64.3044 12.8079 64.3044 12.9868V15.0103C64.3044 15.1892 64.3706 15.3607 64.4883 15.4872C64.606 15.6137 64.7656 15.6848 64.9321 15.6848H71.3431C71.5088 15.6848 71.6678 15.7555 71.785 15.8815C71.9022 16.0075 71.9681 16.1783 71.9681 16.3564V37.0137C71.9688 37.1921 72.0351 37.363 72.1528 37.4888C72.2704 37.6147 72.4297 37.6854 72.5957 37.6854H75.0193C75.1853 37.6854 75.3445 37.6147 75.4621 37.4888C75.5798 37.363 75.6462 37.1921 75.6469 37.0137V16.3564C75.6469 16.1783 75.7128 16.0075 75.83 15.8815C75.9472 15.7555 76.1062 15.6848 76.272 15.6848H82.7067C82.8729 15.684 83.0322 15.6127 83.1498 15.4864C83.2673 15.3601 83.3336 15.1889 83.3343 15.0103ZM150.819 14.4503C152.905 13.0563 155.358 12.3123 157.867 12.3123C159.533 12.3119 161.183 12.6398 162.723 13.2772C164.262 13.9146 165.661 14.8491 166.839 16.0272C168.017 17.2054 168.951 18.6041 169.589 20.1434C170.226 21.6828 170.554 23.3327 170.554 24.9988C170.554 27.508 169.81 29.9608 168.416 32.0471C167.022 34.1334 165.04 35.7595 162.722 36.7197C160.404 37.6799 157.853 37.9311 155.392 37.4416C152.931 36.9521 150.671 35.7438 148.896 33.9696C147.122 32.1953 145.914 29.9348 145.424 27.4738C144.935 25.0129 145.186 22.462 146.146 20.1439C147.107 17.8257 148.733 15.8443 150.819 14.4503ZM152.915 32.4064C154.381 33.3859 156.104 33.9087 157.867 33.9087C159.038 33.9094 160.197 33.6795 161.278 33.232C162.36 32.7846 163.342 32.1283 164.17 31.3009C164.998 30.4734 165.654 29.4909 166.102 28.4096C166.55 27.3282 166.78 26.1692 166.78 24.9988C166.78 23.2359 166.258 21.5125 165.279 20.0464C164.3 18.5804 162.908 17.4376 161.28 16.7626C159.651 16.0876 157.859 15.9107 156.13 16.2542C154.401 16.5978 152.813 17.4464 151.566 18.6928C150.319 19.9391 149.47 21.5272 149.126 23.2562C148.782 24.9852 148.958 26.7774 149.633 28.4061C150.307 30.0348 151.449 31.427 152.915 32.4064Z" fill="#121212"/>
    <defs>
        <radialGradient id="paint0_radial_1_2008" cx="0" cy="0" r="1" gradientUnits="userSpaceOnUse" gradientTransform="translate(25.0015 25.0091) scale(31.1531 31.1531)">
            <stop offset="0.47" stop-color="#F21F7F"/>
            <stop offset="0.6" stop-color="#EB3F9F"/>
            <stop offset="0.73" stop-color="#E558B9"/>
            <stop offset="0.85" stop-color="#E168C9"/>
            <stop offset="0.94" stop-color="#E06DCE"/>
        </radialGradient>
    </defs>
</svg>
