<svg xmlns="http://www.w3.org/2000/svg" width="32" height="32" viewBox="0 0 32 32" fill="none">
  <path d="M0.493784 23.6032C-0.723398 19.4767 0.436901 15.1689 2.58417 11.4313C3.33697 10.1215 4.07522 9.13854 4.99869 7.94517C5.87664 6.80095 6.82815 5.7151 7.84717 4.6945C8.47163 4.074 9.08287 3.43895 9.76025 2.87534C10.3318 2.40037 11.4564 1.35121 12.274 1.80104C12.8191 2.10005 12.9355 2.74833 12.8733 3.29209C12.8072 3.87819 12.4486 4.61512 13.0572 4.98159C13.5243 5.26604 14.2704 4.95117 14.6554 4.57146C15.5816 3.66386 20.617 -0.945557 21.6767 1.3102C21.8236 1.62508 21.7125 1.9995 21.559 2.31173C21.2084 3.02881 20.74 4.03166 21.5894 4.6257C22.239 5.08479 22.972 4.68127 23.6123 4.43783C24.7369 4.00917 25.9157 3.59242 27.121 3.4879C27.7375 3.43233 28.6425 3.42307 28.911 4.12295C29.2669 5.04907 28.4903 5.75821 27.9188 6.37209C27.5999 6.71608 27.0509 7.13548 26.9927 7.74407C26.8987 8.71782 28.3937 8.92553 29.1346 9.05916C29.5704 9.11864 30.0018 9.20704 30.4259 9.32376C31.0609 9.49708 31.9355 9.89795 31.95 10.6627C31.9646 11.4909 31.0133 11.9156 30.4947 12.2887C30.4947 12.2887 27.8606 13.6329 27.7918 15.1477C27.7428 16.2299 28.6768 16.8822 29.5831 17.4048C30.1388 17.7263 30.7858 17.8599 31.3348 18.1986C31.6854 18.4156 32.04 18.8204 31.9963 19.257C31.9514 19.7267 31.4248 20.0945 31.0398 20.2863C30.6018 20.506 30.1031 20.5589 29.6374 20.6965C29.084 20.857 28.5475 21.0705 28.0352 21.3342C27.543 21.5908 26.9966 21.9348 26.7558 22.4588C26.4701 23.0819 26.5626 23.4881 26.8378 24.1006C27.113 24.7132 27.8103 25.2609 28.0193 25.9185C28.4162 27.1687 27.1236 27.727 26.1314 27.9453C24.4719 28.3196 22.8327 28.7789 21.2203 29.3213C19.38 29.9312 17.5608 30.8229 15.5908 31.0941C14.1096 31.3048 12.6105 31.3611 11.1177 31.2622C8.25995 31.0597 5.34928 30.1773 3.22847 28.1742C1.92959 26.9185 0.986106 25.3414 0.493784 23.6032Z" fill="url(#paint0_radial_2217_14762)"/>
  <path d="M1.81742 20.3188C1.98015 19.1149 2.7131 17.8673 4.02289 17.7376C6.00743 17.5431 7.27093 18.9045 8.59792 19.3967C9.88919 19.8756 10.6327 19.9259 12.0007 19.7314C14.2366 19.4099 18.0496 18.2443 18.506 21.3998C18.8196 23.5655 18.3605 25.394 16.5943 26.9763C14.5476 28.8219 11.3723 29.2585 7.88218 28.4422C6.33688 28.081 4.79159 27.1655 3.6485 26.0608C2.09394 24.5644 1.52106 22.5151 1.81742 20.3188Z" fill="white"/>
  <path d="M5.1133 23.3805C5.65912 23.3805 6.10159 22.7864 6.10159 22.0536C6.10159 21.3207 5.65912 20.7266 5.1133 20.7266C4.56747 20.7266 4.125 21.3207 4.125 22.0536C4.125 22.7864 4.56747 23.3805 5.1133 23.3805Z" fill="#221F20"/>
  <path d="M12.0721 24.6518C12.7246 24.6518 13.2535 23.941 13.2535 23.0642C13.2535 22.1874 12.7246 21.4766 12.0721 21.4766C11.4196 21.4766 10.8906 22.1874 10.8906 23.0642C10.8906 23.941 11.4196 24.6518 12.0721 24.6518Z" fill="#221F20"/>
  <path d="M6.68661 24.9388C7.06364 24.9388 7.36928 24.6255 7.36928 24.2389C7.36928 23.8524 7.06364 23.5391 6.68661 23.5391C6.30957 23.5391 6.00391 23.8524 6.00391 24.2389C6.00391 24.6255 6.30957 24.9388 6.68661 24.9388Z" fill="#221F20"/>
  <path d="M7.875 26.0235C7.59988 26.0243 7.32703 25.9736 7.07059 25.874C7.00901 25.849 6.95986 25.8007 6.93393 25.7395C6.908 25.6784 6.90743 25.6094 6.93235 25.5478C6.95726 25.4863 7.00562 25.4371 7.06678 25.4112C7.12794 25.3852 7.19687 25.3847 7.25845 25.4096C7.31269 25.4307 8.56695 25.9123 9.23507 24.6713C9.25062 24.6423 9.27172 24.6166 9.29719 24.5958C9.32266 24.5749 9.35198 24.5593 9.38349 24.5498C9.41501 24.5403 9.44809 24.537 9.48085 24.5403C9.5136 24.5436 9.54541 24.5532 9.57442 24.5688C9.60344 24.5843 9.62912 24.6055 9.64997 24.6309C9.67083 24.6564 9.68645 24.6857 9.69597 24.7172C9.70549 24.7487 9.70873 24.7818 9.70546 24.8146C9.7022 24.8473 9.69249 24.8791 9.67694 24.9081C9.21124 25.7774 8.48491 26.0235 7.875 26.0235Z" fill="#221F20"/>
  <defs>
    <radialGradient id="paint0_radial_2217_14762" cx="0" cy="0" r="1" gradientUnits="userSpaceOnUse" gradientTransform="translate(16.001 16.0077) scale(19.938 19.938)">
      <stop offset="0.47" stop-color="#F21F7F"/>
      <stop offset="0.6" stop-color="#EB3F9F"/>
      <stop offset="0.73" stop-color="#E558B9"/>
      <stop offset="0.85" stop-color="#E168C9"/>
      <stop offset="0.94" stop-color="#E06DCE"/>
    </radialGradient>
  </defs>
</svg>