<svg width="159" height="32" viewBox="0 0 159 32" fill="none" xmlns="http://www.w3.org/2000/svg">
<path d="M0.493784 23.6032C-0.723398 19.4767 0.436901 15.1689 2.58417 11.4313C3.33697 10.1215 4.07522 9.13854 4.99869 7.94517C5.87664 6.80095 6.82815 5.7151 7.84717 4.6945C8.47163 4.074 9.08287 3.43895 9.76025 2.87534C10.3318 2.40037 11.4564 1.35121 12.274 1.80104C12.8191 2.10005 12.9355 2.74833 12.8733 3.29209C12.8072 3.87819 12.4486 4.61512 13.0572 4.98159C13.5243 5.26604 14.2704 4.95117 14.6554 4.57146C15.5816 3.66386 20.617 -0.945557 21.6767 1.3102C21.8236 1.62508 21.7125 1.9995 21.559 2.31173C21.2084 3.02881 20.74 4.03166 21.5894 4.6257C22.239 5.08479 22.972 4.68127 23.6123 4.43783C24.7369 4.00917 25.9157 3.59242 27.121 3.4879C27.7375 3.43233 28.6425 3.42307 28.911 4.12295C29.2669 5.04907 28.4903 5.75821 27.9188 6.37209C27.5999 6.71608 27.0509 7.13548 26.9927 7.74407C26.8987 8.71782 28.3937 8.92553 29.1346 9.05916C29.5704 9.11864 30.0018 9.20704 30.4259 9.32376C31.0609 9.49708 31.9355 9.89795 31.95 10.6627C31.9646 11.4909 31.0133 11.9156 30.4947 12.2887C30.4947 12.2887 27.8606 13.6329 27.7918 15.1477C27.7428 16.2299 28.6768 16.8822 29.5831 17.4048C30.1388 17.7263 30.7858 17.8599 31.3348 18.1986C31.6854 18.4156 32.04 18.8204 31.9963 19.257C31.9514 19.7267 31.4248 20.0945 31.0398 20.2863C30.6018 20.506 30.1031 20.5589 29.6374 20.6965C29.084 20.857 28.5475 21.0705 28.0352 21.3342C27.543 21.5908 26.9966 21.9348 26.7558 22.4588C26.4701 23.0819 26.5626 23.4881 26.8378 24.1006C27.113 24.7132 27.8103 25.2609 28.0193 25.9185C28.4162 27.1687 27.1236 27.727 26.1314 27.9453C24.4719 28.3196 22.8327 28.7789 21.2203 29.3213C19.38 29.9312 17.5608 30.8229 15.5908 31.0941C14.1096 31.3048 12.6105 31.3611 11.1177 31.2622C8.25995 31.0597 5.34928 30.1773 3.22847 28.1742C1.92959 26.9185 0.986106 25.3414 0.493784 23.6032Z" fill="url(#paint0_radial_2307_16859)"/>
<path d="M1.81742 20.3188C1.98015 19.1149 2.7131 17.8673 4.02289 17.7376C6.00743 17.5431 7.27093 18.9045 8.59792 19.3967C9.88919 19.8756 10.6327 19.9259 12.0007 19.7314C14.2366 19.4099 18.0496 18.2443 18.506 21.3998C18.8196 23.5655 18.3605 25.394 16.5943 26.9763C14.5476 28.8219 11.3723 29.2585 7.88218 28.4422C6.33688 28.081 4.79159 27.1655 3.6485 26.0608C2.09394 24.5644 1.52106 22.5151 1.81742 20.3188Z" fill="white"/>
<path d="M5.1133 23.3805C5.65912 23.3805 6.10159 22.7864 6.10159 22.0536C6.10159 21.3207 5.65912 20.7266 5.1133 20.7266C4.56747 20.7266 4.125 21.3207 4.125 22.0536C4.125 22.7864 4.56747 23.3805 5.1133 23.3805Z" fill="#221F20"/>
<path d="M12.0721 24.6518C12.7246 24.6518 13.2535 23.941 13.2535 23.0642C13.2535 22.1874 12.7246 21.4766 12.0721 21.4766C11.4196 21.4766 10.8906 22.1874 10.8906 23.0642C10.8906 23.941 11.4196 24.6518 12.0721 24.6518Z" fill="#221F20"/>
<path d="M6.68661 24.9388C7.06364 24.9388 7.36928 24.6255 7.36928 24.2389C7.36928 23.8524 7.06364 23.5391 6.68661 23.5391C6.30957 23.5391 6.00391 23.8524 6.00391 24.2389C6.00391 24.6255 6.30957 24.9388 6.68661 24.9388Z" fill="#221F20"/>
<path d="M7.875 26.0235C7.59988 26.0243 7.32703 25.9736 7.07059 25.874C7.00901 25.849 6.95986 25.8007 6.93393 25.7395C6.908 25.6784 6.90743 25.6094 6.93235 25.5478C6.95726 25.4863 7.00562 25.4371 7.06678 25.4112C7.12794 25.3852 7.19687 25.3847 7.25845 25.4096C7.31269 25.4307 8.56695 25.9123 9.23507 24.6713C9.25062 24.6423 9.27172 24.6166 9.29719 24.5958C9.32266 24.5749 9.35198 24.5593 9.38349 24.5498C9.41501 24.5403 9.44809 24.537 9.48085 24.5403C9.5136 24.5436 9.54541 24.5532 9.57442 24.5688C9.60344 24.5843 9.62912 24.6055 9.64997 24.6309C9.67083 24.6564 9.68645 24.6857 9.69597 24.7172C9.70549 24.7487 9.70873 24.7818 9.70546 24.8146C9.7022 24.8473 9.69249 24.8791 9.67694 24.9081C9.21124 25.7774 8.48491 26.0235 7.875 26.0235Z" fill="#221F20"/>
<path d="M42.286 8.16H54.804V10.382H49.81V24H47.28V10.382H42.286V8.16ZM56.5551 16.08C56.5551 14.4667 56.8557 13.044 57.4571 11.812C58.0584 10.58 58.9237 9.61933 60.0531 8.93C61.1824 8.24067 62.5317 7.896 64.1011 7.896C65.6704 7.896 67.0197 8.24067 68.1491 8.93C69.2784 9.61933 70.1437 10.58 70.7451 11.812C71.3464 13.044 71.6471 14.4667 71.6471 16.08C71.6471 17.6933 71.3464 19.116 70.7451 20.348C70.1437 21.58 69.2784 22.5407 68.1491 23.23C67.0197 23.9193 65.6704 24.264 64.1011 24.264C62.5171 24.264 61.1604 23.9193 60.0311 23.23C58.9164 22.5407 58.0584 21.58 57.4571 20.348C56.8557 19.116 56.5551 17.6933 56.5551 16.08ZM59.1731 16.08C59.1731 17.3413 59.3711 18.412 59.7671 19.292C60.1631 20.172 60.7277 20.8467 61.4611 21.316C62.1944 21.7707 63.0744 21.998 64.1011 21.998C65.1277 21.998 66.0077 21.7707 66.7411 21.316C67.4744 20.8467 68.0391 20.172 68.4351 19.292C68.8311 18.412 69.0291 17.3413 69.0291 16.08C69.0291 14.8187 68.8311 13.748 68.4351 12.868C68.0391 11.988 67.4744 11.3207 66.7411 10.866C66.0077 10.3967 65.1277 10.162 64.1011 10.162C63.0744 10.162 62.1944 10.3967 61.4611 10.866C60.7277 11.3207 60.1631 11.988 59.7671 12.868C59.3711 13.748 59.1731 14.8187 59.1731 16.08ZM75.9149 24V8.16H78.0489L83.6149 16.938H82.5589L88.1029 8.16H90.2149V24H87.6849V12.12L88.2349 12.274L83.9229 19.006H82.2069L77.9169 12.296L78.4669 12.142V24H75.9149ZM94.5051 16.08C94.5051 14.4667 94.8057 13.044 95.4071 11.812C96.0084 10.58 96.8737 9.61933 98.0031 8.93C99.1324 8.24067 100.482 7.896 102.051 7.896C103.62 7.896 104.97 8.24067 106.099 8.93C107.228 9.61933 108.094 10.58 108.695 11.812C109.296 13.044 109.597 14.4667 109.597 16.08C109.597 17.6933 109.296 19.116 108.695 20.348C108.094 21.58 107.228 22.5407 106.099 23.23C104.97 23.9193 103.62 24.264 102.051 24.264C100.467 24.264 99.1104 23.9193 97.9811 23.23C96.8664 22.5407 96.0084 21.58 95.4071 20.348C94.8057 19.116 94.5051 17.6933 94.5051 16.08ZM97.1231 16.08C97.1231 17.3413 97.3211 18.412 97.7171 19.292C98.1131 20.172 98.6777 20.8467 99.4111 21.316C100.144 21.7707 101.024 21.998 102.051 21.998C103.078 21.998 103.958 21.7707 104.691 21.316C105.424 20.8467 105.989 20.172 106.385 19.292C106.781 18.412 106.979 17.3413 106.979 16.08C106.979 14.8187 106.781 13.748 106.385 12.868C105.989 11.988 105.424 11.3207 104.691 10.866C103.958 10.3967 103.078 10.162 102.051 10.162C101.024 10.162 100.144 10.3967 99.4111 10.866C98.6777 11.3207 98.1131 11.988 97.7171 12.868C97.3211 13.748 97.1231 14.8187 97.1231 16.08ZM120.486 8.16H123.038V24H120.486V8.16ZM128.139 24V16.454C128.139 16.1607 128.132 15.7867 128.117 15.332C128.117 14.8627 128.102 14.4007 128.073 13.946C128.058 13.4913 128.022 13.132 127.963 12.868L128.007 12.692C128.418 12.5307 128.916 12.3767 129.503 12.23C130.104 12.0833 130.713 11.966 131.329 11.878C131.96 11.79 132.524 11.746 133.023 11.746C133.771 11.746 134.468 11.8267 135.113 11.988C135.758 12.1347 136.338 12.406 136.851 12.802C137.364 13.1833 137.76 13.7187 138.039 14.408C138.332 15.0827 138.479 15.948 138.479 17.004V24H136.015V17.158C136.015 16.2633 135.883 15.574 135.619 15.09C135.37 14.606 134.996 14.276 134.497 14.1C134.013 13.9093 133.434 13.814 132.759 13.814C132.304 13.814 131.828 13.8653 131.329 13.968C130.83 14.0707 130.39 14.188 130.009 14.32L130.405 13.638C130.478 13.858 130.53 14.1367 130.559 14.474C130.588 14.8113 130.603 15.178 130.603 15.574V24H128.139ZM142.603 17.972C142.603 16.6227 142.874 15.486 143.417 14.562C143.959 13.638 144.722 12.9413 145.705 12.472C146.687 11.988 147.839 11.746 149.159 11.746C150.229 11.746 151.131 11.9 151.865 12.208V14.298H151.689C151.395 14.1513 151.043 14.034 150.633 13.946C150.222 13.858 149.767 13.814 149.269 13.814C147.993 13.814 146.981 14.166 146.233 14.87C145.485 15.5593 145.111 16.5933 145.111 17.972C145.111 19.336 145.485 20.37 146.233 21.074C146.981 21.778 147.993 22.13 149.269 22.13C149.767 22.13 150.222 22.0787 150.633 21.976C151.043 21.8733 151.395 21.756 151.689 21.624H151.865V23.736C151.131 24.044 150.229 24.198 149.159 24.198C147.809 24.198 146.643 23.956 145.661 23.472C144.678 22.988 143.923 22.284 143.395 21.36C142.867 20.436 142.603 19.3067 142.603 17.972ZM156.962 24.198C156.522 24.198 156.148 24.0587 155.84 23.78C155.547 23.4867 155.4 23.098 155.4 22.614C155.4 22.13 155.547 21.7487 155.84 21.47C156.148 21.1767 156.522 21.03 156.962 21.03C157.417 21.03 157.791 21.1767 158.084 21.47C158.392 21.7487 158.546 22.13 158.546 22.614C158.546 23.098 158.392 23.4867 158.084 23.78C157.791 24.0587 157.417 24.198 156.962 24.198Z" fill="#121212"/>
<defs>
<radialGradient id="paint0_radial_2307_16859" cx="0" cy="0" r="1" gradientUnits="userSpaceOnUse" gradientTransform="translate(16.001 16.0077) scale(19.938 19.938)">
<stop offset="0.47" stop-color="#F21F7F"/>
<stop offset="0.6" stop-color="#EB3F9F"/>
<stop offset="0.73" stop-color="#E558B9"/>
<stop offset="0.85" stop-color="#E168C9"/>
<stop offset="0.94" stop-color="#E06DCE"/>
</radialGradient>
</defs>
</svg>
