<svg width="233" height="50" viewBox="0 0 233 50" fill="none" xmlns="http://www.w3.org/2000/svg">
<g clip-path="url(#clip0_66_9909)">
<path d="M0 3.48837C0 1.5618 1.5618 0 3.48837 0H25H46.5116C48.4382 0 50 1.5618 50 3.48837V46.5116C50 48.4382 48.4382 50 46.5116 50H3.48837C1.5618 50 0 48.4382 0 46.5116V3.48837Z" fill="#151923"/>
<path d="M20.7075 14.1626C19.7104 14.4618 17.8475 12.8367 16.5357 11.4531C16.2209 11.121 15.5965 11.3383 15.5288 11.7908C15.2898 13.3864 14.6079 15.4399 13.033 16.2573C11.4699 17.0685 9.50051 16.1297 8.13213 15.1251C7.75168 14.8458 7.11881 15.169 7.14159 15.6404C7.22272 17.3191 7.08116 19.478 6.18074 20.4467C5.26305 21.4339 3.17625 21.2317 1.58686 20.8404C1.14167 20.7308 0.707187 21.2426 0.887148 21.6643C1.46271 23.0129 2.03534 24.9386 1.7953 26.5956C1.55964 28.2223 -0.40194 28.8361 -2.15896 29.0037C-2.66054 29.0515 -2.94905 29.869 -2.59851 30.2309C-1.62749 31.2334 -0.756999 32.605 -1.08265 33.9608C-1.42364 35.3806 -2.83176 36.4087 -4.09886 37.0273C-4.53401 37.2397 -4.54781 38.0168 -4.11624 38.2364C-2.66941 38.9727 -1.08265 40.1737 -1.08265 41.6639C-1.08265 43.4291 -4.48974 44.6221 -6.9122 45.1658C-7.32777 45.2591 -7.46974 45.8135 -7.15411 46.0995C-5.78626 47.3388 -4.02911 49.3127 -4.02911 50.8535C-4.02911 52.3701 -6.34802 53.8723 -8.19758 54.7682C-8.61032 54.9682 -8.5963 55.6229 -8.1776 55.81C-6.43277 56.59 -4.24511 57.9514 -4.02911 59.5701C-3.8237 61.1096 -5.35018 62.8717 -6.73373 64.0658C-7.0994 64.3814 -6.88408 65.0828 -6.40393 65.1355C-4.20258 65.377 -1.42791 66.1439 -1.08265 68.0165C-0.829296 69.3906 -1.24983 70.6353 -1.81313 71.5763C-2.07527 72.0141 -1.62519 72.8627 -1.11587 72.8306C0.835102 72.7077 3.23365 72.9353 4.26211 74.3006C5.33982 75.7312 5.51904 77.8443 5.43374 79.3546C5.40871 79.7978 5.95051 80.1412 6.34233 79.9326C7.96375 79.0692 10.3871 78.3507 12.0051 79.7738C13.283 80.8976 13.8845 82.3308 14.1318 83.5022C14.2331 83.9818 15.0377 84.2627 15.3886 83.9204C16.8123 82.5312 18.9212 81.1434 20.7075 82.0036C22.5198 82.8764 23.7732 84.6839 24.4426 86.0257C24.6344 86.4101 25.231 86.4527 25.4621 86.0905C26.5314 84.4139 28.3833 82.1815 30.2321 82.0036C32.0528 81.8285 34.0563 83.2673 35.2738 84.4308C35.5726 84.7164 36.1051 84.569 36.2027 84.1674C36.6708 82.2404 37.6486 79.5284 39.0715 79.0305C40.3588 78.5801 42.4876 79.2645 44.04 79.9557C44.4646 80.1448 45.01 79.6812 44.9341 79.2227C44.7048 77.8372 44.7817 75.918 45.9923 74.3006C47.3155 72.5328 49.8046 72.8215 51.6289 73.2911C52.0786 73.4069 52.523 72.8645 52.3492 72.4339C51.7466 70.9402 51.2488 68.7685 51.8167 67.4083C52.4139 65.9781 54.8202 65.3554 56.6979 65.1388C57.1608 65.0854 57.3749 64.4382 57.0353 64.1192C55.7638 62.9247 54.2835 61.1327 54.2835 59.5701C54.2835 58.0133 56.2778 56.6945 57.9992 55.902C58.4381 55.7 58.4275 54.9562 57.9859 54.76C56.2676 53.9965 54.2835 52.6516 54.2835 50.8535C54.2835 49.0532 55.7492 47.32 57.0164 46.2223C57.3656 45.9198 57.2007 45.2594 56.7484 45.1648C54.6437 44.7245 51.9493 43.6684 51.8167 41.6639C51.7051 39.977 52.9118 38.8581 54.1273 38.2145C54.5621 37.9843 54.5871 37.1667 54.1445 36.9518C52.6807 36.2411 51.0531 35.1572 50.8574 33.9608C50.6428 32.6488 52.0943 30.9475 53.3375 29.8167C53.6651 29.5187 53.5017 28.924 53.0668 28.8406C51.3225 28.5061 48.9911 27.7935 48.2535 26.5956C47.5286 25.4182 48.1665 23.4557 48.8512 22.0695C49.0431 21.681 48.7011 21.1871 48.2707 21.2377C46.5876 21.4356 44.2187 21.4319 43.0458 20.4467C42.0441 19.6052 42.1158 17.9736 42.458 16.5947C42.5779 16.1113 41.937 15.571 41.4838 15.7776C40.0981 16.4093 38.3012 16.8877 36.9473 16.2573C35.4931 15.5801 34.8674 13.5892 34.6479 11.9667C34.5842 11.4951 33.8939 11.2658 33.5683 11.6129C32.4389 12.8167 30.7958 14.1626 29.3413 14.1626C27.6882 14.1626 26.1441 11.8551 25.297 10.1395C25.1169 9.77475 24.5853 9.73771 24.3667 10.0808C23.3606 11.6603 21.7591 13.847 20.7075 14.1626Z" fill="white"/>
<path fill-rule="evenodd" clip-rule="evenodd" d="M24.7979 10.7099C24.3105 11.4591 23.7074 12.3152 23.0929 13.0475C22.7509 13.4549 22.3949 13.8367 22.0441 14.1431C21.7056 14.4388 21.3172 14.7135 20.9098 14.8358C20.441 14.9765 19.9599 14.8704 19.5625 14.7141C19.1519 14.5527 18.7314 14.2983 18.3298 14.0098C17.5888 13.4775 16.8286 12.7684 16.1901 12.1082C16.0555 12.9025 15.8154 13.8002 15.414 14.6238C14.9774 15.5197 14.324 16.3793 13.357 16.8811C12.3567 17.4003 11.2689 17.3351 10.3069 17.0451C9.40457 16.7731 8.55037 16.2866 7.85185 15.7896C7.88325 16.6144 7.86137 17.5503 7.72376 18.4197C7.57989 19.3287 7.29218 20.2837 6.69582 20.9252C6.04248 21.628 5.05247 21.8373 4.15609 21.863C3.30363 21.8875 2.39575 21.7502 1.60929 21.5683C2.17619 22.9464 2.74818 24.9224 2.49119 26.6963C2.32938 27.8133 1.56914 28.5332 0.708688 28.9727C-0.11967 29.3959 -1.11633 29.6043 -2.01811 29.6961C-2.02436 29.7071 -2.03054 29.7204 -2.03585 29.7353C-2.04234 29.7535 -2.04641 29.7711 -2.0484 29.7865C-2.04848 29.7871 -2.04856 29.7877 -2.04863 29.7883C-1.54494 30.3154 -1.04952 30.9555 -0.717383 31.6655C-0.374222 32.3991 -0.188115 33.2472 -0.398924 34.1249C-0.612126 35.0126 -1.14879 35.7393 -1.76578 36.3103C-2.36526 36.8651 -3.0719 37.3026 -3.72888 37.6287C-3.72921 37.6323 -3.72943 37.6362 -3.72949 37.6402C-3.72952 37.6417 -3.72952 37.6432 -3.7295 37.6446C-2.98811 38.0279 -2.18887 38.54 -1.55916 39.1708C-0.914753 39.8163 -0.379487 40.6575 -0.379487 41.6639C-0.379487 42.3483 -0.713028 42.9199 -1.14789 43.3685C-1.58033 43.8146 -2.15727 44.1879 -2.77024 44.4995C-3.90199 45.0747 -5.28191 45.5017 -6.46015 45.7827C-5.80911 46.3917 -5.09079 47.1495 -4.50951 47.9506C-3.88055 48.8174 -3.32595 49.8501 -3.32595 50.8535C-3.32595 51.9514 -4.13811 52.8894 -4.96899 53.5831C-5.7673 54.2497 -6.75506 54.8327 -7.64595 55.28C-6.80247 55.6738 -5.86794 56.1983 -5.08792 56.8288C-4.25297 57.5037 -3.47643 58.3957 -3.33213 59.4771C-3.19551 60.501 -3.63838 61.5061 -4.20301 62.3412C-4.73743 63.1316 -5.44475 63.8642 -6.11782 64.4611C-5.03005 64.5944 -3.79753 64.8552 -2.75825 65.3235C-1.67237 65.8127 -0.626862 66.6105 -0.391139 67.889C-0.101032 69.4624 -0.577506 70.8657 -1.18614 71.8975C-1.18248 71.932 -1.1677 71.9858 -1.13649 72.043C-1.1164 72.0798 -1.0958 72.1066 -1.07955 72.1242C-0.0860815 72.0667 1.03892 72.0959 2.06922 72.3208C3.11459 72.549 4.1637 73.0014 4.82379 73.8776C6.01749 75.4622 6.21176 77.6939 6.14337 79.2434C6.98052 78.8123 8.02625 78.4133 9.09945 78.2969C10.2374 78.1735 11.4675 78.3646 12.4696 79.246C13.8738 80.481 14.5346 82.0433 14.81 83.3112C14.8163 83.3161 14.8246 83.3218 14.8349 83.3278C14.8518 83.3376 14.8715 83.3466 14.8926 83.3538C14.9135 83.3609 14.933 83.3652 14.9494 83.3673C15.6857 82.6567 16.6172 81.9253 17.6266 81.4762C18.6613 81.0159 19.8653 80.8177 21.0127 81.3703C22.9489 82.3027 24.2636 84.1548 24.9829 85.5373C25.5255 84.7088 26.2467 83.7619 27.0698 82.9765C27.9336 82.1521 29.0027 81.4158 30.1651 81.3039C31.2746 81.1972 32.3777 81.5833 33.3176 82.099C34.1811 82.5729 34.9659 83.1886 35.5813 83.7553C35.8228 82.8141 36.1783 81.7123 36.6481 80.7537C36.9039 80.2318 37.2035 79.7317 37.5519 79.3189C37.8973 78.9096 38.3231 78.5478 38.8396 78.367C39.6747 78.0748 40.6895 78.1702 41.6121 78.3795C42.5214 78.5857 43.4482 78.9282 44.2301 79.2711C43.9961 77.7818 44.0828 75.6789 45.4298 73.8793C46.2467 72.788 47.4143 72.3583 48.5608 72.2566C49.6317 72.1616 50.7347 72.3457 51.6476 72.5709C51.3491 71.8061 51.0795 70.8859 50.9484 69.9706C50.8125 69.0212 50.8127 67.9892 51.1683 67.1375C51.5792 66.1535 52.5566 65.5467 53.5181 65.1651C54.4294 64.8034 55.4665 64.5885 56.384 64.4692C55.7713 63.8766 55.1179 63.1515 54.5982 62.3729C54.0398 61.5363 53.5809 60.5567 53.5809 59.5701C53.5809 58.485 54.2682 57.5886 55.0337 56.92C55.7731 56.2742 56.7005 55.7386 57.5521 55.3351C56.6936 54.9409 55.7585 54.3989 55.0137 53.7111C54.2298 52.9872 53.5809 52.0279 53.5809 50.8535C53.5809 49.7654 54.0212 48.7469 54.5883 47.8873C55.1193 47.0823 55.7904 46.3723 56.4182 45.8125C55.3694 45.5792 54.1704 45.1945 53.1827 44.6043C52.148 43.986 51.2043 43.0516 51.1156 41.7102C50.9777 39.6258 52.4653 38.3111 53.7545 37.6168C53.7553 37.6142 53.7561 37.6114 53.7568 37.6083C53.76 37.5948 53.7621 37.5792 53.7624 37.5631C53.7625 37.5575 53.7624 37.5521 53.7621 37.5471C53.0239 37.1837 52.2287 36.7198 51.577 36.1795C50.9244 35.6384 50.3038 34.9291 50.1639 34.0742C50.0114 33.1417 50.4531 32.1938 50.9678 31.4285C51.4487 30.7135 52.078 30.034 52.6689 29.4779C51.8291 29.3044 50.8739 29.0473 50.014 28.6913C49.0928 28.3099 48.1463 27.7616 47.6552 26.9641C47.156 26.1533 47.1668 25.1547 47.3335 24.2793C47.4884 23.4658 47.7987 22.6484 48.1232 21.9612C47.2957 22.0464 46.3235 22.0822 45.394 21.9849C44.3983 21.8807 43.3422 21.6133 42.594 20.9848C41.903 20.4044 41.6232 19.5824 41.5484 18.7881C41.476 18.0188 41.5873 17.2075 41.7599 16.4914C41.7573 16.4883 41.7544 16.485 41.7512 16.4817C41.7459 16.4762 41.7401 16.4707 41.7338 16.4655C41.7276 16.4603 41.7213 16.4555 41.715 16.4513C41.7129 16.4499 41.7109 16.4486 41.7089 16.4473C40.9925 16.7686 40.1581 17.0573 39.309 17.1857C38.4374 17.3176 37.4967 17.2883 36.6509 16.8944C35.716 16.4591 35.1005 15.6283 34.6976 14.7632C34.3154 13.9424 34.0934 13.026 33.9725 12.2084C33.4042 12.8019 32.711 13.4302 31.9657 13.9248C31.1853 14.4427 30.2712 14.8655 29.3416 14.8655C28.1971 14.8655 27.2185 14.0846 26.4902 13.2595C25.8077 12.4864 25.2273 11.541 24.7979 10.7099ZM-1.1869 71.8779C-1.18687 71.8779 -1.18689 71.8787 -1.18706 71.8801C-1.18702 71.8786 -1.18693 71.8779 -1.1869 71.8779ZM23.7741 9.70316C24.2984 8.88015 25.5144 8.99146 25.9276 9.82829C26.3358 10.6551 26.9016 11.6013 27.5441 12.3292C28.2129 13.0868 28.833 13.4596 29.3416 13.4596C29.8664 13.4596 30.5012 13.2095 31.1883 12.7535C31.8623 12.3062 32.5141 11.7094 33.0559 11.1319L33.5686 11.6128L33.0559 11.1319C33.4578 10.7036 34.0264 10.6833 34.4265 10.8151C34.8264 10.9469 35.2671 11.2983 35.3447 11.8724C35.4487 12.6414 35.6461 13.4699 35.972 14.1697C36.3004 14.8749 36.7249 15.3782 37.2443 15.62C37.7524 15.8566 38.387 15.9034 39.0988 15.7957C39.8065 15.6886 40.5378 15.4364 41.1925 15.138C41.7577 14.8803 42.3193 15.1212 42.6383 15.3893C42.9576 15.6576 43.2887 16.1665 43.1404 16.764C42.9799 17.4108 42.8936 18.0784 42.948 18.6563C43.0023 19.2328 43.1875 19.6474 43.4982 19.9084L43.0461 20.4466L43.4982 19.9084C43.9228 20.2651 44.6376 20.4922 45.5403 20.5867C46.4217 20.679 47.3796 20.6347 48.1889 20.5396C48.7085 20.4785 49.1371 20.7505 49.3715 21.0874C49.6056 21.4238 49.7108 21.9168 49.4816 22.3808C49.1555 23.041 48.8529 23.8154 48.7145 24.5423C48.5723 25.2891 48.6266 25.8605 48.8523 26.227C49.0989 26.6274 49.6868 27.0344 50.5517 27.3924C51.3858 27.7377 52.3547 27.9883 53.1994 28.1502C53.7269 28.2514 54.0542 28.6569 54.1659 29.0609C54.2774 29.4643 54.2051 29.9779 53.8107 30.3366C53.2122 30.8811 52.5827 31.5464 52.1343 32.213C51.6661 32.9091 51.4893 33.4679 51.5513 33.8473C51.6072 34.1889 51.8982 34.6196 52.4743 35.0973C53.029 35.5572 53.7472 35.9774 54.4517 36.3194C55.0129 36.5919 55.1763 37.1785 55.1679 37.5916C55.1595 38.007 54.9757 38.5607 54.4564 38.8357C53.3245 39.435 52.4346 40.3519 52.5183 41.6175C52.5622 42.2807 53.032 42.8765 53.9038 43.3975C54.7635 43.9112 55.879 44.2647 56.8926 44.4768C57.4453 44.5924 57.7624 45.0375 57.8648 45.4438C57.9671 45.8497 57.8989 46.388 57.4768 46.7536C56.8757 47.2743 56.2411 47.9348 55.7617 48.6614C55.2792 49.3929 54.9867 50.1412 54.9867 50.8535C54.9867 51.4771 55.3298 52.0894 55.9675 52.6783C56.6011 53.2634 57.4512 53.7531 58.2716 54.1176C58.8128 54.358 59.0205 54.8947 59.0259 55.3199C59.0312 55.7452 58.8363 56.2905 58.2934 56.5405C57.4644 56.9221 56.6019 57.4168 55.9585 57.9788C55.2965 58.5569 54.9867 59.0984 54.9867 59.5701C54.9867 60.1461 55.2678 60.8438 55.7675 61.5924C56.2573 62.3264 56.9053 63.0323 57.5168 63.6068C57.9313 63.9962 57.9686 64.5459 57.8351 64.9494C57.7016 65.3529 57.3438 65.7719 56.7787 65.8371C55.8731 65.9415 54.8689 66.1415 54.0367 66.4718C53.1763 66.8132 52.6519 67.233 52.4656 67.6792C52.2533 68.1876 52.2184 68.9215 52.34 69.7714C52.4593 70.6045 52.7168 71.4656 53.0013 72.1708C53.2092 72.6861 53.0286 73.1983 52.7634 73.5169C52.4978 73.8362 52.0145 74.1161 51.4539 73.9718C50.5714 73.7446 49.5835 73.5772 48.685 73.6569C47.8001 73.7354 47.0616 74.0453 46.5553 74.7217C45.5011 76.1302 45.4162 77.8297 45.6278 79.1079C45.7173 79.6487 45.4392 80.1108 45.1243 80.3725C44.8094 80.6344 44.2852 80.8342 43.7544 80.5978C43.0034 80.2634 42.1287 79.9381 41.3012 79.7505C40.4494 79.5573 39.7561 79.5357 39.3039 79.694C39.109 79.7622 38.879 79.9261 38.6262 80.2256C38.3764 80.5215 38.1355 80.9132 37.9105 81.3724C37.4602 82.2911 37.1133 83.3974 36.886 84.3333C36.6558 85.2806 35.4638 85.5844 34.7884 84.939C34.2095 84.3857 33.4532 83.777 32.6413 83.3314C31.8198 82.8807 31.0108 82.6349 30.2997 82.7033C29.6132 82.7693 28.8319 83.2381 28.0403 83.9935C27.2665 84.7319 26.5707 85.6597 26.055 86.4684C25.7748 86.9077 25.296 87.0663 24.8913 87.0394C24.4877 87.0126 24.0411 86.7948 23.8139 86.3394C23.1721 85.053 22.0086 83.4103 20.4028 82.6369C19.764 82.3293 19.0203 82.3948 18.198 82.7606C17.3742 83.1272 16.5594 83.7603 15.8797 84.4234C15.4362 84.8562 14.8243 84.8151 14.4411 84.6851C14.0546 84.554 13.5658 84.2227 13.4443 83.6474C13.2191 82.5806 12.6757 81.2994 11.5412 80.3016C10.9252 79.7599 10.1346 79.5987 9.25106 79.6945C8.35953 79.7912 7.43669 80.1463 6.67296 80.5529C6.20426 80.8025 5.69827 80.6993 5.3551 80.4813C5.01179 80.2633 4.70211 79.8479 4.73221 79.315C4.81512 77.8469 4.62334 75.9479 3.70093 74.7235C3.33256 74.2345 2.66816 73.8904 1.7694 73.6942C0.883427 73.5008 -0.133297 73.473 -1.07141 73.5321C-1.73373 73.5739 -2.17682 73.0715 -2.37059 72.7163C-2.56845 72.3536 -2.73184 71.7428 -2.41596 71.2152C-1.90921 70.3687 -1.5608 69.2983 -1.77365 68.1439C-1.88319 67.5498 -2.39764 67.0279 -3.33576 66.6052C-4.25324 66.1918 -5.41568 65.951 -6.48033 65.8342C-7.07332 65.7691 -7.43136 65.316 -7.55757 64.906C-7.68373 64.4961 -7.64242 63.9217 -7.19272 63.5336C-6.52753 62.9595 -5.84937 62.2663 -5.3676 61.5537C-4.87445 60.8244 -4.65679 60.1787 -4.72559 59.6631C-4.79728 59.1258 -5.22257 58.5276 -5.97165 57.9221C-6.69942 57.3339 -7.62319 56.8276 -8.4642 56.4517C-8.97145 56.2249 -9.19336 55.7334 -9.20189 55.308C-9.21043 54.8821 -9.00745 54.3796 -8.50377 54.1356C-7.60536 53.7004 -6.61958 53.1299 -5.87002 52.504C-5.07906 51.8436 -4.73176 51.2722 -4.73176 50.8535C-4.73176 50.3161 -5.05574 49.5915 -5.64732 48.7762C-6.21968 47.9875 -6.96364 47.2203 -7.62581 46.6203C-8.35574 45.959 -8.04763 44.7003 -7.06587 44.4799C-5.88146 44.2141 -4.48778 43.7955 -3.40725 43.2463C-2.86564 42.971 -2.4394 42.6811 -2.15731 42.39C-1.87764 42.1015 -1.7853 41.862 -1.7853 41.6639C-1.7853 41.18 -2.04341 40.6756 -2.55409 40.164C-3.06027 39.6569 -3.74811 39.2123 -4.43478 38.8628C-4.96811 38.5914 -5.14166 38.034 -5.13513 37.6181C-5.1286 37.202 -4.93846 36.6551 -4.40698 36.3956L-4.0986 37.0273L-4.40698 36.3956C-3.81401 36.1061 -3.20854 35.7301 -2.72064 35.2786C-2.23155 34.8259 -1.89365 34.3287 -1.76586 33.7966C-1.65102 33.3185 -1.73734 32.8029 -1.99076 32.2611C-2.24539 31.7168 -2.65109 31.1866 -3.10315 30.7199C-3.53604 30.273 -3.50019 29.6568 -3.3602 29.2637C-3.22054 28.8715 -2.85562 28.364 -2.22546 28.3039C-1.38936 28.2242 -0.558743 28.0416 0.0691795 27.7208C0.687694 27.4049 1.02607 27.0045 1.09991 26.4948C1.3116 25.0335 0.802155 23.2553 0.24091 21.9402C0.0222702 21.4279 0.196648 20.9166 0.467027 20.5981C0.737423 20.2797 1.21391 20.0246 1.75513 20.1578C2.51656 20.3453 3.36772 20.4793 4.1158 20.4578C4.88958 20.4356 5.40182 20.2524 5.66616 19.9681C5.97023 19.641 6.20351 19.0322 6.33524 18.1999C6.46295 17.393 6.47896 16.4854 6.43976 15.6743C6.41156 15.0907 6.78839 14.6704 7.16331 14.4767C7.53762 14.2834 8.08905 14.2213 8.54835 14.5585C9.19465 15.0329 9.95669 15.4712 10.7127 15.6991C11.4682 15.9269 12.1467 15.9254 12.7094 15.6334C13.3175 15.3178 13.7925 14.742 14.1503 14.0079C14.5069 13.2762 14.7213 12.4381 14.8339 11.6866C14.9147 11.1471 15.316 10.7974 15.7135 10.6622C16.1126 10.5265 16.6568 10.5589 17.046 10.9694C17.6879 11.6464 18.4469 12.363 19.1499 12.868C19.5026 13.1213 19.8168 13.3036 20.077 13.4059C20.3503 13.5134 20.4759 13.4982 20.5057 13.4893C20.6241 13.4538 20.8303 13.3368 21.1193 13.0844C21.3959 12.8427 21.7003 12.5199 22.016 12.1438C22.6467 11.3923 23.2802 10.4786 23.7741 9.70317L24.367 10.0808L24.3704 10.083M23.7741 9.70316L24.367 10.0808L23.7741 9.70316Z" fill="#151923"/>
<path fill-rule="evenodd" clip-rule="evenodd" d="M37.8244 23.3614V24.8107H39.4555V22.8448C39.4555 21.8857 38.4556 21.2543 37.5897 21.6667L34.4521 23.1608L35.1534 24.6334L37.8244 23.3614ZM35.9267 35.0021C36.1003 36.3922 35.4215 37.6214 34.4106 37.7476C33.3996 37.8739 32.4393 36.8493 32.2658 35.4593C32.0922 34.0692 32.771 32.84 33.7819 32.7138C34.7929 32.5875 35.7531 33.6121 35.9267 35.0021ZM19.4579 35.4776C19.5459 36.8757 18.793 38.061 17.7762 38.125C16.7594 38.189 15.8638 37.1075 15.7758 35.7094C15.6878 34.3113 16.4407 33.1261 17.4575 33.0621C18.4743 32.9981 19.3699 34.0796 19.4579 35.4776ZM26.4941 37.431C27.0614 37.4094 27.5244 37.5613 27.8124 37.7544C28.1019 37.9486 28.1303 38.1113 28.132 38.1561C28.1338 38.201 28.1177 38.3654 27.8439 38.581C27.5713 38.7955 27.1212 38.9821 26.5539 39.0036C25.9866 39.0252 25.5237 38.8733 25.2356 38.6802C24.9462 38.486 24.9177 38.3234 24.916 38.2785C24.9143 38.2336 24.9303 38.0692 25.2042 37.8537C25.4767 37.6391 25.9268 37.4525 26.4941 37.431ZM26.4407 36.0262C28.1046 35.9629 29.4908 36.8926 29.5368 38.1027C29.5701 38.9781 28.8931 39.7604 27.8861 40.1502C27.9292 40.3517 27.9999 40.6013 28.106 40.8666C28.3057 41.366 28.5874 41.8107 28.9246 42.0676C29.2785 42.3373 29.7403 42.2979 30.3995 41.8914C30.9179 41.5717 31.3663 41.1402 31.7015 40.8178L31.7017 40.8175L31.7023 40.817L31.7029 40.8164C31.7848 40.7375 31.86 40.6653 31.9277 40.6027C32.2129 40.3394 32.6576 40.3572 32.9209 40.6425C33.1842 40.9277 33.1665 41.3724 32.8812 41.6357C32.8399 41.6739 32.7863 41.7258 32.7219 41.7881L32.7216 41.7883L32.7213 41.7887C32.3976 42.102 31.8031 42.6775 31.1374 43.088C30.3519 43.5723 29.1577 44.0126 28.0727 43.1858C27.575 42.8067 27.2174 42.2782 26.9685 41.7679C26.8016 42.2721 26.5474 42.8126 26.1632 43.2791C25.4597 44.1333 24.3458 44.2598 23.4945 44.174C23.0492 44.1291 22.6192 44.0226 22.2528 43.8858C21.9005 43.7544 21.5506 43.5739 21.3066 43.3487C21.0214 43.0854 21.0036 42.6407 21.2669 42.3555C21.5302 42.0702 21.9749 42.0524 22.2601 42.3158C22.3131 42.3647 22.4714 42.4669 22.7444 42.5688C23.0033 42.6654 23.3156 42.7431 23.6354 42.7753C24.3145 42.8437 24.8222 42.6961 25.078 42.3854C25.3768 42.0226 25.5812 41.5485 25.7096 41.0743C25.7795 40.816 25.823 40.572 25.8481 40.3675C24.5411 40.1728 23.55 39.352 23.5112 38.3319C23.4652 37.1218 24.7768 36.0895 26.4407 36.0262ZM14.1941 25.6616L11.6843 24.2746L11.6843 27.3461H10.0532L10.0532 23.7216C10.0532 22.728 11.1195 22.0989 11.9892 22.5795L14.983 24.234L14.1941 25.6616Z" fill="#151923"/>
</g>
<path d="M75.2439 15.7366C75.2439 14.7222 74.4216 13.8998 73.4072 13.8998H67.7405C66.7261 13.8998 65.9038 13.0775 65.9038 12.0631V11.2785C65.9038 10.2641 66.7261 9.44179 67.7405 9.44179H87.7164C88.7308 9.44179 89.5531 10.2641 89.5531 11.2785V12.0631C89.5531 13.0775 88.7308 13.8998 87.7164 13.8998H82.0497C81.0353 13.8998 80.213 14.7222 80.213 15.7366V38.6312C80.213 39.6456 79.3907 40.4679 78.3763 40.4679H77.0806C76.0662 40.4679 75.2439 39.6456 75.2439 38.6312V15.7366Z" fill="black"/>
<path d="M108.639 17.052C106.477 19.2585 105.419 21.9153 105.419 25.0224C105.419 28.1295 106.477 30.7863 108.639 32.9928C110.802 35.1543 113.425 36.2351 116.553 36.2351C119.682 36.2351 122.305 35.1543 124.467 32.9928C126.629 30.7863 127.734 28.1295 127.734 25.0224C127.734 21.9153 126.629 19.2585 124.467 17.052C122.305 14.8455 119.682 13.7647 116.553 13.7647C113.425 13.7647 110.802 14.8455 108.639 17.052ZM100.542 25.0224C100.542 20.5644 102.106 16.8268 105.189 13.7197C108.271 10.6126 112.09 9.08154 116.553 9.08154C121.062 9.08154 124.881 10.6126 127.964 13.7197C131.092 16.8268 132.657 20.5644 132.657 25.0224C132.657 29.4354 131.092 33.173 127.964 36.2801C124.881 39.3872 121.062 40.9182 116.553 40.9182C112.09 40.9182 108.271 39.3872 105.189 36.2801C102.106 33.173 100.542 29.4354 100.542 25.0224Z" fill="black"/>
<path d="M152.719 9.44179C153.421 9.44179 154.062 9.84266 154.37 10.4744L162.982 28.1606C163.653 29.5374 165.615 29.5374 166.285 28.1606L174.897 10.4744C175.205 9.84266 175.846 9.44179 176.549 9.44179H178.149C179.075 9.44179 179.857 10.132 179.972 11.0515L183.379 38.4042C183.515 39.5002 182.661 40.4679 181.556 40.4679H180.384C179.456 40.4679 178.674 39.7757 178.561 38.8546L176.788 24.3841C176.566 22.576 174.132 22.1585 173.32 23.7896L167.257 35.9817C166.946 36.6059 166.309 37.0006 165.612 37.0006H163.745C163.049 37.0006 162.413 36.6074 162.102 35.985L155.994 23.7647C155.18 22.1369 152.749 22.5562 152.528 24.3624L150.752 38.8546C150.639 39.7757 149.857 40.4679 148.929 40.4679H147.757C146.653 40.4679 145.798 39.5002 145.934 38.4042L149.342 11.0515C149.456 10.132 150.238 9.44179 151.164 9.44179H152.719Z" fill="black"/>
<path d="M204.743 17.052C202.581 19.2585 201.523 21.9153 201.523 25.0224C201.523 28.1295 202.581 30.7863 204.743 32.9928C206.906 35.1543 209.528 36.2351 212.657 36.2351C215.786 36.2351 218.408 35.1543 220.571 32.9928C222.733 30.7863 223.838 28.1295 223.838 25.0224C223.838 21.9153 222.733 19.2585 220.571 17.052C218.408 14.8455 215.786 13.7647 212.657 13.7647C209.528 13.7647 206.906 14.8455 204.743 17.052ZM196.646 25.0224C196.646 20.5644 198.21 16.8268 201.293 13.7197C204.375 10.6126 208.194 9.08154 212.657 9.08154C217.166 9.08154 220.985 10.6126 224.068 13.7197C227.196 16.8268 228.761 20.5644 228.761 25.0224C228.761 29.4354 227.196 33.173 224.068 36.2801C220.985 39.3872 217.166 40.9182 212.657 40.9182C208.194 40.9182 204.375 39.3872 201.293 36.2801C198.21 33.173 196.646 29.4354 196.646 25.0224Z" fill="black"/>
<defs>
<clipPath id="clip0_66_9909">
<rect width="50" height="50" rx="6.15234" fill="white"/>
</clipPath>
</defs>
</svg>
