<svg width="45" height="33" viewBox="0 0 45 33" fill="none" xmlns="http://www.w3.org/2000/svg">
<path fill-rule="evenodd" clip-rule="evenodd" d="M2.10436 27.7134C1.50896 27.5134 1.01274 27.2337 1.50334 26.8416C2.07067 26.388 2.39106 25.1576 1.75179 24.8128C1.41742 24.6325 1.10014 24.454 0.805532 24.2825C0.129167 23.8887 -0.374527 23.5626 0.366896 23.3119C1.53419 22.9171 2.40929 21.2218 1.47556 20.4177C1.27732 20.247 1.0795 20.077 0.884309 19.9098C-0.11487 19.054 0.194169 17.4016 1.44303 16.9879L1.97131 16.8128C2.86768 16.5159 3.33511 15.5325 2.98603 14.6551C2.69571 13.9254 2.33683 13.0424 1.98013 12.2136C1.50124 11.1008 2.23618 9.73549 3.44616 9.6764C3.83105 9.6576 4.2355 9.64306 4.64208 9.63643C6.12499 9.61224 8.48071 7.67336 8.29047 6.20251C8.23087 5.74173 8.15884 5.26397 8.07179 4.7822C7.93579 4.0295 8.29142 3.22898 9.05363 3.16504C10.217 3.06744 11.5831 3.45009 12.8691 4.14697C14.2716 4.90704 16.7413 4.09003 16.7942 2.49561C16.7992 2.34759 16.8038 2.19791 16.8081 2.0468C16.8414 0.887774 17.9893 0.123145 18.9993 0.692728C20.3391 1.44835 22.0603 2.61832 23.4248 4.21663C24.2887 5.22848 26.1747 5.51205 26.7211 4.29901C27.0807 3.50071 28.1713 2.96973 28.7579 3.61969C29.539 4.48509 30.5319 5.89838 31.2235 7.99627C31.4723 8.75067 32.5089 8.98958 33.1076 8.46761C33.5778 8.05773 34.192 8.25189 34.4111 8.83588C34.9152 10.1792 35.5067 12.751 34.6483 16.2939C34.6374 16.3388 34.641 16.3871 34.6594 16.4296C34.6678 16.4487 34.6788 16.4665 34.6924 16.4823C36.4203 18.5033 38.8603 20.2526 40.7313 21.4303C40.9205 21.5494 41.1744 21.3951 41.2086 21.1742C41.2684 20.788 41.4303 20.4213 41.6738 20.1211C41.9173 19.8208 42.2315 19.6005 42.5766 19.4877C42.9217 19.3751 43.2822 19.3751 43.6124 19.4879C44.0545 19.6388 44.4112 19.981 44.6041 20.4394C44.797 20.8975 44.8105 21.4343 44.6415 21.9321C44.5152 22.304 44.2937 22.634 44.0051 22.8808C43.9585 22.9206 43.9106 22.958 43.8614 22.9928C43.5442 23.2171 43.2106 23.4357 42.9807 23.7489C36.773 32.2037 18.9171 34.0958 10.7146 31.287C10.6346 31.2596 10.5557 31.2383 10.4724 31.2236C9.32881 31.0215 8.26114 31.0032 7.26132 30.9861C6.71176 30.9767 6.1827 30.9676 5.67281 30.9286C5.24874 30.8961 5.00786 30.7118 5.23523 30.3524C5.60119 29.7739 5.30086 28.6834 4.64256 28.4956C3.82721 28.263 2.84899 27.9635 2.10436 27.7134ZM36.0889 22.3757C36.0897 22.752 35.9788 23.12 35.7703 23.4332C35.5618 23.7464 35.2651 23.9907 34.9176 24.1352C34.5702 24.2797 34.1878 24.3179 33.8186 24.245C33.4495 24.172 33.1103 23.9912 32.844 23.7254C32.5777 23.4596 32.3962 23.1208 32.3225 22.7518C32.2488 22.3828 32.2863 22.0003 32.4301 21.6526C32.5739 21.3049 32.8176 21.0077 33.1304 20.7986C33.4432 20.5894 33.8111 20.4778 34.1873 20.4778C34.691 20.4778 35.1741 20.6777 35.5306 21.0335C35.8872 21.3893 36.088 21.872 36.0889 22.3757ZM35.3876 22.6346C35.5028 22.462 35.5644 22.2592 35.5644 22.0517C35.5644 21.7734 35.4538 21.5066 35.2571 21.3098C35.0603 21.113 34.7935 21.0025 34.5152 21.0025C34.3077 21.0025 34.1049 21.064 33.9323 21.1793C33.7598 21.2946 33.6253 21.4585 33.5459 21.6502C33.4665 21.8419 33.4457 22.0528 33.4862 22.2564C33.5267 22.4599 33.6266 22.6468 33.7733 22.7935C33.9201 22.9403 34.107 23.0402 34.3105 23.0807C34.514 23.1212 34.725 23.1004 34.9167 23.021C35.1084 22.9416 35.2723 22.8071 35.3876 22.6346Z" fill="white"/>
<path fill-rule="evenodd" clip-rule="evenodd" d="M2.10436 27.7134C1.50896 27.5134 1.01274 27.2337 1.50334 26.8416C2.07067 26.388 2.39106 25.1576 1.75179 24.8128C1.41742 24.6325 1.10014 24.454 0.805532 24.2825C0.129167 23.8887 -0.374527 23.5626 0.366896 23.3119C1.53419 22.9171 2.40929 21.2218 1.47556 20.4177C1.27732 20.247 1.0795 20.077 0.884309 19.9098C-0.11487 19.054 0.194169 17.4016 1.44303 16.9879L1.97131 16.8128C2.86768 16.5159 3.33511 15.5325 2.98603 14.6551C2.69571 13.9254 2.33683 13.0424 1.98013 12.2136C1.50124 11.1008 2.23618 9.73549 3.44616 9.6764C3.83105 9.6576 4.2355 9.64306 4.64208 9.63643C6.12499 9.61224 8.48071 7.67336 8.29047 6.20251C8.23087 5.74173 8.15884 5.26397 8.07179 4.7822C7.93579 4.0295 8.29142 3.22898 9.05363 3.16504C10.217 3.06744 11.5831 3.45009 12.8691 4.14697C14.2716 4.90704 16.7413 4.09003 16.7942 2.49561C16.7992 2.34759 16.8038 2.19791 16.8081 2.0468C16.8414 0.887774 17.9893 0.123145 18.9993 0.692728C20.3391 1.44835 22.0603 2.61832 23.4248 4.21663C24.2887 5.22848 26.1747 5.51205 26.7211 4.29901C27.0807 3.50071 28.1713 2.96973 28.7579 3.61969C29.539 4.48509 30.5319 5.89838 31.2235 7.99627C31.4723 8.75067 32.5089 8.98958 33.1076 8.46761C33.5778 8.05773 34.192 8.25189 34.4111 8.83588C34.9152 10.1792 35.5067 12.751 34.6483 16.2939C34.6374 16.3388 34.641 16.3871 34.6594 16.4296C34.6678 16.4487 34.6788 16.4665 34.6924 16.4823C36.4203 18.5033 38.8603 20.2526 40.7313 21.4303C40.9205 21.5494 41.1744 21.3951 41.2086 21.1742C41.2684 20.788 41.4303 20.4213 41.6738 20.1211C41.9173 19.8208 42.2315 19.6005 42.5766 19.4877C42.9217 19.3751 43.2822 19.3751 43.6124 19.4879C44.0545 19.6388 44.4112 19.981 44.6041 20.4394C44.797 20.8975 44.8105 21.4343 44.6415 21.9321C44.5152 22.304 44.2937 22.634 44.0051 22.8808C43.9585 22.9206 43.9106 22.958 43.8614 22.9928C43.5442 23.2171 43.2106 23.4357 42.9807 23.7489C36.773 32.2037 18.9171 34.0958 10.7146 31.287C10.6346 31.2596 10.5557 31.2383 10.4724 31.2236C9.32881 31.0215 8.26114 31.0032 7.26132 30.9861C6.71176 30.9767 6.1827 30.9676 5.67281 30.9286C5.24874 30.8961 5.00786 30.7118 5.23523 30.3524C5.60119 29.7739 5.30086 28.6834 4.64256 28.4956C3.82721 28.263 2.84899 27.9635 2.10436 27.7134ZM36.0889 22.3757C36.0897 22.752 35.9788 23.12 35.7703 23.4332C35.5618 23.7464 35.2651 23.9907 34.9176 24.1352C34.5702 24.2797 34.1878 24.3179 33.8186 24.245C33.4495 24.172 33.1103 23.9912 32.844 23.7254C32.5777 23.4596 32.3962 23.1208 32.3225 22.7518C32.2488 22.3828 32.2863 22.0003 32.4301 21.6526C32.5739 21.3049 32.8176 21.0077 33.1304 20.7986C33.4432 20.5894 33.8111 20.4778 34.1873 20.4778C34.691 20.4778 35.1741 20.6777 35.5306 21.0335C35.8872 21.3893 36.088 21.872 36.0889 22.3757ZM35.3876 22.6346C35.5028 22.462 35.5644 22.2592 35.5644 22.0517C35.5644 21.7734 35.4538 21.5066 35.2571 21.3098C35.0603 21.113 34.7935 21.0025 34.5152 21.0025C34.3077 21.0025 34.1049 21.064 33.9323 21.1793C33.7598 21.2946 33.6253 21.4585 33.5459 21.6502C33.4665 21.8419 33.4457 22.0528 33.4862 22.2564C33.5267 22.4599 33.6266 22.6468 33.7733 22.7935C33.9201 22.9403 34.107 23.0402 34.3105 23.0807C34.514 23.1212 34.725 23.1004 34.9167 23.021C35.1084 22.9416 35.2723 22.8071 35.3876 22.6346Z" fill="url(#paint0_linear_1290_23714)"/>
<defs>
<linearGradient id="paint0_linear_1290_23714" x1="22.4327" y1="-10.8254" x2="22.4056" y2="32.5" gradientUnits="userSpaceOnUse">
<stop stop-color="#AB5A9E"/>
<stop offset="1" stop-color="#5250B7"/>
</linearGradient>
</defs>
</svg>
