<svg width="360" height="270" viewBox="0 0 360 270" fill="none" xmlns="http://www.w3.org/2000/svg">
<g clip-path="url(#clip0_2133_6072)">
<rect width="360" height="270" fill="white"/>
<path d="M232.6 114.718V179.755L201.48 188.846" stroke="#9E6DFF" stroke-linecap="round" stroke-linejoin="round" stroke-dasharray="2.5 2.5"/>
<path d="M48.2112 123.227V192.693" stroke="#9E6DFF" stroke-linecap="round" stroke-linejoin="round" stroke-dasharray="2.5 2.5"/>
<path d="M135.976 145.139V171.83" stroke="#9E6DFF" stroke-linecap="round" stroke-linejoin="round" stroke-dasharray="2.5 2.5"/>
<path d="M48.3277 116.872L135.737 89.8984L233.066 107.454V114.779L135.715 144.897L48.3277 123.51V116.872Z" fill="url(#paint0_linear_2133_6072)" stroke="#9E6DFF"/>
<path d="M48.4725 116.891L135.737 87.103L232.371 107.649L135.715 137.321L48.4725 116.891Z" fill="url(#paint1_linear_2133_6072)" stroke="#9E6DFF"/>
<path d="M164.182 165.358L251.591 138.385L348.921 155.94V163.266L251.57 193.383L164.182 171.996V165.358Z" fill="url(#paint2_linear_2133_6072)" stroke="#9E6DFF"/>
<path d="M164.327 165.377L251.591 135.589L348.226 156.136L251.57 185.808L164.327 165.377Z" fill="url(#paint3_linear_2133_6072)" stroke="#9E6DFF"/>
<path d="M16.3919 198.692L103.801 171.719L201.13 189.274V196.6L103.78 226.717L16.3919 205.331V198.692Z" fill="url(#paint4_linear_2133_6072)" stroke="#9E6DFF"/>
<path d="M16.5365 198.712L103.801 168.924L200.435 189.47L103.779 219.141L16.5365 198.712Z" fill="url(#paint5_linear_2133_6072)" stroke="#9E6DFF"/>
<path d="M318.05 158.746L333.053 186.634C331.13 187.648 328.018 188.621 324.563 188.05C323.008 187.793 321.384 187.224 319.766 186.206C318.784 185.587 317.803 184.802 316.845 183.821C316.148 183.108 315.46 182.292 314.791 181.36C314.174 180.5 313.63 179.626 313.162 178.746C312.586 177.663 312.12 176.57 311.763 175.483C311.372 174.284 311.108 173.091 310.973 171.925C310.81 170.535 310.828 169.182 311.017 167.9C311.25 166.315 311.745 164.838 312.486 163.531C313.7 161.384 315.579 159.697 318.05 158.746Z" fill="url(#paint6_linear_2133_6072)"/>
<path d="M314.791 181.36C314.174 180.5 313.63 179.626 313.162 178.746M314.791 181.36L317.183 179.904M314.791 181.36C315.46 182.292 316.148 183.108 316.845 183.821M313.162 178.746C312.586 177.663 312.12 176.57 311.763 175.483M313.162 178.746L315.409 177.652M316.845 183.821L318.859 182.273M316.845 183.821C317.803 184.802 318.784 185.587 319.766 186.206M311.763 175.483L314.003 174.398M311.763 175.483C311.372 174.284 311.108 173.091 310.973 171.925M310.973 171.925L313.728 170.864M310.973 171.925C310.81 170.535 310.828 169.182 311.017 167.9M311.017 167.9L313.362 167.256M311.017 167.9C311.25 166.315 311.745 164.838 312.486 163.531M312.486 163.531C313.7 161.384 315.579 159.697 318.05 158.746L333.053 186.634C331.13 187.648 328.018 188.621 324.563 188.05M312.486 163.531L314.292 163.352M324.563 188.05C323.008 187.793 321.384 187.224 319.766 186.206M324.563 188.05L325.13 186.389M319.766 186.206L321.33 184.289" stroke="#9E6DFF" stroke-width="0.8"/>
<path d="M315.556 178.129C317.663 181.99 320.698 184.858 323.896 186.379C327.092 187.901 330.43 188.07 333.172 186.573C335.915 185.077 337.58 182.178 338.03 178.666C338.48 175.155 337.71 171.049 335.603 167.189C333.496 163.329 330.461 160.461 327.263 158.939C324.067 157.417 320.729 157.248 317.987 158.745C315.243 160.242 313.579 163.141 313.129 166.652C312.679 170.163 313.449 174.269 315.556 178.129Z" fill="#F1E36F" stroke="#9E6DFF" stroke-width="0.8"/>
<path d="M317.111 177.314C318.95 180.684 321.6 183.186 324.388 184.513C327.176 185.841 330.083 185.987 332.47 184.684C334.857 183.381 336.309 180.857 336.701 177.794C337.093 174.731 336.424 171.149 334.584 167.779C332.745 164.409 330.095 161.907 327.307 160.579C324.519 159.252 321.61 159.106 319.223 160.409C316.836 161.712 315.386 164.236 314.994 167.299C314.602 170.362 315.271 173.944 317.111 177.314Z" fill="#F1E36F" stroke="#9E6DFF" stroke-width="0.8"/>
<path fill-rule="evenodd" clip-rule="evenodd" d="M319.656 167.294L321.26 167.486L320.994 165.757L323.766 166.088L324.034 167.817L326.463 168.107L326.197 166.379L328.969 166.71L329.237 168.439L329.326 168.449C330.857 168.632 332.263 169.853 332.468 171.174L332.61 172.106C332.678 172.541 332.605 172.934 332.424 173.258C332.715 173.638 332.913 174.063 332.981 174.499L333.123 175.43C333.326 176.74 332.272 177.659 330.761 177.497L331.03 179.227L328.256 178.895L327.99 177.166L325.428 176.86L325.696 178.589L322.922 178.258L322.656 176.529L321.05 176.337L320.682 173.943L322.288 174.135L321.631 169.88L320.025 169.688L319.656 167.294ZM324.547 171.142L329.838 171.774L329.694 170.843L324.402 170.211L324.547 171.142ZM324.915 173.536L325.06 174.466L330.351 175.099L330.207 174.168L324.915 173.536Z" fill="#A8F2FF" stroke="#9E6DFF" stroke-width="0.6"/>
<path d="M179.585 77.8579L194.586 105.746C192.663 106.76 189.552 107.732 186.097 107.162C184.542 106.905 182.917 106.336 181.3 105.317C180.318 104.698 179.338 103.914 178.378 102.933C177.681 102.22 176.994 101.403 176.325 100.471C175.707 99.6118 175.165 98.7379 174.696 97.8581C174.12 96.7746 173.655 95.6818 173.298 94.5946C172.904 93.3955 172.642 92.2032 172.506 91.0369C172.344 89.6469 172.362 88.2939 172.551 87.0114C172.784 85.4272 173.279 83.9502 174.019 82.6432C175.235 80.4962 177.113 78.8085 179.585 77.8579Z" fill="url(#paint7_linear_2133_6072)"/>
<path d="M176.325 100.471C175.707 99.6118 175.165 98.7379 174.696 97.8581M176.325 100.471L178.716 99.0162M176.325 100.471C176.994 101.403 177.681 102.22 178.378 102.933M174.696 97.8581C174.12 96.7746 173.655 95.6818 173.298 94.5946M174.696 97.8581L176.943 96.7639M178.378 102.933L180.393 101.385M178.378 102.933C179.338 103.914 180.318 104.698 181.3 105.317M173.298 94.5946L175.537 93.5102M173.298 94.5946C172.904 93.3955 172.642 92.2032 172.506 91.0369M172.506 91.0369L175.262 89.9758M172.506 91.0369C172.344 89.6469 172.362 88.2939 172.551 87.0114M172.551 87.0114L174.896 86.368M172.551 87.0114C172.784 85.4272 173.279 83.9502 174.019 82.6432M174.019 82.6432C175.235 80.4962 177.113 78.8085 179.585 77.8579L194.586 105.746C192.663 106.76 189.552 107.732 186.097 107.162M174.019 82.6432L175.826 82.4634M186.097 107.162C184.542 106.905 182.917 106.336 181.3 105.317M186.097 107.162L186.662 105.501M181.3 105.317L182.864 103.401" stroke="#9E6DFF" stroke-width="0.8"/>
<path d="M177.09 97.2405C179.196 101.101 182.233 103.969 185.429 105.49C188.626 107.012 191.964 107.181 194.707 105.685C197.449 104.188 199.113 101.289 199.563 97.7775C200.012 94.2662 199.244 90.1607 197.137 86.3005C195.03 82.44 191.993 79.572 188.797 78.0505C185.601 76.5288 182.262 76.3596 179.52 77.8561C176.777 79.3529 175.114 82.2519 174.664 85.7634C174.214 89.2747 174.983 93.3802 177.09 97.2405Z" fill="#F1E36F" stroke="#9E6DFF" stroke-width="0.8"/>
<path d="M178.645 96.4259C180.484 99.7957 183.134 102.298 185.922 103.625C188.71 104.953 191.618 105.098 194.005 103.796C196.392 102.493 197.843 99.9687 198.235 96.9056C198.627 93.843 197.957 90.2604 196.118 86.8906C194.279 83.5208 191.629 81.0186 188.841 79.6913C186.052 78.364 183.145 78.218 180.757 79.5209C178.37 80.8235 176.92 83.3478 176.527 86.4109C176.135 89.4737 176.806 93.0561 178.645 96.4259Z" fill="#F1E36F" stroke="#9E6DFF" stroke-width="0.8"/>
<path fill-rule="evenodd" clip-rule="evenodd" d="M181.189 86.4058L182.794 86.5976L182.528 84.8687L185.3 85.1999L185.567 86.9289L187.997 87.2193L187.73 85.4903L190.503 85.8216L190.77 87.5506L190.859 87.5613C192.39 87.7443 193.796 88.9644 194.001 90.2863L194.144 91.2173C194.212 91.6533 194.14 92.0458 193.958 92.3698C194.248 92.75 194.446 93.175 194.514 93.6111L194.658 94.5419C194.86 95.8522 193.805 96.7709 192.296 96.6091L192.562 98.3383L189.79 98.0068L189.523 96.2781L186.963 95.9721L187.23 97.701L184.457 97.3698L184.19 95.6408L182.585 95.449L182.215 93.0552L183.821 93.247L183.164 88.9914L181.559 88.7995L181.189 86.4058ZM186.08 90.2537L191.372 90.8859L191.228 89.9551L185.936 89.3226L186.08 90.2537ZM186.45 92.6475L186.593 93.5783L191.885 94.2107L191.741 93.2797L186.45 92.6475Z" fill="#A8F2FF" stroke="#9E6DFF" stroke-width="0.6"/>
<path d="M42.7333 182.208L24.3775 208.013C26.1594 209.258 29.1252 210.61 32.6244 210.474C34.199 210.413 35.8818 210.05 37.6134 209.241C38.6654 208.749 39.7351 208.092 40.8097 207.238C41.5902 206.618 42.3732 205.893 43.1534 205.052C43.8735 204.276 44.5199 203.476 45.0943 202.661C45.8013 201.658 46.3987 200.632 46.888 199.597C47.4279 198.457 47.8365 197.306 48.1163 196.166C48.4499 194.807 48.6009 193.462 48.5729 192.166C48.5387 190.565 48.2317 189.038 47.6601 187.649C46.7209 185.368 45.067 183.459 42.7333 182.208Z" fill="url(#paint8_linear_2133_6072)"/>
<path d="M43.1534 205.052C43.8735 204.276 44.5199 203.476 45.0943 202.661M43.1534 205.052L40.962 203.31M43.1534 205.052C42.3732 205.893 41.5902 206.618 40.8097 207.238M45.0943 202.661C45.8013 201.658 46.3987 200.632 46.888 199.597M45.0943 202.661L43.0012 201.296M40.8097 207.238L39.0027 205.452M40.8097 207.238C39.7351 208.092 38.6654 208.749 37.6134 209.241M46.888 199.597L44.8015 198.243M46.888 199.597C47.4279 198.457 47.8365 197.306 48.1163 196.166M48.1163 196.166L45.5143 194.77M48.1163 196.166C48.4499 194.807 48.6009 193.462 48.5729 192.166M48.5729 192.166L46.326 191.236M48.5729 192.166C48.5387 190.565 48.2317 189.038 47.6601 187.649M47.6601 187.649C46.7209 185.368 45.067 183.459 42.7333 182.208L24.3775 208.013C26.1594 209.258 29.1252 210.61 32.6244 210.474M47.6601 187.649L45.8892 187.246M32.6244 210.474C34.199 210.413 35.8818 210.05 37.6134 209.241M32.6244 210.474L32.2701 208.756M37.6134 209.241L36.3003 207.145" stroke="#9E6DFF" stroke-width="0.8"/>
<path d="M42.7965 201.751C40.2256 205.319 36.8558 207.787 33.4948 208.899C30.1338 210.011 26.8004 209.763 24.2655 207.937C21.7307 206.11 20.4405 203.027 20.4313 199.487C20.4221 195.947 21.696 191.969 24.2668 188.401C26.8377 184.832 30.2076 182.365 33.5685 181.253C36.9294 180.141 40.2629 180.388 42.7977 182.215C45.3327 184.041 46.6228 187.125 46.6321 190.665C46.6412 194.205 45.3672 198.183 42.7965 201.751Z" fill="#F1E36F" stroke="#9E6DFF" stroke-width="0.8"/>
<path d="M41.3547 200.749C39.1106 203.864 36.1697 206.017 33.2384 206.986C30.3066 207.956 27.4031 207.739 25.1967 206.149C22.9904 204.56 21.8652 201.875 21.8572 198.787C21.8492 195.699 22.9604 192.228 25.2045 189.113C27.4486 185.998 30.3896 183.845 33.3209 182.875C36.2527 181.905 39.1561 182.123 41.3624 183.712C43.5688 185.302 44.694 187.987 44.7022 191.075C44.7101 194.163 43.5989 197.634 41.3547 200.749Z" fill="#F1E36F" stroke="#9E6DFF" stroke-width="0.8"/>
<path fill-rule="evenodd" clip-rule="evenodd" d="M31.9218 188.196L33.123 188.891L34.2272 187.416L36.3019 188.617L35.1977 190.092L37.0161 191.145L38.1204 189.669L40.1948 190.87L39.0908 192.345L39.1572 192.384C40.3032 193.047 40.5475 194.499 39.7029 195.627L39.1085 196.422C38.83 196.793 38.4679 197.084 38.0665 197.282C38.0183 197.685 37.8581 198.092 37.5796 198.464L36.9851 199.258C36.1483 200.376 34.5562 200.757 33.4125 200.118L32.3083 201.593L30.2336 200.392L31.3379 198.917L29.422 197.808L28.3178 199.283L26.2432 198.083L27.3474 196.607L26.1461 195.912L27.675 193.87L28.8762 194.565L31.5943 190.934L30.393 190.238L31.9218 188.196ZM33.0743 192.929L37.0339 195.221L37.6285 194.427L33.6687 192.134L33.0743 192.929ZM31.5453 194.971L30.9508 195.766L34.9105 198.058L35.5051 197.263L31.5453 194.971Z" fill="#A8F2FF" stroke="#9E6DFF" stroke-width="0.247987"/>
<path d="M48.0946 141.642C55.9479 141.642 62.3142 135.275 62.3142 127.422C62.3142 119.569 55.9479 113.203 48.0946 113.203C40.2413 113.203 33.875 119.569 33.875 127.422C33.875 135.275 40.2413 141.642 48.0946 141.642Z" fill="url(#paint9_linear_2133_6072)" stroke="#9E6DFF"/>
<path d="M49.2508 126.496C43.5161 126.866 41.5813 122.719 41.3307 120.6C39.6659 122.912 40.637 126.265 41.3307 127.652L39.3074 126.496C39.8162 129.41 41.2151 130.177 41.851 130.196H39.8855C42.6604 133.156 44.3947 133.356 44.915 133.087C43.2038 134.382 40.4636 133.626 39.3074 133.087C43.701 136.833 47.7671 136.922 49.2508 136.498C57.2518 135.758 57.5949 128.751 56.7662 125.34L59.1943 123.432H56.7662L58.6162 121.467L55.7834 122.276C55.321 121.158 53.6675 119.258 50.7539 120.6C47.8403 121.941 48.538 125.089 49.2508 126.496Z" fill="#F1E36F" stroke="#9E6DFF"/>
<path d="M143.22 188.73C151.073 188.73 157.439 182.363 157.439 174.51C157.439 166.657 151.073 160.291 143.22 160.291C135.366 160.291 129 166.657 129 174.51C129 182.363 135.366 188.73 143.22 188.73Z" fill="url(#paint10_linear_2133_6072)" stroke="#9E6DFF"/>
<path d="M148.465 181.791L145.985 180.303C145.514 180.021 144.975 179.872 144.426 179.872H136.226C134.81 179.872 133.662 178.723 133.662 177.307V169.848C133.662 168.432 134.81 167.284 136.226 167.284H148.115C149.531 167.284 150.679 168.432 150.679 169.848V177.89C150.679 178.984 149.792 179.872 148.698 179.872H148.465V180.105V181.791Z" fill="#F1E36F" stroke="#9E6DFF"/>
<path d="M146.367 169.615H136.343C136.021 169.615 135.76 169.876 135.76 170.198C135.76 170.519 136.021 170.78 136.343 170.78H146.367C146.688 170.78 146.949 170.519 146.949 170.198C146.949 169.876 146.688 169.615 146.367 169.615Z" fill="#9E6DFF"/>
<path d="M146.367 172.412H136.343C136.021 172.412 135.76 172.673 135.76 172.995C135.76 173.317 136.021 173.578 136.343 173.578H146.367C146.688 173.578 146.949 173.317 146.949 172.995C146.949 172.673 146.688 172.412 146.367 172.412Z" fill="#9E6DFF"/>
<path d="M141.704 175.209H136.343C136.021 175.209 135.76 175.47 135.76 175.792C135.76 176.114 136.021 176.375 136.343 176.375H141.704C142.026 176.375 142.287 176.114 142.287 175.792C142.287 175.47 142.026 175.209 141.704 175.209Z" fill="#9E6DFF"/>
<path d="M207.307 155.862C215.161 155.862 221.527 149.495 221.527 141.642C221.527 133.789 215.161 127.422 207.307 127.422C199.454 127.422 193.088 133.789 193.088 141.642C193.088 149.495 199.454 155.862 207.307 155.862Z" fill="url(#paint11_linear_2133_6072)" stroke="#9E6DFF"/>
<path fill-rule="evenodd" clip-rule="evenodd" d="M198.322 143.657L198.486 143.34C200.765 138.942 204.17 135.228 208.353 132.578C208.39 132.523 208.436 132.473 208.492 132.431C210.482 130.928 213.314 131.322 214.817 133.313L216.178 135.114C216.484 135.519 216.404 136.095 215.999 136.401L213.57 138.236C213.056 138.624 212.325 138.522 211.937 138.008L210.939 136.687C207.732 138.934 205.032 141.829 203.015 145.184L204.477 146.109C205.021 146.454 205.183 147.174 204.838 147.718L203.209 150.29C202.938 150.718 202.37 150.845 201.942 150.574L200.034 149.366C198.106 148.145 197.418 145.704 198.338 143.684L198.322 143.657Z" fill="#F1E36F"/>
<mask id="mask0_2133_6072" style="mask-type:luminance" maskUnits="userSpaceOnUse" x="197" y="131" width="20" height="20">
<path fill-rule="evenodd" clip-rule="evenodd" d="M198.322 143.657L198.486 143.34C200.765 138.942 204.17 135.228 208.353 132.578C208.39 132.523 208.436 132.473 208.492 132.431C210.482 130.928 213.314 131.322 214.817 133.313L216.178 135.114C216.484 135.519 216.404 136.095 215.999 136.401L213.57 138.236C213.056 138.624 212.325 138.522 211.937 138.008L210.939 136.687C207.732 138.934 205.032 141.829 203.015 145.184L204.477 146.109C205.021 146.454 205.183 147.174 204.838 147.718L203.209 150.29C202.938 150.718 202.37 150.845 201.942 150.574L200.034 149.366C198.106 148.145 197.418 145.704 198.338 143.684L198.322 143.657Z" fill="white"/>
</mask>
<g mask="url(#mask0_2133_6072)">
<mask id="path-35-outside-1_2133_6072" maskUnits="userSpaceOnUse" x="196.468" y="130.052" width="21" height="22" fill="black">
<rect fill="white" x="196.468" y="130.052" width="21" height="22"/>
<path d="M198.322 143.657L197.908 143.443L197.787 143.677L197.925 143.902L198.322 143.657ZM208.353 132.578L208.602 132.971L208.685 132.919L208.74 132.838L208.353 132.578ZM210.939 136.687L211.312 136.406L211.04 136.047L210.672 136.305L210.939 136.687ZM203.015 145.184L202.616 144.943L202.381 145.334L202.766 145.577L203.015 145.184ZM198.338 143.684L198.762 143.877L198.865 143.651L198.735 143.44L198.338 143.684ZM198.072 143.125L197.908 143.443L198.736 143.872L198.9 143.554L198.072 143.125ZM208.103 132.184C203.851 134.878 200.389 138.654 198.072 143.125L198.9 143.554C201.141 139.229 204.489 135.578 208.602 132.971L208.103 132.184ZM208.211 132.059C208.114 132.132 208.031 132.22 207.966 132.317L208.74 132.838C208.748 132.825 208.759 132.813 208.773 132.803L208.211 132.059ZM215.19 133.031C213.531 130.836 210.407 130.4 208.211 132.059L208.773 132.803C210.558 131.455 213.097 131.809 214.445 133.593L215.19 133.031ZM216.55 134.833L215.19 133.031L214.445 133.593L215.807 135.395L216.55 134.833ZM216.28 136.773C216.89 136.312 217.011 135.444 216.55 134.833L215.807 135.395C215.957 135.595 215.918 135.878 215.718 136.029L216.28 136.773ZM213.851 138.608L216.28 136.773L215.718 136.029L213.289 137.864L213.851 138.608ZM211.565 138.289C212.109 139.008 213.132 139.151 213.851 138.608L213.289 137.864C212.981 138.096 212.542 138.035 212.309 137.727L211.565 138.289ZM210.568 136.968L211.565 138.289L212.309 137.727L211.312 136.406L210.568 136.968ZM203.415 145.424C205.398 142.125 208.053 139.279 211.207 137.069L210.672 136.305C207.411 138.59 204.666 141.533 202.616 144.943L203.415 145.424ZM204.726 145.715L203.265 144.79L202.766 145.577L204.228 146.503L204.726 145.715ZM205.232 147.967C205.714 147.206 205.488 146.198 204.726 145.715L204.228 146.503C204.554 146.71 204.651 147.142 204.444 147.468L205.232 147.967ZM203.603 150.539L205.232 147.967L204.444 147.468L202.815 150.04L203.603 150.539ZM201.693 150.968C202.339 151.377 203.194 151.185 203.603 150.539L202.815 150.04C202.682 150.251 202.402 150.314 202.191 150.18L201.693 150.968ZM199.785 149.76L201.693 150.968L202.191 150.18L200.284 148.972L199.785 149.76ZM197.914 143.49C196.898 145.72 197.657 148.412 199.785 149.76L200.284 148.972C198.555 147.877 197.937 145.688 198.762 143.877L197.914 143.49ZM197.925 143.902L197.941 143.928L198.735 143.44L198.719 143.413L197.925 143.902Z"/>
</mask>
<path d="M198.322 143.657L197.908 143.443L197.787 143.677L197.925 143.902L198.322 143.657ZM208.353 132.578L208.602 132.971L208.685 132.919L208.74 132.838L208.353 132.578ZM210.939 136.687L211.312 136.406L211.04 136.047L210.672 136.305L210.939 136.687ZM203.015 145.184L202.616 144.943L202.381 145.334L202.766 145.577L203.015 145.184ZM198.338 143.684L198.762 143.877L198.865 143.651L198.735 143.44L198.338 143.684ZM198.072 143.125L197.908 143.443L198.736 143.872L198.9 143.554L198.072 143.125ZM208.103 132.184C203.851 134.878 200.389 138.654 198.072 143.125L198.9 143.554C201.141 139.229 204.489 135.578 208.602 132.971L208.103 132.184ZM208.211 132.059C208.114 132.132 208.031 132.22 207.966 132.317L208.74 132.838C208.748 132.825 208.759 132.813 208.773 132.803L208.211 132.059ZM215.19 133.031C213.531 130.836 210.407 130.4 208.211 132.059L208.773 132.803C210.558 131.455 213.097 131.809 214.445 133.593L215.19 133.031ZM216.55 134.833L215.19 133.031L214.445 133.593L215.807 135.395L216.55 134.833ZM216.28 136.773C216.89 136.312 217.011 135.444 216.55 134.833L215.807 135.395C215.957 135.595 215.918 135.878 215.718 136.029L216.28 136.773ZM213.851 138.608L216.28 136.773L215.718 136.029L213.289 137.864L213.851 138.608ZM211.565 138.289C212.109 139.008 213.132 139.151 213.851 138.608L213.289 137.864C212.981 138.096 212.542 138.035 212.309 137.727L211.565 138.289ZM210.568 136.968L211.565 138.289L212.309 137.727L211.312 136.406L210.568 136.968ZM203.415 145.424C205.398 142.125 208.053 139.279 211.207 137.069L210.672 136.305C207.411 138.59 204.666 141.533 202.616 144.943L203.415 145.424ZM204.726 145.715L203.265 144.79L202.766 145.577L204.228 146.503L204.726 145.715ZM205.232 147.967C205.714 147.206 205.488 146.198 204.726 145.715L204.228 146.503C204.554 146.71 204.651 147.142 204.444 147.468L205.232 147.967ZM203.603 150.539L205.232 147.967L204.444 147.468L202.815 150.04L203.603 150.539ZM201.693 150.968C202.339 151.377 203.194 151.185 203.603 150.539L202.815 150.04C202.682 150.251 202.402 150.314 202.191 150.18L201.693 150.968ZM199.785 149.76L201.693 150.968L202.191 150.18L200.284 148.972L199.785 149.76ZM197.914 143.49C196.898 145.72 197.657 148.412 199.785 149.76L200.284 148.972C198.555 147.877 197.937 145.688 198.762 143.877L197.914 143.49ZM197.925 143.902L197.941 143.928L198.735 143.44L198.719 143.413L197.925 143.902Z" fill="#9E6DFF"/>
<path d="M198.9 143.554L198.808 143.732L198.992 143.377L198.9 143.554ZM208.773 132.803L208.613 132.923L208.933 132.682L208.773 132.803ZM215.19 133.031L215.31 133.191L215.069 132.872L215.19 133.031ZM215.807 135.395L215.686 135.236L215.927 135.555L215.807 135.395ZM216.28 136.773L216.121 136.893L216.44 136.652L216.28 136.773ZM212.309 137.727L212.43 137.887L212.189 137.567L212.309 137.727ZM204.726 145.715L204.895 145.822L204.557 145.608L204.726 145.715ZM205.232 147.967L205.125 148.136L205.339 147.798L205.232 147.967ZM202.191 150.18L202.36 150.287L202.022 150.073L202.191 150.18ZM199.785 149.76L199.616 149.653L199.954 149.867L199.785 149.76ZM198.394 143.517L198.808 143.732L198.992 143.377L198.578 143.162L198.394 143.517ZM208.332 132.551L208.613 132.923L208.933 132.682L208.652 132.31L208.332 132.551ZM214.938 133.472L215.31 133.191L215.069 132.872L214.697 133.153L214.938 133.472ZM216.058 134.955L215.686 135.236L215.927 135.555L216.299 135.274L216.058 134.955ZM215.84 136.521L216.121 136.893L216.44 136.652L216.159 136.28L215.84 136.521ZM213.41 138.356L213.691 138.728L214.01 138.487L213.729 138.115L213.41 138.356ZM212.058 138.168L212.43 137.887L212.189 137.567L211.817 137.848L212.058 138.168ZM204.646 146.216L204.895 145.822L204.557 145.608L204.308 146.002L204.646 146.216ZM204.731 147.887L205.125 148.136L205.339 147.798L204.945 147.549L204.731 147.887ZM203.102 150.459L203.496 150.708L203.71 150.37L203.316 150.121L203.102 150.459ZM202.111 150.681L202.36 150.287L202.022 150.073L201.773 150.467L202.111 150.681ZM199.865 149.259L199.616 149.653L199.954 149.867L200.203 149.473L199.865 149.259ZM198.992 143.377L198.164 142.948L197.98 143.303L198.808 143.732L198.992 143.377ZM208.933 132.682L208.371 131.938L208.051 132.179L208.613 132.923L208.933 132.682ZM214.566 133.753L215.31 133.191L215.069 132.872L214.325 133.434L214.566 133.753ZM215.927 135.555L216.671 134.993L216.43 134.674L215.686 135.236L215.927 135.555ZM215.559 136.149L216.121 136.893L216.44 136.652L215.878 135.908L215.559 136.149ZM213.129 137.984L213.691 138.728L214.01 138.487L213.449 137.743L213.129 137.984ZM212.189 137.568L211.445 138.13L211.686 138.449L212.43 137.887L212.189 137.568ZM204.397 146.61L204.895 145.822L204.557 145.608L204.059 146.396L204.397 146.61ZM204.337 147.637L205.125 148.136L205.339 147.798L204.551 147.299L204.337 147.637ZM202.708 150.209L203.496 150.708L203.71 150.37L202.922 149.871L202.708 150.209ZM202.022 150.073L201.524 150.861L201.862 151.075L202.36 150.287L202.022 150.073ZM200.115 148.865L199.616 149.653L199.954 149.867L200.453 149.079L200.115 148.865ZM198.9 143.554L198.545 143.37L198.545 143.37L198.9 143.554ZM198.322 143.657L198.531 143.998L199.134 143.628L198.506 143.302L198.322 143.657ZM197.787 143.677L197.431 143.493L197.327 143.694L197.446 143.886L197.787 143.677ZM197.925 143.902L197.584 144.111L197.584 144.111L197.925 143.902ZM208.353 132.578L208.576 132.246L208.015 132.791L208.353 132.578ZM208.602 132.971L208.816 133.309L208.816 133.309L208.602 132.971ZM208.685 132.919L208.899 133.257L208.97 133.212L209.017 133.142L208.685 132.919ZM208.773 132.803L209.013 133.123L209.014 133.122L208.773 132.803ZM215.19 133.031L215.509 132.79L215.509 132.79L215.19 133.031ZM215.807 135.395L216.126 135.154L216.126 135.154L215.807 135.395ZM216.28 136.773L216.521 137.092L216.521 137.092L216.28 136.773ZM213.851 138.608L213.61 138.289L213.61 138.289L213.851 138.608ZM212.309 137.727L212.629 137.486L212.629 137.486L212.309 137.727ZM210.939 136.687L210.612 136.917L210.85 137.256L211.181 137.006L210.939 136.687ZM211.312 136.406L211.631 136.165L211.631 136.165L211.312 136.406ZM211.04 136.047L211.36 135.806L211.127 135.498L210.811 135.72L211.04 136.047ZM203.015 145.184L203.353 145.398L203.572 145.052L203.222 144.841L203.015 145.184ZM202.616 144.943L202.273 144.737L202.273 144.737L202.616 144.943ZM202.381 145.334L202.038 145.128L201.837 145.463L202.167 145.672L202.381 145.334ZM204.726 145.715L204.512 146.053L204.512 146.053L204.726 145.715ZM205.232 147.967L205.57 148.181L205.57 148.181L205.232 147.967ZM203.603 150.539L203.941 150.753L203.941 150.753L203.603 150.539ZM202.191 150.18L202.406 149.842L202.405 149.842L202.191 150.18ZM199.785 149.76L199.571 150.098L199.571 150.098L199.785 149.76ZM198.338 143.684L198.128 143.343L197.488 143.736L198.172 144.048L198.338 143.684ZM198.865 143.651L199.229 143.817L199.318 143.623L199.206 143.441L198.865 143.651ZM198.072 143.125L197.717 142.941L197.717 142.941L198.072 143.125ZM198.736 143.872L198.552 144.227L198.907 144.411L199.091 144.056L198.736 143.872ZM208.103 132.184L208.441 131.97L208.227 131.632L207.889 131.846L208.103 132.184ZM208.211 132.059L207.97 131.739L207.97 131.74L208.211 132.059ZM207.966 132.317L207.634 132.094L207.411 132.426L207.743 132.649L207.966 132.317ZM214.445 133.593L214.126 133.834L214.126 133.834L214.445 133.593ZM216.55 134.833L216.231 135.074L216.231 135.074L216.55 134.833ZM215.718 136.029L215.477 135.709L215.477 135.709L215.718 136.029ZM213.289 137.864L213.53 138.183L213.53 138.183L213.289 137.864ZM211.565 138.289L211.246 138.53L211.246 138.53L211.565 138.289ZM210.568 136.968L210.327 136.649L210.007 136.89L210.248 137.209L210.568 136.968ZM203.415 145.424L203.209 145.767L203.552 145.973L203.758 145.63L203.415 145.424ZM211.207 137.069L211.437 137.397L211.764 137.167L211.535 136.84L211.207 137.069ZM203.265 144.79L203.479 144.452L203.141 144.238L202.927 144.576L203.265 144.79ZM204.228 146.503L204.442 146.165L204.442 146.165L204.228 146.503ZM204.444 147.468L204.782 147.682L204.782 147.682L204.444 147.468ZM202.815 150.04L202.478 149.826L202.477 149.826L202.815 150.04ZM201.693 150.968L201.907 150.63L201.907 150.63L201.693 150.968ZM200.284 148.972L200.07 149.31L200.07 149.31L200.284 148.972ZM197.914 143.49L198.079 143.126L197.715 142.961L197.55 143.325L197.914 143.49ZM197.941 143.928L197.6 144.137L197.81 144.478L198.15 144.269L197.941 143.928ZM198.719 143.413L199.06 143.205L198.851 142.862L198.51 143.073L198.719 143.413ZM198.506 143.302L198.092 143.088L197.724 143.798L198.138 144.013L198.506 143.302ZM197.553 143.259L197.431 143.493L198.142 143.861L198.263 143.627L197.553 143.259ZM197.446 143.886L197.584 144.111L198.265 143.692L198.127 143.468L197.446 143.886ZM198.134 144.242L198.531 143.998L198.112 143.317L197.715 143.561L198.134 144.242ZM208.015 132.791L208.264 133.185L208.94 132.757L208.691 132.364L208.015 132.791ZM208.816 133.309L208.899 133.257L208.471 132.581L208.388 132.634L208.816 133.309ZM209.017 133.142L209.072 133.06L208.407 132.615L208.353 132.696L209.017 133.142ZM208.963 132.506L208.576 132.246L208.13 132.909L208.516 133.17L208.963 132.506ZM211.181 137.006L211.553 136.725L211.07 136.087L210.698 136.368L211.181 137.006ZM211.631 136.165L211.36 135.806L210.721 136.288L210.992 136.647L211.631 136.165ZM210.811 135.72L210.443 135.978L210.902 136.633L211.27 136.375L210.811 135.72ZM210.344 136.535L210.612 136.917L211.267 136.458L211 136.076L210.344 136.535ZM203.222 144.841L202.822 144.601L202.41 145.286L202.809 145.527L203.222 144.841ZM202.273 144.737L202.038 145.128L202.724 145.54L202.959 145.15L202.273 144.737ZM202.167 145.672L202.552 145.915L202.98 145.239L202.595 144.996L202.167 145.672ZM203.104 145.792L203.353 145.398L202.678 144.97L202.428 145.363L203.104 145.792ZM198.172 144.048L198.596 144.241L198.928 143.513L198.504 143.32L198.172 144.048ZM199.126 144.043L199.229 143.817L198.501 143.485L198.398 143.711L199.126 144.043ZM199.206 143.441L199.076 143.23L198.394 143.649L198.524 143.861L199.206 143.441ZM198.526 143.099L198.128 143.343L198.547 144.025L198.945 143.78L198.526 143.099ZM197.717 142.941L197.553 143.259L198.263 143.627L198.428 143.309L197.717 142.941ZM197.724 143.798L198.552 144.227L198.92 143.517L198.092 143.088L197.724 143.798ZM199.091 144.056L199.256 143.738L198.545 143.37L198.381 143.688L199.091 144.056ZM207.889 131.846C203.577 134.578 200.066 138.407 197.717 142.941L198.428 143.309C200.711 138.901 204.125 135.178 208.317 132.522L207.889 131.846ZM199.256 143.738C201.463 139.476 204.763 135.878 208.816 133.309L208.388 132.634C204.215 135.278 200.818 138.982 198.545 143.37L199.256 143.738ZM208.94 132.757L208.441 131.97L207.765 132.398L208.264 133.186L208.94 132.757ZM207.97 131.74C207.836 131.84 207.724 131.961 207.634 132.094L208.298 132.541C208.339 132.479 208.391 132.424 208.452 132.378L207.97 131.74ZM207.743 132.649L208.516 133.17L208.963 132.506L208.189 131.985L207.743 132.649ZM209.07 133.064C209.057 133.083 209.038 133.104 209.013 133.123L208.533 132.483C208.48 132.522 208.44 132.567 208.41 132.612L209.07 133.064ZM215.509 132.79C213.717 130.418 210.342 129.948 207.97 131.739L208.452 132.378C210.472 130.853 213.345 131.253 214.87 133.272L215.509 132.79ZM209.014 133.122C210.623 131.907 212.911 132.226 214.126 133.834L214.765 133.352C213.283 131.391 210.493 131.002 208.532 132.483L209.014 133.122ZM216.87 134.592L215.509 132.79L214.87 133.272L216.231 135.074L216.87 134.592ZM214.126 133.834L215.487 135.636L216.126 135.154L214.765 133.352L214.126 133.834ZM216.521 137.092C217.308 136.498 217.464 135.379 216.87 134.592L216.231 135.074C216.559 135.508 216.473 136.126 216.039 136.454L216.521 137.092ZM215.487 135.636C215.505 135.66 215.5 135.692 215.477 135.709L215.959 136.348C216.335 136.064 216.409 135.53 216.126 135.154L215.487 135.636ZM214.092 138.927L216.521 137.092L216.039 136.454L213.61 138.289L214.092 138.927ZM215.477 135.709L213.048 137.545L213.53 138.183L215.959 136.348L215.477 135.709ZM211.246 138.53C211.922 139.426 213.197 139.603 214.092 138.927L213.61 138.289C213.067 138.699 212.295 138.591 211.885 138.048L211.246 138.53ZM213.048 137.544C212.916 137.644 212.728 137.618 212.629 137.486L211.99 137.968C212.356 138.453 213.045 138.548 213.53 138.183L213.048 137.544ZM210.248 137.209L211.246 138.53L211.885 138.048L210.887 136.727L210.248 137.209ZM212.629 137.486L211.631 136.165L210.992 136.647L211.99 137.968L212.629 137.486ZM211.07 136.087L210.327 136.649L210.809 137.287L211.553 136.725L211.07 136.087ZM203.758 145.63C205.712 142.379 208.328 139.574 211.437 137.397L210.978 136.741C207.777 138.983 205.084 141.871 203.072 145.218L203.758 145.63ZM211.535 136.84L211 136.076L210.345 136.535L210.879 137.299L211.535 136.84ZM210.443 135.978C207.135 138.294 204.352 141.279 202.273 144.737L202.959 145.15C204.98 141.787 207.686 138.885 210.902 136.633L210.443 135.978ZM202.41 145.286L203.209 145.767L203.621 145.081L202.822 144.601L202.41 145.286ZM204.94 145.378L203.479 144.452L203.051 145.128L204.512 146.053L204.94 145.378ZM202.927 144.576L202.428 145.363L203.104 145.792L203.603 145.004L202.927 144.576ZM202.552 145.915L204.014 146.841L204.442 146.165L202.98 145.24L202.552 145.915ZM205.57 148.181C206.17 147.233 205.889 145.978 204.94 145.378L204.512 146.053C205.087 146.417 205.258 147.178 204.894 147.753L205.57 148.181ZM204.014 146.841C204.153 146.93 204.195 147.115 204.106 147.254L204.782 147.682C205.107 147.169 204.955 146.49 204.442 146.165L204.014 146.841ZM203.941 150.753L205.57 148.181L204.894 147.753L203.265 150.325L203.941 150.753ZM204.106 147.254L202.478 149.826L203.153 150.254L204.782 147.682L204.106 147.254ZM201.479 151.306C202.311 151.833 203.414 151.586 203.941 150.753L203.265 150.325C202.974 150.785 202.366 150.921 201.907 150.63L201.479 151.306ZM202.477 149.826C202.462 149.851 202.43 149.858 202.406 149.842L201.977 150.518C202.375 150.77 202.902 150.651 203.153 150.254L202.477 149.826ZM199.571 150.098L201.479 151.306L201.907 150.63L199.999 149.422L199.571 150.098ZM202.405 149.842L200.498 148.634L200.07 149.31L201.977 150.518L202.405 149.842ZM197.55 143.325C196.453 145.733 197.272 148.642 199.571 150.098L199.999 149.422C198.042 148.183 197.344 145.706 198.278 143.656L197.55 143.325ZM200.498 148.634C198.94 147.647 198.383 145.675 199.126 144.043L198.398 143.711C197.491 145.702 198.17 148.107 200.07 149.31L200.498 148.634ZM198.928 143.513L198.079 143.126L197.748 143.854L198.596 144.241L198.928 143.513ZM197.584 144.111L197.6 144.137L198.281 143.718L198.265 143.692L197.584 144.111ZM198.15 144.269L198.945 143.78L198.526 143.099L197.731 143.587L198.15 144.269ZM199.076 143.231L199.06 143.205L198.378 143.622L198.394 143.648L199.076 143.231ZM198.51 143.073L197.715 143.561L198.134 144.242L198.929 143.754L198.51 143.073Z" fill="#9E6DFF" mask="url(#path-35-outside-1_2133_6072)"/>
</g>
<path d="M141.748 65.9284C142.684 65.8815 143.387 64.7605 143.32 63.4245C143.253 62.0886 142.441 61.0436 141.506 61.0904C140.571 61.1373 139.867 62.2583 139.934 63.5943C140.001 64.9302 140.813 65.9753 141.748 65.9284Z" fill="#9E6DFF"/>
<path d="M126.611 66.4158C127.547 66.4158 128.306 65.3314 128.306 63.9938C128.306 62.6562 127.547 61.5718 126.611 61.5718C125.674 61.5718 124.915 62.6562 124.915 63.9938C124.915 65.3314 125.674 66.4158 126.611 66.4158Z" fill="#9E6DFF"/>
<path d="M132.181 66.1735C132.181 67.3773 133.374 68.3533 134.846 68.3533C136.317 68.3533 137.51 67.3773 137.51 66.1735C137.51 64.9696 136.317 63.9937 134.846 63.9937C133.374 63.9937 132.181 64.9696 132.181 66.1735Z" fill="#9E6DFF"/>
<path d="M121.03 33C120.82 41.1651 115.36 38.6702 112.655 36.4021C114.749 44.5672 109.864 43.468 107.159 41.8978C109.776 50.7955 103.496 49.2253 103.496 50.2721C107.892 55.5064 104.106 58.036 101.664 58.6468C107.317 63.2526 102.623 65.7998 99.5702 66.4977C104.386 70.8942 100.53 74.9593 98 76.4423C104.909 81.6763 101.925 84.7295 99.5702 85.6018C106.479 87.6954 105.066 91.3594 103.496 92.9296C108.52 90.6265 110.998 97.5528 111.608 101.304C119.983 99.2104 121.379 103.049 121.03 105.229C125.845 101.042 128.794 104.532 129.666 106.8C133.016 100.938 139.61 103.31 142.489 105.229C141.652 100.205 147.2 99.2975 150.078 99.4721C148.822 94.2381 154.091 92.9296 156.883 92.9296C152.905 89.3704 158.54 86.5614 161.855 85.6018C155.784 79.9492 160.372 77.1403 163.425 76.4423C156.935 75.3955 159.674 69.3764 161.855 66.4977C153.899 65.451 157.145 60.8275 159.762 58.6468C153.481 57.1811 156.098 53.4999 158.191 51.8426C152.957 52.8894 153.044 46.8701 153.742 43.7297C148.299 45.4046 147.461 40.415 147.723 37.7106C142.07 42.5259 139.785 36.5766 139.349 33C135.999 39.4901 131.498 35.7041 129.666 33C127.363 38.8622 122.949 35.4424 121.03 33Z" fill="url(#paint12_linear_2133_6072)" stroke="#9E6DFF" stroke-linecap="round" stroke-linejoin="round"/>
<path d="M121.291 92.4058C122.251 96.3312 124.798 102.141 127.311 93.976" stroke="#9E6DFF" stroke-linecap="round" stroke-linejoin="round"/>
<path d="M138.564 93.1909C138.825 96.9419 140.343 102.193 144.321 93.1909" stroke="#9E6DFF" stroke-linecap="round" stroke-linejoin="round"/>
<path d="M116.843 50.5339V46.6084L120.245 48.9637" stroke="#9E6DFF" stroke-linecap="round" stroke-linejoin="round"/>
<path d="M140.919 47.6551L144.059 45.5615L144.702 48.9636" stroke="#9E6DFF" stroke-linecap="round" stroke-linejoin="round"/>
<path d="M140.003 61.2603C141.014 61.2096 141.774 59.9984 141.702 58.5549C141.629 57.1113 140.752 55.9822 139.741 56.0328C138.731 56.0835 137.97 57.2947 138.043 58.7382C138.115 60.1818 138.993 61.3109 140.003 61.2603Z" fill="#9E6DFF"/>
<path d="M123.647 61.7868C124.659 61.7868 125.479 60.6151 125.479 59.1698C125.479 57.7244 124.659 56.5527 123.647 56.5527C122.635 56.5527 121.815 57.7244 121.815 59.1698C121.815 60.6151 122.635 61.7868 123.647 61.7868Z" fill="#9E6DFF"/>
<path d="M129.666 61.5252C129.666 62.826 130.955 63.8805 132.545 63.8805C134.134 63.8805 135.423 62.826 135.423 61.5252C135.423 60.2244 134.134 59.1699 132.545 59.1699C130.955 59.1699 129.666 60.2244 129.666 61.5252Z" fill="#9E6DFF"/>
<path d="M127.049 66.2361C128.793 67.1958 132.126 67.9632 132.545 63.3574C132.806 65.451 134.481 68.5914 138.04 64.4042" stroke="#9E6DFF" stroke-linecap="round" stroke-linejoin="round"/>
<path d="M133.063 114.135C143.812 114.135 152.527 112.883 152.527 111.338C152.527 109.793 143.812 108.541 133.063 108.541C122.313 108.541 113.598 109.793 113.598 111.338C113.598 112.883 122.313 114.135 133.063 114.135Z" fill="url(#paint13_linear_2133_6072)" fill-opacity="0.34"/>
<path d="M99.9155 146.565C100.851 146.518 101.554 145.397 101.488 144.061C101.421 142.725 100.608 141.68 99.673 141.727C98.7378 141.774 98.034 142.895 98.101 144.231C98.1679 145.566 98.9803 146.611 99.9155 146.565Z" fill="#9E6DFF"/>
<path d="M84.29 147.185C85.2263 147.185 85.9854 146.101 85.9854 144.763C85.9854 143.426 85.2263 142.341 84.29 142.341C83.3536 142.341 82.5946 143.426 82.5946 144.763C82.5946 146.101 83.3536 147.185 84.29 147.185Z" fill="#9E6DFF"/>
<path d="M89.8209 148.95C89.8209 150.154 91.0137 151.13 92.4851 151.13C93.9565 151.13 95.1494 150.154 95.1494 148.95C95.1494 147.746 93.9565 146.771 92.4851 146.771C91.0137 146.771 89.8209 147.746 89.8209 148.95Z" fill="#9E6DFF"/>
<path d="M81.6376 120C81.4225 128.381 75.8177 125.82 73.0419 123.492C75.1908 131.872 70.177 130.744 67.4012 129.133C70.0873 138.265 63.6407 136.654 63.6407 137.728C68.1533 143.1 64.2674 145.697 61.7605 146.324C67.5625 151.051 62.7455 153.665 59.6116 154.382C64.5541 158.894 60.5966 163.067 58 164.589C65.0913 169.961 62.0291 173.095 59.6116 173.99C66.7029 176.139 65.2524 179.9 63.6407 181.511C68.798 179.147 71.3409 186.257 71.9675 190.107C80.5632 187.958 81.9956 191.897 81.6376 194.136C86.5798 189.838 89.6063 193.419 90.5016 195.747C93.9397 189.731 100.709 192.166 103.663 194.136C102.804 188.978 108.498 188.047 111.453 188.226C110.164 182.854 115.572 181.511 118.437 181.511C114.354 177.858 120.138 174.975 123.54 173.99C117.309 168.188 122.018 165.305 125.152 164.589C118.49 163.514 121.302 157.336 123.54 154.382C115.375 153.307 118.705 148.562 121.392 146.324C114.945 144.819 117.631 141.041 119.78 139.34C114.408 140.414 114.497 134.236 115.214 131.013C109.626 132.732 108.767 127.611 109.035 124.835C103.234 129.777 100.888 123.671 100.44 120C97.0019 126.661 92.3818 122.776 90.5016 120C88.1379 126.017 83.6073 122.507 81.6376 120Z" fill="url(#paint14_linear_2133_6072)" stroke="#9E6DFF" stroke-linecap="round" stroke-linejoin="round"/>
<path d="M67.3069 164.466C68.2918 168.495 70.9063 174.459 73.4848 166.078" stroke="#9E6DFF" stroke-linecap="round" stroke-linejoin="round"/>
<path d="M108.412 148.697C108.671 144.99 110.17 139.801 114.1 148.697" stroke="#9E6DFF" stroke-linecap="round" stroke-linejoin="round"/>
<path d="M75.5796 130.751V126.722L79.0715 129.139" stroke="#9E6DFF" stroke-linecap="round" stroke-linejoin="round"/>
<path d="M104.339 129.905L107.562 127.756L108.221 131.248" stroke="#9E6DFF" stroke-linecap="round" stroke-linejoin="round"/>
<path d="M100.218 136.576C101.255 136.524 102.036 135.281 101.961 133.799C101.887 132.318 100.986 131.159 99.9491 131.211C98.9119 131.263 98.1314 132.506 98.2056 133.987C98.2799 135.469 99.1808 136.628 100.218 136.576Z" fill="#9E6DFF"/>
<path d="M82.8888 137.264C83.9273 137.264 84.7691 136.062 84.7691 134.578C84.7691 133.095 83.9273 131.892 82.8888 131.892C81.8504 131.892 81.0086 133.095 81.0086 134.578C81.0086 136.062 81.8504 137.264 82.8888 137.264Z" fill="#9E6DFF"/>
<path d="M89.0228 139.222C89.0228 140.557 90.3457 141.639 91.9775 141.639C93.6093 141.639 94.9322 140.557 94.9322 139.222C94.9322 137.887 93.6093 136.804 91.9775 136.804C90.3457 136.804 89.0228 137.887 89.0228 139.222Z" fill="#9E6DFF"/>
<path d="M91.9744 139.906V143.396M91.9744 143.396C91.1127 144.517 89.8152 147.533 91.9744 147.533C94.1933 147.533 92.8363 145.034 91.9744 143.396Z" stroke="#9E6DFF" stroke-linecap="round" stroke-linejoin="round"/>
<path d="M92.0355 205.98C102.785 205.98 111.5 204.727 111.5 203.183C111.5 201.638 102.785 200.385 92.0355 200.385C81.2855 200.385 72.571 201.638 72.571 203.183C72.571 204.727 81.2855 205.98 92.0355 205.98Z" fill="url(#paint15_linear_2133_6072)" fill-opacity="0.34"/>
<path d="M264.925 117.351C265.831 117.587 266.838 116.728 267.174 115.433C267.51 114.138 267.048 112.898 266.142 112.663C265.235 112.428 264.228 113.286 263.892 114.581C263.556 115.876 264.018 117.116 264.925 117.351Z" fill="#9E6DFF"/>
<path d="M247.396 113.791C248.31 113.998 249.289 113.108 249.585 111.803C249.88 110.499 249.379 109.274 248.466 109.067C247.553 108.86 246.573 109.75 246.278 111.055C245.982 112.359 246.483 113.584 247.396 113.791Z" fill="#9E6DFF"/>
<path d="M249.33 117.801C248.907 118.928 249.68 120.261 251.058 120.778C252.436 121.295 253.895 120.801 254.318 119.674C254.741 118.546 253.968 117.214 252.59 116.696C251.213 116.179 249.753 116.674 249.33 117.801Z" fill="#9E6DFF"/>
<path d="M259.141 80C258.922 88.5594 253.198 85.9441 250.362 83.5664C252.559 92.1258 247.436 90.9735 244.603 89.3275C247.347 98.655 240.761 97.0089 240.761 98.1063C245.369 103.593 241.401 106.245 238.841 106.885C244.767 111.714 239.847 114.384 236.646 115.116C241.694 119.724 237.652 123.986 235 125.54C242.243 131.027 239.115 134.228 236.646 135.142C243.888 137.337 242.407 141.178 240.761 142.824C246.029 140.41 248.624 147.67 249.266 151.603C258.045 149.408 259.508 153.432 259.141 155.718C264.19 151.328 267.282 154.986 268.195 157.364C271.707 151.219 278.619 153.706 281.637 155.718C280.761 150.45 286.575 149.499 289.593 149.682C288.278 144.196 293.799 142.824 296.727 142.824C292.556 139.093 298.465 136.148 301.939 135.142C295.573 129.217 300.384 126.272 303.584 125.54C296.78 124.443 299.653 118.133 301.939 115.116C293.598 114.018 297.002 109.171 299.745 106.885C293.16 105.349 295.904 101.49 298.098 99.7526C292.611 100.85 292.703 94.5399 293.435 91.2479C287.729 93.0037 286.85 87.7731 287.124 84.9381C281.199 89.986 278.802 83.7494 278.345 80C274.833 86.8035 270.115 82.8347 268.195 80C265.782 86.1453 261.153 82.5604 259.141 80Z" fill="url(#paint16_linear_2133_6072)" stroke="#9E6DFF" stroke-linecap="round" stroke-linejoin="round"/>
<path d="M250.314 137.032C251.32 141.147 253.99 147.238 256.625 138.678" stroke="#9E6DFF" stroke-linecap="round" stroke-linejoin="round"/>
<path d="M273.286 138.881C273.56 142.813 275.153 148.318 279.322 138.881" stroke="#9E6DFF" stroke-linecap="round" stroke-linejoin="round"/>
<path d="M252.691 91.2435V87.1284L256.258 89.5975" stroke="#9E6DFF" stroke-linecap="round" stroke-linejoin="round"/>
<path d="M281.273 96.7519L284.526 95.314L284.473 98.9408" stroke="#9E6DFF" stroke-linecap="round" stroke-linejoin="round"/>
<path d="M270.69 109.255C271.717 109.521 272.858 108.548 273.238 107.082C273.619 105.615 273.095 104.21 272.069 103.944C271.042 103.677 269.901 104.65 269.521 106.117C269.14 107.583 269.664 108.988 270.69 109.255Z" fill="#9E6DFF"/>
<path d="M250.836 105.222C251.87 105.456 252.98 104.448 253.315 102.971C253.649 101.493 253.082 100.105 252.048 99.8709C251.013 99.6367 249.903 100.645 249.569 102.122C249.234 103.6 249.802 104.988 250.836 105.222Z" fill="#9E6DFF"/>
<path d="M253.026 109.764C252.547 111.04 253.423 112.55 254.984 113.136C256.544 113.722 258.197 113.161 258.676 111.885C259.156 110.608 258.279 109.098 256.719 108.513C255.159 107.927 253.505 108.487 253.026 109.764Z" fill="#9E6DFF"/>
<path d="M254.671 111.949C254.275 113.577 254.407 116.86 258.104 116.965M258.104 116.965C261.8 117.071 264.308 116.129 265.101 115.645C265.278 116.701 265.206 118.919 263.516 119.342C261.827 119.764 259.205 117.934 258.104 116.965Z" stroke="#9E6DFF" stroke-linecap="round" stroke-linejoin="round"/>
<path d="M269.465 166.818C280.214 166.818 288.929 165.565 288.929 164.02C288.929 162.476 280.214 161.223 269.465 161.223C258.715 161.223 250 162.476 250 164.02C250 165.565 258.715 166.818 269.465 166.818Z" fill="url(#paint17_linear_2133_6072)" fill-opacity="0.34"/>
</g>
<defs>
<linearGradient id="paint0_linear_2133_6072" x1="5.2027" y1="47.8161" x2="236.061" y2="175.52" gradientUnits="userSpaceOnUse">
<stop stop-color="#E8AEFF"/>
<stop offset="1" stop-color="#A8F2FF"/>
</linearGradient>
<linearGradient id="paint1_linear_2133_6072" x1="156.841" y1="90.2416" x2="235.999" y2="175.74" gradientUnits="userSpaceOnUse">
<stop stop-color="#A8F2FF"/>
<stop offset="1" stop-color="#E8AEFF"/>
</linearGradient>
<linearGradient id="paint2_linear_2133_6072" x1="121.057" y1="96.3025" x2="351.916" y2="224.006" gradientUnits="userSpaceOnUse">
<stop stop-color="#E8AEFF"/>
<stop offset="1" stop-color="#A8F2FF"/>
</linearGradient>
<linearGradient id="paint3_linear_2133_6072" x1="272.697" y1="138.728" x2="351.853" y2="224.227" gradientUnits="userSpaceOnUse">
<stop stop-color="#A8F2FF"/>
<stop offset="1" stop-color="#E8AEFF"/>
</linearGradient>
<linearGradient id="paint4_linear_2133_6072" x1="-26.7331" y1="129.637" x2="204.125" y2="257.341" gradientUnits="userSpaceOnUse">
<stop stop-color="#E8AEFF"/>
<stop offset="1" stop-color="#A8F2FF"/>
</linearGradient>
<linearGradient id="paint5_linear_2133_6072" x1="124.906" y1="172.062" x2="204.063" y2="257.562" gradientUnits="userSpaceOnUse">
<stop stop-color="#A8F2FF"/>
<stop offset="1" stop-color="#E8AEFF"/>
</linearGradient>
<linearGradient id="paint6_linear_2133_6072" x1="316.449" y1="162.553" x2="320.957" y2="187.445" gradientUnits="userSpaceOnUse">
<stop stop-color="#F1E36F"/>
<stop offset="1" stop-color="#9E6DFF"/>
</linearGradient>
<linearGradient id="paint7_linear_2133_6072" x1="177.982" y1="81.6653" x2="182.491" y2="106.557" gradientUnits="userSpaceOnUse">
<stop stop-color="#F1E36F"/>
<stop offset="1" stop-color="#9E6DFF"/>
</linearGradient>
<linearGradient id="paint8_linear_2133_6072" x1="43.8495" y1="186.185" x2="36.2776" y2="210.322" gradientUnits="userSpaceOnUse">
<stop stop-color="#F1E36F"/>
<stop offset="1" stop-color="#9E6DFF"/>
</linearGradient>
<linearGradient id="paint9_linear_2133_6072" x1="55.7834" y1="116.091" x2="48.0946" y2="141.875" gradientUnits="userSpaceOnUse">
<stop stop-color="#F1E36F"/>
<stop offset="1" stop-color="#A8F2FF"/>
</linearGradient>
<linearGradient id="paint10_linear_2133_6072" x1="150.908" y1="163.179" x2="143.22" y2="188.963" gradientUnits="userSpaceOnUse">
<stop stop-color="#F1E36F"/>
<stop offset="1" stop-color="#A8F2FF"/>
</linearGradient>
<linearGradient id="paint11_linear_2133_6072" x1="214.996" y1="130.311" x2="207.307" y2="156.095" gradientUnits="userSpaceOnUse">
<stop stop-color="#F1E36F"/>
<stop offset="1" stop-color="#A8F2FF"/>
</linearGradient>
<linearGradient id="paint12_linear_2133_6072" x1="130.713" y1="33" x2="217.641" y2="234.501" gradientUnits="userSpaceOnUse">
<stop stop-color="white"/>
<stop offset="1" stop-color="#FFFBD5"/>
</linearGradient>
<linearGradient id="paint13_linear_2133_6072" x1="113.598" y1="111.338" x2="152.527" y2="111.338" gradientUnits="userSpaceOnUse">
<stop stop-color="#E8AEFF"/>
</linearGradient>
<linearGradient id="paint14_linear_2133_6072" x1="91.576" y1="120" x2="180.799" y2="326.819" gradientUnits="userSpaceOnUse">
<stop stop-color="white"/>
<stop offset="1" stop-color="#FFFBD5"/>
</linearGradient>
<linearGradient id="paint15_linear_2133_6072" x1="72.571" y1="203.183" x2="111.5" y2="203.183" gradientUnits="userSpaceOnUse">
<stop stop-color="#E8AEFF"/>
</linearGradient>
<linearGradient id="paint16_linear_2133_6072" x1="269.294" y1="80" x2="360.419" y2="291.232" gradientUnits="userSpaceOnUse">
<stop stop-color="white"/>
<stop offset="1" stop-color="#FFFBD5"/>
</linearGradient>
<linearGradient id="paint17_linear_2133_6072" x1="250" y1="164.02" x2="288.929" y2="164.02" gradientUnits="userSpaceOnUse">
<stop stop-color="#E8AEFF"/>
</linearGradient>
<clipPath id="clip0_2133_6072">
<rect width="360" height="270" fill="white"/>
</clipPath>
</defs>
</svg>
