<svg width="363" height="307" viewBox="0 0 363 307" fill="none" xmlns="http://www.w3.org/2000/svg">
<path d="M356.685 221.47C356.685 223.365 355.738 225.218 353.921 226.956C352.103 228.695 349.445 230.284 346.12 231.629C339.473 234.318 330.255 235.992 320.047 235.992C309.84 235.992 300.622 234.318 293.975 231.629C290.649 230.284 287.992 228.695 286.174 226.956C284.357 225.218 283.41 223.365 283.41 221.47V210.702C285.838 210.683 290.233 210.539 295.741 210.359C302.097 210.152 309.937 209.896 317.949 209.727C333.174 209.407 349.008 209.403 356.685 210.624V221.47Z" fill="#FFA2F9" stroke="black"/>
<path fill-rule="evenodd" clip-rule="evenodd" d="M336.322 234.977V214.79H353.013V228.395C349.343 231.247 343.477 233.563 336.322 234.977Z" fill="black"/>
<path d="M356.685 210.616C356.685 212.511 355.738 214.365 353.921 216.102C352.103 217.841 349.445 219.43 346.12 220.775C339.473 223.464 330.255 225.138 320.047 225.138C309.84 225.138 300.622 223.464 293.975 220.775C290.649 219.43 287.992 217.841 286.174 216.102C284.357 214.365 283.41 212.511 283.41 210.616C283.41 208.722 284.357 206.868 286.174 205.13C287.992 203.392 290.649 201.803 293.975 200.458C300.622 197.769 309.84 196.094 320.047 196.094C330.255 196.094 339.473 197.769 346.12 200.458C349.445 201.803 352.103 203.392 353.921 205.13C355.738 206.868 356.685 208.722 356.685 210.616Z" fill="white" stroke="black"/>
<path d="M356.685 211.455C356.685 213.35 355.738 215.204 353.921 216.941C352.103 218.68 349.446 220.269 346.12 221.614C339.473 224.303 330.255 225.977 320.048 225.977C309.84 225.977 300.622 224.303 293.975 221.614C290.65 220.269 287.992 218.68 286.174 216.941C284.357 215.204 283.41 213.35 283.41 211.455V200.687C285.838 200.668 290.233 200.525 295.741 200.345C302.098 200.137 309.937 199.881 317.949 199.712C333.174 199.392 349.008 199.388 356.685 200.609V211.455Z" fill="#FFA2F9" stroke="black"/>
<path fill-rule="evenodd" clip-rule="evenodd" d="M342.163 223.525C339.19 224.418 335.875 225.135 332.313 225.639H325.472V208.948H342.163V223.525Z" fill="black"/>
<path d="M356.685 200.602C356.685 202.496 355.738 204.35 353.921 206.087C352.103 207.826 349.446 209.415 346.12 210.76C339.473 213.449 330.255 215.124 320.048 215.124C309.84 215.124 300.622 213.449 293.975 210.76C290.65 209.415 287.992 207.826 286.174 206.087C284.357 204.35 283.41 202.496 283.41 200.602C283.41 198.707 284.357 196.853 286.174 195.116C287.992 193.377 290.65 191.788 293.975 190.443C300.622 187.754 309.84 186.08 320.048 186.08C330.255 186.08 339.473 187.754 346.12 190.443C349.446 191.788 352.103 193.377 353.921 195.116C355.738 196.853 356.685 198.707 356.685 200.602Z" fill="white" stroke="black"/>
<path d="M356.685 201.441C356.685 203.336 355.738 205.19 353.921 206.927C352.103 208.666 349.446 210.255 346.12 211.6C339.473 214.289 330.255 215.963 320.048 215.963C309.84 215.963 300.622 214.289 293.975 211.6C290.65 210.255 287.992 208.666 286.174 206.927C284.357 205.19 283.41 203.336 283.41 201.441V190.673C285.838 190.654 290.233 190.51 295.741 190.331C302.098 190.123 309.937 189.867 317.949 189.698C333.174 189.378 349.008 189.374 356.685 190.595V201.441Z" fill="#FFA2F9" stroke="black"/>
<path fill-rule="evenodd" clip-rule="evenodd" d="M334.653 215.257V198.934H351.344V209.532C347.348 212.057 341.535 214.065 334.653 215.257ZM322.135 198.934H330.48V215.625H322.135V198.934Z" fill="black"/>
<path d="M356.685 190.587C356.685 192.482 355.738 194.336 353.921 196.073C352.103 197.812 349.446 199.401 346.12 200.746C339.473 203.435 330.255 205.109 320.048 205.109C309.84 205.109 300.622 203.435 293.975 200.746C290.65 199.401 287.992 197.812 286.174 196.073C284.357 194.336 283.41 192.482 283.41 190.587C283.41 188.693 284.357 186.839 286.174 185.102C287.992 183.363 290.65 181.774 293.975 180.429C300.622 177.74 309.84 176.065 320.048 176.065C330.255 176.065 339.473 177.74 346.12 180.429C349.446 181.774 352.103 183.363 353.921 185.102C355.738 186.839 356.685 188.693 356.685 190.587Z" fill="white" stroke="black"/>
<path d="M348.34 190.591C348.34 192.486 347.393 194.34 345.576 196.077C343.757 197.816 341.1 199.405 337.775 200.75C331.127 203.439 321.909 205.113 311.702 205.113C301.495 205.113 292.277 203.439 285.629 200.75C282.304 199.405 279.646 197.816 277.828 196.077C276.011 194.34 275.064 192.486 275.064 190.591V179.823C277.493 179.804 281.887 179.66 287.396 179.48C293.752 179.273 301.591 179.017 309.603 178.848C324.829 178.528 340.662 178.524 348.34 179.745V190.591Z" fill="#FFA2F9" stroke="black"/>
<path fill-rule="evenodd" clip-rule="evenodd" d="M326.306 204.407V188.084H342.998V198.683C339.001 201.207 333.189 203.216 326.306 204.407ZM313.788 188.084H322.133V204.775H313.788V188.084Z" fill="black"/>
<path d="M348.34 179.737C348.34 181.632 347.393 183.486 345.576 185.223C343.757 186.962 341.1 188.551 337.775 189.896C331.127 192.585 321.909 194.259 311.702 194.259C301.495 194.259 292.277 192.585 285.629 189.896C282.304 188.551 279.646 186.962 277.828 185.223C276.011 183.486 275.064 181.632 275.064 179.737C275.064 177.843 276.011 175.989 277.828 174.251C279.646 172.513 282.304 170.924 285.629 169.579C292.277 166.89 301.495 165.215 311.702 165.215C321.909 165.215 331.127 166.89 337.775 169.579C341.1 170.924 343.757 172.513 345.576 174.251C347.393 175.989 348.34 177.843 348.34 179.737Z" fill="white" stroke="black"/>
<path d="M277.922 173.338C279.513 174.366 280.556 176.168 281.029 178.637C281.503 181.108 281.395 184.202 280.719 187.725C279.369 194.768 275.772 203.418 270.231 211.991C264.691 220.564 258.281 227.397 252.414 231.52C249.48 233.583 246.703 234.952 244.256 235.535C241.81 236.118 239.739 235.907 238.148 234.879L229.104 229.034C230.406 226.984 232.671 223.215 235.51 218.491C238.786 213.04 242.826 206.317 247.033 199.497C255.029 186.536 263.62 173.236 268.813 167.45L277.922 173.338Z" fill="#FFA2F9" stroke="black"/>
<path fill-rule="evenodd" clip-rule="evenodd" d="M277.565 199.343L263.856 190.483L272.916 176.465L281.818 182.218C281.768 186.945 280.3 192.917 277.565 199.343ZM257.061 200.996L261.591 193.987L275.609 203.047L271.079 210.056L257.061 200.996Z" fill="black"/>
<path d="M268.807 167.447C270.398 168.475 271.441 170.277 271.914 172.746C272.388 175.217 272.28 178.312 271.604 181.834C270.254 188.877 266.657 197.527 261.116 206.1C255.576 214.673 249.166 221.506 243.299 225.629C240.365 227.692 237.588 229.061 235.14 229.644C232.695 230.227 230.624 230.016 229.033 228.988C227.442 227.96 226.399 226.158 225.926 223.689C225.452 221.218 225.56 218.123 226.236 214.601C227.586 207.558 231.183 198.908 236.724 190.335C242.264 181.762 248.674 174.929 254.541 170.806C257.475 168.743 260.252 167.374 262.699 166.791C265.145 166.208 267.216 166.419 268.807 167.447Z" fill="white" stroke="black"/>
<path d="M359.19 177.237C359.19 179.132 358.242 180.986 356.425 182.723C354.607 184.462 351.95 186.051 348.625 187.396C341.977 190.085 332.759 191.759 322.552 191.759C312.344 191.759 303.126 190.085 296.479 187.396C293.154 186.051 290.496 184.462 288.678 182.723C286.861 180.986 285.914 179.132 285.914 177.237V166.469C288.342 166.45 292.737 166.306 298.245 166.126C304.602 165.919 312.441 165.663 320.453 165.494C335.679 165.174 351.512 165.17 359.19 166.391V177.237Z" fill="#FFA2F9" stroke="black"/>
<path fill-rule="evenodd" clip-rule="evenodd" d="M337.156 191.053V174.73H353.847V185.329C349.851 187.853 344.039 189.862 337.156 191.053Z" fill="black"/>
<path d="M359.19 166.383C359.19 168.278 358.242 170.132 356.425 171.869C354.607 173.608 351.95 175.197 348.625 176.542C341.977 179.231 332.759 180.905 322.552 180.905C312.344 180.905 303.126 179.231 296.479 176.542C293.154 175.197 290.496 173.608 288.678 171.869C286.861 170.132 285.914 168.278 285.914 166.383C285.914 164.489 286.861 162.635 288.678 160.897C290.496 159.159 293.154 157.57 296.479 156.225C303.126 153.536 312.344 151.861 322.552 151.861C332.759 151.861 341.977 153.536 348.625 156.225C351.95 157.57 354.607 159.159 356.425 160.897C358.242 162.635 359.19 164.489 359.19 166.383Z" fill="white" stroke="black"/>
<path d="M355.661 136.125L356.141 136.265L356.281 135.786L359.437 124.97C360.068 122.806 359.57 120.476 358.226 118.149C356.883 115.824 354.675 113.463 351.8 111.194C346.048 106.653 337.544 102.413 327.653 99.5271C317.763 96.6412 308.313 95.6428 301.022 96.3779C297.377 96.7453 294.246 97.5483 291.864 98.7862C289.48 100.025 287.806 101.722 287.175 103.886L284.018 114.705L283.9 115.11L284.278 115.295C291.232 118.687 306.829 123.234 321.771 127.254C329.548 129.347 337.152 131.298 343.305 132.877C349.009 134.341 353.466 135.485 355.661 136.125Z" fill="#FFA2F9" stroke="black"/>
<path fill-rule="evenodd" clip-rule="evenodd" d="M341.6 105.455C346.244 107.765 350.18 110.339 353.145 112.97L344.014 129.653L331.965 123.058L341.6 105.455Z" fill="white"/>
<path d="M324.613 109.947C314.722 107.061 305.273 106.063 297.981 106.798C294.337 107.166 291.206 107.969 288.823 109.206C286.439 110.445 284.766 112.142 284.134 114.306C283.503 116.469 284.001 118.8 285.345 121.127C286.688 123.451 288.896 125.812 291.771 128.082C297.523 132.623 306.027 136.863 315.918 139.749C325.809 142.635 335.258 143.633 342.55 142.898C346.194 142.531 349.325 141.727 351.708 140.49C354.092 139.251 355.765 137.554 356.397 135.39C357.028 133.227 356.529 130.896 355.186 128.569C353.843 126.245 351.635 123.884 348.76 121.614C343.008 117.073 334.504 112.833 324.613 109.947Z" fill="black" stroke="black"/>
<path d="M305.8 134.706C298.357 141.826 289.629 146.161 281.552 147.433C273.483 148.703 266.115 146.913 261.271 141.864L255.196 133.953L255.379 133.801C255.738 133.5 256.267 133.057 256.942 132.491C258.293 131.36 260.231 129.735 262.582 127.761C267.284 123.813 273.636 118.471 280.236 112.89C293.063 102.045 306.852 90.2829 311.274 86.1306L315.1 89.9554C319.938 95.0156 321.361 102.601 319.685 110.761C318.009 118.917 313.242 127.587 305.8 134.706Z" fill="#FFA2F9" stroke="black"/>
<path d="M299.986 127.155C292.543 134.275 283.814 138.61 275.737 139.881C267.658 141.153 260.282 139.357 255.438 134.293C250.594 129.23 249.126 121.781 250.755 113.766C252.382 105.754 257.1 97.2257 264.543 90.1052C271.987 82.9847 280.715 78.6495 288.792 77.3782C296.871 76.1066 304.247 77.9028 309.091 82.9664C313.936 88.0301 315.403 95.4787 313.775 103.494C312.147 111.506 307.429 120.034 299.986 127.155Z" fill="white" stroke="black"/>
<path d="M272.895 94.6765C282.085 85.8846 294.486 83.9327 300.594 90.3167" stroke="black"/>
<path d="M287.288 115.421L267.554 122.508L272.006 102.547L272.81 111.223L287.288 115.421Z" fill="white"/>
<path d="M272.236 111.958L271.834 107.62L271.425 107.538L268.458 120.135L272.236 111.958Z" fill="#FFA2F9"/>
<path d="M285.668 115.472L268.24 121.73L271.802 105.76L272.313 111.269L272.344 111.609L272.671 111.703L285.668 115.472Z" stroke="black" stroke-linecap="round"/>
<path d="M272.576 103.266L275.038 104.091L275.049 104.095L275.06 104.098L285.231 106.977L286.651 114.716L273.277 110.838L272.576 103.266Z" fill="black" stroke="black" stroke-linecap="round"/>
<path d="M276.251 108.938L274.303 99.6058L290.273 92.1854L289.01 113.215L276.251 108.938Z" fill="white"/>
<path d="M276.742 108.611L289.207 93.2464L275.12 99.7698L276.742 108.611Z" fill="#FFA2F9" stroke="black" stroke-linecap="round"/>
<path d="M288.55 112.533L276.682 108.555L274.873 99.8921L289.723 92.992L288.55 112.533Z" stroke="black" stroke-linecap="round"/>
<path d="M157.928 39.0913L159.022 34.2049L208.639 26.499L186.79 19.0416L188.292 14.2464L242.546 22.1173L241.951 26.6877L226.422 57.8473L210.997 52.2558L212 47.7766L217.312 37.4204L165.063 49.2409L157.928 39.0913Z" fill="black" stroke="black"/>
<path d="M166.655 44.0381L159.022 34.2045L212.991 22.3416L188.699 14.3372L192.741 5.8347L242.139 22.0258L227.2 52.4622L213.313 47.6425L221.123 31.8591L166.655 44.0381Z" fill="#FFA1F9" stroke="black"/>
<path d="M229 266.121L228.303 269.385L179.061 280.219L199.527 286.289L198.89 291.274L195.11 299.001L145.636 282.906L146.011 279.146L160.96 249.054L174.575 253.237L174.26 258.716L168.879 269.942L221.179 256.773L229 266.121Z" fill="black" stroke="black"/>
<path d="M221.267 256.365L229 266.121L175.155 278.533L199.527 286.289L195.572 294.833L146.011 279.146L160.639 248.559L174.575 253.237L166.926 269.099L221.267 256.365Z" fill="white" stroke="black"/>
<path d="M22.956 259.622L28.0371 264.703C28.3248 264.99 28.7843 265.011 29.0969 264.751L29.5454 264.377C31.8678 262.442 33.8601 260.142 35.4445 257.567L36.3125 256.157C38.118 253.223 39.1813 249.893 39.4105 246.456L40.0971 236.156C40.3687 232.082 37.7325 228.382 33.794 227.308C32.8066 227.038 31.779 226.948 30.7598 227.04L30.5971 227.055C26.6531 227.414 23.347 230.185 22.305 234.006L22.1488 234.579C21.907 235.465 21.7844 236.38 21.7844 237.299V256.793C21.7844 257.854 22.2058 258.871 22.956 259.622Z" fill="black" stroke="black"/>
<path d="M21.0864 138.782C21.2426 145.038 21.033 168.31 21.033 168.31L153.992 133.756V80.1319C153.992 78.592 152.325 77.6298 150.991 78.4002L87.8859 114.861C87.2192 115.246 86.3856 114.765 86.3856 113.995V104.126C86.3856 102.596 84.7374 101.633 83.4041 102.383L22.1512 136.882C21.4698 137.266 21.0669 138 21.0864 138.782Z" fill="black" stroke="black"/>
<path d="M0.5 171.763C0.5 169.802 1.54379 167.99 3.23967 167.006L118.69 100.016C119.729 99.4133 121.02 100.216 120.939 101.415L116.753 163.507C116.721 163.984 116.464 164.417 116.061 164.673L2.80374 236.547C1.80507 237.181 0.5 236.463 0.5 235.281V171.763Z" fill="#A2BAA5" stroke="black"/>
<path d="M6.50854 174.769C6.50854 172.808 7.55233 170.996 9.24822 170.012L124.699 103.022C125.738 102.419 127.029 103.222 126.948 104.42L122.762 166.513C122.73 166.99 122.472 167.423 122.069 167.679L8.81228 239.553C7.81361 240.187 6.50854 239.469 6.50854 238.287V174.769Z" fill="#A2BAA5" stroke="black"/>
<path d="M25.5395 180.326L6.76001 189.669V208.871L26.2907 196.101L25.5395 180.326Z" fill="white" stroke="black"/>
<path d="M15.5237 177.771C15.5237 175.81 16.5675 173.998 18.2634 173.014L133.714 106.024C134.753 105.421 136.044 106.224 135.963 107.422L131.777 169.515C131.745 169.992 131.488 170.424 131.084 170.68L17.8274 242.555C16.8287 243.189 15.5237 242.471 15.5237 241.288V177.771Z" fill="#A2BAA5" stroke="black"/>
<path d="M33.8032 192.345L15.7749 202.11V220.138L34.5544 208.12L33.8032 192.345Z" fill="white" stroke="black"/>
<path d="M160.096 97.2291L33.3056 169.989C32.6842 170.346 32.3011 171.008 32.3011 171.724V253.947L32.4685 255.621C32.8335 259.272 31.3638 262.866 28.5452 265.215L162.832 191.834C164.787 190.766 165.989 188.702 165.954 186.474L164.589 99.7838C164.553 97.4991 162.078 96.0918 160.096 97.2291Z" fill="#FFA2F9" stroke="black"/>
<path d="M119.339 180.993C118.555 187.915 115.949 193.945 112.395 198.1C108.84 202.258 104.377 204.499 99.8508 203.987C95.3246 203.474 91.4762 200.292 88.9401 195.444C86.4056 190.6 85.2138 184.14 85.9976 177.218C86.7815 170.296 89.3874 164.266 92.941 160.111C96.4969 155.953 100.959 153.712 105.486 154.224C110.012 154.737 113.86 157.919 116.396 162.767C118.931 167.612 120.123 174.071 119.339 180.993Z" fill="black" stroke="black"/>
<path d="M123.848 182.218C123.064 189.14 120.458 195.17 116.905 199.325C113.349 203.483 108.886 205.724 104.36 205.212C99.8339 204.699 95.9854 201.517 93.4493 196.669C90.9148 191.825 89.7231 185.365 90.5069 178.443C91.2907 171.521 93.8967 165.491 97.4503 161.336C101.006 157.178 105.469 154.937 109.995 155.45C114.521 155.962 118.37 159.144 120.906 163.992C123.44 168.837 124.632 175.296 123.848 182.218Z" fill="white" stroke="black"/>
<path d="M168.919 150.946C168.135 157.868 165.529 163.898 161.976 168.053C158.42 172.211 153.957 174.452 149.431 173.939C144.905 173.427 141.056 170.244 138.52 165.397C135.986 160.552 134.794 154.093 135.578 147.171C136.362 140.248 138.968 134.219 142.521 130.064C146.077 125.906 150.54 123.665 155.066 124.177C159.592 124.69 163.44 127.872 165.976 132.72C168.511 137.564 169.703 144.024 168.919 150.946Z" fill="black" stroke="black"/>
<path d="M173.428 152.171C172.644 159.093 170.038 165.123 166.485 169.278C162.929 173.436 158.466 175.677 153.94 175.164C149.414 174.652 145.566 171.47 143.029 166.622C140.495 161.777 139.303 155.318 140.087 148.396C140.871 141.474 143.477 135.444 147.03 131.289C150.586 127.131 155.049 124.89 159.575 125.402C164.101 125.915 167.95 129.097 170.486 133.945C173.02 138.789 174.212 145.249 173.428 152.171Z" fill="white" stroke="black"/>
<path d="M109.467 200.714V161.623H111.972V200.714H109.467ZM117.301 173.748C117.138 172.302 116.466 171.182 115.285 170.388C114.104 169.584 112.618 169.182 110.826 169.182C109.544 169.182 108.434 169.386 107.498 169.793C106.561 170.19 105.833 170.739 105.314 171.442C104.805 172.134 104.55 172.923 104.55 173.809C104.55 174.552 104.723 175.193 105.07 175.733C105.426 176.272 105.889 176.725 106.459 177.092C107.039 177.448 107.66 177.748 108.322 177.993C108.984 178.227 109.62 178.42 110.231 178.573L113.285 179.367C114.282 179.611 115.306 179.942 116.354 180.36C117.403 180.777 118.375 181.327 119.271 182.009C120.166 182.691 120.889 183.536 121.439 184.543C121.999 185.551 122.279 186.758 122.279 188.162C122.279 189.934 121.821 191.507 120.904 192.881C119.998 194.255 118.68 195.339 116.95 196.133C115.229 196.927 113.147 197.324 110.704 197.324C108.363 197.324 106.337 196.953 104.627 196.21C102.917 195.467 101.578 194.413 100.611 193.049C99.6437 191.674 99.1093 190.046 99.0075 188.162H103.741C103.833 189.292 104.199 190.234 104.841 190.987C105.492 191.73 106.322 192.285 107.33 192.652C108.348 193.008 109.462 193.186 110.674 193.186C112.007 193.186 113.193 192.978 114.232 192.56C115.28 192.133 116.105 191.542 116.705 190.789C117.306 190.025 117.606 189.135 117.606 188.117C117.606 187.19 117.342 186.432 116.812 185.841C116.293 185.251 115.585 184.762 114.69 184.375C113.804 183.989 112.801 183.648 111.681 183.352L107.986 182.345C105.482 181.663 103.497 180.66 102.031 179.336C100.575 178.013 99.8473 176.262 99.8473 174.084C99.8473 172.282 100.336 170.709 101.313 169.365C102.29 168.021 103.614 166.978 105.283 166.235C106.953 165.482 108.836 165.105 110.933 165.105C113.051 165.105 114.919 165.476 116.537 166.22C118.166 166.963 119.449 167.986 120.385 169.289C121.322 170.582 121.81 172.068 121.851 173.748H117.301Z" fill="black"/>
<path d="M157.774 169.63V135.993H159.929V169.63H157.774ZM164.515 146.426C164.375 145.182 163.797 144.219 162.781 143.535C161.764 142.843 160.486 142.497 158.944 142.497C157.84 142.497 156.885 142.672 156.08 143.023C155.274 143.364 154.647 143.837 154.201 144.442C153.763 145.038 153.544 145.716 153.544 146.478C153.544 147.118 153.693 147.67 153.99 148.134C154.297 148.598 154.696 148.988 155.186 149.303C155.685 149.61 156.22 149.868 156.789 150.079C157.358 150.28 157.906 150.447 158.431 150.578L161.059 151.261C161.918 151.471 162.798 151.756 163.7 152.115C164.602 152.474 165.439 152.947 166.21 153.534C166.981 154.121 167.603 154.848 168.076 155.715C168.557 156.583 168.798 157.621 168.798 158.829C168.798 160.353 168.404 161.707 167.616 162.889C166.836 164.072 165.702 165.005 164.213 165.688C162.732 166.371 160.941 166.713 158.839 166.713C156.824 166.713 155.081 166.393 153.609 165.754C152.138 165.114 150.986 164.208 150.154 163.034C149.322 161.851 148.862 160.45 148.774 158.829H152.847C152.926 159.802 153.241 160.612 153.793 161.26C154.354 161.9 155.068 162.377 155.935 162.692C156.811 162.999 157.77 163.152 158.812 163.152C159.96 163.152 160.98 162.973 161.874 162.613C162.776 162.246 163.486 161.737 164.002 161.089C164.519 160.432 164.778 159.666 164.778 158.79C164.778 157.993 164.55 157.34 164.094 156.832C163.648 156.324 163.039 155.904 162.268 155.571C161.506 155.238 160.643 154.944 159.68 154.69L156.5 153.823C154.345 153.236 152.637 152.374 151.376 151.235C150.123 150.096 149.497 148.59 149.497 146.715C149.497 145.165 149.917 143.811 150.758 142.655C151.599 141.499 152.738 140.601 154.174 139.961C155.611 139.313 157.231 138.989 159.036 138.989C160.858 138.989 162.465 139.309 163.858 139.948C165.259 140.588 166.363 141.468 167.169 142.589C167.975 143.702 168.395 144.981 168.43 146.426H164.515Z" fill="black"/>
</svg>
