<svg width="360" height="270" viewBox="0 0 360 270" fill="none" xmlns="http://www.w3.org/2000/svg">
<g clip-path="url(#clip0_2133_6201)">
<rect width="360" height="270" fill="white"/>
<path d="M356.596 126.63C356.596 129.409 354.91 132.094 351.775 134.567C348.644 137.041 344.096 139.279 338.457 141.162C327.182 144.927 311.59 147.26 294.357 147.26C277.123 147.26 261.531 144.927 250.255 141.162C244.616 139.279 240.069 137.041 236.937 134.567C233.803 132.094 232.117 129.409 232.117 126.63C232.117 123.851 233.803 121.166 236.937 118.693C240.069 116.219 244.616 113.982 250.255 112.098C261.531 108.333 277.123 106 294.357 106C311.59 106 327.182 108.333 338.457 112.098C344.096 113.982 348.644 116.219 351.775 118.693C354.91 121.166 356.596 123.851 356.596 126.63Z" fill="url(#paint0_radial_2133_6201)" stroke="#9E6DFF"/>
<path d="M338.413 126.631C338.413 128.573 337.241 130.461 335.031 132.209C332.825 133.957 329.618 135.542 325.635 136.876C317.67 139.545 306.653 141.2 294.473 141.2C282.293 141.2 271.276 139.545 263.311 136.876C259.328 135.542 256.121 133.957 253.915 132.209C251.707 130.461 250.532 128.573 250.532 126.631C250.532 124.689 251.707 122.801 253.915 121.052C256.121 119.304 259.328 117.719 263.311 116.386C271.276 113.717 282.293 112.062 294.473 112.062C306.653 112.062 317.67 113.717 325.635 116.386C329.618 117.719 332.825 119.304 335.031 121.052C337.241 122.801 338.413 124.689 338.413 126.631Z" fill="url(#paint1_radial_2133_6201)" stroke="#9E6DFF"/>
<path d="M332.819 131.059C332.819 132.367 331.828 133.67 329.887 134.901C327.957 136.122 325.149 137.234 321.658 138.169C314.681 140.038 305.028 141.199 294.357 141.199C283.685 141.199 274.033 140.038 267.055 138.169C263.564 137.234 260.756 136.122 258.826 134.901C256.885 133.67 255.894 132.367 255.894 131.059C255.894 129.751 256.885 128.448 258.826 127.218C260.756 125.996 263.564 124.884 267.055 123.949C274.033 122.08 283.685 120.919 294.357 120.919C305.028 120.919 314.681 122.08 321.658 123.949C325.149 124.884 327.957 125.996 329.887 127.218C331.828 128.448 332.819 129.751 332.819 131.059Z" stroke="#9E6DFF"/>
<path d="M300.417 141.083C299.718 130.633 305.913 111.988 320.832 108.258" stroke="#9E6DFF" stroke-linecap="round" stroke-linejoin="round"/>
<path d="M294.186 141.083C293.487 130.633 294.186 116.374 294.186 106.233" stroke="#9E6DFF"/>
<path d="M310.001 140.011C309.302 129.56 319.765 112.177 344.241 114.275" stroke="#9E6DFF"/>
<path d="M321.98 137.703C321.429 127.241 340.511 117.656 356.596 125.465" stroke="#9E6DFF"/>
<path d="M289.928 141.316C290.627 130.866 284.1 111.362 269.181 107.632" stroke="#9E6DFF"/>
<path d="M252.397 141.783C255.039 140.228 261.838 137.587 271.162 138.985M275.475 146.445L279.088 140.384" stroke="#9E6DFF"/>
<path d="M280.344 140.244C281.043 129.794 268.715 112.295 244.238 114.393" stroke="#9E6DFF"/>
<path d="M268.249 138.286C268.8 127.824 248.084 118.589 232 126.398" stroke="#9E6DFF"/>
<path d="M238.993 135.838C242.451 134.206 251.628 132.155 261.139 136.071M294.007 141.083V147.493" stroke="#9E6DFF"/>
<path d="M336.898 141.783C334.257 140.228 327.225 137.652 317.9 139.051M312.888 146.561L309.975 140.449" stroke="#9E6DFF"/>
<path d="M350.069 135.904C346.612 134.272 337.317 131.987 327.807 135.904" stroke="#9E6DFF" stroke-width="0.466216"/>
<path d="M234.161 190.795H236.35C253.279 190.795 267 201.81 267 215.397C267 228.986 253.279 240 236.35 240H100.89C74.441 240 53 222.789 53 201.559V158.504C53 137.274 74.441 120.063 100.89 120.063H186.818C217.802 120.063 242.918 99.9014 242.918 75.0314C242.918 50.1613 217.802 30 186.818 30H134.55" stroke="#9E6DFF" stroke-linecap="round" stroke-linejoin="round" stroke-dasharray="2.5 2.5"/>
<path d="M39.7691 145.269L58.0688 179.288C55.7228 180.525 51.9277 181.711 47.7133 181.015C45.8166 180.702 43.8346 180.008 41.8617 178.765C40.6634 178.01 39.468 177.053 38.2973 175.856C37.4468 174.987 36.6091 173.991 35.7924 172.854C35.0388 171.805 34.3774 170.739 33.8061 169.666C33.1026 168.344 32.5356 167.011 32.1 165.685C31.62 164.222 31.3001 162.768 31.1346 161.345C30.937 159.649 30.9586 157.999 31.1889 156.434C31.4735 154.502 32.077 152.7 32.9798 151.106C34.463 148.487 36.7547 146.428 39.7691 145.269Z" fill="url(#paint2_linear_2133_6201)"/>
<path d="M35.7924 172.854C35.0388 171.805 34.3774 170.739 33.8061 169.666M35.7924 172.854L38.7093 171.079M35.7924 172.854C36.6091 173.991 37.4468 174.987 38.2973 175.856M33.8061 169.666C33.1026 168.344 32.5356 167.011 32.1 165.685M33.8061 169.666L36.5471 168.331M38.2973 175.856L40.7556 173.968M38.2973 175.856C39.468 177.053 40.6634 178.01 41.8617 178.765M32.1 165.685L34.8313 164.362M32.1 165.685C31.62 164.222 31.3001 162.768 31.1346 161.345M31.1346 161.345L34.4957 160.051M31.1346 161.345C30.937 159.649 30.9586 157.999 31.1889 156.434M31.1889 156.434L34.0501 155.65M31.1889 156.434C31.4735 154.502 32.077 152.7 32.9798 151.106M32.9798 151.106C34.463 148.487 36.7547 146.428 39.7691 145.269L58.0687 179.288C55.7228 180.525 51.9277 181.711 47.7133 181.015M32.9798 151.106L35.1844 150.887M47.7133 181.015C45.8166 180.702 43.8346 180.008 41.8617 178.765M47.7133 181.015L48.4028 178.989M41.8617 178.765L43.7695 176.428" stroke="#9E6DFF" stroke-width="0.8"/>
<path d="M36.7257 168.913C39.2957 173.623 42.9998 177.121 46.8989 178.977C50.7983 180.833 54.8703 181.04 58.2158 179.214C61.5613 177.388 63.591 173.852 64.1395 169.568C64.6881 165.285 63.7503 160.277 61.1805 155.568C58.6105 150.859 54.9061 147.36 51.0073 145.504C47.1079 143.648 43.0356 143.442 39.6904 145.267C36.3449 147.093 34.3152 150.629 33.7664 154.913C33.2178 159.196 34.1556 164.204 36.7257 168.913Z" fill="#F1E36F" stroke="#9E6DFF" stroke-width="0.8"/>
<path d="M38.6226 167.919C40.8659 172.029 44.0988 175.082 47.4997 176.701C50.9006 178.32 54.448 178.498 57.3598 176.909C60.2717 175.32 62.0412 172.24 62.5198 168.504C62.9984 164.768 62.1806 160.398 59.9373 156.287C57.694 152.176 54.4611 149.124 51.0602 147.505C47.6589 145.886 44.1119 145.708 41.2 147.297C38.2882 148.886 36.5186 151.965 36.0401 155.702C35.5615 159.438 36.3793 163.808 38.6226 167.919Z" fill="#F1E36F" stroke="#9E6DFF" stroke-width="0.8"/>
<path fill-rule="evenodd" clip-rule="evenodd" d="M41.7264 155.696L43.6848 155.93L43.3592 153.821L46.7413 154.225L47.0666 156.334L50.0314 156.689L49.7058 154.58L53.0879 154.984L53.4132 157.093L53.5219 157.106C55.3898 157.329 57.1059 158.817 57.3547 160.43L57.5299 161.566C57.6121 162.098 57.5245 162.576 57.303 162.972C57.657 163.435 57.8987 163.954 57.9806 164.486L58.1561 165.621C58.4026 167.22 57.1159 168.34 55.2747 168.143L55.6003 170.252L52.2181 169.848L51.8928 167.739L48.7694 167.366L49.095 169.475L45.7128 169.071L45.3872 166.962L43.4291 166.728L42.9784 163.808L44.9365 164.042L44.1355 158.85L42.1771 158.616L41.7264 155.696ZM47.6928 160.39L54.148 161.161L53.9726 160.026L47.5174 159.255L47.6928 160.39ZM48.1435 163.31L48.3187 164.446L54.7739 165.217L54.5987 164.082L48.1435 163.31Z" fill="#A8F2FF" stroke="#9E6DFF" stroke-width="0.6"/>
<path d="M158.211 14.7636L101.182 20.2093C97.3371 20.5764 94.5179 23.9908 94.8851 27.8356L109.382 179.658C109.75 183.503 113.164 186.322 117.009 185.955L174.038 180.509C177.883 180.142 180.702 176.727 180.335 172.883L165.838 21.0604C165.471 17.2156 162.056 14.3965 158.211 14.7636Z" fill="url(#paint3_linear_2133_6201)" stroke="#9E6DFF"/>
<path d="M153.768 21.7942L106.372 26.32C102.784 26.6627 100.153 29.8494 100.495 33.4379L109.108 123.633C109.45 127.221 112.637 129.852 116.226 129.51L163.622 124.984C167.21 124.641 169.841 121.454 169.499 117.866L160.886 27.6712C160.544 24.0828 157.357 21.4515 153.768 21.7942Z" fill="#A8F2FF" stroke="#9E6DFF"/>
<path d="M140.873 52.1521C145.539 53.1747 150.916 61.6531 152.965 83.1112M113.256 57.9089C114.712 51.8978 119.415 45.6794 122.541 44.1768M125.824 42.2203C130.271 39.5025 144.531 37.3059 151.322 52.6225M117.199 43.4024C120.421 40.3002 128.622 33.1549 136.991 36.7413M141.674 37.9458L145.968 40.1153M138.766 46.0225C140.179 46.819 146.28 48.9751 150.176 57.2278M121.914 59.254C123.054 59.9155 125.15 60.0736 124.408 55.4151C125.749 56.4872 128.356 57.4565 128.056 52.7558M129.823 54.5219C130.587 54.3962 132.015 53.63 131.74 51.5712M131.74 51.5712C131.735 51.5276 131.728 51.4833 131.721 51.4385C131.726 51.4814 131.733 51.526 131.74 51.5712ZM131.74 51.5712C131.944 52.8302 132.734 54.9079 134.462 54.0787C134.796 53.9393 135.549 53.3946 135.893 52.3299C136.179 53.8969 137.374 56.5525 139.867 54.6375C139.692 56.1769 140.071 58.9605 142.991 57.7789M122.539 62.6876C122.713 63.6026 122.534 65.3647 120.427 65.0929C121.562 66.2027 123.114 68.7918 120.253 70.2688C121.877 71.4572 124.101 74.0612 119.996 74.9692L121.75 78.9399L119.553 81.6219L121.626 84.6485M122.023 88.8025C121.993 90.3103 121.175 94.0859 118.136 97.1277M150.513 102.613C151.224 98.6404 151.499 89.1265 150.244 81.5932M121.709 101.086C125.231 95.1603 127.422 93.9838 125.465 78.1551C124.437 69.8424 128.75 64.3042 134.842 63.5014C143.723 62.331 148.113 80.292 147.033 95.4433C146.82 100.73 145.207 112.428 140.463 116.923M135.12 117.003C138.527 112.988 144.472 107.778 143.432 88.2424C143.113 84.9047 142.511 78.6043 139.847 75.2804M133.494 70.4017L134.452 70.3103M134.452 70.3103L135.409 70.2189M134.452 70.3103C134.47 70.4599 134.487 70.6089 134.503 70.756M134.452 70.3103C134.46 70.4592 134.478 70.6082 134.503 70.756M134.503 70.756C134.683 72.4539 134.601 73.9249 132.337 73.8444M134.503 70.756C134.812 72.5537 136.308 74.1447 137.558 72.4859M127.536 110.741L127.577 110.686C130.705 106.468 136.65 98.4499 133.922 82.2722C133.681 80.8442 133.894 78.674 135.569 78.5141C136.895 78.3875 137.839 80.3575 138.062 81.6619C139.47 89.9114 139.77 105.617 130.889 114.72M143.862 60.8587L146.468 61.6848C145.703 62.7608 144.731 65.2901 146.956 66.7976C146.079 67.9918 145.153 70.6457 148.465 71.7052C147.814 73.4514 147.214 77.1345 150.022 77.8982M124.338 104.49C126.827 103.04 128.923 99.0782 129.12 91.1686C129.309 83.548 129.307 80.5074 130.62 76.9872M130.591 70.3564L130.439 68.7587M126.888 64.2609L126.552 60.7459L128.798 62.4662M136.925 61.1888L138.406 58.539L139.258 61.9541M129.657 59.5896C131.389 57.4893 133.952 57.4008 135.708 58.5176M112.885 77.9467C113.049 66.43 117.843 43.7868 135.71 45.3484M116.052 90.8774C116.881 90.476 118.383 88.8277 117.763 85.4472C116.988 81.2218 114.977 69.1093 120.106 60.558M137.778 69.3478L137.626 67.7501M151.709 60.6598C153.716 63.9548 156.706 75.7809 156.535 95.2489" stroke="#9E6DFF" stroke-width="1.16554" stroke-linecap="round" stroke-linejoin="round"/>
<path d="M235.075 26.8975L213.614 57.0677C215.697 58.5234 219.165 60.1045 223.255 59.9453C225.097 59.8739 227.065 59.4498 229.09 58.5035C230.319 57.9287 231.57 57.1609 232.827 56.1623C233.74 55.4368 234.656 54.5897 235.566 53.6058C236.408 52.6985 237.166 51.7636 237.836 50.8108C238.662 49.638 239.36 48.4379 239.932 47.2284C240.564 45.8948 241.041 44.5497 241.368 43.2164C241.758 41.6275 241.935 40.0554 241.903 38.54C241.865 36.6679 241.505 34.8824 240.837 33.2588C239.739 30.5911 237.803 28.3597 235.075 26.8975Z" fill="url(#paint4_linear_2133_6201)"/>
<path d="M235.566 53.6058C236.408 52.6985 237.166 51.7636 237.836 50.8108M235.566 53.6058L233.004 51.5696M235.566 53.6058C234.656 54.5897 233.74 55.4368 232.827 56.1623M237.836 50.8108C238.662 49.638 239.36 48.4379 239.932 47.2284M237.836 50.8108L235.389 49.2147M232.827 56.1623L230.714 54.0735M232.827 56.1623C231.57 57.1609 230.319 57.9287 229.09 58.5035M239.932 47.2284L237.493 45.6446M239.932 47.2284C240.564 45.8948 241.041 44.5497 241.368 43.2164M241.368 43.2164L238.327 41.5844M241.368 43.2164C241.758 41.6275 241.935 40.0554 241.903 38.54M241.903 38.54L239.275 37.4523M241.903 38.54C241.865 36.6679 241.505 34.8824 240.837 33.2588M240.837 33.2588C239.739 30.5911 237.803 28.3597 235.075 26.8975L213.614 57.0677C215.697 58.5234 219.165 60.1045 223.255 59.9453M240.837 33.2588L238.766 32.787M223.255 59.9453C225.097 59.8739 227.065 59.4498 229.09 58.5035M223.255 59.9453L222.843 57.9363M229.09 58.5035L227.553 56.053" stroke="#9E6DFF" stroke-width="0.8"/>
<path d="M235.149 49.7472C232.143 53.9192 228.204 56.8044 224.274 58.1044C220.344 59.4045 216.447 59.1151 213.483 56.9796C210.519 54.8445 209.011 51.2392 209 47.0999C208.989 42.961 210.479 38.3102 213.484 34.138C216.49 29.9661 220.431 27.0811 224.359 25.7808C228.289 24.4807 232.186 24.7702 235.152 26.9056C238.114 29.041 239.624 32.646 239.635 36.7855C239.643 40.9245 238.155 45.5753 235.149 49.7472Z" fill="#F1E36F" stroke="#9E6DFF" stroke-width="0.8"/>
<path d="M233.464 48.5747C230.84 52.2165 227.4 54.7338 223.974 55.8676C220.546 57.0017 217.152 56.748 214.572 54.8895C211.992 53.0307 210.677 49.8909 210.667 46.2804C210.658 42.6702 211.957 38.6116 214.581 34.9698C217.205 31.3283 220.644 28.811 224.07 27.6769C227.498 26.5428 230.894 26.7969 233.473 28.6554C236.054 30.5139 237.367 33.6537 237.378 37.2642C237.386 40.8744 236.086 44.9329 233.464 48.5747Z" fill="#F1E36F" stroke="#9E6DFF" stroke-width="0.8"/>
<path fill-rule="evenodd" clip-rule="evenodd" d="M222.434 33.899L223.838 34.712L225.13 32.9873L227.556 34.3912L226.264 36.1159L228.39 37.3467L229.681 35.6218L232.107 37.026L230.815 38.7507L230.894 38.7956C232.235 39.571 232.519 41.269 231.532 42.5879L230.837 43.5167C230.513 43.9517 230.088 44.2911 229.619 44.5227C229.562 44.9937 229.376 45.4698 229.049 45.9048L228.354 46.8334C227.376 48.1406 225.514 48.5851 224.179 47.8383L222.887 49.5633L220.461 48.1591L221.753 46.4344L219.512 45.1379L218.221 46.8626L215.795 45.4587L217.086 43.734L215.682 42.921L217.469 40.5329L218.874 41.3456L222.053 37.1001L220.646 36.2871L222.434 33.899ZM223.781 39.4329L228.411 42.1126L229.106 41.184L224.478 38.5043L223.781 39.4329ZM221.996 41.8209L221.301 42.7498L225.928 45.4295L226.623 44.5007L221.996 41.8209Z" fill="#A8F2FF" stroke="#9E6DFF" stroke-width="0.6"/>
<path d="M138.257 106.974C137.133 102.649 140.202 98.3625 144.669 98.0177C148.114 97.7517 151.263 99.9649 152.17 103.29L160.307 133.12C161.444 131.265 163.294 129.846 165.582 129.305C169.837 128.3 174.103 130.686 175.524 134.707C176.139 131.547 178.547 128.88 181.892 128.089C186.168 127.078 190.455 129.493 191.855 133.552C192.519 130.462 194.902 127.872 198.19 127.095C202.743 126.019 207.309 128.827 208.389 133.368L212.073 148.873C212.15 149.195 212.207 149.517 212.245 149.839L221.541 184.233L228.034 182.698C231.614 181.852 235.206 184.061 236.055 187.632L242.974 216.746C243.822 220.317 241.608 223.899 238.027 224.746L216.509 229.83C197.534 234.315 178.52 226.597 167.753 211.772C157.162 200.254 149.642 186.178 145.998 170.841L142.209 154.898C141.629 152.459 144.23 150.493 146.429 151.709C147.814 152.476 149.143 153.324 150.41 154.245L149.087 148.674L138.257 106.974Z" fill="url(#paint5_linear_2133_6201)"/>
<path d="M150.33 153.906C152.153 162.196 156.478 180.241 159.195 186.107M160.294 132.754L163.014 144.202M175.367 134.028L176.802 140.065M191.615 132.826L192.407 136.156M144.669 98.0177C140.202 98.3625 137.133 102.649 138.257 106.974L149.087 148.674L150.41 154.245C149.143 153.324 147.814 152.476 146.429 151.709C144.23 150.493 141.629 152.459 142.209 154.898L145.998 170.841C149.642 186.178 157.162 200.254 167.753 211.772C178.52 226.597 197.534 234.315 216.509 229.83L238.027 224.746C241.608 223.899 243.822 220.317 242.974 216.746L236.055 187.632C235.206 184.061 231.614 181.852 228.034 182.698L221.541 184.233L212.245 149.839C212.207 149.517 212.15 149.195 212.073 148.873L208.389 133.368C207.309 128.827 202.743 126.019 198.19 127.095C194.902 127.872 192.519 130.462 191.855 133.552C190.455 129.493 186.168 127.078 181.892 128.089C178.547 128.88 176.139 131.547 175.524 134.707C174.103 130.686 169.837 128.3 165.582 129.305C163.294 129.846 161.444 131.265 160.307 133.12L152.17 103.29C151.263 99.9649 148.114 97.7517 144.669 98.0177Z" stroke="#9E6DFF" stroke-linecap="round" stroke-linejoin="round"/>
<path d="M130.526 220.075L107.047 253.082C109.327 254.674 113.12 256.404 117.596 256.231C119.61 256.153 121.763 255.688 123.977 254.653C125.323 254.024 126.691 253.183 128.066 252.092C129.064 251.299 130.066 250.372 131.064 249.295C131.985 248.303 132.812 247.28 133.546 246.236C134.45 244.954 135.215 243.642 135.841 242.318C136.531 240.86 137.054 239.387 137.412 237.929C137.838 236.191 138.031 234.471 137.996 232.813C137.952 230.764 137.559 228.811 136.828 227.034C135.627 224.118 133.511 221.676 130.526 220.075Z" fill="url(#paint6_linear_2133_6201)"/>
<path d="M131.064 249.295C131.985 248.303 132.812 247.28 133.546 246.236M131.064 249.295L128.26 247.068M131.064 249.295C130.066 250.372 129.064 251.299 128.066 252.092M133.546 246.236C134.45 244.954 135.215 243.642 135.841 242.318M133.546 246.236L130.869 244.492M128.066 252.092L125.754 249.805M128.066 252.092C126.691 253.183 125.323 254.024 123.977 254.653M135.841 242.318L133.172 240.586M135.841 242.318C136.531 240.86 137.054 239.387 137.412 237.929M137.412 237.929L134.083 236.143M137.412 237.929C137.838 236.191 138.031 234.471 137.996 232.813M137.996 232.813L135.122 231.623M137.996 232.813C137.952 230.764 137.559 228.811 136.828 227.034M136.828 227.034C135.627 224.118 133.511 221.676 130.526 220.075L107.047 253.082C109.327 254.674 113.12 256.404 117.596 256.231M136.828 227.034L134.563 226.519M117.596 256.231C119.61 256.153 121.763 255.688 123.977 254.653M117.596 256.231L117.143 254.033M123.977 254.653L122.298 251.973" stroke="#9E6DFF" stroke-width="0.8"/>
<path d="M130.607 245.073C127.319 249.638 123.008 252.793 118.71 254.215C114.41 255.637 110.147 255.321 106.904 252.987C103.662 250.649 102.012 246.704 102 242.178C101.988 237.649 103.618 232.562 106.906 227.997C110.194 223.433 114.505 220.278 118.803 218.856C123.103 217.431 127.366 217.75 130.608 220.084C133.851 222.422 135.501 226.364 135.513 230.893C135.525 235.422 133.895 240.508 130.607 245.073Z" fill="#F1E36F" stroke="#9E6DFF" stroke-width="0.8"/>
<path d="M128.763 243.791C125.893 247.775 122.131 250.53 118.381 251.77C114.631 253.01 110.918 252.733 108.096 250.7C105.273 248.666 103.834 245.231 103.824 241.281C103.814 237.333 105.235 232.893 108.105 228.907C110.976 224.923 114.737 222.171 118.487 220.931C122.237 219.687 125.951 219.968 128.773 221.998C131.595 224.032 133.034 227.467 133.045 231.417C133.055 235.368 131.633 239.808 128.763 243.791Z" fill="#F1E36F" stroke="#9E6DFF" stroke-width="0.8"/>
<path fill-rule="evenodd" clip-rule="evenodd" d="M116.697 227.735L118.234 228.624L119.646 226.736L122.3 228.275L120.887 230.159L123.213 231.507L124.626 229.62L127.279 231.155L125.867 233.043L125.952 233.093C127.418 233.94 127.73 235.798 126.65 237.241L125.89 238.257C125.534 238.732 125.07 239.104 124.557 239.358C124.495 239.873 124.29 240.392 123.934 240.869L123.174 241.886C122.103 243.314 120.067 243.8 118.604 242.983L117.192 244.871L114.538 243.335L115.95 241.448L113.5 240.032L112.088 241.916L109.434 240.38L110.846 238.493L109.31 237.604L111.265 234.993L112.802 235.881L116.278 231.239L114.742 230.347L116.697 227.735ZM118.171 233.788L123.236 236.722L123.997 235.705L118.932 232.774L118.171 233.788ZM116.216 236.403L115.455 237.417L120.52 240.351L121.281 239.334L116.216 236.403Z" fill="#A8F2FF" stroke="#9E6DFF" stroke-width="0.6"/>
<path d="M237.428 165.956L255.019 198.656C252.764 199.844 249.116 200.985 245.065 200.316C243.242 200.015 241.337 199.347 239.44 198.153C238.289 197.427 237.138 196.507 236.015 195.357C235.198 194.521 234.392 193.564 233.607 192.471C232.883 191.463 232.246 190.438 231.697 189.407C231.021 188.136 230.475 186.855 230.057 185.58C229.597 184.174 229.289 182.776 229.13 181.409C228.939 179.779 228.961 178.193 229.182 176.689C229.455 174.831 230.035 173.099 230.904 171.567C232.328 169.05 234.531 167.071 237.428 165.956Z" fill="url(#paint7_linear_2133_6201)"/>
<path d="M233.607 192.471C232.883 191.463 232.246 190.438 231.697 189.407M233.607 192.471L236.411 190.765M233.607 192.471C234.392 193.564 235.198 194.521 236.015 195.357M231.697 189.407C231.021 188.136 230.475 186.855 230.057 185.58M231.697 189.407L234.331 188.124M236.015 195.357L238.377 193.542M236.015 195.357C237.138 196.507 238.289 197.427 239.44 198.153M230.057 185.58L232.683 184.309M230.057 185.58C229.597 184.174 229.289 182.776 229.13 181.409M229.13 181.409L232.361 180.165M229.13 181.409C228.939 179.779 228.961 178.193 229.182 176.689M229.182 176.689L231.932 175.934M229.182 176.689C229.455 174.831 230.035 173.099 230.904 171.567M230.904 171.567C232.328 169.05 234.531 167.071 237.428 165.956L255.019 198.656C252.764 199.844 249.116 200.985 245.065 200.316M230.904 171.567L233.022 171.356M245.065 200.316C243.242 200.015 241.337 199.347 239.44 198.153M245.065 200.316L245.729 198.368M239.44 198.153L241.274 195.906" stroke="#9E6DFF" stroke-width="0.8"/>
<path d="M234.504 188.683C236.974 193.209 240.533 196.572 244.283 198.356C248.03 200.14 251.944 200.339 255.159 198.584C258.376 196.829 260.327 193.43 260.855 189.313C261.382 185.196 260.48 180.382 258.01 175.855C255.539 171.329 251.98 167.966 248.23 166.182C244.483 164.398 240.569 164.2 237.354 165.954C234.137 167.709 232.186 171.108 231.658 175.226C231.131 179.343 232.033 184.157 234.504 188.683Z" fill="#F1E36F" stroke="#9E6DFF" stroke-width="0.8"/>
<path d="M236.327 187.728C238.483 191.679 241.591 194.613 244.86 196.169C248.129 197.726 251.537 197.897 254.336 196.369C257.135 194.842 258.838 191.882 259.297 188.29C259.756 184.7 258.972 180.499 256.815 176.548C254.659 172.596 251.551 169.663 248.282 168.106C245.013 166.55 241.602 166.379 238.803 167.906C236.004 169.434 234.304 172.394 233.845 175.985C233.386 179.576 234.17 183.777 236.327 187.728Z" fill="#F1E36F" stroke="#9E6DFF" stroke-width="0.8"/>
<path fill-rule="evenodd" clip-rule="evenodd" d="M239.311 175.979L241.192 176.204L240.88 174.177L244.13 174.565L244.444 176.592L247.292 176.933L246.981 174.906L250.231 175.294L250.545 177.321L250.649 177.334C252.445 177.548 254.093 178.979 254.333 180.529L254.5 181.621C254.579 182.132 254.495 182.592 254.281 182.972C254.623 183.418 254.855 183.916 254.935 184.428L255.101 185.519C255.339 187.055 254.104 188.132 252.333 187.943L252.647 189.97L249.394 189.582L249.083 187.555L246.079 187.196L246.393 189.223L243.143 188.835L242.829 186.807L240.946 186.582L240.514 183.776L242.397 184.001L241.626 179.011L239.743 178.786L239.311 175.979ZM245.046 180.491L251.25 181.232L251.081 180.141L244.876 179.399L245.046 180.491ZM245.478 183.298L245.647 184.389L251.852 185.131L251.682 184.039L245.478 183.298Z" fill="#A8F2FF" stroke="#9E6DFF" stroke-width="0.6"/>
</g>
<defs>
<radialGradient id="paint0_radial_2133_6201" cx="0" cy="0" r="1" gradientUnits="userSpaceOnUse" gradientTransform="translate(294.357 126.63) rotate(90) scale(38.5048 115.299)">
<stop stop-color="#E8AEFF"/>
<stop offset="0.559236" stop-color="#A8F2FF"/>
</radialGradient>
<radialGradient id="paint1_radial_2133_6201" cx="0" cy="0" r="1" gradientUnits="userSpaceOnUse" gradientTransform="translate(294.473 126.631) rotate(90) scale(27.3191 81.527)">
<stop stop-color="#E8AEFF"/>
<stop offset="0.559236" stop-color="#A8F2FF"/>
</radialGradient>
<linearGradient id="paint2_linear_2133_6201" x1="37.8142" y1="149.913" x2="43.3145" y2="180.277" gradientUnits="userSpaceOnUse">
<stop stop-color="#F1E36F"/>
<stop offset="1" stop-color="#9E6DFF"/>
</linearGradient>
<linearGradient id="paint3_linear_2133_6201" x1="129.656" y1="17.2796" x2="209.909" y2="184.924" gradientUnits="userSpaceOnUse">
<stop stop-color="#F1E36F"/>
<stop offset="1" stop-color="#A8F2FF"/>
</linearGradient>
<linearGradient id="paint4_linear_2133_6201" x1="236.381" y1="31.5472" x2="227.528" y2="59.7684" gradientUnits="userSpaceOnUse">
<stop stop-color="#F1E36F"/>
<stop offset="1" stop-color="#9E6DFF"/>
</linearGradient>
<linearGradient id="paint5_linear_2133_6201" x1="190.612" y1="147.128" x2="391.214" y2="378.819" gradientUnits="userSpaceOnUse">
<stop stop-color="#FFFBD5"/>
<stop offset="1" stop-color="#E8AEFF"/>
</linearGradient>
<linearGradient id="paint6_linear_2133_6201" x1="131.954" y1="225.162" x2="122.269" y2="256.037" gradientUnits="userSpaceOnUse">
<stop stop-color="#F1E36F"/>
<stop offset="1" stop-color="#9E6DFF"/>
</linearGradient>
<linearGradient id="paint7_linear_2133_6201" x1="235.55" y1="170.42" x2="240.837" y2="199.606" gradientUnits="userSpaceOnUse">
<stop stop-color="#F1E36F"/>
<stop offset="1" stop-color="#9E6DFF"/>
</linearGradient>
<clipPath id="clip0_2133_6201">
<rect width="360" height="270" fill="white"/>
</clipPath>
</defs>
</svg>
