<svg width="90" height="160" viewBox="0 0 90 160" fill="none" xmlns="http://www.w3.org/2000/svg">
<path d="M84.8998 3.47261C83.9699 2.73024 82.9889 2.05409 81.9641 1.44922C86.1133 4.28676 85.7081 12.0743 81.1548 18.8532C76.617 25.6046 69.4685 28.7463 65.3124 25.9666C66.2439 26.678 67.1873 27.2846 68.2011 27.9606C72.3504 30.7934 79.5352 27.6564 84.0896 20.8776C88.6439 14.0989 89.0491 6.30634 84.8998 3.47261Z" fill="#A66CFF"/>
<path d="M81.0792 18.8054C85.7059 12.0169 86.0866 4.21754 81.9296 1.38584C77.7725 -1.44675 70.6523 1.7616 66.0255 8.55023C61.3996 15.3387 61.019 23.1381 65.1751 25.9698C69.3322 28.8024 76.4524 25.5941 81.0792 18.8054Z" fill="white"/>
<path d="M85.1206 3.19673C84.2685 2.51473 83.3728 1.88877 82.4393 1.32304C80.0076 -0.567432 76.8065 -0.220014 74.0088 1.0403C63.3293 5.85231 57.7318 22.7004 65.6779 26.6769C66.2651 27.1016 66.8651 27.4969 67.4825 27.9069C68.7105 28.8669 70.2297 29.3785 71.7883 29.357C76.7341 29.357 81.5673 25.2719 84.3857 21.0753C89.0516 14.1262 89.3727 6.09896 85.1206 3.19673ZM62.6609 18.7651C63.1835 8.03327 75.3612 -2.66325 81.7299 1.68215C88.1416 6.04902 82.5617 21.2817 72.806 25.677C66.8347 28.3678 62.342 25.3062 62.6609 18.7651ZM83.7985 20.681C81.036 24.7905 77.0462 27.7855 73.3894 28.49C72.5446 28.6932 71.6677 28.725 70.8104 28.5835C69.9532 28.442 69.1331 28.13 68.3984 27.6662L67.8701 27.3159C75.8759 28.2181 85.4073 17.2377 85.1666 7.6997C85.1745 6.17342 84.8133 4.66786 84.1137 3.31123C84.3094 3.458 84.5051 3.60477 84.7009 3.76628C88.6533 6.46582 88.2482 14.0539 83.7956 20.681H83.7985Z" fill="#050029"/>
<path d="M81.6287 5.13518L80.7109 5.9698C80.3879 5.41309 79.895 4.97469 79.3044 4.71876C78.7138 4.46284 78.0567 4.40311 77.4297 4.5481C74.9587 5.16555 73.3636 8.81916 72.9282 9.92965C71.5846 13.55 72.519 17.8631 69.367 20.4276C69.1001 20.7287 68.7521 20.9466 68.3646 21.0554C67.9772 21.1642 67.5667 21.1594 67.182 21.0414C66.7972 20.9234 66.4546 20.6973 66.1948 20.3901C65.935 20.0827 65.7692 19.7072 65.7168 19.3083C65.5032 18.0447 65.635 16.7468 66.0985 15.5519C66.1235 15.4878 66.1291 15.4178 66.1146 15.3505C66.1003 15.2832 66.0664 15.2216 66.0174 15.1733C65.9683 15.125 65.9063 15.0921 65.8388 15.0788C65.7713 15.0653 65.7013 15.0721 65.6376 15.098C65.5522 15.1314 65.4832 15.1966 65.4448 15.2799C64.8616 16.7464 64.7588 18.3599 65.1513 19.8885L64.0043 21.0342C63.9587 21.0845 63.9283 21.1468 63.917 21.2138C63.9057 21.2807 63.9137 21.3496 63.9402 21.4121C63.9668 21.4746 64.0108 21.5281 64.0669 21.5665C64.123 21.6048 64.1889 21.6262 64.2568 21.6281C64.3482 21.6303 64.437 21.597 64.5044 21.5352L65.483 20.5626C65.7101 20.9201 66.0161 21.2206 66.3777 21.4411C66.7393 21.6617 67.1466 21.7963 67.5684 21.8346C67.9902 21.8722 68.4151 21.8124 68.8101 21.6597C69.2051 21.5069 69.5596 21.2655 69.8465 20.954C73.2207 18.2143 72.2998 13.6753 73.5965 10.183C74.6534 7.46494 77.0216 3.95416 79.3379 5.55795C79.7405 5.86878 80.0775 6.25635 80.3295 6.69818C80.5814 7.14002 80.7433 7.62747 80.8058 8.1322C80.8406 9.47359 80.5751 10.8058 80.0288 12.0314C80.0058 12.0941 80.0008 12.1619 80.0147 12.2273C80.0284 12.2925 80.0603 12.3526 80.1067 12.4006C80.1531 12.4486 80.212 12.4826 80.2769 12.4986C80.3417 12.5147 80.4097 12.5122 80.4731 12.4913C80.5579 12.4629 80.6289 12.4035 80.6717 12.325C81.2665 10.9934 81.5535 9.545 81.5113 8.08722C81.4486 7.56978 81.3008 7.06631 81.0738 6.59703L82.1063 5.65872C82.1749 5.59506 82.2159 5.507 82.2203 5.41347C82.2248 5.31995 82.1922 5.22845 82.1298 5.15869C82.0664 5.08931 81.9781 5.04776 81.8842 5.04344C81.7902 5.03899 81.6984 5.07203 81.6287 5.13518Z" fill="#050029"/>
<path d="M80.1195 152.696C80.1195 153.631 79.6517 154.542 78.7635 155.391C77.8747 156.241 76.578 157.016 74.9589 157.671C71.7217 158.98 67.2357 159.795 62.2702 159.795C57.3046 159.795 52.8186 158.98 49.5814 157.671C47.9623 157.016 46.6656 156.241 45.7768 155.391C44.8886 154.542 44.4208 153.631 44.4208 152.696V147.421C45.5922 147.414 47.7455 147.343 50.4527 147.255C53.5423 147.154 57.3532 147.029 61.2492 146.947C68.6709 146.791 76.3957 146.79 80.1195 147.389V152.696Z" fill="#A66CFF" stroke="black" stroke-width="0.405664"/>
<path d="M80.1195 147.421C80.1195 148.356 79.6517 149.267 78.7635 150.117C77.8747 150.967 76.578 151.741 74.9589 152.396C71.7217 153.706 67.2357 154.52 62.2702 154.52C57.3046 154.52 52.8186 153.706 49.5814 152.396C47.9623 151.741 46.6656 150.967 45.7768 150.117C44.8886 149.267 44.4208 148.356 44.4208 147.421C44.4208 146.486 44.8886 145.575 45.7768 144.725C46.6656 143.876 47.9623 143.101 49.5814 142.446C52.8186 141.136 57.3046 140.322 62.2702 140.322C67.2357 140.322 71.7217 141.136 74.9589 142.446C76.578 143.101 77.8747 143.876 78.7635 144.725C79.6517 145.575 80.1195 146.486 80.1195 147.421Z" fill="white" stroke="black" stroke-width="0.405664"/>
<path d="M79.7141 147.426C79.7141 148.361 79.2463 149.272 78.3581 150.122C77.4694 150.972 76.1726 151.746 74.5535 152.401C71.3163 153.711 66.8303 154.525 61.8648 154.525C56.8992 154.525 52.4132 153.711 49.176 152.401C47.5569 151.746 46.2602 150.972 45.3714 150.122C44.4832 149.272 44.0155 148.361 44.0155 147.426V142.152C45.1868 142.144 47.3401 142.074 50.0473 141.985C53.1369 141.884 56.9478 141.76 60.8438 141.678C68.2655 141.522 75.9903 141.52 79.7141 142.12V147.426Z" fill="#A66CFF" stroke="black" stroke-width="0.405664"/>
<path d="M79.7141 142.15C79.7141 143.085 79.2463 143.996 78.3581 144.845C77.4694 145.695 76.1726 146.47 74.5535 147.125C71.3163 148.434 66.8303 149.249 61.8648 149.249C56.8992 149.249 52.4132 148.434 49.176 147.125C47.5569 146.47 46.2602 145.695 45.3714 144.845C44.4832 143.996 44.0155 143.085 44.0155 142.15C44.0155 141.214 44.4832 140.303 45.3714 139.454C46.2602 138.604 47.5569 137.829 49.176 137.174C52.4132 135.865 56.8992 135.05 61.8648 135.05C66.8303 135.05 71.3163 135.865 74.5535 137.174C76.1726 137.829 77.4694 138.604 78.3581 139.454C79.2463 140.303 79.7141 141.214 79.7141 142.15Z" fill="white" stroke="black" stroke-width="0.405664"/>
<path d="M79.7141 142.555C79.7141 143.49 79.2463 144.401 78.3581 145.251C77.4694 146.101 76.1726 146.875 74.5535 147.53C71.3163 148.84 66.8303 149.654 61.8648 149.654C56.8992 149.654 52.4132 148.84 49.176 147.53C47.5569 146.875 46.2602 146.101 45.3714 145.251C44.4832 144.401 44.0155 143.49 44.0155 142.555V137.281C45.1868 137.273 47.3401 137.203 50.0473 137.114C53.1369 137.013 56.9478 136.889 60.8438 136.807C68.2655 136.651 75.9903 136.649 79.7141 137.248V142.555Z" fill="#A66CFF" stroke="black" stroke-width="0.405664"/>
<path d="M79.7141 137.278C79.7141 138.214 79.2463 139.125 78.3581 139.974C77.4694 140.824 76.1726 141.599 74.5535 142.254C71.3163 143.563 66.8303 144.378 61.8648 144.378C56.8992 144.378 52.4132 143.563 49.176 142.254C47.5569 141.599 46.2602 140.824 45.3714 139.974C44.4832 139.125 44.0155 138.214 44.0155 137.278C44.0155 136.343 44.4832 135.432 45.3714 134.583C46.2602 133.733 47.5569 132.958 49.176 132.303C52.4132 130.994 56.8992 130.179 61.8648 130.179C66.8303 130.179 71.3163 130.994 74.5535 132.303C76.1726 132.958 77.4694 133.733 78.3581 134.583C79.2463 135.432 79.7141 136.343 79.7141 137.278Z" fill="white" stroke="black" stroke-width="0.405664"/>
<path d="M75.6555 137.284C75.6555 138.219 75.1877 139.13 74.2995 139.979C73.4108 140.829 72.114 141.604 70.4949 142.259C67.2577 143.568 62.7717 144.383 57.8062 144.383C52.8406 144.383 48.3546 143.568 45.1174 142.259C43.4983 141.604 42.2016 140.829 41.3128 139.979C40.4246 139.13 39.9569 138.219 39.9569 137.284V132.009C41.1282 132.001 43.2816 131.931 45.9887 131.843C49.0783 131.742 52.8892 131.617 56.7852 131.535C64.2069 131.379 71.9317 131.377 75.6555 131.977V137.284Z" fill="#A66CFF" stroke="black" stroke-width="0.405664"/>
<path d="M75.6557 132.007C75.6557 132.942 75.1879 133.853 74.2997 134.703C73.411 135.553 72.1142 136.327 70.4951 136.982C67.258 138.292 62.7719 139.106 57.8064 139.106C52.8409 139.106 48.3548 138.292 45.1177 136.982C43.4986 136.327 42.2018 135.553 41.3131 134.703C40.4249 133.853 39.9571 132.942 39.9571 132.007C39.9571 131.072 40.4249 130.161 41.3131 129.311C42.2018 128.461 43.4986 127.687 45.1177 127.032C48.3548 125.722 52.8409 124.908 57.8064 124.908C62.7719 124.908 67.258 125.722 70.4951 127.032C72.1142 127.687 73.411 128.461 74.2997 129.311C75.1879 130.161 75.6557 131.072 75.6557 132.007Z" fill="white" stroke="black" stroke-width="0.405664"/>
<path d="M80.9309 130.793C80.9309 131.729 80.4631 132.64 79.5749 133.489C78.6861 134.339 77.3894 135.114 75.7703 135.769C72.5331 137.078 68.0471 137.892 63.0816 137.892C58.116 137.892 53.63 137.078 50.3928 135.769C48.7737 135.114 47.477 134.339 46.5882 133.489C45.7 132.64 45.2323 131.729 45.2323 130.793V125.519C46.4036 125.511 48.5569 125.441 51.2641 125.352C54.3537 125.251 58.1646 125.127 62.0606 125.045C69.4823 124.889 77.2071 124.887 80.9309 125.487V130.793Z" fill="#A66CFF" stroke="black" stroke-width="0.405664"/>
<path d="M80.9299 125.515C80.9299 126.45 80.4621 127.361 79.5739 128.21C78.6852 129.06 77.3884 129.835 75.7693 130.49C72.5321 131.799 68.0461 132.614 63.0806 132.614C58.1151 132.614 53.629 131.799 50.3918 130.49C48.7727 129.835 47.476 129.06 46.5873 128.21C45.699 127.361 45.2313 126.45 45.2313 125.515C45.2313 124.58 45.699 123.669 46.5873 122.819C47.476 121.969 48.7727 121.195 50.3918 120.54C53.629 119.23 58.1151 118.416 63.0806 118.416C68.0461 118.416 72.5321 119.23 75.7693 120.54C77.3884 121.195 78.6852 121.969 79.5739 122.819C80.4621 123.669 80.9299 124.58 80.9299 125.515Z" fill="white" stroke="black" stroke-width="0.405664"/>
<path d="M35.9016 151.891C35.9016 152.826 35.4338 153.737 34.5456 154.587C33.6569 155.437 32.3601 156.211 30.741 156.866C27.5038 158.176 23.0178 158.99 18.0523 158.99C13.0867 158.99 8.60069 158.176 5.36353 156.866C3.74442 156.211 2.44766 155.437 1.55893 154.587C0.670728 153.737 0.202954 152.826 0.202954 151.891V146.617C1.37433 146.609 3.52765 146.539 6.23483 146.45C9.32436 146.349 13.1353 146.225 17.0313 146.143C24.453 145.986 32.1778 145.985 35.9016 146.584V151.891Z" fill="#A66CFF" stroke="black" stroke-width="0.405664"/>
<path d="M35.9017 146.612C35.9017 147.548 35.4339 148.459 34.5457 149.308C33.657 150.158 32.3602 150.933 30.7411 151.588C27.5039 152.897 23.0179 153.712 18.0524 153.712C13.0869 153.712 8.60081 152.897 5.36365 151.588C3.74454 150.933 2.44778 150.158 1.55906 149.308C0.67085 148.459 0.203076 147.548 0.203076 146.612C0.203076 145.677 0.67085 144.766 1.55906 143.917C2.44778 143.067 3.74454 142.292 5.36365 141.637C8.60081 140.328 13.0869 139.513 18.0524 139.513C23.0179 139.513 27.5039 140.328 30.7411 141.637C32.3602 142.292 33.657 143.067 34.5457 143.917C35.4339 144.766 35.9017 145.677 35.9017 146.612Z" fill="white" stroke="black" stroke-width="0.405664"/>
<path d="M52.8017 96.0743C53.0637 95.1764 53.7679 94.433 54.8585 93.8663C55.9497 93.2994 57.4116 92.9189 59.1493 92.7437C62.6236 92.3934 67.1583 92.868 71.925 94.2589C76.6918 95.6497 80.7701 97.6881 83.5109 99.8518C84.8818 100.934 85.9096 102.041 86.5247 103.106C87.1395 104.17 87.3334 105.175 87.0714 106.073L85.5941 111.136C84.4674 110.816 82.3806 110.28 79.757 109.607C76.7628 108.838 73.0696 107.891 69.3066 106.878C62.1382 104.949 54.7222 102.787 51.3154 101.168L52.8017 96.0743Z" fill="#A66CFF" stroke="black" stroke-width="0.405664"/>
<path d="M51.3243 101.138C51.5863 100.24 52.2905 99.4964 53.3811 98.9298C54.4723 98.3628 55.9341 97.9823 57.6719 97.8071C61.1462 97.4568 65.6808 97.9315 70.4476 99.3223C75.2143 100.713 79.2927 102.752 82.0335 104.915C83.4044 105.997 84.4322 107.104 85.0473 108.169C85.662 109.233 85.8559 110.239 85.594 111.137C85.332 112.035 84.6278 112.778 83.5372 113.345C82.446 113.912 80.9841 114.292 79.2464 114.467C75.7721 114.818 71.2374 114.343 66.4707 112.952C61.7039 111.561 57.6256 109.523 54.8848 107.359C53.5139 106.277 52.4861 105.17 51.871 104.105C51.2562 103.041 51.0623 102.036 51.3243 101.138Z" fill="black" stroke="black" stroke-width="0.405664"/>
<path d="M54.9671 110.144C51.3438 113.61 47.0938 115.722 43.1586 116.341C39.2268 116.96 35.63 116.088 33.2636 113.621L30.2858 109.744L30.4042 109.645L31.1641 109.008C31.8206 108.458 32.7628 107.668 33.9055 106.709C36.191 104.79 39.2786 102.193 42.487 99.4804C48.7504 94.1849 55.484 88.4408 57.601 86.4478L59.4884 88.3349C61.8522 90.8071 62.5442 94.5094 61.7276 98.4841C60.9113 102.458 58.5898 106.679 54.9671 110.144Z" fill="#A66CFF" stroke="black" stroke-width="0.405664"/>
<path d="M52.141 106.475C48.5177 109.941 44.2677 112.053 40.3325 112.672C36.3965 113.292 32.7963 112.418 30.43 109.944C28.0637 107.47 27.3498 103.835 28.1431 99.9304C28.9362 96.0266 31.234 91.8743 34.8572 88.4082C38.4805 84.9421 42.7306 82.8306 46.6657 82.2112C50.6017 81.5917 54.202 82.4659 56.5683 84.9395C58.9346 87.413 59.6485 91.0484 58.8552 94.9531C58.0621 98.8568 55.7643 103.009 52.141 106.475Z" fill="white" stroke="black" stroke-width="0.405664"/>
</svg>
