<svg width="193" height="205" viewBox="0 0 193 205" fill="none" xmlns="http://www.w3.org/2000/svg">
<path d="M156.711 87.2227L18.8613 90.1721L46.1831 203.017L192.261 194.015L156.711 87.2227Z" fill="#A66CFF"/>
<path d="M154.638 91.4961L23.9287 94.444L49.5437 196.269L186.151 188.199L154.638 91.4961Z" fill="white"/>
<path d="M23.4018 94.5799C23.3829 94.5009 23.3817 94.4185 23.3985 94.3389C23.4153 94.2594 23.4496 94.1846 23.4989 94.1198C23.5482 94.0553 23.6112 94.0023 23.6835 93.9651C23.7558 93.9278 23.8354 93.9072 23.9167 93.9044C51.2205 93.268 127.316 91.1366 154.626 90.9552C154.742 90.9532 154.856 90.9885 154.951 91.0555C155.046 91.1228 155.117 91.2185 155.154 91.3288L186.667 188.031C186.693 188.11 186.701 188.194 186.69 188.277C186.678 188.359 186.647 188.438 186.601 188.507C186.554 188.576 186.492 188.633 186.419 188.674C186.346 188.715 186.266 188.738 186.182 188.743L49.5422 196.816C49.4213 196.816 49.3038 196.775 49.2082 196.701C49.1127 196.627 49.0449 196.523 49.0152 196.404L23.4018 94.5799ZM70.6028 93.9376L78.9084 123.987L122.591 122.336L114.024 92.9633L70.6028 93.9376ZM40.9484 159.857L87.2096 158.089L78.0904 125.099L32.6352 126.822L40.9484 159.857ZM88.3309 158.056L132.516 156.373L122.901 123.407L79.2086 125.058L88.3309 158.056ZM163.958 121.849L124.029 123.364L133.654 156.328L174.685 154.767L163.958 121.849ZM154.246 92.0509L115.144 92.9333L123.715 122.288L163.607 120.775L154.246 92.0509ZM185.415 187.7L175.034 155.837L133.968 157.4L143.536 190.17L185.415 187.7ZM142.392 190.242L132.828 157.448L88.6237 159.13L97.9485 192.867L142.392 190.242ZM49.9551 195.703L96.8348 192.933L87.5024 159.172L41.2095 160.934L49.9551 195.703ZM32.359 125.758L77.7886 124.035L69.4785 93.969L24.6177 94.9807L32.359 125.758Z" fill="#050029"/>
<path d="M98.6415 119.699C105.922 119.699 111.498 115.251 110.154 107.853C108.035 95.6366 88.5855 91.092 85.3401 104.563C83.4472 111.185 89.9291 119.699 98.6415 119.699ZM99.4896 118.584C91.127 119.174 84.6212 111.03 86.3894 104.839C89.3602 92.5192 107.168 96.9906 109.083 108.043C110.242 114.409 105.862 118.134 99.4896 118.584Z" fill="#050029"/>
<path d="M98.729 100.367C98.3413 100.042 97.8712 99.8316 97.3712 99.7581C96.8709 99.6846 96.3602 99.7511 95.8956 99.9501L95.6841 98.6394C95.6609 98.4971 95.5821 98.37 95.465 98.2858C95.3478 98.2016 95.2022 98.1675 95.0599 98.1907C94.9175 98.2139 94.7903 98.2928 94.7062 98.4098C94.622 98.5269 94.5877 98.6727 94.6111 98.8148L94.8754 100.444C91.896 102.293 90.4612 106.288 93.7773 107.537C94.6097 107.861 95.5361 107.85 96.3588 107.502C97.4605 107.07 98.6481 106.902 99.8262 107.013C100.356 107.186 100.829 107.5 101.194 107.921C101.56 108.341 101.805 108.853 101.903 109.402C101.858 110.215 101.602 111.003 101.159 111.687C100.715 112.37 100.101 112.926 99.3766 113.299C97.8724 114.203 95.2667 114.62 94.5378 112.941C94.4805 112.808 94.3735 112.704 94.2399 112.651C94.1064 112.597 93.9568 112.598 93.8241 112.653C93.6917 112.71 93.5872 112.817 93.5334 112.951C93.4796 113.085 93.4808 113.234 93.5367 113.367C94.33 115.2 96.4099 115.462 98.3471 114.905L98.5929 116.008C98.6308 116.141 98.7183 116.256 98.8376 116.327C98.9569 116.398 99.0988 116.421 99.2345 116.39C99.37 116.36 99.4889 116.279 99.5665 116.164C99.6441 116.049 99.6747 115.908 99.6519 115.771L99.3759 114.522C100.403 114.102 101.289 113.397 101.929 112.49C102.569 111.583 102.937 110.512 102.988 109.403C102.992 109.357 102.989 109.311 102.98 109.266C102.846 108.495 102.5 107.777 101.981 107.192C101.461 106.607 100.789 106.179 100.04 105.955C96.1319 105.644 95.835 107.199 94.1721 106.524C90.5743 105.168 95.9523 99.3714 98.0104 101.182C98.1188 101.274 98.2596 101.321 98.4019 101.311C98.5442 101.301 98.677 101.235 98.7713 101.128C98.8657 101.021 98.9142 100.881 98.9062 100.739C98.8982 100.596 98.8347 100.463 98.729 100.367Z" fill="#050029"/>
<path d="M52.373 121.414C59.739 121.414 65.4087 117.04 64.0487 109.556C61.9396 97.399 42.4928 92.7461 39.2354 106.266C38.8767 108.054 38.9355 109.9 39.4073 111.661C39.8791 113.422 40.7511 115.05 41.9553 116.419C43.201 117.985 44.7858 119.248 46.5902 120.113C48.3947 120.978 50.3719 121.423 52.373 121.414ZM62.9785 109.756C64.1417 116.15 59.7314 119.844 53.3848 120.297C51.3815 120.469 49.3669 120.144 47.52 119.349C45.6732 118.555 44.0514 117.316 42.7989 115.743C41.7116 114.502 40.9203 113.029 40.4848 111.437C40.0493 109.845 39.9809 108.175 40.2846 106.553C43.2478 94.2591 61.0555 98.6613 62.9785 109.756Z" fill="#050029"/>
<path d="M52.5203 101.949C52.1411 101.631 51.682 101.422 51.1929 101.345C50.7038 101.269 50.2031 101.328 49.7448 101.515L49.5575 100.358C49.5378 100.254 49.4885 100.158 49.4152 100.082C49.3419 100.005 49.2479 99.952 49.1448 99.928C49.0416 99.9043 48.9338 99.9109 48.8344 99.9473C48.7352 99.9838 48.6484 100.048 48.5853 100.133C48.5014 100.248 48.4656 100.391 48.4849 100.531L48.7215 101.995C45.7374 103.81 44.2162 107.853 47.5741 109.119C48.4051 109.445 49.3327 109.432 50.1556 109.085C51.2697 108.648 52.4737 108.483 53.6637 108.607C54.1844 108.777 54.6494 109.085 55.0085 109.498C55.3675 109.912 55.6077 110.415 55.7027 110.954C55.7066 115.041 49.4643 117.126 48.3338 114.522C48.2724 114.396 48.1649 114.299 48.0337 114.251C47.9023 114.202 47.7575 114.206 47.6292 114.262C47.5009 114.317 47.399 114.42 47.3446 114.549C47.2904 114.678 47.2879 114.823 47.3378 114.954C48.1396 116.81 50.2558 117.053 52.1944 116.478L52.4724 117.728C52.4946 117.834 52.548 117.93 52.6256 118.005C52.7032 118.08 52.8016 118.13 52.9079 118.149C53.0143 118.168 53.1239 118.154 53.2223 118.11C53.321 118.066 53.4038 117.993 53.4607 117.901C53.4992 117.841 53.5253 117.774 53.5378 117.704C53.5502 117.633 53.5487 117.561 53.5333 117.492L53.2165 116.09C54.2606 115.667 55.1558 114.944 55.7896 114.013C56.4232 113.081 56.7669 111.983 56.7772 110.857C56.6548 110.082 56.3129 109.358 55.792 108.771C55.271 108.184 54.593 107.759 53.8378 107.545C49.9287 107.235 49.6317 108.79 47.9688 108.115C44.387 106.765 49.7366 100.951 51.8072 102.773C51.9167 102.867 52.0591 102.914 52.2029 102.903C52.3468 102.893 52.4809 102.826 52.5759 102.717C52.6229 102.663 52.6583 102.6 52.68 102.532C52.7036 102.465 52.7131 102.393 52.7082 102.322C52.7032 102.25 52.6839 102.181 52.6511 102.117C52.6193 102.053 52.5749 101.995 52.5203 101.949Z" fill="#050029"/>
<path d="M61.0995 153.382C68.3543 153.382 73.9203 148.937 72.7436 141.547C70.6195 129.286 51.1695 124.794 47.9287 138.245C45.7115 144.878 52.4141 153.382 61.0995 153.382ZM61.9235 152.267C53.5803 152.851 46.9124 144.722 48.9719 138.544C51.9591 126.174 69.7593 130.693 71.6718 141.726C72.691 148.127 68.2387 151.824 61.9235 152.267Z" fill="#050029"/>
<path d="M61.1063 134.062C60.718 133.739 60.2479 133.529 59.7481 133.456C59.2482 133.382 58.7379 133.448 58.2729 133.645L58.0602 132.336C58.0399 132.232 57.99 132.137 57.9167 132.062C57.8434 131.987 57.7497 131.935 57.6471 131.912C57.5446 131.889 57.4375 131.896 57.3391 131.933C57.2406 131.969 57.1551 132.034 57.0927 132.118C57.0081 132.23 56.9706 132.371 56.9884 132.51L57.2527 134.139C56.4146 134.623 55.7046 135.3 55.182 136.113C54.6593 136.927 54.339 137.855 54.2482 138.818C54.3386 140.921 56.7644 141.906 58.7357 141.2C59.8372 140.768 61.0248 140.6 62.2031 140.71C62.7326 140.883 63.2051 141.197 63.5707 141.617C63.9362 142.038 64.181 142.549 64.2789 143.098C64.2335 143.911 63.9767 144.698 63.534 145.382C63.0915 146.065 62.4782 146.622 61.7547 146.996C60.2544 147.897 57.6471 148.32 56.9139 146.637C56.8856 146.572 56.8447 146.513 56.7936 146.463C56.7425 146.414 56.6823 146.375 56.6162 146.349C56.5501 146.323 56.4798 146.311 56.4088 146.312C56.3378 146.313 56.2677 146.328 56.2025 146.357C56.0715 146.413 55.9676 146.518 55.9136 146.65C55.8596 146.782 55.8598 146.93 55.914 147.062C56.717 148.917 58.832 149.161 60.7712 148.588L61.0494 149.838C61.0716 149.943 61.1248 150.04 61.2026 150.115C61.2802 150.19 61.3784 150.24 61.4849 150.259C61.5913 150.278 61.7007 150.264 61.7993 150.22C61.8978 150.175 61.9808 150.103 62.0378 150.011C62.0762 149.951 62.1023 149.884 62.1148 149.813C62.1272 149.743 62.1257 149.671 62.1103 149.601L61.7935 148.2C66.5015 145.951 66.3204 140.908 62.4117 139.649C58.5885 139.346 58.6716 140.737 56.5439 140.219C52.9609 138.87 58.307 133.052 60.3823 134.877C60.4355 134.925 60.4979 134.962 60.5655 134.986C60.6332 135.009 60.7049 135.019 60.7766 135.015C60.8482 135.011 60.9184 134.993 60.9827 134.961C61.047 134.929 61.1045 134.885 61.1517 134.831C61.2471 134.723 61.2958 134.581 61.2872 134.437C61.2786 134.293 61.2137 134.158 61.1063 134.062Z" fill="#050029"/>
<path d="M102.931 151.25C109.635 154.147 116.505 152.255 118.204 144.943C121.092 132.946 105.088 120.962 96.7313 132.081C92.4053 137.361 94.8787 147.771 102.931 151.25ZM104.157 150.564C96.1088 147.74 93.5871 137.634 97.5863 132.752C105.2 122.621 119.772 133.789 117.146 144.693C115.685 150.986 110.202 152.688 104.161 150.565L104.157 150.564Z" fill="#050029"/>
<path d="M107.891 132.866C107.504 132.541 107.034 132.33 106.534 132.257C106.034 132.183 105.524 132.25 105.059 132.449L104.847 131.139C104.835 131.068 104.81 131 104.773 130.94C104.735 130.879 104.686 130.826 104.628 130.784C104.57 130.742 104.504 130.712 104.435 130.696C104.365 130.68 104.293 130.677 104.222 130.689C104.08 130.713 103.953 130.791 103.869 130.908C103.785 131.025 103.75 131.171 103.773 131.313L104.037 132.942C101.064 134.791 99.6215 138.787 102.94 140.036C103.771 140.361 104.697 140.349 105.519 140.001C106.621 139.568 107.81 139.401 108.988 139.512C109.516 139.681 109.987 139.989 110.353 140.404C110.719 140.819 110.966 141.326 111.068 141.87C111.069 145.979 104.817 148.024 103.699 145.439C103.642 145.306 103.534 145.202 103.4 145.149C103.266 145.097 103.117 145.099 102.984 145.156C102.852 145.214 102.748 145.322 102.695 145.455C102.642 145.59 102.645 145.739 102.702 145.871C103.495 147.704 105.575 147.965 107.512 147.408L107.758 148.511C107.785 148.611 107.841 148.701 107.919 148.77C107.996 148.84 108.092 148.885 108.194 148.902C108.297 148.919 108.402 148.906 108.497 148.865C108.593 148.824 108.674 148.757 108.733 148.671C108.811 148.554 108.841 148.414 108.817 148.275L108.539 147.026C109.594 146.607 110.501 145.884 111.143 144.947C111.786 144.011 112.135 142.905 112.146 141.77C112.012 141 111.666 140.282 111.146 139.697C110.627 139.112 109.955 138.683 109.205 138.459C105.297 138.147 105 139.702 103.337 139.028C99.7418 137.673 105.117 131.874 107.176 133.686C107.229 133.734 107.292 133.77 107.36 133.793C107.428 133.815 107.499 133.824 107.571 133.818C107.66 133.813 107.747 133.786 107.823 133.738C107.9 133.691 107.963 133.625 108.008 133.548C108.052 133.47 108.077 133.382 108.079 133.292C108.081 133.203 108.061 133.114 108.02 133.034C107.989 132.97 107.945 132.913 107.891 132.866Z" fill="#050029"/>
<path d="M146.027 149.599C152.484 152.887 159.494 151.493 161.661 144.266C165.307 132.479 150.085 119.505 141.043 130.073C136.341 135.117 138.269 145.648 146.027 149.599ZM147.288 148.989C139.504 145.699 137.511 135.464 141.853 130.796C150.086 121.177 163.934 133.223 160.621 143.95C158.754 150.155 153.159 151.471 147.282 148.988L147.288 148.989Z" fill="#050029"/>
<path d="M151.671 131.53C151.284 131.205 150.814 130.994 150.313 130.921C149.813 130.847 149.302 130.913 148.837 131.112L148.625 129.802C148.604 129.699 148.554 129.604 148.481 129.529C148.408 129.454 148.314 129.401 148.211 129.378C148.109 129.355 148.002 129.363 147.903 129.399C147.805 129.436 147.719 129.501 147.657 129.585C147.572 129.697 147.535 129.838 147.553 129.977L147.816 131.605C146.977 132.087 146.267 132.764 145.744 133.579C145.221 134.393 144.902 135.321 144.812 136.285C144.903 138.391 147.333 139.372 149.3 138.667C150.402 138.234 151.589 138.067 152.767 138.177C155.937 139.232 154.979 143.131 152.318 144.463C150.808 145.37 148.207 145.783 147.478 144.104C147.417 143.978 147.309 143.881 147.178 143.832C147.047 143.784 146.902 143.788 146.774 143.843C146.645 143.899 146.543 144.002 146.489 144.131C146.435 144.26 146.432 144.405 146.482 144.535C147.285 146.391 149.4 146.635 151.339 146.06L151.617 147.31C151.639 147.415 151.692 147.512 151.77 147.587C151.848 147.662 151.946 147.712 152.052 147.731C152.159 147.749 152.268 147.736 152.367 147.691C152.465 147.647 152.548 147.575 152.605 147.483C152.644 147.423 152.67 147.356 152.682 147.285C152.695 147.215 152.693 147.143 152.678 147.073L152.361 145.672C156.598 143.651 157.23 138.492 152.979 137.122C149.148 136.817 149.236 138.21 147.111 137.691C143.524 136.344 148.889 130.533 150.949 132.349C151.002 132.397 151.065 132.434 151.133 132.457C151.201 132.48 151.273 132.49 151.344 132.486C151.416 132.481 151.486 132.462 151.55 132.431C151.615 132.399 151.672 132.355 151.72 132.301C151.815 132.192 151.864 132.05 151.855 131.906C151.846 131.761 151.78 131.626 151.671 131.53Z" fill="#050029"/>
<path d="M173.181 171.972C171.963 165.035 165.075 160.703 159.105 160.517C148.506 160.177 144.919 172.224 151.35 179.287C158.935 187.616 175.098 184.015 173.181 171.972ZM172.11 172.15C173.118 178.489 168.763 182.236 162.353 182.691C155.256 183.194 148.019 177.304 149.423 168.883C152.384 156.64 170.193 161.24 172.11 172.15Z" fill="#050029"/>
<path d="M161.66 164.497C161.301 164.193 160.869 163.989 160.406 163.905C159.943 163.821 159.466 163.86 159.023 164.019L158.83 162.824C158.805 162.683 158.726 162.558 158.61 162.476C158.493 162.394 158.349 162.361 158.209 162.384C158.069 162.408 157.943 162.485 157.859 162.599C157.775 162.714 157.738 162.856 157.757 162.997L157.995 164.462C157.111 164.938 156.358 165.623 155.802 166.459C155.245 167.294 154.904 168.254 154.806 169.253C154.897 171.38 157.355 172.33 159.293 171.635C160.407 171.198 161.61 171.034 162.8 171.156C163.32 171.327 163.785 171.635 164.144 172.048C164.503 172.462 164.743 172.964 164.84 173.503C164.842 177.611 158.592 179.657 157.472 177.073C157.444 177.008 157.403 176.949 157.352 176.9C157.301 176.851 157.241 176.812 157.175 176.786C157.108 176.76 157.038 176.747 156.967 176.748C156.896 176.75 156.826 176.765 156.761 176.793C156.63 176.849 156.526 176.955 156.472 177.087C156.418 177.219 156.418 177.367 156.472 177.499C157.292 179.4 159.491 179.609 161.469 178.979L161.739 180.193C161.761 180.299 161.815 180.396 161.892 180.471C161.97 180.546 162.069 180.596 162.175 180.614C162.281 180.633 162.391 180.619 162.489 180.575C162.588 180.531 162.671 180.458 162.728 180.366C162.766 180.306 162.792 180.239 162.805 180.169C162.817 180.099 162.816 180.026 162.8 179.957L162.491 178.567C163.501 178.131 164.363 177.41 164.971 176.493C165.579 175.575 165.906 174.501 165.914 173.4C165.792 172.625 165.451 171.901 164.93 171.314C164.409 170.727 163.73 170.301 162.975 170.088C161.589 169.928 160.185 170.113 158.888 170.626C157.669 171.063 155.952 170.581 155.891 169.208C155.801 167.068 159.338 163.902 160.945 165.315C161.026 165.385 161.126 165.43 161.232 165.443C161.338 165.456 161.445 165.438 161.541 165.39C161.637 165.342 161.716 165.267 161.768 165.174C161.821 165.081 161.845 164.975 161.838 164.869C161.83 164.726 161.766 164.593 161.66 164.497Z" fill="#050029"/>
<path d="M117.571 186.135C124.82 186.135 130.443 181.712 129.092 174.287C126.991 162.129 107.539 157.477 104.279 170.997C102.251 177.068 108.549 186.135 117.571 186.135ZM118.43 185.018C109.687 185.629 103.456 176.895 105.322 171.296C108.311 158.922 126.111 163.449 128.023 174.478C129.179 180.831 124.82 184.571 118.43 185.018Z" fill="#050029"/>
<path d="M117.665 166.801C117.277 166.477 116.807 166.266 116.307 166.192C115.807 166.118 115.296 166.185 114.831 166.384L114.618 165.074C114.598 164.971 114.548 164.876 114.475 164.801C114.401 164.725 114.308 164.673 114.205 164.65C114.103 164.627 113.996 164.634 113.897 164.671C113.799 164.708 113.713 164.772 113.651 164.857C113.566 164.969 113.529 165.109 113.546 165.249L113.811 166.877C110.839 168.728 109.393 172.721 112.711 173.971C113.543 174.298 114.471 174.285 115.293 173.937C116.395 173.504 117.583 173.336 118.762 173.446C119.288 173.616 119.759 173.925 120.125 174.341C120.491 174.756 120.739 175.262 120.841 175.805C120.842 179.91 114.591 181.963 113.473 179.374C113.416 179.242 113.309 179.137 113.176 179.084C113.042 179.03 112.892 179.031 112.759 179.087C112.627 179.144 112.523 179.251 112.469 179.385C112.415 179.518 112.416 179.668 112.472 179.801C113.27 181.638 115.347 181.896 117.283 181.339L117.527 182.442C117.562 182.58 117.648 182.699 117.769 182.773C117.89 182.848 118.035 182.873 118.173 182.842C118.312 182.811 118.434 182.728 118.511 182.608C118.589 182.489 118.616 182.344 118.587 182.205L118.309 180.955C122.872 178.828 123.001 173.682 118.973 172.384C115.064 172.075 114.768 173.629 113.105 172.954C109.497 171.595 114.892 165.804 116.944 167.611C117.052 167.698 117.189 167.74 117.328 167.728C117.466 167.716 117.594 167.651 117.686 167.547C117.778 167.444 117.827 167.309 117.823 167.17C117.819 167.032 117.763 166.9 117.665 166.801Z" fill="#050029"/>
<path d="M70.0611 188.616C77.3415 188.616 82.9256 184.184 81.7472 176.78C79.6245 164.527 60.1733 160.03 56.9322 173.478C54.8443 179.726 61.0948 188.616 70.0611 188.616ZM70.9271 187.5C62.2027 188.12 56.0661 179.518 57.9756 173.777C60.9612 161.406 78.7629 165.926 80.6753 176.959C81.6842 183.3 77.3294 187.044 70.9271 187.503V187.5Z" fill="#050029"/>
<path d="M70.1118 169.3C69.7233 168.977 69.2531 168.767 68.753 168.694C68.253 168.62 67.7422 168.686 67.2773 168.884L67.0658 167.574C67.0455 167.471 66.9956 167.376 66.9223 167.301C66.849 167.225 66.7554 167.173 66.6529 167.15C66.5503 167.127 66.4433 167.134 66.3448 167.171C66.2464 167.208 66.1606 167.272 66.0982 167.357C66.0138 167.469 65.9764 167.609 65.9939 167.748L66.2577 169.376C65.4186 169.859 64.708 170.536 64.1852 171.35C63.6625 172.164 63.3432 173.092 63.2539 174.056C63.3449 176.166 65.7806 177.141 67.7413 176.438C68.8433 176.006 70.0313 175.837 71.21 175.947C71.7397 176.121 72.2122 176.435 72.5778 176.856C72.9431 177.277 73.1878 177.789 73.2854 178.337C73.2394 179.15 72.9823 179.937 72.5395 180.621C72.0968 181.304 71.4835 181.86 70.7604 182.234C69.2601 183.135 66.6527 183.558 65.9195 181.875C65.8912 181.81 65.8504 181.751 65.7994 181.702C65.7483 181.652 65.6881 181.614 65.622 181.588C65.5559 181.562 65.4853 181.549 65.4143 181.55C65.3434 181.551 65.2734 181.567 65.2083 181.595C65.0771 181.651 64.9734 181.757 64.9194 181.889C64.8654 182.021 64.8654 182.169 64.9196 182.301C65.7171 184.143 67.859 184.406 69.7787 183.841L70.0549 185.076C70.0894 185.214 70.1764 185.332 70.297 185.407C70.4177 185.482 70.5628 185.506 70.7014 185.476C70.8404 185.445 70.9618 185.361 71.0392 185.242C71.1168 185.123 71.1441 184.977 71.1152 184.838L70.8008 183.441C75.5954 181.086 75.2554 176.122 71.4186 174.887C67.5954 174.584 67.6793 175.976 65.551 175.457C61.9639 174.109 67.3268 168.3 69.3894 170.114C69.4703 170.184 69.5699 170.229 69.6761 170.243C69.7822 170.257 69.8902 170.24 69.9865 170.193C70.0828 170.146 70.1631 170.072 70.2177 169.98C70.2723 169.888 70.2984 169.781 70.2931 169.675C70.2891 169.603 70.2709 169.533 70.2399 169.469C70.2087 169.405 70.1653 169.347 70.1118 169.3Z" fill="#050029"/>
<path d="M0.661725 183.838C0.573376 183.857 0.481666 183.854 0.394537 183.83C0.308272 183.804 0.229576 183.758 0.165233 183.695C0.100906 183.632 0.0528791 183.554 0.0252591 183.468C-0.00219739 183.383 -0.00737334 183.291 0.0102368 183.203L18.3238 90.0697C18.3476 89.9479 18.4128 89.8382 18.5084 89.759C18.6029 89.6787 18.7222 89.6337 18.8462 89.6315L156.696 86.682C156.813 86.6776 156.928 86.7115 157.023 86.7787C157.118 86.8462 157.188 86.943 157.223 87.0544L192.775 193.846C192.802 193.925 192.81 194.009 192.799 194.092C192.788 194.174 192.758 194.253 192.711 194.322C192.665 194.391 192.603 194.449 192.53 194.49C192.458 194.531 192.377 194.555 192.294 194.559C45.8181 203.531 46.0762 203.681 45.8016 203.406L21.3334 179.24L0.661725 183.838ZM46.6032 202.449L191.522 193.513L156.323 87.7733L19.5487 90.6986L46.6032 202.449Z" fill="#050029"/>
<path d="M148.973 69.9905C147.547 68.8518 146.042 67.8146 144.47 66.8867C150.834 71.2394 150.213 83.1851 143.228 93.5836C136.268 103.94 125.302 108.759 118.927 104.495C120.356 105.586 121.803 106.517 123.358 107.554C129.723 111.899 140.744 107.087 147.73 96.6889C154.716 86.2907 155.338 74.3373 148.973 69.9905Z" fill="#A66CFF"/>
<path d="M143.112 93.5123C150.21 83.0991 150.793 71.1352 144.417 66.7915C138.04 62.4464 127.118 67.3679 120.021 77.7813C112.925 88.1946 112.341 100.158 118.716 104.502C125.093 108.847 136.015 103.926 143.112 93.5123Z" fill="white"/>
<path d="M149.312 69.5658C148.005 68.5196 146.631 67.5594 145.199 66.6916C141.469 63.7917 136.559 64.3246 132.267 66.2579C115.885 73.6393 107.299 99.4835 119.488 105.583C120.389 106.235 121.309 106.841 122.256 107.47C124.14 108.943 126.47 109.727 128.861 109.694C136.448 109.694 143.862 103.428 148.185 96.9907C155.342 86.331 155.835 74.0176 149.312 69.5658ZM114.86 93.4469C115.662 76.9848 134.342 60.5768 144.111 67.2424C153.946 73.941 145.387 97.3072 130.422 104.049C121.262 108.177 114.371 103.481 114.86 93.4469ZM147.284 96.3858C143.046 102.69 136.926 107.284 131.317 108.364C130.021 108.676 128.676 108.725 127.361 108.508C126.046 108.291 124.788 107.812 123.661 107.101L122.851 106.563C135.131 107.947 149.752 91.1039 149.383 76.4731C149.395 74.1319 148.841 71.8224 147.768 69.7414C148.068 69.9665 148.368 70.1917 148.668 70.4394C154.731 74.5804 154.11 86.2201 147.28 96.3858H147.284Z" fill="#050029"/>
<path d="M143.956 72.5388L142.548 73.8191C142.053 72.9651 141.296 72.2926 140.39 71.9C139.485 71.5075 138.477 71.4159 137.515 71.6383C133.724 72.5854 131.278 78.1899 130.61 79.8933C128.549 85.4467 129.982 92.0628 125.147 95.9966C124.738 96.4586 124.204 96.7929 123.609 96.9597C123.015 97.1266 122.386 97.1192 121.795 96.9383C121.205 96.7572 120.68 96.4104 120.281 95.9391C119.883 95.4676 119.628 94.8916 119.548 94.2797C119.22 92.3414 119.422 90.3504 120.133 88.5176C120.172 88.4193 120.18 88.3119 120.158 88.2086C120.136 88.1055 120.084 88.0109 120.009 87.9369C119.934 87.8628 119.838 87.8123 119.735 87.7918C119.631 87.7712 119.524 87.7815 119.426 87.8213C119.295 87.8725 119.19 87.9725 119.131 88.1004C118.236 90.3498 118.078 92.825 118.68 95.1697L116.921 96.9272C116.851 97.0044 116.804 97.0999 116.787 97.2026C116.77 97.3053 116.782 97.411 116.823 97.5069C116.863 97.6028 116.931 97.6849 117.017 97.7437C117.103 97.8024 117.204 97.8353 117.308 97.8383C117.448 97.8416 117.585 97.7905 117.688 97.6958L119.189 96.2038C119.537 96.7521 120.007 97.2131 120.562 97.5513C121.116 97.8897 121.741 98.0961 122.388 98.155C123.035 98.2127 123.687 98.1209 124.293 97.8866C124.899 97.6523 125.443 97.2819 125.883 96.8042C131.058 92.6016 129.646 85.6389 131.635 80.282C133.256 76.1126 136.889 70.7272 140.442 73.1873C141.06 73.6641 141.576 74.2586 141.963 74.9364C142.349 75.6141 142.598 76.3619 142.694 77.1361C142.747 79.1937 142.34 81.2373 141.502 83.1174C141.466 83.2135 141.459 83.3175 141.48 83.4177C141.501 83.5177 141.55 83.6099 141.621 83.6836C141.692 83.7573 141.783 83.8093 141.882 83.8339C141.982 83.8587 142.086 83.8548 142.183 83.8228C142.313 83.7791 142.422 83.6881 142.488 83.5676C143.4 81.525 143.84 79.3033 143.776 77.0671C143.68 76.2734 143.453 75.5011 143.105 74.7812L144.689 73.3419C144.794 73.2442 144.857 73.1092 144.863 72.9657C144.87 72.8222 144.82 72.6819 144.725 72.5749C144.627 72.4684 144.492 72.4047 144.348 72.3981C144.204 72.3913 144.063 72.4419 143.956 72.5388Z" fill="#050029"/>
<path d="M62.9573 52.0959C61.093 39.6789 53.5108 30.7079 45.7246 31.607C43.9581 31.8108 42.1985 32.0696 40.4482 32.3829C48.0542 31.2978 55.6619 40.4534 57.5248 52.8706C59.3262 64.8329 54.9174 75.4997 47.7916 77.2363C49.3257 77.0712 50.8223 76.8461 52.4 76.6196C60.0077 75.5329 64.8232 64.513 62.9573 52.0959Z" fill="#A66CFF"/>
<path d="M40.4233 32.1413C48.0579 31.0321 55.7152 40.2462 57.5255 52.7145C59.3358 65.1826 54.6164 76.1917 46.9816 77.2995C39.347 78.4071 31.6868 69.1945 29.8689 56.7278C28.0512 44.2612 32.7871 33.249 40.4233 32.1413Z" fill="white"/>
<path d="M63.4936 51.8607C61.5616 38.9857 53.7514 29.9772 45.6754 30.9123C44.2332 31.0735 42.7956 31.2737 41.3641 31.5127C27.7822 31.9795 24.5832 58.9345 35.825 72.4533C39.0479 76.3286 43.5317 78.9476 48.2842 77.5728C49.6262 77.4227 50.9952 77.2141 52.4754 77.0025C53.9107 76.7504 55.2806 76.2132 56.5046 75.4224C57.7285 74.6318 58.7815 73.6037 59.6012 72.3991C63.2368 67.5211 64.6914 59.8425 63.4936 51.8607ZM36.6611 71.7598C25.9777 58.909 28.8448 32.5948 41.6809 32.5948C44.8077 32.5948 47.9855 34.3674 50.7415 37.6829C54.1491 42.0639 56.3077 47.2849 56.9893 52.7926C59.7977 72.1215 47.0894 84.3045 36.6611 71.7598ZM58.7275 71.7598C57.9933 72.849 57.048 73.7798 55.9475 74.4969C54.847 75.2142 53.6137 75.7033 52.3208 75.9354C49.8109 76.2941 52.4828 76.3857 55.2554 71.5272C62.6664 58.7544 56.4894 36.1055 44.9623 32.086C45.243 32.0545 45.5237 32.0305 45.7969 31.9975C53.1704 31.1434 60.6054 39.9523 62.4157 52.0287C63.5581 59.6084 62.1439 67.1685 58.7306 71.7524L58.7275 71.7598Z" fill="#050029"/>
<path d="M50.2807 46.1932C49.6262 44.0426 48.4481 42.0881 46.8521 40.5048C46.2154 39.9743 45.4917 39.5579 44.7131 39.274L44.8706 36.9206C44.8753 36.7797 44.825 36.6425 44.7304 36.538C44.6357 36.4336 44.5043 36.3699 44.3635 36.3606C44.2228 36.3512 44.0842 36.3969 43.9766 36.4879C43.869 36.579 43.8009 36.7083 43.7869 36.8485L43.6442 38.9633C42.7153 38.6771 41.7183 38.7015 40.8045 39.0331C39.8908 39.3646 39.1101 39.9851 38.581 40.8004C36.9882 43.5021 37.8994 48.266 39.1648 51.517C41.3535 57.1454 46.756 61.0043 45.9619 67.092C45.907 67.7127 45.697 68.3097 45.351 68.8278C45.0049 69.3461 44.5341 69.7691 43.982 70.0578C43.4251 70.2681 42.8229 70.3291 42.2353 70.235C41.6475 70.1406 41.0946 69.8944 40.6314 69.5206C39.1093 68.2598 37.9372 66.6285 37.2284 64.7837C37.1875 64.687 37.1192 64.6046 37.0321 64.5459C36.9451 64.4874 36.8428 64.4555 36.7379 64.4539C36.633 64.4523 36.5299 64.4812 36.4412 64.5371C36.3523 64.5929 36.2817 64.6734 36.2377 64.7687C36.1784 64.8958 36.1704 65.0408 36.2152 65.174C37.0795 67.4813 38.6355 69.4654 40.6704 70.8548L40.5203 73.1707C40.5188 73.2752 40.5472 73.3777 40.6022 73.4664C40.6572 73.5551 40.7365 73.6263 40.8309 73.6711C40.925 73.7161 41.0303 73.7329 41.1338 73.7198C41.2373 73.7066 41.335 73.6641 41.4151 73.597C41.5218 73.506 41.5894 73.3777 41.6042 73.2384L41.7288 71.248C42.6609 71.4618 43.6374 71.3616 44.5066 70.9632C45.3759 70.5648 46.089 69.8904 46.5353 69.0448C46.831 68.4838 47.0006 67.8649 47.0322 67.2316C47.8878 60.6726 42.2708 56.5271 40.1721 51.1222C38.6936 47.3249 37.5468 40.6489 41.5908 39.9614C42.3957 39.8699 43.211 39.9417 43.9875 40.1725C44.7642 40.4034 45.4863 40.7884 46.1105 41.3048C47.5666 42.7561 48.6402 44.5454 49.2359 46.5129C49.2558 46.5828 49.2893 46.648 49.3348 46.7047C49.3802 46.7614 49.4365 46.8085 49.5003 46.8432C49.564 46.8779 49.6342 46.8995 49.7065 46.9068C49.7789 46.9141 49.8518 46.9069 49.9212 46.8856C49.9908 46.8644 50.0553 46.8295 50.111 46.783C50.1668 46.7365 50.2128 46.6794 50.2463 46.6149C50.2799 46.5504 50.3 46.4799 50.306 46.4075C50.3119 46.3351 50.3033 46.2623 50.2807 46.1932Z" fill="#050029"/>
</svg>
