<svg width="24" height="24" viewBox="0 0 24 24" fill="none" xmlns="http://www.w3.org/2000/svg">
<circle cx="12" cy="12" r="12" fill="#030303"/>
<mask id="mask0_16686_192988" style="mask-type:alpha" maskUnits="userSpaceOnUse" x="0" y="0" width="24" height="24">
<circle cx="12" cy="12" r="12" fill="#030303"/>
</mask>
<g mask="url(#mask0_16686_192988)">
<path fill-rule="evenodd" clip-rule="evenodd" d="M11.8103 2.86833C11.998 2.57357 12.4335 2.61344 12.5815 2.91315C12.7277 3.20927 12.9304 3.54815 13.1605 3.80883C13.4 4.08016 13.6221 4.2137 13.8042 4.2137C13.9922 4.2137 14.2195 4.1241 14.4656 3.96078C14.707 3.80059 14.9405 3.58687 15.1345 3.38003C15.2784 3.22662 15.4821 3.21937 15.6254 3.26657C15.7686 3.31375 15.9264 3.43961 15.9542 3.64525C15.9915 3.92064 16.0622 4.21738 16.1789 4.46801C16.2965 4.72058 16.4485 4.9008 16.6346 4.98743C16.8165 5.07216 17.0438 5.08891 17.2987 5.05035C17.5522 5.012 17.8141 4.92168 18.0486 4.8148C18.251 4.72251 18.4521 4.80877 18.5664 4.90479C18.6807 5.00089 18.7993 5.18313 18.7462 5.39714C18.6887 5.62877 18.6578 5.86789 18.6773 6.07486C18.6968 6.28134 18.7631 6.42982 18.8744 6.52329C19.0264 6.65104 19.2824 6.73238 19.6057 6.76622C19.9214 6.79926 20.2645 6.78341 20.5543 6.74935C20.7404 6.72748 20.8939 6.82489 20.9779 6.94555C21.0617 7.06602 21.0994 7.24258 21.0173 7.40875C20.9005 7.64521 20.7921 7.92256 20.7425 8.18289C20.6916 8.45036 20.7111 8.65498 20.7919 8.78627C20.8802 8.92967 21.0908 9.07541 21.4005 9.20364C21.6993 9.32729 22.0463 9.41704 22.3488 9.47504C22.5377 9.51127 22.6549 9.65651 22.6949 9.80119C22.7349 9.94569 22.709 10.1296 22.5677 10.2581C22.3534 10.4531 22.1279 10.6914 21.9673 10.9301C21.7997 11.1794 21.7363 11.3795 21.7585 11.5154C21.7786 11.6378 21.8828 11.792 22.0891 11.9631C22.2878 12.1278 22.545 12.2783 22.7973 12.4008C22.9983 12.4984 23.0568 12.7085 23.0538 12.8564C23.0508 13.0052 22.985 13.2035 22.799 13.302C22.3936 13.5166 22.0749 13.845 22.1049 14.2983C22.1206 14.5358 22.2888 14.7492 22.6011 14.9358C22.909 15.1198 23.3085 15.2464 23.6715 15.3223C23.8694 15.3637 23.983 15.5231 24.0197 15.6687C24.0563 15.814 24.0319 16.0068 23.8807 16.1377C23.6655 16.3242 23.4382 16.5608 23.2665 16.821C23.0937 17.083 22.9889 17.351 22.9889 17.6061C22.9889 17.8294 23.1118 18.0487 23.3402 18.2597C23.5671 18.4692 23.8716 18.6446 24.1654 18.7751C24.3592 18.8612 24.4336 19.0534 24.4355 19.2057C24.4374 19.358 24.3676 19.5534 24.1732 19.6429C23.8763 19.7796 23.5674 19.9567 23.3369 20.158C23.0999 20.3651 22.9889 20.559 22.9889 20.7279C22.9889 20.9342 23.0896 21.1841 23.2685 21.4522C23.444 21.7151 23.676 21.9679 23.8951 22.1736C24.0435 22.3131 24.0569 22.51 24.0091 22.6545C23.9612 22.799 23.8331 22.9491 23.6307 22.9724C23.3064 23.0098 22.9467 23.0814 22.6487 23.1997C22.3405 23.322 22.1527 23.4723 22.086 23.6321C22.01 23.8142 21.9974 24.0771 22.041 24.3815C22.0837 24.6798 22.176 24.9882 22.2779 25.2408C22.3523 25.4253 22.2876 25.6088 22.1927 25.7229C22.0975 25.8373 21.9244 25.9375 21.7237 25.8858C21.4076 25.8044 21.0538 25.7445 20.732 25.773C20.4151 25.8012 20.1506 25.9121 19.9692 26.1544C19.5917 26.6588 19.5613 27.2675 19.6371 27.7253C19.6691 27.919 19.5695 28.0845 19.4568 28.1782C19.344 28.272 19.1562 28.3435 18.9661 28.2589C18.6972 28.1391 18.3839 28.0226 18.0875 27.9554C17.7825 27.8862 17.5342 27.8785 17.3722 27.9352C17.3024 27.9596 17.22 28.0183 17.1295 28.1256C17.04 28.2316 16.9537 28.3718 16.8731 28.5363C16.7119 28.8653 16.5877 29.2616 16.5062 29.5967C16.4238 29.936 15.9969 30.0448 15.755 29.8136C15.5477 29.6155 15.2768 29.3975 14.986 29.2379C14.6918 29.0765 14.4021 28.9884 14.1474 29.0129C13.9015 29.0366 13.6217 29.2045 13.3382 29.475C13.0611 29.7395 12.8119 30.0718 12.6272 30.3614C12.5268 30.5187 12.3553 30.5755 12.2104 30.5659C12.0658 30.5563 11.9059 30.4783 11.8245 30.3152C11.5947 29.8545 11.178 29.2661 10.6028 28.9892C10.3741 28.879 10.1077 28.9025 9.81324 29.0335C9.51817 29.1648 9.22635 29.3915 8.98294 29.629C8.8241 29.784 8.60495 29.7693 8.46771 29.7227C8.32927 29.6758 8.15423 29.5571 8.11072 29.3511C8.03004 28.969 7.83543 28.5101 7.42912 28.1528C7.20852 27.9588 6.92537 27.901 6.60892 27.9354C6.28962 27.97 5.95912 28.0972 5.68559 28.2428C5.51773 28.3322 5.33651 28.2952 5.2136 28.2172C5.09065 28.1391 4.97974 27.9903 4.99052 27.7994C5.02021 27.2737 4.95153 26.5935 4.62117 26.155C4.48924 25.9799 4.25129 25.8567 3.92941 25.7864C3.6121 25.7171 3.24796 25.7072 2.91198 25.7283C2.67478 25.7433 2.51609 25.5634 2.44669 25.4362C2.37582 25.3063 2.31731 25.0875 2.43044 24.8985C2.61193 24.5954 2.73671 24.212 2.66048 23.7986C2.62125 23.5858 2.437 23.3989 2.10102 23.2475C1.77243 23.0994 1.3561 23.0132 0.974804 22.9714C0.762428 22.9481 0.634197 22.7858 0.588999 22.6389C0.543815 22.4921 0.558609 22.2864 0.719665 22.1474C0.957901 21.9418 1.20078 21.6935 1.37332 21.4383C1.54994 21.1771 1.6279 20.9459 1.60326 20.7612C1.57758 20.5688 1.42526 20.3546 1.15699 20.1377C0.89634 19.927 0.565497 19.7457 0.264293 19.6111C0.0826238 19.5299 0.00314588 19.3538 9.22615e-05 19.2015C-0.00296468 19.0489 0.0697297 18.869 0.25012 18.7816C0.571883 18.6257 0.924933 18.4214 1.19338 18.1972C1.47666 17.9607 1.60105 17.756 1.60105 17.6061C1.60105 17.4137 1.48501 17.1541 1.27314 16.8622C1.06815 16.5797 0.801711 16.3049 0.564557 16.09C0.303138 15.8532 0.413486 15.4024 0.765097 15.3235C1.18929 15.2282 1.68843 15.0783 2.07541 14.8816C2.26939 14.783 2.42204 14.6792 2.52307 14.575C2.62323 14.4716 2.65631 14.3858 2.65631 14.3149C2.65631 14.1416 2.56386 13.9609 2.38097 13.7777C2.19968 13.5961 1.95334 13.4369 1.70741 13.3117C1.5164 13.2145 1.45424 13.0149 1.45658 12.8659C1.45892 12.7169 1.52702 12.521 1.71736 12.4281C1.92973 12.3244 2.14658 12.1897 2.32132 12.028C2.49648 11.8659 2.6175 11.6878 2.66327 11.4973C2.7044 11.326 2.67348 11.1414 2.58272 10.9474C2.49153 10.7524 2.34623 10.5625 2.18432 10.3954C2.02929 10.2353 2.04213 10.0146 2.09226 9.87383C2.14228 9.73336 2.27298 9.55163 2.49867 9.5301C2.79811 9.50154 3.09559 9.43613 3.32048 9.32126C3.542 9.2081 3.66318 9.06471 3.68963 8.88217C3.76544 8.35882 3.58299 7.72195 3.38198 7.25096C3.30368 7.06748 3.36613 6.88435 3.46297 6.77031C3.55981 6.65626 3.73046 6.5649 3.92429 6.61262C4.19699 6.67975 4.50183 6.72774 4.76975 6.72005C5.04688 6.71211 5.23034 6.6465 5.32501 6.54465C5.43391 6.4275 5.51746 6.20946 5.56464 5.91139C5.61037 5.62242 5.61611 5.29735 5.60207 5.00688C5.59197 4.79784 5.72693 4.64731 5.86121 4.57795C5.99526 4.50871 6.19275 4.48647 6.35725 4.60723C6.58872 4.77716 6.86164 4.93413 7.13239 5.01574C7.40299 5.09731 7.646 5.09679 7.84752 4.9922C8.06529 4.87918 8.23541 4.67296 8.36355 4.41004C8.49127 4.14798 8.56807 3.84783 8.60837 3.5787C8.63731 3.38545 8.78106 3.26024 8.9234 3.21182C9.06635 3.16319 9.26126 3.17482 9.40065 3.32184C9.63052 3.5643 9.90235 3.82094 10.1541 4.0018C10.2804 4.09252 10.393 4.1578 10.4862 4.19444C10.584 4.23293 10.629 4.22752 10.6397 4.22432C10.6821 4.2116 10.756 4.16969 10.8595 4.07929C10.9585 3.99273 11.0676 3.87713 11.1806 3.74242C11.4065 3.4733 11.6334 3.14605 11.8103 2.86833L12.0226 3.00358L12.0238 3.00435M12.0226 3.00358L11.8103 2.86833Z" fill="white"/>
<mask id="path-4-outside-1_16686_192988" maskUnits="userSpaceOnUse" x="-1.10229" y="1.64716" width="26" height="30" fill="black">
<rect fill="white" x="-1.10229" y="1.64716" width="26" height="30"/>
<path fill-rule="evenodd" clip-rule="evenodd" d="M12.0747 3.20934C11.9001 3.47767 11.6841 3.78429 11.464 4.04655C11.3415 4.19246 11.214 4.3292 11.0884 4.43895C10.9671 4.54486 10.8281 4.64323 10.6821 4.68702C10.5143 4.73741 10.3419 4.69944 10.1996 4.64346C10.0525 4.58563 9.90198 4.49452 9.75812 4.39119C9.49274 4.20057 9.22048 3.9466 8.99181 3.71016C8.94361 3.99462 8.8576 4.31613 8.71385 4.61109C8.55747 4.93195 8.32346 5.23982 7.97716 5.41955C7.61889 5.6055 7.22932 5.58213 6.88479 5.47827C6.5616 5.38085 6.25568 5.20661 6.00551 5.02862C6.01675 5.32404 6.00892 5.6592 5.95963 5.97057C5.9081 6.29613 5.80506 6.63815 5.59148 6.86792C5.35749 7.11963 5.00292 7.19459 4.68189 7.2038C4.37658 7.21255 4.05143 7.1634 3.76977 7.09824C3.9728 7.5918 4.17765 8.29951 4.08562 8.93482C4.02766 9.33486 3.75538 9.59268 3.44722 9.7501C3.15055 9.90164 2.7936 9.97629 2.47063 10.0092C2.46839 10.0131 2.46618 10.0179 2.46428 10.0232C2.46195 10.0297 2.46049 10.036 2.45978 10.0415C2.45975 10.0418 2.45981 10.0413 2.45978 10.0415C2.64018 10.2303 2.81753 10.4602 2.93648 10.7145C3.05938 10.9772 3.12603 11.281 3.05053 11.5953C2.97418 11.9133 2.78197 12.1735 2.561 12.378C2.3463 12.5767 2.09322 12.7334 1.85793 12.8502C1.85781 12.8515 1.85773 12.8529 1.85771 12.8543C1.8577 12.8548 1.8577 12.8554 1.85771 12.8559C2.12323 12.9932 2.40948 13.1766 2.635 13.4025C2.86579 13.6337 3.0575 13.9349 3.0575 14.2954C3.0575 14.5405 2.93804 14.7452 2.7823 14.9059C2.62742 15.0656 2.42079 15.1993 2.20126 15.3109C1.79593 15.5169 1.30172 15.6699 0.879736 15.7705C1.11291 15.9886 1.37017 16.26 1.57835 16.5469C1.80361 16.8573 2.00223 17.2272 2.00223 17.5866C2.00223 17.9798 1.71136 18.3157 1.41379 18.5642C1.12788 18.8029 0.774118 19.0117 0.455048 19.1719C0.757137 19.313 1.09183 19.5008 1.37119 19.7266C1.67023 19.9683 1.94834 20.2878 2.00002 20.6751C2.04895 21.0418 1.89034 21.4017 1.68812 21.7008C1.49672 21.9839 1.2434 22.2463 1.00234 22.4601C1.39192 22.5078 1.83334 22.6012 2.20555 22.7689C2.59446 22.9442 2.9689 23.2299 3.05332 23.6878C3.15722 24.2513 2.98658 24.7538 2.7686 25.1234C2.76991 25.1357 2.7752 25.155 2.78638 25.1755C2.79358 25.1887 2.80095 25.1983 2.80677 25.2046C3.16258 25.184 3.56549 25.1944 3.93449 25.275C4.30888 25.3567 4.68461 25.5187 4.92102 25.8325C5.34854 26.4001 5.41812 27.1993 5.39362 27.7543C5.69344 27.5999 6.06797 27.457 6.45233 27.4153C6.85988 27.3711 7.30043 27.4395 7.65933 27.7552C8.16224 28.1975 8.39889 28.757 8.49754 29.2111C8.49979 29.2129 8.50275 29.2149 8.50646 29.2171C8.51251 29.2206 8.51956 29.2238 8.52712 29.2264C8.53461 29.2289 8.54159 29.2305 8.54747 29.2312C8.81115 28.9767 9.14478 28.7148 9.50629 28.5539C9.87686 28.3891 10.3081 28.3181 10.719 28.516C11.4124 28.85 11.8833 29.5133 12.1409 30.0084C12.3352 29.7117 12.5935 29.3726 12.8883 29.0913C13.1977 28.796 13.5806 28.5323 13.9969 28.4922C14.3943 28.454 14.7893 28.5923 15.1259 28.777C15.4352 28.9467 15.7163 29.1672 15.9367 29.3702C16.0231 29.0331 16.1505 28.6385 16.3187 28.2952C16.4103 28.1083 16.5176 27.9291 16.6424 27.7813C16.7661 27.6347 16.9186 27.5051 17.1036 27.4404C17.4027 27.3358 17.7661 27.3699 18.0966 27.4449C18.4222 27.5187 18.7542 27.6414 19.0342 27.7642C18.9504 27.2308 18.9815 26.4777 19.4639 25.8332C19.7564 25.4423 20.1746 25.2884 20.5852 25.252C20.9688 25.218 21.3638 25.2839 21.6907 25.3645C21.5838 25.0906 21.4873 24.7611 21.4403 24.4333C21.3916 24.0932 21.3917 23.7236 21.5191 23.4186C21.6662 23.0662 22.0163 22.8489 22.3606 22.7122C22.687 22.5827 23.0584 22.5057 23.3871 22.463C23.1676 22.2507 22.9336 21.9911 22.7475 21.7122C22.5475 21.4126 22.3831 21.0617 22.3831 20.7084C22.3831 20.3198 22.6293 19.9987 22.9035 19.7593C23.1683 19.528 23.5004 19.3362 23.8054 19.1917C23.4979 19.0505 23.163 18.8563 22.8963 18.61C22.6155 18.3507 22.3831 18.0072 22.3831 17.5866C22.3831 17.1969 22.5408 16.8321 22.7439 16.5243C22.9341 16.2359 23.1745 15.9817 23.3993 15.7812C23.0237 15.6976 22.5943 15.5598 22.2405 15.3485C21.87 15.127 21.532 14.7924 21.5002 14.312C21.4508 13.5654 21.9836 13.0946 22.4453 12.8459C22.4456 12.845 22.4459 12.844 22.4461 12.8429C22.4473 12.838 22.448 12.8325 22.4481 12.8267C22.4482 12.8247 22.4481 12.8228 22.448 12.821C22.1836 12.6908 21.8988 12.5247 21.6654 12.3312C21.4317 12.1374 21.2094 11.8833 21.1594 11.5772C21.1047 11.2432 21.2629 10.9037 21.4473 10.6296C21.6195 10.3735 21.8449 10.1302 22.0565 9.93103C21.7557 9.86887 21.4136 9.77679 21.1057 9.64931C20.7757 9.51272 20.4367 9.31635 20.2609 9.03071C20.0821 8.74032 20.086 8.38268 20.1457 8.06918C20.2011 7.77781 20.3123 7.48506 20.4285 7.23894C20.1321 7.26948 19.7839 7.28228 19.451 7.24744C19.0944 7.21011 18.7162 7.11437 18.4482 6.88928C18.2007 6.68139 18.1005 6.38701 18.0738 6.10251C18.0478 5.82699 18.0877 5.53645 18.1495 5.27996C18.1486 5.27885 18.1475 5.27769 18.1464 5.2765C18.1445 5.27452 18.1424 5.27257 18.1402 5.2707C18.1379 5.26882 18.1357 5.26712 18.1334 5.26562C18.1327 5.26511 18.1319 5.26464 18.1312 5.26419C17.8747 5.37924 17.5758 5.48264 17.2717 5.52864C16.9596 5.57586 16.6227 5.56539 16.3197 5.42432C15.9849 5.26841 15.7645 4.97087 15.6202 4.66102C15.4833 4.36706 15.4038 4.03884 15.3605 3.74605C15.1569 3.95859 14.9087 4.1836 14.6417 4.36076C14.3623 4.54623 14.0349 4.69765 13.7019 4.69765C13.2921 4.69765 12.9416 4.41798 12.6807 4.1225C12.4363 3.84561 12.2284 3.50703 12.0747 3.20934ZM11.708 2.8488C11.8957 2.55404 12.3312 2.59391 12.4792 2.89361C12.6254 3.18974 12.8281 3.52862 13.0582 3.7893C13.2977 4.06063 13.5198 4.19416 13.7019 4.19416C13.8899 4.19416 14.1172 4.10457 14.3633 3.94125C14.6047 3.78106 14.8382 3.56734 15.0322 3.3605C15.1761 3.20709 15.3798 3.19984 15.5231 3.24704C15.6663 3.29422 15.8241 3.42007 15.8519 3.62571C15.8892 3.90111 15.9599 4.19785 16.0766 4.44848C16.1942 4.70105 16.3462 4.88127 16.5323 4.9679C16.7142 5.05263 16.9415 5.06938 17.1964 5.03082C17.4499 4.99247 17.7118 4.90214 17.9463 4.79526C18.1487 4.70298 18.3498 4.78924 18.4641 4.88526C18.5784 4.98136 18.697 5.1636 18.6439 5.37761C18.5865 5.60924 18.5555 5.84836 18.575 6.05533C18.5945 6.26181 18.6608 6.41029 18.7721 6.50376C18.9241 6.63151 19.1801 6.71285 19.5034 6.74669C19.8191 6.77972 20.1622 6.76388 20.452 6.72982C20.6381 6.70794 20.7916 6.80536 20.8756 6.92602C20.9594 7.04649 20.9971 7.22305 20.915 7.38922C20.7982 7.62568 20.6898 7.90302 20.6403 8.16336C20.5893 8.43083 20.6088 8.63545 20.6896 8.76674C20.7779 8.91014 20.9885 9.05588 21.2982 9.18411C21.597 9.30776 21.944 9.39751 22.2465 9.45551C22.4354 9.49174 22.5526 9.63698 22.5926 9.78166C22.6326 9.92616 22.6067 10.1101 22.4654 10.2386C22.2511 10.4336 22.0256 10.6718 21.865 10.9106C21.6974 11.1599 21.634 11.36 21.6563 11.4959C21.6763 11.6182 21.7805 11.7725 21.9868 11.9436C22.1855 12.1083 22.4427 12.2588 22.695 12.3813C22.896 12.4789 22.9545 12.689 22.9515 12.8369C22.9485 12.9857 22.8827 13.184 22.6967 13.2825C22.2913 13.4971 21.9726 13.8255 22.0026 14.2787C22.0183 14.5163 22.1865 14.7297 22.4988 14.9162C22.8067 15.1002 23.2062 15.2268 23.5692 15.3028C23.7671 15.3442 23.8807 15.5036 23.9174 15.6491C23.954 15.7945 23.9296 15.9873 23.7784 16.1182C23.5632 16.3047 23.3359 16.5413 23.1642 16.8015C22.9914 17.0635 22.8866 17.3315 22.8866 17.5866C22.8866 17.8099 23.0095 18.0292 23.2379 18.2401C23.4648 18.4497 23.7693 18.6251 24.0631 18.7556C24.2569 18.8417 24.3313 19.0339 24.3332 19.1862C24.3351 19.3385 24.2653 19.5338 24.0709 19.6233C23.774 19.76 23.4651 19.9372 23.2346 20.1385C22.9976 20.3455 22.8866 20.5394 22.8866 20.7084C22.8866 20.9147 22.9873 21.1646 23.1662 21.4327C23.3417 21.6955 23.5737 21.9484 23.7928 22.1541C23.9412 22.2936 23.9546 22.4904 23.9068 22.635C23.8589 22.7795 23.7308 22.9295 23.5284 22.9529C23.2041 22.9903 22.8444 23.0619 22.5464 23.1802C22.2382 23.3025 22.0504 23.4528 21.9837 23.6126C21.9077 23.7947 21.8952 24.0575 21.9387 24.3619C21.9814 24.6603 22.0737 24.9687 22.1756 25.2213C22.25 25.4058 22.1853 25.5892 22.0904 25.7034C21.9952 25.8177 21.8221 25.918 21.6214 25.8663C21.3053 25.7849 20.9515 25.725 20.6297 25.7535C20.3128 25.7816 20.0483 25.8926 19.8669 26.1349C19.4894 26.6393 19.459 27.248 19.5348 27.7057C19.5668 27.8994 19.4672 28.0649 19.3545 28.1587C19.2417 28.2524 19.0539 28.324 18.8638 28.2394C18.5949 28.1196 18.2816 28.0031 17.9852 27.9359C17.6802 27.8667 17.4319 27.859 17.2699 27.9156C17.2001 27.9401 17.1177 27.9988 17.0272 28.106C16.9377 28.212 16.8514 28.3523 16.7709 28.5168C16.6096 28.8458 16.4854 29.242 16.4039 29.5772C16.3215 29.9165 15.8946 30.0253 15.6527 29.7941C15.4454 29.596 15.1745 29.3779 14.8837 29.2184C14.5895 29.0569 14.2998 28.9689 14.0451 28.9934C13.7992 29.0171 13.5194 29.185 13.2359 29.4555C12.9588 29.72 12.7096 30.0522 12.5249 30.3419C12.4245 30.4992 12.253 30.556 12.1081 30.5464C11.9636 30.5368 11.8036 30.4588 11.7222 30.2957C11.4924 29.835 11.0757 29.2466 10.5006 28.9696C10.2718 28.8595 10.0054 28.8829 9.71094 29.014C9.41587 29.1452 9.12406 29.372 8.88065 29.6095C8.72181 29.7645 8.50266 29.7498 8.36541 29.7032C8.22697 29.6563 8.05194 29.5376 8.00843 29.3315C7.92775 28.9495 7.73314 28.4906 7.32682 28.1333C7.10623 27.9392 6.82308 27.8815 6.50663 27.9158C6.18733 27.9505 5.85682 28.0776 5.58329 28.2233C5.41543 28.3127 5.23421 28.2757 5.11131 28.1976C4.98835 28.1195 4.87744 27.9708 4.88822 27.7799C4.91792 27.2541 4.84923 26.574 4.51888 26.1355C4.38695 25.9604 4.149 25.8371 3.82711 25.7669C3.5098 25.6976 3.14567 25.6876 2.80969 25.7088C2.57248 25.7238 2.41379 25.5438 2.34439 25.4166C2.27353 25.2867 2.21501 25.068 2.32814 24.879C2.50963 24.5759 2.63442 24.1925 2.55818 23.779C2.51895 23.5663 2.3347 23.3793 1.99872 23.228C1.67013 23.0799 1.25381 22.9937 0.872509 22.9518C0.660133 22.9285 0.531902 22.7663 0.486704 22.6194C0.44152 22.4726 0.456314 22.2669 0.61737 22.1279C0.855606 21.9223 1.09849 21.674 1.27103 21.4188C1.44765 21.1576 1.5256 20.9263 1.50096 20.7417C1.47528 20.5492 1.32297 20.335 1.05469 20.1182C0.794046 19.9075 0.463202 19.7262 0.161998 19.5915C-0.0196711 19.5103 -0.099149 19.3343 -0.102203 19.1819C-0.10526 19.0294 -0.0325652 18.8494 0.147825 18.7621C0.469588 18.6062 0.822638 18.4019 1.09109 18.1777C1.37437 17.9412 1.49875 17.7365 1.49875 17.5866C1.49875 17.3941 1.38272 17.1346 1.17085 16.8426C0.96586 16.5601 0.699416 16.2854 0.462263 16.0705C0.200843 15.8336 0.311191 15.3828 0.662802 15.3039C1.08699 15.2087 1.58613 15.0588 1.97312 14.8621C2.16709 14.7635 2.31975 14.6597 2.42078 14.5554C2.52094 14.4521 2.55401 14.3663 2.55401 14.2954C2.55401 14.1221 2.46157 13.9414 2.27867 13.7582C2.09739 13.5766 1.85104 13.4173 1.60511 13.2922C1.4141 13.195 1.35195 12.9953 1.35429 12.8464C1.35663 12.6974 1.42472 12.5015 1.61507 12.4086C1.82744 12.3049 2.04429 12.1702 2.21902 12.0085C2.39419 11.8464 2.5152 11.6683 2.56097 11.4778C2.6021 11.3065 2.57119 11.1219 2.48043 10.9278C2.38923 10.7329 2.24393 10.543 2.08203 10.3758C1.92699 10.2158 1.93983 9.9951 1.98997 9.8543C2.03999 9.71383 2.17068 9.5321 2.39637 9.51057C2.69581 9.48201 2.9933 9.4166 3.21818 9.30172C3.4397 9.18857 3.56089 9.04518 3.58733 8.86264C3.66315 8.33929 3.4807 7.70242 3.27969 7.23143C3.20138 7.04794 3.26384 6.86482 3.36067 6.75078C3.45751 6.63673 3.62816 6.54537 3.822 6.59309C4.0947 6.66022 4.39954 6.7082 4.66746 6.70052C4.94458 6.69258 5.12804 6.62697 5.22271 6.52512C5.33161 6.40797 5.41516 6.18993 5.46234 5.89186C5.50808 5.60289 5.51381 5.27782 5.49978 4.98735C5.48967 4.77831 5.62463 4.62778 5.75891 4.55842C5.89297 4.48918 6.09046 4.46694 6.25496 4.5877C6.48642 4.75763 6.75934 4.9146 7.0301 4.99621C7.3007 5.07778 7.5437 5.07726 7.74523 4.97267C7.96299 4.85965 8.13311 4.65343 8.26125 4.39051C8.38898 4.12845 8.46578 3.8283 8.50608 3.55917C8.53502 3.36592 8.67877 3.2407 8.8211 3.19229C8.96405 3.14366 9.15896 3.15529 9.29835 3.30231C9.52823 3.54477 9.80006 3.80141 10.0518 3.98226C10.1782 4.07299 10.2907 4.13827 10.3839 4.17491C10.4818 4.2134 10.5268 4.20799 10.5374 4.20479C10.5798 4.19206 10.6537 4.15016 10.7572 4.05976C10.8563 3.9732 10.9653 3.8576 11.0783 3.72289C11.3042 3.45377 11.5311 3.12652 11.708 2.8488L11.9203 2.98405L11.9215 2.98482M11.9203 2.98405L11.708 2.8488Z"/>
</mask>
<path fill-rule="evenodd" clip-rule="evenodd" d="M12.0747 3.20934C11.9001 3.47767 11.6841 3.78429 11.464 4.04655C11.3415 4.19246 11.214 4.3292 11.0884 4.43895C10.9671 4.54486 10.8281 4.64323 10.6821 4.68702C10.5143 4.73741 10.3419 4.69944 10.1996 4.64346C10.0525 4.58563 9.90198 4.49452 9.75812 4.39119C9.49274 4.20057 9.22048 3.9466 8.99181 3.71016C8.94361 3.99462 8.8576 4.31613 8.71385 4.61109C8.55747 4.93195 8.32346 5.23982 7.97716 5.41955C7.61889 5.6055 7.22932 5.58213 6.88479 5.47827C6.5616 5.38085 6.25568 5.20661 6.00551 5.02862C6.01675 5.32404 6.00892 5.6592 5.95963 5.97057C5.9081 6.29613 5.80506 6.63815 5.59148 6.86792C5.35749 7.11963 5.00292 7.19459 4.68189 7.2038C4.37658 7.21255 4.05143 7.1634 3.76977 7.09824C3.9728 7.5918 4.17765 8.29951 4.08562 8.93482C4.02766 9.33486 3.75538 9.59268 3.44722 9.7501C3.15055 9.90164 2.7936 9.97629 2.47063 10.0092C2.46839 10.0131 2.46618 10.0179 2.46428 10.0232C2.46195 10.0297 2.46049 10.036 2.45978 10.0415C2.45975 10.0418 2.45981 10.0413 2.45978 10.0415C2.64018 10.2303 2.81753 10.4602 2.93648 10.7145C3.05938 10.9772 3.12603 11.281 3.05053 11.5953C2.97418 11.9133 2.78197 12.1735 2.561 12.378C2.3463 12.5767 2.09322 12.7334 1.85793 12.8502C1.85781 12.8515 1.85773 12.8529 1.85771 12.8543C1.8577 12.8548 1.8577 12.8554 1.85771 12.8559C2.12323 12.9932 2.40948 13.1766 2.635 13.4025C2.86579 13.6337 3.0575 13.9349 3.0575 14.2954C3.0575 14.5405 2.93804 14.7452 2.7823 14.9059C2.62742 15.0656 2.42079 15.1993 2.20126 15.3109C1.79593 15.5169 1.30172 15.6699 0.879736 15.7705C1.11291 15.9886 1.37017 16.26 1.57835 16.5469C1.80361 16.8573 2.00223 17.2272 2.00223 17.5866C2.00223 17.9798 1.71136 18.3157 1.41379 18.5642C1.12788 18.8029 0.774118 19.0117 0.455048 19.1719C0.757137 19.313 1.09183 19.5008 1.37119 19.7266C1.67023 19.9683 1.94834 20.2878 2.00002 20.6751C2.04895 21.0418 1.89034 21.4017 1.68812 21.7008C1.49672 21.9839 1.2434 22.2463 1.00234 22.4601C1.39192 22.5078 1.83334 22.6012 2.20555 22.7689C2.59446 22.9442 2.9689 23.2299 3.05332 23.6878C3.15722 24.2513 2.98658 24.7538 2.7686 25.1234C2.76991 25.1357 2.7752 25.155 2.78638 25.1755C2.79358 25.1887 2.80095 25.1983 2.80677 25.2046C3.16258 25.184 3.56549 25.1944 3.93449 25.275C4.30888 25.3567 4.68461 25.5187 4.92102 25.8325C5.34854 26.4001 5.41812 27.1993 5.39362 27.7543C5.69344 27.5999 6.06797 27.457 6.45233 27.4153C6.85988 27.3711 7.30043 27.4395 7.65933 27.7552C8.16224 28.1975 8.39889 28.757 8.49754 29.2111C8.49979 29.2129 8.50275 29.2149 8.50646 29.2171C8.51251 29.2206 8.51956 29.2238 8.52712 29.2264C8.53461 29.2289 8.54159 29.2305 8.54747 29.2312C8.81115 28.9767 9.14478 28.7148 9.50629 28.5539C9.87686 28.3891 10.3081 28.3181 10.719 28.516C11.4124 28.85 11.8833 29.5133 12.1409 30.0084C12.3352 29.7117 12.5935 29.3726 12.8883 29.0913C13.1977 28.796 13.5806 28.5323 13.9969 28.4922C14.3943 28.454 14.7893 28.5923 15.1259 28.777C15.4352 28.9467 15.7163 29.1672 15.9367 29.3702C16.0231 29.0331 16.1505 28.6385 16.3187 28.2952C16.4103 28.1083 16.5176 27.9291 16.6424 27.7813C16.7661 27.6347 16.9186 27.5051 17.1036 27.4404C17.4027 27.3358 17.7661 27.3699 18.0966 27.4449C18.4222 27.5187 18.7542 27.6414 19.0342 27.7642C18.9504 27.2308 18.9815 26.4777 19.4639 25.8332C19.7564 25.4423 20.1746 25.2884 20.5852 25.252C20.9688 25.218 21.3638 25.2839 21.6907 25.3645C21.5838 25.0906 21.4873 24.7611 21.4403 24.4333C21.3916 24.0932 21.3917 23.7236 21.5191 23.4186C21.6662 23.0662 22.0163 22.8489 22.3606 22.7122C22.687 22.5827 23.0584 22.5057 23.3871 22.463C23.1676 22.2507 22.9336 21.9911 22.7475 21.7122C22.5475 21.4126 22.3831 21.0617 22.3831 20.7084C22.3831 20.3198 22.6293 19.9987 22.9035 19.7593C23.1683 19.528 23.5004 19.3362 23.8054 19.1917C23.4979 19.0505 23.163 18.8563 22.8963 18.61C22.6155 18.3507 22.3831 18.0072 22.3831 17.5866C22.3831 17.1969 22.5408 16.8321 22.7439 16.5243C22.9341 16.2359 23.1745 15.9817 23.3993 15.7812C23.0237 15.6976 22.5943 15.5598 22.2405 15.3485C21.87 15.127 21.532 14.7924 21.5002 14.312C21.4508 13.5654 21.9836 13.0946 22.4453 12.8459C22.4456 12.845 22.4459 12.844 22.4461 12.8429C22.4473 12.838 22.448 12.8325 22.4481 12.8267C22.4482 12.8247 22.4481 12.8228 22.448 12.821C22.1836 12.6908 21.8988 12.5247 21.6654 12.3312C21.4317 12.1374 21.2094 11.8833 21.1594 11.5772C21.1047 11.2432 21.2629 10.9037 21.4473 10.6296C21.6195 10.3735 21.8449 10.1302 22.0565 9.93103C21.7557 9.86887 21.4136 9.77679 21.1057 9.64931C20.7757 9.51272 20.4367 9.31635 20.2609 9.03071C20.0821 8.74032 20.086 8.38268 20.1457 8.06918C20.2011 7.77781 20.3123 7.48506 20.4285 7.23894C20.1321 7.26948 19.7839 7.28228 19.451 7.24744C19.0944 7.21011 18.7162 7.11437 18.4482 6.88928C18.2007 6.68139 18.1005 6.38701 18.0738 6.10251C18.0478 5.82699 18.0877 5.53645 18.1495 5.27996C18.1486 5.27885 18.1475 5.27769 18.1464 5.2765C18.1445 5.27452 18.1424 5.27257 18.1402 5.2707C18.1379 5.26882 18.1357 5.26712 18.1334 5.26562C18.1327 5.26511 18.1319 5.26464 18.1312 5.26419C17.8747 5.37924 17.5758 5.48264 17.2717 5.52864C16.9596 5.57586 16.6227 5.56539 16.3197 5.42432C15.9849 5.26841 15.7645 4.97087 15.6202 4.66102C15.4833 4.36706 15.4038 4.03884 15.3605 3.74605C15.1569 3.95859 14.9087 4.1836 14.6417 4.36076C14.3623 4.54623 14.0349 4.69765 13.7019 4.69765C13.2921 4.69765 12.9416 4.41798 12.6807 4.1225C12.4363 3.84561 12.2284 3.50703 12.0747 3.20934ZM11.708 2.8488C11.8957 2.55404 12.3312 2.59391 12.4792 2.89361C12.6254 3.18974 12.8281 3.52862 13.0582 3.7893C13.2977 4.06063 13.5198 4.19416 13.7019 4.19416C13.8899 4.19416 14.1172 4.10457 14.3633 3.94125C14.6047 3.78106 14.8382 3.56734 15.0322 3.3605C15.1761 3.20709 15.3798 3.19984 15.5231 3.24704C15.6663 3.29422 15.8241 3.42007 15.8519 3.62571C15.8892 3.90111 15.9599 4.19785 16.0766 4.44848C16.1942 4.70105 16.3462 4.88127 16.5323 4.9679C16.7142 5.05263 16.9415 5.06938 17.1964 5.03082C17.4499 4.99247 17.7118 4.90214 17.9463 4.79526C18.1487 4.70298 18.3498 4.78924 18.4641 4.88526C18.5784 4.98136 18.697 5.1636 18.6439 5.37761C18.5865 5.60924 18.5555 5.84836 18.575 6.05533C18.5945 6.26181 18.6608 6.41029 18.7721 6.50376C18.9241 6.63151 19.1801 6.71285 19.5034 6.74669C19.8191 6.77972 20.1622 6.76388 20.452 6.72982C20.6381 6.70794 20.7916 6.80536 20.8756 6.92602C20.9594 7.04649 20.9971 7.22305 20.915 7.38922C20.7982 7.62568 20.6898 7.90302 20.6403 8.16336C20.5893 8.43083 20.6088 8.63545 20.6896 8.76674C20.7779 8.91014 20.9885 9.05588 21.2982 9.18411C21.597 9.30776 21.944 9.39751 22.2465 9.45551C22.4354 9.49174 22.5526 9.63698 22.5926 9.78166C22.6326 9.92616 22.6067 10.1101 22.4654 10.2386C22.2511 10.4336 22.0256 10.6718 21.865 10.9106C21.6974 11.1599 21.634 11.36 21.6563 11.4959C21.6763 11.6182 21.7805 11.7725 21.9868 11.9436C22.1855 12.1083 22.4427 12.2588 22.695 12.3813C22.896 12.4789 22.9545 12.689 22.9515 12.8369C22.9485 12.9857 22.8827 13.184 22.6967 13.2825C22.2913 13.4971 21.9726 13.8255 22.0026 14.2787C22.0183 14.5163 22.1865 14.7297 22.4988 14.9162C22.8067 15.1002 23.2062 15.2268 23.5692 15.3028C23.7671 15.3442 23.8807 15.5036 23.9174 15.6491C23.954 15.7945 23.9296 15.9873 23.7784 16.1182C23.5632 16.3047 23.3359 16.5413 23.1642 16.8015C22.9914 17.0635 22.8866 17.3315 22.8866 17.5866C22.8866 17.8099 23.0095 18.0292 23.2379 18.2401C23.4648 18.4497 23.7693 18.6251 24.0631 18.7556C24.2569 18.8417 24.3313 19.0339 24.3332 19.1862C24.3351 19.3385 24.2653 19.5338 24.0709 19.6233C23.774 19.76 23.4651 19.9372 23.2346 20.1385C22.9976 20.3455 22.8866 20.5394 22.8866 20.7084C22.8866 20.9147 22.9873 21.1646 23.1662 21.4327C23.3417 21.6955 23.5737 21.9484 23.7928 22.1541C23.9412 22.2936 23.9546 22.4904 23.9068 22.635C23.8589 22.7795 23.7308 22.9295 23.5284 22.9529C23.2041 22.9903 22.8444 23.0619 22.5464 23.1802C22.2382 23.3025 22.0504 23.4528 21.9837 23.6126C21.9077 23.7947 21.8952 24.0575 21.9387 24.3619C21.9814 24.6603 22.0737 24.9687 22.1756 25.2213C22.25 25.4058 22.1853 25.5892 22.0904 25.7034C21.9952 25.8177 21.8221 25.918 21.6214 25.8663C21.3053 25.7849 20.9515 25.725 20.6297 25.7535C20.3128 25.7816 20.0483 25.8926 19.8669 26.1349C19.4894 26.6393 19.459 27.248 19.5348 27.7057C19.5668 27.8994 19.4672 28.0649 19.3545 28.1587C19.2417 28.2524 19.0539 28.324 18.8638 28.2394C18.5949 28.1196 18.2816 28.0031 17.9852 27.9359C17.6802 27.8667 17.4319 27.859 17.2699 27.9156C17.2001 27.9401 17.1177 27.9988 17.0272 28.106C16.9377 28.212 16.8514 28.3523 16.7709 28.5168C16.6096 28.8458 16.4854 29.242 16.4039 29.5772C16.3215 29.9165 15.8946 30.0253 15.6527 29.7941C15.4454 29.596 15.1745 29.3779 14.8837 29.2184C14.5895 29.0569 14.2998 28.9689 14.0451 28.9934C13.7992 29.0171 13.5194 29.185 13.2359 29.4555C12.9588 29.72 12.7096 30.0522 12.5249 30.3419C12.4245 30.4992 12.253 30.556 12.1081 30.5464C11.9636 30.5368 11.8036 30.4588 11.7222 30.2957C11.4924 29.835 11.0757 29.2466 10.5006 28.9696C10.2718 28.8595 10.0054 28.8829 9.71094 29.014C9.41587 29.1452 9.12406 29.372 8.88065 29.6095C8.72181 29.7645 8.50266 29.7498 8.36541 29.7032C8.22697 29.6563 8.05194 29.5376 8.00843 29.3315C7.92775 28.9495 7.73314 28.4906 7.32682 28.1333C7.10623 27.9392 6.82308 27.8815 6.50663 27.9158C6.18733 27.9505 5.85682 28.0776 5.58329 28.2233C5.41543 28.3127 5.23421 28.2757 5.11131 28.1976C4.98835 28.1195 4.87744 27.9708 4.88822 27.7799C4.91792 27.2541 4.84923 26.574 4.51888 26.1355C4.38695 25.9604 4.149 25.8371 3.82711 25.7669C3.5098 25.6976 3.14567 25.6876 2.80969 25.7088C2.57248 25.7238 2.41379 25.5438 2.34439 25.4166C2.27353 25.2867 2.21501 25.068 2.32814 24.879C2.50963 24.5759 2.63442 24.1925 2.55818 23.779C2.51895 23.5663 2.3347 23.3793 1.99872 23.228C1.67013 23.0799 1.25381 22.9937 0.872509 22.9518C0.660133 22.9285 0.531902 22.7663 0.486704 22.6194C0.44152 22.4726 0.456314 22.2669 0.61737 22.1279C0.855606 21.9223 1.09849 21.674 1.27103 21.4188C1.44765 21.1576 1.5256 20.9263 1.50096 20.7417C1.47528 20.5492 1.32297 20.335 1.05469 20.1182C0.794046 19.9075 0.463202 19.7262 0.161998 19.5915C-0.0196711 19.5103 -0.099149 19.3343 -0.102203 19.1819C-0.10526 19.0294 -0.0325652 18.8494 0.147825 18.7621C0.469588 18.6062 0.822638 18.4019 1.09109 18.1777C1.37437 17.9412 1.49875 17.7365 1.49875 17.5866C1.49875 17.3941 1.38272 17.1346 1.17085 16.8426C0.96586 16.5601 0.699416 16.2854 0.462263 16.0705C0.200843 15.8336 0.311191 15.3828 0.662802 15.3039C1.08699 15.2087 1.58613 15.0588 1.97312 14.8621C2.16709 14.7635 2.31975 14.6597 2.42078 14.5554C2.52094 14.4521 2.55401 14.3663 2.55401 14.2954C2.55401 14.1221 2.46157 13.9414 2.27867 13.7582C2.09739 13.5766 1.85104 13.4173 1.60511 13.2922C1.4141 13.195 1.35195 12.9953 1.35429 12.8464C1.35663 12.6974 1.42472 12.5015 1.61507 12.4086C1.82744 12.3049 2.04429 12.1702 2.21902 12.0085C2.39419 11.8464 2.5152 11.6683 2.56097 11.4778C2.6021 11.3065 2.57119 11.1219 2.48043 10.9278C2.38923 10.7329 2.24393 10.543 2.08203 10.3758C1.92699 10.2158 1.93983 9.9951 1.98997 9.8543C2.03999 9.71383 2.17068 9.5321 2.39637 9.51057C2.69581 9.48201 2.9933 9.4166 3.21818 9.30172C3.4397 9.18857 3.56089 9.04518 3.58733 8.86264C3.66315 8.33929 3.4807 7.70242 3.27969 7.23143C3.20138 7.04794 3.26384 6.86482 3.36067 6.75078C3.45751 6.63673 3.62816 6.54537 3.822 6.59309C4.0947 6.66022 4.39954 6.7082 4.66746 6.70052C4.94458 6.69258 5.12804 6.62697 5.22271 6.52512C5.33161 6.40797 5.41516 6.18993 5.46234 5.89186C5.50808 5.60289 5.51381 5.27782 5.49978 4.98735C5.48967 4.77831 5.62463 4.62778 5.75891 4.55842C5.89297 4.48918 6.09046 4.46694 6.25496 4.5877C6.48642 4.75763 6.75934 4.9146 7.0301 4.99621C7.3007 5.07778 7.5437 5.07726 7.74523 4.97267C7.96299 4.85965 8.13311 4.65343 8.26125 4.39051C8.38898 4.12845 8.46578 3.8283 8.50608 3.55917C8.53502 3.36592 8.67877 3.2407 8.8211 3.19229C8.96405 3.14366 9.15896 3.15529 9.29835 3.30231C9.52823 3.54477 9.80006 3.80141 10.0518 3.98226C10.1782 4.07299 10.2907 4.13827 10.3839 4.17491C10.4818 4.2134 10.5268 4.20799 10.5374 4.20479C10.5798 4.19206 10.6537 4.15016 10.7572 4.05976C10.8563 3.9732 10.9653 3.8576 11.0783 3.72289C11.3042 3.45377 11.5311 3.12652 11.708 2.8488L11.9203 2.98405L11.9215 2.98482M11.9203 2.98405L11.708 2.8488Z" fill="#222222"/>
<path d="M11.7483 2.78554C11.7133 2.76329 11.667 2.77357 11.6447 2.80851C11.6225 2.84344 11.6328 2.8898 11.6677 2.91206L11.7483 2.78554ZM2.76832 25.1914C2.73174 25.1914 2.71206 25.1669 2.7065 25.1588C2.7001 25.1495 2.69742 25.141 2.69654 25.1381C2.69447 25.1313 2.69389 25.1257 2.69375 25.1244C2.69334 25.1205 2.69333 25.1174 2.69333 25.1166C2.69332 25.1143 2.69343 25.1125 2.69347 25.1118C2.69358 25.1101 2.69374 25.1087 2.69384 25.1079L2.84269 25.1264C2.84286 25.125 2.84305 25.1233 2.84317 25.1213C2.84323 25.1205 2.84334 25.1186 2.84333 25.1162C2.84333 25.1154 2.84332 25.1123 2.8429 25.1084C2.84276 25.1071 2.84218 25.1015 2.84011 25.0947C2.83923 25.0918 2.83655 25.0832 2.83015 25.0739C2.82459 25.0658 2.80491 25.0414 2.76832 25.0414V25.1914ZM15.2671 3.47805L15.0835 3.30581L14.9809 3.4152L15.1645 3.58744L15.2671 3.47805ZM18.6676 6.74476L18.8295 6.552L18.7146 6.45552L18.5527 6.64828L18.6676 6.74476ZM1.79291 12.6019L1.68247 12.3757L1.54767 12.4415L1.65812 12.6677L1.79291 12.6019ZM11.9606 2.92079L11.7483 2.78554L11.6677 2.91206L11.88 3.0473L11.9606 2.92079ZM11.9618 2.92157L11.7483 2.78554L11.6677 2.91206L11.8812 3.04808L11.9618 2.92157ZM11.464 4.04655L11.5789 4.14298L11.5789 4.14298L11.464 4.04655ZM12.0747 3.20934L12.2079 3.1405C12.1834 3.09304 12.1355 3.0622 12.0822 3.05953C12.0288 3.05686 11.9781 3.08276 11.9489 3.12754L12.0747 3.20934ZM11.0884 4.43895L11.1871 4.55192L11.1871 4.55192L11.0884 4.43895ZM10.6821 4.68702L10.7253 4.83069L10.7253 4.83069L10.6821 4.68702ZM10.1996 4.64346L10.2545 4.50387L10.2545 4.50387L10.1996 4.64346ZM9.75812 4.39119L9.84563 4.26936L9.84563 4.26936L9.75812 4.39119ZM8.99181 3.71016L9.09963 3.60588C9.06031 3.56522 9.00146 3.55014 8.94742 3.56688C8.89339 3.58362 8.85337 3.62933 8.84392 3.6851L8.99181 3.71016ZM8.71385 4.61109L8.57901 4.54538L8.57901 4.54538L8.71385 4.61109ZM7.97716 5.41955L7.90806 5.28641L7.90806 5.28641L7.97716 5.41955ZM6.88479 5.47827L6.92808 5.33466L6.92808 5.33466L6.88479 5.47827ZM6.00551 5.02862L6.09246 4.90639C6.04588 4.87325 5.98452 4.86947 5.93422 4.89664C5.88392 4.9238 5.85344 4.9772 5.85561 5.03432L6.00551 5.02862ZM5.95963 5.97057L5.81148 5.94712L5.81148 5.94712L5.95963 5.97057ZM5.59148 6.86792L5.70134 6.97004L5.70134 6.97004L5.59148 6.86792ZM4.68189 7.2038L4.68619 7.35374L4.68619 7.35374L4.68189 7.2038ZM3.76977 7.09824L3.80357 6.9521C3.7489 6.93945 3.69174 6.95838 3.65542 7.00116C3.6191 7.04394 3.6097 7.10341 3.63105 7.15531L3.76977 7.09824ZM4.08562 8.93482L3.93717 8.91332L3.93717 8.91332L4.08562 8.93482ZM3.44722 9.7501L3.37898 9.61652L3.37898 9.61652L3.44722 9.7501ZM2.47063 10.0092L2.45544 9.85994C2.40707 9.86487 2.36409 9.89293 2.34012 9.93523L2.47063 10.0092ZM2.46428 10.0232L2.60559 10.0735L2.60559 10.0735L2.46428 10.0232ZM2.93648 10.7145L2.80061 10.778L2.80061 10.778L2.93648 10.7145ZM3.05053 11.5953L3.19639 11.6304L3.19639 11.6304L3.05053 11.5953ZM2.561 12.378L2.66289 12.4881L2.66289 12.4881L2.561 12.378ZM1.85793 12.8502L1.79124 12.7158C1.74466 12.7389 1.71338 12.7845 1.70857 12.8363L1.85793 12.8502ZM1.85771 12.8543L1.70773 12.8519L1.70773 12.8519L1.85771 12.8543ZM1.85771 12.8559L1.70772 12.858C1.7085 12.9133 1.73968 12.9637 1.78882 12.9891L1.85771 12.8559ZM2.635 13.4025L2.52884 13.5085L2.52884 13.5085L2.635 13.4025ZM2.7823 14.9059L2.67459 14.8015L2.67459 14.8015L2.7823 14.9059ZM2.20126 15.3109L2.26923 15.4446L2.26923 15.4446L2.20126 15.3109ZM0.879736 15.7705L0.844945 15.6246C0.791222 15.6374 0.748884 15.6787 0.734739 15.7321C0.720594 15.7855 0.736931 15.8423 0.777263 15.88L0.879736 15.7705ZM1.57835 16.5469L1.69975 16.4588L1.69975 16.4588L1.57835 16.5469ZM1.41379 18.5642L1.50993 18.6793L1.50993 18.6793L1.41379 18.5642ZM0.455048 19.1719L0.387744 19.0379C0.33636 19.0637 0.304244 19.1166 0.305063 19.174C0.305882 19.2315 0.339491 19.2835 0.391588 19.3078L0.455048 19.1719ZM1.37119 19.7266L1.46549 19.61L1.46549 19.61L1.37119 19.7266ZM2.00002 20.6751L1.85134 20.6949L1.85134 20.6949L2.00002 20.6751ZM1.68812 21.7008L1.56386 21.6168L1.56386 21.6168L1.68812 21.7008ZM1.00234 22.4601L0.902822 22.3478C0.858691 22.387 0.841589 22.4483 0.859117 22.5046C0.876646 22.561 0.925551 22.6018 0.984095 22.6089L1.00234 22.4601ZM2.20555 22.7689L2.14393 22.9057L2.14393 22.9057L2.20555 22.7689ZM3.05332 23.6878L3.20084 23.6606L3.20084 23.6606L3.05332 23.6878ZM2.7686 25.1234L2.6394 25.0472C2.62305 25.0749 2.61604 25.1071 2.61943 25.1392L2.7686 25.1234ZM2.78638 25.1755L2.6547 25.2473L2.6547 25.2473L2.78638 25.1755ZM2.80677 25.2046L2.69649 25.3063C2.72694 25.3393 2.77059 25.3569 2.81544 25.3543L2.80677 25.2046ZM3.93449 25.275L3.96648 25.1284L3.96648 25.1284L3.93449 25.275ZM4.92102 25.8325L4.80121 25.9228L4.80121 25.9228L4.92102 25.8325ZM5.39362 27.7543L5.24377 27.7477C5.24141 27.8011 5.26768 27.8517 5.31272 27.8806C5.35775 27.9094 5.41474 27.9121 5.46229 27.8876L5.39362 27.7543ZM6.45233 27.4153L6.43615 27.2662L6.43615 27.2662L6.45233 27.4153ZM7.65933 27.7552L7.56027 27.8678L7.56027 27.8678L7.65933 27.7552ZM8.49754 29.2111L8.35096 29.243C8.35846 29.2775 8.37792 29.3083 8.40591 29.3299L8.49754 29.2111ZM8.50646 29.2171L8.43107 29.3468L8.4311 29.3468L8.50646 29.2171ZM8.52712 29.2264L8.47893 29.3684L8.47895 29.3684L8.52712 29.2264ZM8.54747 29.2312L8.52867 29.38C8.57374 29.3857 8.61895 29.3707 8.65164 29.3391L8.54747 29.2312ZM9.50629 28.5539L9.44532 28.4169L9.44532 28.4169L9.50629 28.5539ZM10.719 28.516L10.7841 28.3809L10.7841 28.3809L10.719 28.516ZM12.1409 30.0084L12.0078 30.0776C12.0324 30.1249 12.0802 30.1556 12.1334 30.1582C12.1866 30.1609 12.2372 30.1351 12.2664 30.0906L12.1409 30.0084ZM12.8883 29.0913L12.9919 29.1998L12.9919 29.1998L12.8883 29.0913ZM13.9969 28.4922L14.0112 28.6416L14.0112 28.6416L13.9969 28.4922ZM15.1259 28.777L15.1981 28.6455L15.1981 28.6455L15.1259 28.777ZM15.9367 29.3702L15.8351 29.4805C15.8739 29.5163 15.9286 29.529 15.9792 29.514C16.0299 29.4991 16.0689 29.4586 16.082 29.4075L15.9367 29.3702ZM16.3187 28.2952L16.4534 28.3612L16.4534 28.3612L16.3187 28.2952ZM16.6424 27.7813L16.5278 27.6846L16.5278 27.6846L16.6424 27.7813ZM17.1036 27.4404L17.0541 27.2988L17.0541 27.2988L17.1036 27.4404ZM18.0966 27.4449L18.1297 27.2986L18.1297 27.2986L18.0966 27.4449ZM19.0342 27.7642L18.974 27.9016C19.0242 27.9236 19.0824 27.9165 19.1258 27.883C19.1692 27.8495 19.1909 27.7951 19.1824 27.7409L19.0342 27.7642ZM19.4639 25.8332L19.5839 25.923L19.5839 25.923L19.4639 25.8332ZM20.5852 25.252L20.5985 25.4014L20.5985 25.4014L20.5852 25.252ZM21.6907 25.3645L21.6548 25.5102C21.7092 25.5236 21.7665 25.5056 21.8035 25.4635C21.8404 25.4214 21.8508 25.3622 21.8305 25.31L21.6907 25.3645ZM21.4403 24.4333L21.5888 24.412L21.5888 24.412L21.4403 24.4333ZM21.5191 23.4186L21.3807 23.3608L21.3807 23.3608L21.5191 23.4186ZM22.3606 22.7122L22.3053 22.5728L22.3053 22.5728L22.3606 22.7122ZM23.3871 22.463L23.4064 22.6117C23.4635 22.6043 23.5114 22.5648 23.5295 22.5101C23.5476 22.4554 23.5327 22.3952 23.4913 22.3551L23.3871 22.463ZM22.7475 21.7122L22.8722 21.6289L22.8722 21.6289L22.7475 21.7122ZM22.9035 19.7593L23.0021 19.8722L23.0021 19.8722L22.9035 19.7593ZM23.8054 19.1917L23.8696 19.3272C23.9223 19.3023 23.9557 19.249 23.9554 19.1908C23.955 19.1325 23.921 19.0797 23.868 19.0553L23.8054 19.1917ZM22.8963 18.61L22.9981 18.4998L22.9981 18.4998L22.8963 18.61ZM22.7439 16.5243L22.8691 16.6069L22.8691 16.6069L22.7439 16.5243ZM23.3993 15.7812L23.4991 15.8931C23.5411 15.8557 23.5586 15.7978 23.5444 15.7434C23.5303 15.6889 23.4868 15.647 23.4319 15.6348L23.3993 15.7812ZM22.2405 15.3485L22.3175 15.2197L22.3175 15.2197L22.2405 15.3485ZM21.5002 14.312L21.3505 14.3219L21.3505 14.3219L21.5002 14.312ZM22.4453 12.8459L22.5164 12.978C22.5518 12.9589 22.5781 12.9265 22.5893 12.8878L22.4453 12.8459ZM22.4461 12.8429L22.5921 12.8775L22.5921 12.8775L22.4461 12.8429ZM22.4481 12.8267L22.2982 12.8236L22.2982 12.8237L22.4481 12.8267ZM22.448 12.821L22.5978 12.8127C22.5948 12.7586 22.5629 12.7103 22.5143 12.6864L22.448 12.821ZM21.6654 12.3312L21.7612 12.2157L21.7612 12.2157L21.6654 12.3312ZM21.1594 11.5772L21.0113 11.6014L21.0113 11.6014L21.1594 11.5772ZM21.4473 10.6296L21.5717 10.7133L21.5717 10.7133L21.4473 10.6296ZM22.0565 9.93103L22.1593 10.0403C22.2 10.0019 22.2161 9.94405 22.2008 9.8902C22.1856 9.83635 22.1417 9.79546 22.0868 9.78413L22.0565 9.93103ZM21.1057 9.64931L21.163 9.51071L21.163 9.51071L21.1057 9.64931ZM20.2609 9.03071L20.1332 9.10936L20.1332 9.10936L20.2609 9.03071ZM20.1457 8.06918L19.9983 8.04112L19.9983 8.04112L20.1457 8.06918ZM20.4285 7.23894L20.5641 7.30297C20.5872 7.25402 20.5822 7.19642 20.5509 7.15224C20.5196 7.10807 20.4669 7.08418 20.4131 7.08973L20.4285 7.23894ZM19.451 7.24744L19.4666 7.09825L19.4666 7.09825L19.451 7.24744ZM18.4482 6.88928L18.5447 6.77442L18.5447 6.77442L18.4482 6.88928ZM18.0738 6.10251L18.2231 6.08845L18.2231 6.08845L18.0738 6.10251ZM18.1495 5.27996L18.2953 5.3151C18.3065 5.26875 18.295 5.21985 18.2643 5.18337L18.1495 5.27996ZM18.1464 5.2765L18.2546 5.17265L18.2546 5.17264L18.1464 5.2765ZM18.1402 5.2707L18.0436 5.38552L18.0437 5.38552L18.1402 5.2707ZM18.1334 5.26562L18.2172 5.14116L18.2172 5.14116L18.1334 5.26562ZM18.1312 5.26419L18.2103 5.13671C18.1679 5.11046 18.1153 5.10694 18.0698 5.12733L18.1312 5.26419ZM17.2717 5.52864L17.2493 5.38033L17.2493 5.38033L17.2717 5.52864ZM16.3197 5.42432L16.2564 5.5603L16.2564 5.5603L16.3197 5.42432ZM15.6202 4.66102L15.4842 4.72434L15.4842 4.72434L15.6202 4.66102ZM15.3605 3.74605L15.5089 3.7241C15.5005 3.66745 15.4606 3.62051 15.406 3.60313C15.3515 3.58574 15.2918 3.60094 15.2521 3.6423L15.3605 3.74605ZM14.6417 4.36076L14.7247 4.48574L14.7247 4.48574L14.6417 4.36076ZM12.6807 4.1225L12.5683 4.22177L12.5683 4.22177L12.6807 4.1225ZM12.4792 2.89361L12.6137 2.82721L12.6137 2.8272L12.4792 2.89361ZM11.708 2.8488L11.5815 2.76821L11.5815 2.76821L11.708 2.8488ZM13.0582 3.7893L13.1707 3.69003L13.1707 3.69003L13.0582 3.7893ZM14.3633 3.94125L14.2804 3.81627L14.2804 3.81627L14.3633 3.94125ZM15.0322 3.3605L14.9228 3.25787L14.9228 3.25787L15.0322 3.3605ZM15.5231 3.24704L15.57 3.10457L15.57 3.10457L15.5231 3.24704ZM15.8519 3.62571L16.0006 3.60561L16.0006 3.60561L15.8519 3.62571ZM16.0766 4.44848L16.2126 4.38516L16.2126 4.38516L16.0766 4.44848ZM16.5323 4.9679L16.5956 4.83192L16.5956 4.83192L16.5323 4.9679ZM17.1964 5.03082L17.2189 5.17913L17.2189 5.17913L17.1964 5.03082ZM17.9463 4.79526L17.8841 4.65878L17.8841 4.65878L17.9463 4.79526ZM18.4641 4.88526L18.5606 4.77042L18.5606 4.77042L18.4641 4.88526ZM18.6439 5.37761L18.7895 5.41373L18.7895 5.41373L18.6439 5.37761ZM18.575 6.05533L18.4257 6.06938L18.4257 6.06938L18.575 6.05533ZM18.7721 6.50376L18.6756 6.61861L18.6756 6.61861L18.7721 6.50376ZM19.5034 6.74669L19.4878 6.89587L19.4878 6.89587L19.5034 6.74669ZM20.452 6.72982L20.4695 6.87879L20.4695 6.87879L20.452 6.72982ZM20.8756 6.92602L20.7524 7.01169L20.7524 7.0117L20.8756 6.92602ZM20.915 7.38922L21.0495 7.45564L21.0495 7.45564L20.915 7.38922ZM20.6403 8.16336L20.4929 8.1353L20.4929 8.1353L20.6403 8.16336ZM20.6896 8.76674L20.8173 8.6881L20.8173 8.6881L20.6896 8.76674ZM21.2982 9.18411L21.3556 9.04551L21.3556 9.04551L21.2982 9.18411ZM22.2465 9.45551L22.2747 9.30819L22.2747 9.30819L22.2465 9.45551ZM22.5926 9.78166L22.7372 9.7417L22.7372 9.7417L22.5926 9.78166ZM22.4654 10.2386L22.5664 10.3495L22.5664 10.3495L22.4654 10.2386ZM21.865 10.9106L21.7406 10.8269L21.7406 10.8269L21.865 10.9106ZM21.6563 11.4959L21.8043 11.4717L21.8043 11.4717L21.6563 11.4959ZM21.9868 11.9436L22.0825 11.8281L22.0825 11.8281L21.9868 11.9436ZM22.695 12.3813L22.7605 12.2463L22.7605 12.2463L22.695 12.3813ZM22.9515 12.8369L22.8015 12.8339L22.8015 12.8339L22.9515 12.8369ZM22.6967 13.2825L22.6265 13.1499L22.6265 13.1499L22.6967 13.2825ZM22.0026 14.2787L21.8529 14.2886L21.8529 14.2886L22.0026 14.2787ZM22.4988 14.9162L22.4218 15.045L22.4218 15.045L22.4988 14.9162ZM23.5692 15.3028L23.5999 15.156L23.5999 15.156L23.5692 15.3028ZM23.9174 15.6491L24.0628 15.6125L24.0628 15.6125L23.9174 15.6491ZM23.7784 16.1182L23.6802 16.0048L23.6802 16.0048L23.7784 16.1182ZM23.1642 16.8015L23.2894 16.8841L23.2894 16.8841L23.1642 16.8015ZM23.2379 18.2401L23.3396 18.1299L23.3396 18.1299L23.2379 18.2401ZM24.0631 18.7556L24.124 18.6185L24.124 18.6185L24.0631 18.7556ZM24.3332 19.1862L24.4832 19.1843L24.4832 19.1843L24.3332 19.1862ZM24.0709 19.6233L24.1336 19.7596L24.1336 19.7596L24.0709 19.6233ZM23.2346 20.1385L23.3333 20.2514L23.3333 20.2514L23.2346 20.1385ZM23.1662 21.4327L23.291 21.3494L23.291 21.3494L23.1662 21.4327ZM23.7928 22.1541L23.8955 22.0448L23.8955 22.0448L23.7928 22.1541ZM23.9068 22.635L23.7644 22.5878L23.7644 22.5878L23.9068 22.635ZM23.5284 22.9529L23.5456 23.1019L23.5456 23.1019L23.5284 22.9529ZM22.5464 23.1802L22.6017 23.3196L22.6017 23.3196L22.5464 23.1802ZM21.9837 23.6126L22.1221 23.6704L22.1221 23.6704L21.9837 23.6126ZM21.9387 24.3619L21.7902 24.3832L21.7902 24.3832L21.9387 24.3619ZM22.1756 25.2213L22.3147 25.1651L22.3147 25.1651L22.1756 25.2213ZM22.0904 25.7034L21.9751 25.6074L21.9751 25.6074L22.0904 25.7034ZM21.6214 25.8663L21.6588 25.721L21.6588 25.721L21.6214 25.8663ZM20.6297 25.7535L20.6165 25.6041L20.6165 25.6041L20.6297 25.7535ZM19.8669 26.1349L19.7469 26.045L19.7469 26.045L19.8669 26.1349ZM19.5348 27.7057L19.6828 27.6812L19.6828 27.6812L19.5348 27.7057ZM19.3545 28.1587L19.2586 28.0433L19.2586 28.0433L19.3545 28.1587ZM18.8638 28.2394L18.8028 28.3764L18.8028 28.3764L18.8638 28.2394ZM17.9852 27.9359L17.952 28.0822L17.952 28.0822L17.9852 27.9359ZM17.2699 27.9156L17.2204 27.7741L17.2204 27.7741L17.2699 27.9156ZM17.0272 28.106L17.1418 28.2028L17.1418 28.2028L17.0272 28.106ZM16.7709 28.5168L16.6362 28.4507L16.6362 28.4507L16.7709 28.5168ZM16.4039 29.5772L16.2582 29.5418L16.2582 29.5418L16.4039 29.5772ZM15.6527 29.7941L15.7563 29.6857L15.7563 29.6857L15.6527 29.7941ZM14.8837 29.2184L14.9559 29.0869L14.9559 29.0869L14.8837 29.2184ZM14.0451 28.9934L14.0307 28.8441L14.0307 28.8441L14.0451 28.9934ZM13.2359 29.4555L13.3395 29.564L13.3395 29.564L13.2359 29.4555ZM12.5249 30.3419L12.3984 30.2612L12.3984 30.2612L12.5249 30.3419ZM12.1081 30.5464L12.0981 30.696L12.0981 30.696L12.1081 30.5464ZM11.7222 30.2957L11.8564 30.2287L11.8564 30.2287L11.7222 30.2957ZM10.5006 28.9696L10.5656 28.8345L10.5656 28.8345L10.5006 28.9696ZM9.71094 29.014L9.64997 28.8769L9.64997 28.8769L9.71094 29.014ZM8.88065 29.6095L8.77589 29.5021L8.77589 29.5021L8.88065 29.6095ZM8.36541 29.7032L8.41359 29.5611L8.41359 29.5611L8.36541 29.7032ZM8.00843 29.3315L7.86166 29.3625L7.86166 29.3625L8.00843 29.3315ZM7.32682 28.1333L7.42589 28.0206L7.42589 28.0206L7.32682 28.1333ZM6.50663 27.9158L6.5228 28.065L6.5228 28.065L6.50663 27.9158ZM5.58329 28.2233L5.51279 28.0909L5.51279 28.0909L5.58329 28.2233ZM5.11131 28.1976L5.19173 28.071L5.19173 28.071L5.11131 28.1976ZM4.88822 27.7799L5.03798 27.7884L5.03798 27.7884L4.88822 27.7799ZM4.51888 26.1355L4.63869 26.0452L4.63869 26.0452L4.51888 26.1355ZM3.82711 25.7669L3.8591 25.6203L3.8591 25.6203L3.82711 25.7669ZM2.80969 25.7088L2.81912 25.8585L2.81912 25.8585L2.80969 25.7088ZM2.34439 25.4166L2.21272 25.4885L2.21272 25.4885L2.34439 25.4166ZM2.32814 24.879L2.45684 24.9561L2.45684 24.9561L2.32814 24.879ZM2.55818 23.779L2.41067 23.8062L2.41067 23.8062L2.55818 23.779ZM1.99872 23.228L2.06034 23.0912L2.06034 23.0912L1.99872 23.228ZM0.872509 22.9518L0.888868 22.8027L0.888867 22.8027L0.872509 22.9518ZM0.486704 22.6194L0.34334 22.6635L0.34334 22.6635L0.486704 22.6194ZM0.61737 22.1279L0.519366 22.0143L0.519365 22.0143L0.61737 22.1279ZM1.27103 21.4188L1.39529 21.5028L1.39529 21.5028L1.27103 21.4188ZM1.50096 20.7417L1.35228 20.7615L1.35228 20.7615L1.50096 20.7417ZM1.05469 20.1182L0.960397 20.2348L0.960398 20.2348L1.05469 20.1182ZM0.161998 19.5915L0.223212 19.4546L0.223212 19.4546L0.161998 19.5915ZM-0.102203 19.1819L0.0477672 19.1789L0.0477672 19.1789L-0.102203 19.1819ZM0.147825 18.7621L0.213221 18.8971L0.213221 18.8971L0.147825 18.7621ZM1.09109 18.1777L1.18723 18.2928L1.18723 18.2928L1.09109 18.1777ZM1.17085 16.8426L1.29225 16.7545L1.29225 16.7545L1.17085 16.8426ZM0.462263 16.0705L0.562978 15.9593L0.562978 15.9593L0.462263 16.0705ZM0.662802 15.3039L0.629953 15.1576L0.629953 15.1576L0.662802 15.3039ZM1.97312 14.8621L1.90515 14.7284L1.90515 14.7284L1.97312 14.8621ZM2.42078 14.5554L2.52848 14.6598L2.52848 14.6598L2.42078 14.5554ZM2.27867 13.7582L2.17251 13.8642L2.17251 13.8642L2.27867 13.7582ZM1.60511 13.2922L1.67314 13.1585L1.67314 13.1585L1.60511 13.2922ZM1.35429 12.8464L1.50427 12.8487L1.50427 12.8487L1.35429 12.8464ZM1.61507 12.4086L1.54926 12.2738L1.54926 12.2738L1.61507 12.4086ZM2.21902 12.0085L2.32091 12.1186L2.32091 12.1186L2.21902 12.0085ZM2.56097 11.4778L2.41512 11.4427L2.41512 11.4427L2.56097 11.4778ZM2.48043 10.9278L2.34456 10.9914L2.34456 10.9914L2.48043 10.9278ZM2.08203 10.3758L2.18977 10.2715L2.18977 10.2715L2.08203 10.3758ZM1.98997 9.8543L1.84866 9.80398L1.84866 9.80398L1.98997 9.8543ZM2.39637 9.51057L2.41061 9.65989L2.41061 9.65989L2.39637 9.51057ZM3.21818 9.30172L3.28642 9.43531L3.28642 9.43531L3.21818 9.30172ZM3.58733 8.86264L3.73578 8.88414L3.73578 8.88414L3.58733 8.86264ZM3.27969 7.23143L3.41765 7.17255L3.41765 7.17255L3.27969 7.23143ZM3.36067 6.75078L3.24633 6.65369L3.24633 6.65369L3.36067 6.75078ZM3.822 6.59309L3.78614 6.73874L3.78614 6.73874L3.822 6.59309ZM4.66746 6.70052L4.67176 6.85046L4.67176 6.85046L4.66746 6.70052ZM5.22271 6.52512L5.11285 6.42299L5.11285 6.42299L5.22271 6.52512ZM5.46234 5.89186L5.31418 5.86841L5.31418 5.86841L5.46234 5.89186ZM5.49978 4.98735L5.34995 4.99459L5.34995 4.99459L5.49978 4.98735ZM5.75891 4.55842L5.82775 4.69169L5.82775 4.69169L5.75891 4.55842ZM6.25496 4.5877L6.16619 4.70862L6.16619 4.70862L6.25496 4.5877ZM7.0301 4.99621L6.98681 5.13983L6.98681 5.13983L7.0301 4.99621ZM7.74523 4.97267L7.81433 5.10581L7.81433 5.10581L7.74523 4.97267ZM8.26125 4.39051L8.39609 4.45623L8.39609 4.45623L8.26125 4.39051ZM8.50608 3.55917L8.35773 3.53696L8.35773 3.53696L8.50608 3.55917ZM8.8211 3.19229L8.7728 3.05028L8.7728 3.05028L8.8211 3.19229ZM9.29835 3.30231L9.40721 3.19911L9.40721 3.19911L9.29835 3.30231ZM10.0518 3.98226L9.96434 4.10409L9.96434 4.10409L10.0518 3.98226ZM10.3839 4.17491L10.4388 4.03532L10.4388 4.03532L10.3839 4.17491ZM10.5374 4.20479L10.4943 4.06112L10.4943 4.06112L10.5374 4.20479ZM10.7572 4.05976L10.8558 4.17273L10.8558 4.17273L10.7572 4.05976ZM11.0783 3.72289L11.1932 3.81932L11.1932 3.81932L11.0783 3.72289ZM11.5789 4.14298C11.8043 3.87444 12.0239 3.5624 12.2004 3.29115L11.9489 3.12754C11.7763 3.39293 11.5639 3.69414 11.3491 3.95013L11.5789 4.14298ZM11.1871 4.55192C11.3206 4.43526 11.4536 4.29223 11.5789 4.14298L11.3491 3.95013C11.2294 4.0927 11.1074 4.22314 10.9897 4.32598L11.1871 4.55192ZM10.7253 4.83069C10.902 4.77766 11.0605 4.66251 11.1871 4.55192L10.9897 4.32598C10.8738 4.42721 10.7542 4.5088 10.639 4.54335L10.7253 4.83069ZM10.1447 4.78305C10.3002 4.84421 10.5105 4.89515 10.7253 4.83069L10.639 4.54335C10.518 4.57967 10.3837 4.55466 10.2545 4.50387L10.1447 4.78305ZM9.67061 4.51302C9.81971 4.62011 9.9816 4.71891 10.1447 4.78305L10.2545 4.50387C10.1235 4.45234 9.98425 4.36893 9.84563 4.26936L9.67061 4.51302ZM8.88399 3.81444C9.11571 4.05403 9.39499 4.31505 9.67061 4.51302L9.84563 4.26936C9.59049 4.0861 9.32526 3.83916 9.09963 3.60588L8.88399 3.81444ZM8.84868 4.67681C9.00045 4.36541 9.08988 4.02922 9.1397 3.73522L8.84392 3.6851C8.79733 3.96001 8.71475 4.26686 8.57901 4.54538L8.84868 4.67681ZM8.04626 5.55269C8.43088 5.35307 8.68392 5.01488 8.84868 4.67681L8.57901 4.54538C8.43102 4.84901 8.21604 5.12657 7.90806 5.28641L8.04626 5.55269ZM6.84149 5.62189C7.20794 5.73235 7.64121 5.76291 8.04626 5.55269L7.90806 5.28641C7.59657 5.44808 7.25071 5.43191 6.92808 5.33466L6.84149 5.62189ZM5.91855 5.15084C6.17681 5.33459 6.49757 5.51822 6.84149 5.62189L6.92808 5.33466C6.62564 5.24349 6.33455 5.07863 6.09246 4.90639L5.91855 5.15084ZM6.10779 5.99402C6.1591 5.66986 6.16687 5.32427 6.1554 5.02291L5.85561 5.03432C5.86663 5.3238 5.85874 5.64854 5.81148 5.94712L6.10779 5.99402ZM5.70134 6.97004C5.94609 6.70675 6.05495 6.32783 6.10779 5.99402L5.81148 5.94712C5.76125 6.26444 5.66403 6.56955 5.48162 6.76579L5.70134 6.97004ZM4.68619 7.35374C5.02019 7.34416 5.4258 7.26646 5.70134 6.97004L5.48162 6.76579C5.28918 6.97281 4.98566 7.04503 4.67759 7.05386L4.68619 7.35374ZM3.73596 7.24438C4.02471 7.31117 4.36351 7.36299 4.68619 7.35374L4.67759 7.05386C4.38966 7.06212 4.07816 7.01562 3.80357 6.9521L3.73596 7.24438ZM4.23407 8.95633C4.33196 8.28062 4.11465 7.54234 3.90849 7.04118L3.63105 7.15531C3.83095 7.64126 4.02335 8.3184 3.93717 8.91332L4.23407 8.95633ZM3.51546 9.88368C3.84911 9.71324 4.16669 9.42142 4.23407 8.95633L3.93717 8.91332C3.88864 9.2483 3.66166 9.47212 3.37898 9.61652L3.51546 9.88368ZM2.48582 10.1584C2.81793 10.1246 3.19552 10.0471 3.51546 9.88368L3.37898 9.61652C3.10558 9.75618 2.76927 9.82799 2.45544 9.85994L2.48582 10.1584ZM2.60559 10.0735C2.60461 10.0763 2.60322 10.0794 2.60114 10.0831L2.34012 9.93523C2.33356 9.94681 2.32775 9.95946 2.32297 9.97288L2.60559 10.0735ZM2.60854 10.0608C2.60784 10.0662 2.60673 10.0703 2.60559 10.0735L2.32297 9.97288C2.31718 9.98915 2.31315 10.0059 2.31103 10.0223L2.60854 10.0608ZM2.6087 10.0595C2.60871 10.0595 2.60875 10.0591 2.60881 10.0586C2.60882 10.0585 2.60886 10.0582 2.6089 10.0578C2.60892 10.0576 2.60895 10.0573 2.60899 10.0569C2.60902 10.0566 2.60911 10.0558 2.60921 10.0547C2.60925 10.0542 2.60935 10.053 2.60945 10.0516C2.6095 10.0509 2.60957 10.0497 2.60964 10.0482C2.60969 10.047 2.60982 10.0439 2.60978 10.04C2.60975 10.0379 2.60953 10.0326 2.60931 10.0295C2.60878 10.0241 2.60601 10.008 2.60319 9.99747C2.59145 9.96959 2.50606 9.89878 2.42387 9.89583C2.37786 9.91582 2.33199 9.96293 2.32441 9.97688C2.32153 9.9833 2.31766 9.99352 2.31647 9.99721C2.31576 9.99957 2.31466 10.0036 2.31424 10.0052C2.31343 10.0084 2.31291 10.011 2.3127 10.0121C2.31223 10.0144 2.31192 10.0163 2.31183 10.0168C2.31169 10.0177 2.31158 10.0183 2.31152 10.0187C2.31141 10.0195 2.31132 10.0201 2.31128 10.0204C2.3112 10.0209 2.31114 10.0214 2.31112 10.0215C2.31109 10.0217 2.31107 10.0219 2.31106 10.022C2.31103 10.0222 2.31101 10.0224 2.311 10.0225C2.31098 10.0226 2.31096 10.0228 2.31094 10.0229C2.31093 10.023 2.31091 10.0232 2.31089 10.0234C2.31088 10.0234 2.31086 10.0236 2.31083 10.0238C2.31082 10.0239 2.31079 10.0241 2.31077 10.0244C2.31075 10.0245 2.31068 10.0251 2.31061 10.0258C2.31058 10.0261 2.31048 10.027 2.31038 10.0281C2.31033 10.0286 2.31023 10.0299 2.31012 10.0314C2.31007 10.0322 2.30998 10.0336 2.30991 10.0353C2.30988 10.0361 2.30982 10.0379 2.3098 10.0389C2.30978 10.0402 2.30979 10.0435 2.30982 10.0454C2.30992 10.0482 2.31043 10.0556 2.31093 10.0602C2.31231 10.0691 2.32143 10.0996 2.33188 10.12C2.38362 10.1708 2.51722 10.1802 2.57048 10.1428C2.58291 10.1273 2.5967 10.1028 2.59983 10.0953C2.60132 10.0912 2.60348 10.0846 2.60422 10.082C2.60469 10.0803 2.60546 10.0773 2.60577 10.076C2.60638 10.0735 2.60679 10.0714 2.60697 10.0704C2.60737 10.0684 2.60764 10.0668 2.60773 10.0662C2.60786 10.0655 2.60796 10.0649 2.60801 10.0645C2.6082 10.0633 2.60833 10.0624 2.60834 10.0623C2.60838 10.062 2.60842 10.0617 2.60843 10.0616C2.60849 10.0612 2.60853 10.0608 2.60854 10.0608L2.31103 10.0223C2.31103 10.0222 2.31104 10.0222 2.31105 10.0221C2.31106 10.022 2.31108 10.0218 2.31112 10.0216C2.31113 10.0214 2.31117 10.0212 2.31121 10.0209C2.31122 10.0208 2.31135 10.0199 2.31154 10.0187C2.31159 10.0183 2.31169 10.0177 2.31181 10.0169C2.31191 10.0164 2.31218 10.0148 2.31257 10.0127C2.31276 10.0118 2.31317 10.0097 2.31378 10.0072C2.31409 10.0059 2.31485 10.0029 2.31533 10.0012C2.31607 9.99859 2.31823 9.99194 2.31972 9.98789C2.32285 9.98035 2.33664 9.95593 2.34907 9.94038C2.40233 9.90303 2.53593 9.91237 2.58767 9.96321C2.59812 9.98363 2.60724 10.0141 2.60861 10.023C2.60912 10.0276 2.60963 10.035 2.60973 10.0378C2.60976 10.0397 2.60977 10.0429 2.60975 10.0443C2.60973 10.0453 2.60967 10.0471 2.60964 10.0479C2.60957 10.0496 2.60948 10.051 2.60943 10.0518C2.60932 10.0533 2.60921 10.0546 2.60917 10.0551C2.60906 10.0562 2.60897 10.0571 2.60894 10.0574C2.60886 10.0581 2.6088 10.0587 2.60878 10.0588C2.60876 10.059 2.60873 10.0592 2.60872 10.0593C2.6087 10.0595 2.60868 10.0597 2.60867 10.0598C2.60865 10.0599 2.60863 10.0601 2.60862 10.0602C2.60861 10.0602 2.6086 10.0604 2.60857 10.0605C2.60857 10.0606 2.60855 10.0607 2.60852 10.0609C2.60851 10.061 2.60849 10.0612 2.60846 10.0614C2.60844 10.0616 2.60838 10.062 2.6083 10.0626C2.60826 10.0628 2.60817 10.0634 2.60806 10.0642C2.608 10.0646 2.60789 10.0653 2.60775 10.0661C2.60766 10.0667 2.60735 10.0685 2.60688 10.0709C2.60667 10.0719 2.60615 10.0745 2.60534 10.0777C2.60493 10.0794 2.60382 10.0834 2.60311 10.0857C2.60192 10.0894 2.59805 10.0996 2.59517 10.1061C2.58759 10.12 2.54172 10.1671 2.49571 10.1871C2.41352 10.1842 2.32813 10.1133 2.31639 10.0855C2.31357 10.0749 2.3108 10.0588 2.31027 10.0535C2.31005 10.0503 2.30983 10.045 2.3098 10.043C2.30976 10.039 2.30989 10.0359 2.30994 10.0348C2.31001 10.0333 2.31008 10.0321 2.31013 10.0313C2.31023 10.0299 2.31033 10.0288 2.31037 10.0283C2.31047 10.0272 2.31056 10.0263 2.31059 10.026C2.31063 10.0256 2.31066 10.0253 2.31068 10.0251C2.31072 10.0248 2.31076 10.0245 2.31077 10.0243C2.3108 10.0241 2.31083 10.0238 2.31084 10.0238C2.31085 10.0237 2.31086 10.0236 2.31086 10.0236L2.6087 10.0595ZM3.07235 10.6509C2.94438 10.3774 2.75582 10.1342 2.56823 9.9379L2.35133 10.1452C2.52454 10.3264 2.69068 10.543 2.80061 10.778L3.07235 10.6509ZM3.19639 11.6304C3.28214 11.2733 3.20479 10.9341 3.07235 10.6509L2.80061 10.778C2.91397 11.0204 2.96993 11.2886 2.90468 11.5603L3.19639 11.6304ZM2.66289 12.4881C2.89748 12.271 3.11091 11.9863 3.19639 11.6304L2.90468 11.5603C2.83744 11.8403 2.66647 12.076 2.45912 12.2679L2.66289 12.4881ZM1.92462 12.9845C2.16847 12.8635 2.43466 12.6993 2.66289 12.4881L2.45912 12.2679C2.25794 12.4541 2.01798 12.6033 1.79124 12.7158L1.92462 12.9845ZM2.00769 12.8566C2.00765 12.8591 2.00751 12.8616 2.00729 12.8641L1.70857 12.8363C1.7081 12.8414 1.70781 12.8466 1.70773 12.8519L2.00769 12.8566ZM2.00769 12.8538C2.00771 12.8547 2.00771 12.8557 2.00769 12.8566L1.70773 12.8519C1.70769 12.854 1.70769 12.856 1.70772 12.858L2.00769 12.8538ZM2.74116 13.2965C2.5008 13.0557 2.19993 12.864 1.92659 12.7226L1.78882 12.9891C2.04654 13.1224 2.31816 13.2974 2.52884 13.5085L2.74116 13.2965ZM3.2075 14.2954C3.2075 13.8791 2.98611 13.5419 2.74116 13.2965L2.52884 13.5085C2.74547 13.7255 2.9075 13.9908 2.9075 14.2954H3.2075ZM2.89 15.0103C3.06217 14.8326 3.2075 14.5925 3.2075 14.2954H2.9075C2.9075 14.4885 2.81391 14.6577 2.67459 14.8015L2.89 15.0103ZM2.26923 15.4446C2.49639 15.3292 2.71909 15.1866 2.89 15.0103L2.67459 14.8015C2.53575 14.9447 2.3452 15.0695 2.13329 15.1772L2.26923 15.4446ZM0.914527 15.9164C1.34216 15.8144 1.84909 15.6582 2.26923 15.4446L2.13329 15.1772C1.74277 15.3757 1.26128 15.5253 0.844945 15.6246L0.914527 15.9164ZM1.69975 16.4588C1.4842 16.1618 1.21976 15.8832 0.982209 15.661L0.777263 15.88C1.00605 16.0941 1.25613 16.3583 1.45695 16.635L1.69975 16.4588ZM2.15223 17.5866C2.15223 17.1775 1.92904 16.7748 1.69975 16.4588L1.45695 16.635C1.67817 16.9399 1.85223 17.2769 1.85223 17.5866H2.15223ZM1.50993 18.6793C1.81171 18.4273 2.15223 18.0523 2.15223 17.5866H1.85223C1.85223 17.9073 1.61101 18.2041 1.31765 18.449L1.50993 18.6793ZM0.522352 19.306C0.846967 19.143 1.21184 18.9282 1.50993 18.6793L1.31765 18.449C1.04391 18.6776 0.701269 18.8804 0.387744 19.0379L0.522352 19.306ZM1.46549 19.61C1.17346 19.3739 0.827116 19.1801 0.518507 19.036L0.391588 19.3078C0.687157 19.4458 1.01021 19.6277 1.2769 19.8433L1.46549 19.61ZM2.1487 20.6553C2.08927 20.2098 1.77364 19.859 1.46549 19.61L1.2769 19.8433C1.56681 20.0776 1.80741 20.3657 1.85134 20.6949L2.1487 20.6553ZM1.81238 21.7848C2.0222 21.4745 2.20488 21.0762 2.1487 20.6553L1.85134 20.6949C1.89303 21.0074 1.75848 21.329 1.56386 21.6168L1.81238 21.7848ZM1.10186 22.5723C1.34846 22.3536 1.61155 22.0819 1.81238 21.7848L1.56386 21.6168C1.38189 21.8859 1.13834 22.139 0.902822 22.3478L1.10186 22.5723ZM2.26717 22.6322C1.87581 22.4558 1.41787 22.3599 1.02059 22.3112L0.984095 22.6089C1.36597 22.6557 1.79087 22.7466 2.14393 22.9057L2.26717 22.6322ZM3.20084 23.6606C3.10291 23.1294 2.67151 22.8144 2.26717 22.6322L2.14393 22.9057C2.5174 23.074 2.83489 23.3303 2.90581 23.715L3.20084 23.6606ZM2.8978 25.1996C3.12768 24.8099 3.31328 24.2704 3.20084 23.6606L2.90581 23.715C3.00117 24.2321 2.84547 24.6978 2.6394 25.0472L2.8978 25.1996ZM2.91806 25.1036C2.9171 25.1019 2.91663 25.1006 2.91651 25.1002C2.91627 25.0995 2.91715 25.1018 2.91777 25.1076L2.61943 25.1392C2.62303 25.1732 2.63508 25.2114 2.6547 25.2473L2.91806 25.1036ZM2.91705 25.1029C2.9195 25.1056 2.91933 25.106 2.91805 25.1036L2.6547 25.2473C2.66782 25.2714 2.6824 25.291 2.69649 25.3063L2.91705 25.1029ZM3.96648 25.1284C3.57953 25.044 3.16186 25.0338 2.7981 25.0548L2.81544 25.3543C3.1633 25.3342 3.55145 25.3449 3.9025 25.4215L3.96648 25.1284ZM5.04083 25.7423C4.77327 25.3871 4.35645 25.2135 3.96648 25.1284L3.9025 25.4215C4.26131 25.4998 4.59596 25.6503 4.80121 25.9228L5.04083 25.7423ZM5.54348 27.7609C5.56839 27.1964 5.50067 26.3527 5.04083 25.7423L4.80121 25.9228C5.19642 26.4474 5.26784 27.2023 5.24377 27.7477L5.54348 27.7609ZM6.43615 27.2662C6.02746 27.3105 5.63475 27.4614 5.32495 27.6209L5.46229 27.8876C5.75214 27.7384 6.10847 27.6035 6.4685 27.5644L6.43615 27.2662ZM7.7584 27.6426C7.35821 27.2906 6.8707 27.219 6.43615 27.2662L6.4685 27.5644C6.84906 27.5231 7.24266 27.5885 7.56027 27.8678L7.7584 27.6426ZM8.64412 29.1793C8.54065 28.703 8.29155 28.1115 7.7584 27.6426L7.56027 27.8678C8.03294 28.2835 8.25713 28.8111 8.35096 29.243L8.64412 29.1793ZM8.58185 29.0874C8.58371 29.0885 8.58619 29.0901 8.58918 29.0924L8.40591 29.3299C8.4134 29.3357 8.42179 29.3414 8.43107 29.3468L8.58185 29.0874ZM8.57532 29.0843C8.57698 29.0849 8.57905 29.0858 8.58183 29.0874L8.4311 29.3468C8.44597 29.3554 8.46214 29.3627 8.47893 29.3684L8.57532 29.0843ZM8.56628 29.0824C8.57082 29.083 8.57367 29.0838 8.5753 29.0843L8.47895 29.3684C8.49555 29.3741 8.51235 29.378 8.52867 29.38L8.56628 29.0824ZM9.44532 28.4169C9.06193 28.5875 8.7139 28.8621 8.44331 29.1233L8.65164 29.3391C8.90841 29.0913 9.22763 28.8421 9.56726 28.691L9.44532 28.4169ZM10.7841 28.3809C10.3187 28.1568 9.83837 28.242 9.44532 28.4169L9.56726 28.691C9.91535 28.5361 10.2974 28.4794 10.6539 28.6512L10.7841 28.3809ZM12.274 29.9392C12.0102 29.4321 11.5201 28.7353 10.7841 28.3809L10.6539 28.6512C11.3048 28.9646 11.7564 29.5944 12.0078 30.0776L12.274 29.9392ZM12.7847 28.9827C12.4791 29.2744 12.2137 29.6234 12.0154 29.9262L12.2664 30.0906C12.4567 29.8 12.7079 29.4707 12.9919 29.1998L12.7847 28.9827ZM13.9825 28.3429C13.5155 28.3879 13.1018 28.6801 12.7847 28.9827L12.9919 29.1998C13.2935 28.9119 13.6457 28.6767 14.0112 28.6416L13.9825 28.3429ZM15.1981 28.6455C14.8489 28.4539 14.4224 28.3006 13.9825 28.3429L14.0112 28.6416C14.3661 28.6074 14.7298 28.7307 15.0538 28.9085L15.1981 28.6455ZM16.0383 29.2599C15.8117 29.0512 15.5209 28.8226 15.1981 28.6455L15.0538 28.9085C15.3495 29.0708 15.6208 29.2833 15.8351 29.4805L16.0383 29.2599ZM16.184 28.2292C16.0097 28.5849 15.8793 28.9901 15.7914 29.3329L16.082 29.4075C16.167 29.0761 16.2913 28.6921 16.4534 28.3612L16.184 28.2292ZM16.5278 27.6846C16.3925 27.8449 16.2789 28.0356 16.184 28.2292L16.4534 28.3612C16.5418 28.181 16.6428 28.0134 16.757 27.878L16.5278 27.6846ZM17.0541 27.2988C16.8347 27.3756 16.6614 27.5263 16.5278 27.6846L16.757 27.878C16.8709 27.7432 17.0025 27.6347 17.1532 27.582L17.0541 27.2988ZM18.1297 27.2986C17.7917 27.2219 17.394 27.1799 17.0541 27.2988L17.1532 27.582C17.4114 27.4916 17.7406 27.5179 18.0634 27.5911L18.1297 27.2986ZM19.0945 27.6268C18.8091 27.5017 18.4677 27.3752 18.1297 27.2986L18.0634 27.5911C18.3767 27.6622 18.6993 27.7811 18.974 27.9016L19.0945 27.6268ZM19.3438 25.7433C18.8284 26.4318 18.7986 27.2312 18.886 27.7875L19.1824 27.7409C19.1022 27.2304 19.1345 26.5235 19.5839 25.923L19.3438 25.7433ZM20.572 25.1026C20.1336 25.1415 19.6695 25.308 19.3438 25.7433L19.5839 25.923C19.8433 25.5765 20.2156 25.4354 20.5985 25.4014L20.572 25.1026ZM21.7267 25.2189C21.3929 25.1366 20.9794 25.0664 20.572 25.1026L20.5985 25.4014C20.9582 25.3695 21.3347 25.4312 21.6548 25.5102L21.7267 25.2189ZM21.2918 24.4545C21.3407 24.7959 21.4408 25.1367 21.551 25.4191L21.8305 25.31C21.7269 25.0446 21.6338 24.7263 21.5888 24.412L21.2918 24.4545ZM21.3807 23.3608C21.238 23.7025 21.2416 24.1039 21.2918 24.4545L21.5888 24.412C21.5417 24.0826 21.5454 23.7448 21.6575 23.4764L21.3807 23.3608ZM22.3053 22.5728C21.9502 22.7137 21.5518 22.951 21.3807 23.3608L21.6575 23.4764C21.7807 23.1814 22.0823 22.984 22.416 22.8516L22.3053 22.5728ZM23.3677 22.3142C23.0321 22.3578 22.6474 22.437 22.3053 22.5728L22.416 22.8516C22.7267 22.7283 23.0848 22.6535 23.4064 22.6117L23.3677 22.3142ZM22.6227 21.7954C22.8166 22.0859 23.0584 22.3538 23.2828 22.5708L23.4913 22.3551C23.2768 22.1477 23.0506 21.8962 22.8722 21.6289L22.6227 21.7954ZM22.2331 20.7084C22.2331 21.1055 22.4165 21.4864 22.6227 21.7954L22.8722 21.6289C22.6785 21.3387 22.5331 21.0179 22.5331 20.7084H22.2331ZM22.8048 19.6463C22.5197 19.8953 22.2331 20.2542 22.2331 20.7084H22.5331C22.5331 20.3853 22.7389 20.1022 23.0021 19.8722L22.8048 19.6463ZM23.7412 19.0561C23.4294 19.2038 23.0839 19.4025 22.8048 19.6463L23.0021 19.8722C23.2527 19.6534 23.5713 19.4685 23.8696 19.3272L23.7412 19.0561ZM22.7945 18.7202C23.077 18.981 23.4271 19.183 23.7428 19.328L23.868 19.0553C23.5687 18.9179 23.2491 18.7317 22.9981 18.4998L22.7945 18.7202ZM22.2331 17.5866C22.2331 18.0661 22.4983 18.4466 22.7945 18.7202L22.9981 18.4998C22.7328 18.2548 22.5331 17.9483 22.5331 17.5866H22.2331ZM22.6187 16.4417C22.4066 16.7632 22.2331 17.1568 22.2331 17.5866H22.5331C22.5331 17.237 22.675 16.9011 22.8691 16.6069L22.6187 16.4417ZM23.2994 15.6692C23.068 15.8756 22.818 16.1396 22.6187 16.4417L22.8691 16.6069C23.0502 16.3323 23.2809 16.0877 23.4991 15.8931L23.2994 15.6692ZM22.1636 15.4772C22.5364 15.7 22.9829 15.8422 23.3667 15.9276L23.4319 15.6348C23.0645 15.553 22.6522 15.4197 22.3175 15.2197L22.1636 15.4772ZM21.3505 14.3219C21.3871 14.8748 21.776 15.2456 22.1636 15.4772L22.3175 15.2197C21.964 15.0085 21.6768 14.7099 21.6499 14.3021L21.3505 14.3219ZM22.3742 12.7139C21.8948 12.972 21.2952 13.486 21.3505 14.3219L21.6499 14.3021C21.6064 13.6448 22.0724 13.2171 22.5164 12.978L22.3742 12.7139ZM22.3002 12.8083C22.3005 12.8069 22.3009 12.8054 22.3013 12.804L22.5893 12.8878C22.5903 12.8846 22.5912 12.8811 22.5921 12.8775L22.3002 12.8083ZM22.2982 12.8237C22.2983 12.819 22.2988 12.814 22.3002 12.8083L22.5921 12.8775C22.5957 12.8621 22.5978 12.8459 22.5981 12.8297L22.2982 12.8237ZM22.2983 12.8292C22.2981 12.8272 22.2981 12.8254 22.2982 12.8236L22.5981 12.8297C22.5982 12.824 22.5981 12.8183 22.5978 12.8127L22.2983 12.8292ZM21.5697 12.4466C21.8155 12.6504 22.1116 12.8225 22.3818 12.9555L22.5143 12.6864C22.2557 12.5591 21.9822 12.3989 21.7612 12.2157L21.5697 12.4466ZM21.0113 11.6014C21.0704 11.9623 21.3278 12.2461 21.5697 12.4466L21.7612 12.2157C21.5356 12.0287 21.3485 11.8043 21.3074 11.553L21.0113 11.6014ZM21.3228 10.5459C21.1335 10.8273 20.9471 11.2084 21.0113 11.6014L21.3074 11.553C21.2624 11.278 21.3923 10.98 21.5717 10.7133L21.3228 10.5459ZM21.9537 9.8218C21.7373 10.0254 21.5034 10.2773 21.3228 10.5459L21.5717 10.7133C21.7355 10.4697 21.9524 10.235 22.1593 10.0403L21.9537 9.8218ZM21.0483 9.7879C21.3678 9.92017 21.7197 10.0146 22.0261 10.0779L22.0868 9.78413C21.7918 9.72315 21.4595 9.63342 21.163 9.51071L21.0483 9.7879ZM20.1332 9.10936C20.3351 9.43733 20.7123 9.6488 21.0483 9.7879L21.163 9.51071C20.8392 9.37665 20.5384 9.19536 20.3886 8.95207L20.1332 9.10936ZM19.9983 8.04112C19.936 8.36826 19.9252 8.77153 20.1332 9.10936L20.3886 8.95207C20.239 8.70912 20.2359 8.3971 20.293 8.09724L19.9983 8.04112ZM20.2928 7.1749C20.1734 7.42795 20.0569 7.73321 19.9983 8.04112L20.293 8.09724C20.3453 7.82242 20.4512 7.54217 20.5641 7.30297L20.2928 7.1749ZM19.4354 7.39662C19.7817 7.43287 20.1408 7.41937 20.4438 7.38815L20.4131 7.08973C20.1234 7.11958 19.7862 7.13169 19.4666 7.09825L19.4354 7.39662ZM18.3517 7.00413C18.6542 7.25821 19.0689 7.35826 19.4354 7.39662L19.4666 7.09825C19.12 7.06197 18.7781 6.97052 18.5447 6.77442L18.3517 7.00413ZM17.9244 6.11657C17.9534 6.42415 18.0636 6.76208 18.3517 7.00413L18.5447 6.77442C18.3379 6.6007 18.2477 6.34987 18.2231 6.08845L17.9244 6.11657ZM18.0037 5.24482C17.9397 5.51044 17.8964 5.81869 17.9244 6.11657L18.2231 6.08845C18.1993 5.83528 18.2357 5.56245 18.2953 5.3151L18.0037 5.24482ZM18.0381 5.38036C18.0372 5.37934 18.036 5.37808 18.0347 5.37656L18.2643 5.18337C18.2611 5.17961 18.2579 5.17604 18.2546 5.17265L18.0381 5.38036ZM18.0437 5.38552C18.0418 5.38399 18.04 5.38229 18.0382 5.38037L18.2546 5.17264C18.249 5.16676 18.243 5.16115 18.2367 5.15587L18.0437 5.38552ZM18.0497 5.39008C18.0475 5.3886 18.0455 5.38708 18.0436 5.38552L18.2367 5.15588C18.2304 5.15057 18.2238 5.14565 18.2172 5.14116L18.0497 5.39008ZM18.0522 5.39168C18.0515 5.39123 18.0506 5.3907 18.0497 5.39008L18.2172 5.14116C18.2147 5.13953 18.2124 5.13805 18.2103 5.13671L18.0522 5.39168ZM17.2942 5.67695C17.6157 5.62831 17.9279 5.51975 18.1926 5.40106L18.0698 5.12733C17.8214 5.23874 17.536 5.33696 17.2493 5.38033L17.2942 5.67695ZM16.2564 5.5603C16.5954 5.71816 16.965 5.72675 17.2942 5.67695L17.2493 5.38033C16.9542 5.42497 16.6499 5.41262 16.383 5.28834L16.2564 5.5603ZM15.4842 4.72434C15.6364 5.05119 15.8772 5.38373 16.2564 5.5603L16.383 5.28834C16.0926 5.1531 15.8925 4.89055 15.7562 4.5977L15.4842 4.72434ZM15.2121 3.76799C15.2567 4.06969 15.3393 4.41308 15.4842 4.72434L15.7562 4.5977C15.6273 4.32104 15.5508 4.00799 15.5089 3.7241L15.2121 3.76799ZM14.7247 4.48574C15.0037 4.30057 15.2604 4.0674 15.4688 3.84979L15.2521 3.6423C15.0535 3.84978 14.8137 4.06664 14.5588 4.23578L14.7247 4.48574ZM13.7019 4.84765C14.0781 4.84765 14.4353 4.67782 14.7247 4.48574L14.5588 4.23578C14.2893 4.41465 13.9917 4.54765 13.7019 4.54765V4.84765ZM12.5683 4.22177C12.8354 4.52437 13.2242 4.84765 13.7019 4.84765V4.54765C13.36 4.54765 13.0478 4.3116 12.7932 4.02323L12.5683 4.22177ZM11.9414 3.27819C12.0985 3.58223 12.3129 3.93243 12.5683 4.22177L12.7932 4.02323C12.5598 3.7588 12.3584 3.43182 12.2079 3.1405L11.9414 3.27819ZM12.6137 2.8272C12.4168 2.42848 11.8355 2.36945 11.5815 2.76821L11.8345 2.92939C11.956 2.73863 12.2456 2.75934 12.3447 2.96002L12.6137 2.8272ZM13.1707 3.69003C12.9525 3.44289 12.7567 3.11673 12.6137 2.82721L12.3447 2.96002C12.4942 3.26275 12.7037 3.61434 12.9457 3.88857L13.1707 3.69003ZM13.7019 4.04416C13.5875 4.04416 13.4037 3.95404 13.1707 3.69003L12.9457 3.88857C13.1917 4.16722 13.452 4.34416 13.7019 4.34416V4.04416ZM14.2804 3.81627C14.0442 3.97299 13.8467 4.04416 13.7019 4.04416V4.34416C13.9331 4.34416 14.1902 4.23615 14.4463 4.06623L14.2804 3.81627ZM14.9228 3.25787C14.7337 3.45951 14.509 3.66455 14.2804 3.81627L14.4463 4.06623C14.7004 3.89757 14.9427 3.67517 15.1416 3.46313L14.9228 3.25787ZM15.57 3.10457C15.3898 3.0452 15.1185 3.04934 14.9228 3.25787L15.1416 3.46313C15.2338 3.36485 15.3698 3.35447 15.4761 3.38951L15.57 3.10457ZM16.0006 3.60561C15.9629 3.32683 15.7502 3.16394 15.57 3.10457L15.4761 3.38951C15.5824 3.4245 15.6854 3.51332 15.7033 3.64582L16.0006 3.60561ZM16.2126 4.38516C16.1044 4.15275 16.0366 3.87198 16.0006 3.60561L15.7033 3.64582C15.7418 3.93024 15.8154 4.24295 15.9406 4.5118L16.2126 4.38516ZM16.5956 4.83192C16.4538 4.7659 16.3222 4.62055 16.2126 4.38516L15.9406 4.5118C16.0662 4.78154 16.2387 4.99664 16.4689 5.10388L16.5956 4.83192ZM17.174 4.88251C16.9362 4.91848 16.7415 4.89989 16.5956 4.83192L16.4689 5.10388C16.6869 5.20538 16.9469 5.22028 17.2189 5.17913L17.174 4.88251ZM17.8841 4.65878C17.6577 4.76194 17.4096 4.84687 17.174 4.88251L17.2189 5.17913C17.4902 5.13808 17.7659 5.04234 18.0085 4.93175L17.8841 4.65878ZM18.5606 4.77042C18.4226 4.65442 18.1598 4.53307 17.8841 4.65878L18.0085 4.93175C18.1376 4.87288 18.2771 4.92406 18.3676 5.00009L18.5606 4.77042ZM18.7895 5.41373C18.8617 5.12274 18.6989 4.88662 18.5606 4.77042L18.3676 5.00009C18.458 5.0761 18.5324 5.20445 18.4983 5.34148L18.7895 5.41373ZM18.7244 6.04127C18.707 5.85727 18.7343 5.63628 18.7895 5.41373L18.4983 5.34148C18.4386 5.5822 18.404 5.83946 18.4257 6.06938L18.7244 6.04127ZM18.8685 6.38891C18.7977 6.32939 18.7416 6.22421 18.7244 6.04127L18.4257 6.06938C18.4473 6.2994 18.5239 6.49119 18.6756 6.61861L18.8685 6.38891ZM19.5191 6.5975C19.2056 6.5647 18.9861 6.48765 18.8685 6.38891L18.6756 6.61861C18.8622 6.77538 19.1546 6.861 19.4878 6.89587L19.5191 6.5975ZM20.4345 6.58084C20.1516 6.6141 19.8202 6.62902 19.5191 6.5975L19.4878 6.89587C19.818 6.93043 20.1728 6.91366 20.4695 6.87879L20.4345 6.58084ZM20.9987 6.84034C20.8897 6.68376 20.6862 6.55126 20.4345 6.58084L20.4695 6.87879C20.59 6.86463 20.6935 6.92697 20.7524 7.01169L20.9987 6.84034ZM21.0495 7.45564C21.1602 7.23141 21.1075 6.99667 20.9987 6.84034L20.7524 7.0117C20.8113 7.0963 20.8339 7.2147 20.7805 7.32279L21.0495 7.45564ZM20.7876 8.19142C20.8338 7.94905 20.9362 7.6851 21.0495 7.45564L20.7805 7.32279C20.6603 7.56626 20.5459 7.857 20.4929 8.1353L20.7876 8.19142ZM20.8173 8.6881C20.7657 8.60414 20.7393 8.44505 20.7876 8.19142L20.4929 8.1353C20.4393 8.4166 20.4519 8.66676 20.5619 8.84539L20.8173 8.6881ZM21.3556 9.04551C21.0518 8.91973 20.8795 8.78907 20.8173 8.6881L20.5619 8.84539C20.6763 9.03121 20.9252 9.19203 21.2409 9.3227L21.3556 9.04551ZM22.2747 9.30819C21.9781 9.25132 21.6417 9.16395 21.3556 9.04551L21.2409 9.3227C21.5522 9.45157 21.9099 9.5437 22.2182 9.60283L22.2747 9.30819ZM22.7372 9.7417C22.6852 9.5535 22.5305 9.35724 22.2747 9.30819L22.2182 9.60283C22.3403 9.62624 22.4201 9.72046 22.4481 9.82162L22.7372 9.7417ZM22.5664 10.3495C22.7573 10.1758 22.7892 9.92967 22.7372 9.7417L22.4481 9.82162C22.476 9.92266 22.4561 10.0443 22.3645 10.1276L22.5664 10.3495ZM21.9895 10.9943C22.1409 10.7692 22.3569 10.5401 22.5664 10.3495L22.3645 10.1276C22.1452 10.3271 21.9104 10.5745 21.7406 10.8269L21.9895 10.9943ZM21.8043 11.4717C21.7917 11.3948 21.8268 11.2362 21.9895 10.9943L21.7406 10.8269C21.5679 11.0836 21.4763 11.3252 21.5082 11.5201L21.8043 11.4717ZM22.0825 11.8281C21.8844 11.6638 21.8153 11.5393 21.8043 11.4717L21.5082 11.5201C21.5372 11.6972 21.6766 11.8812 21.8911 12.059L22.0825 11.8281ZM22.7605 12.2463C22.514 12.1267 22.2685 11.9823 22.0825 11.8281L21.8911 12.059C22.1025 12.2343 22.3713 12.3909 22.6295 12.5162L22.7605 12.2463ZM23.1015 12.8399C23.1051 12.661 23.0351 12.3797 22.7605 12.2463L22.6295 12.5162C22.7569 12.5781 22.8039 12.7169 22.8015 12.8339L23.1015 12.8399ZM22.7669 13.415C23.018 13.282 23.0978 13.0207 23.1015 12.8399L22.8015 12.8339C22.7992 12.9506 22.7473 13.0859 22.6265 13.1499L22.7669 13.415ZM22.1522 14.2688C22.1282 13.9049 22.3802 13.6198 22.7669 13.415L22.6265 13.1499C22.2024 13.3744 21.817 13.7461 21.8529 14.2886L22.1522 14.2688ZM22.5757 14.7875C22.2813 14.6116 22.1632 14.4344 22.1522 14.2688L21.8529 14.2886C21.8734 14.5981 22.0917 14.8477 22.4218 15.045L22.5757 14.7875ZM23.5999 15.156C23.2452 15.0817 22.8637 14.9595 22.5757 14.7875L22.4218 15.045C22.7497 15.2409 23.1672 15.3719 23.5385 15.4496L23.5999 15.156ZM24.0628 15.6125C24.0161 15.4271 23.8684 15.2121 23.5999 15.156L23.5385 15.4496C23.6659 15.4763 23.7453 15.5801 23.7719 15.6858L24.0628 15.6125ZM23.8767 16.2316C24.0812 16.0544 24.1095 15.7977 24.0628 15.6125L23.7719 15.6858C23.7985 15.7913 23.778 15.9202 23.6802 16.0048L23.8767 16.2316ZM23.2894 16.8841C23.4514 16.6386 23.6683 16.4121 23.8767 16.2316L23.6802 16.0048C23.458 16.1973 23.2204 16.4439 23.039 16.7189L23.2894 16.8841ZM23.0366 17.5866C23.0366 17.3716 23.1256 17.1324 23.2894 16.8841L23.039 16.7189C22.8571 16.9946 22.7366 17.2914 22.7366 17.5866H23.0366ZM23.3396 18.1299C23.127 17.9336 23.0366 17.7513 23.0366 17.5866H22.7366C22.7366 17.8685 22.8919 18.1248 23.1361 18.3503L23.3396 18.1299ZM24.124 18.6185C23.8384 18.4917 23.5501 18.3243 23.3396 18.1299L23.1361 18.3503C23.3795 18.5751 23.7001 18.7585 24.0022 18.8927L24.124 18.6185ZM24.4832 19.1843C24.4808 18.9929 24.3871 18.7354 24.124 18.6185L24.0022 18.8927C24.1267 18.948 24.1818 19.0749 24.1832 19.1881L24.4832 19.1843ZM24.1336 19.7596C24.3981 19.6378 24.4856 19.3757 24.4832 19.1843L24.1832 19.1881C24.1847 19.3013 24.1326 19.4298 24.0082 19.4871L24.1336 19.7596ZM23.3333 20.2514C23.5488 20.0633 23.8435 19.8932 24.1336 19.7596L24.0082 19.4871C23.7045 19.6269 23.3814 19.8111 23.136 20.0255L23.3333 20.2514ZM23.0366 20.7084C23.0366 20.6047 23.1075 20.4486 23.3333 20.2514L23.136 20.0255C22.8876 20.2424 22.7366 20.4742 22.7366 20.7084H23.0366ZM23.291 21.3494C23.1183 21.0907 23.0366 20.8708 23.0366 20.7084H22.7366C22.7366 20.9585 22.8563 21.2385 23.0415 21.5159L23.291 21.3494ZM23.8955 22.0448C23.6816 21.8439 23.4581 21.5997 23.291 21.3494L23.0415 21.5159C23.2253 21.7913 23.4659 22.0528 23.6901 22.2634L23.8955 22.0448ZM24.0492 22.6821C24.1104 22.497 24.0968 22.2339 23.8955 22.0448L23.6901 22.2634C23.7856 22.3532 23.7987 22.4839 23.7644 22.5878L24.0492 22.6821ZM23.5456 23.1019C23.8201 23.0702 23.9879 22.8672 24.0492 22.6821L23.7644 22.5878C23.73 22.6917 23.6415 22.7888 23.5112 22.8039L23.5456 23.1019ZM22.6017 23.3196C22.8829 23.208 23.2284 23.1385 23.5456 23.1019L23.5112 22.8039C23.1798 22.8421 22.8059 22.9158 22.491 23.0408L22.6017 23.3196ZM22.1221 23.6704C22.1649 23.5679 22.3045 23.4376 22.6017 23.3196L22.491 23.0408C22.172 23.1674 21.9359 23.3377 21.8453 23.5548L22.1221 23.6704ZM22.0872 24.3407C22.0452 24.0469 22.0614 23.8158 22.1221 23.6704L21.8453 23.5548C21.7539 23.7735 21.7452 24.0682 21.7902 24.3832L22.0872 24.3407ZM22.3147 25.1651C22.2163 24.9215 22.1279 24.6248 22.0872 24.3407L21.7902 24.3832C21.835 24.6958 21.931 25.0159 22.0365 25.2774L22.3147 25.1651ZM22.2057 25.7993C22.3255 25.6553 22.4152 25.4144 22.3147 25.1651L22.0365 25.2774C22.0848 25.3972 22.0451 25.5232 21.9751 25.6074L22.2057 25.7993ZM21.584 26.0115C21.8574 26.0819 22.0857 25.9435 22.2057 25.7993L21.9751 25.6074C21.9047 25.692 21.7869 25.754 21.6588 25.721L21.584 26.0115ZM20.643 25.9029C20.9397 25.8766 21.2742 25.9318 21.584 26.0115L21.6588 25.721C21.3364 25.638 20.9633 25.5733 20.6165 25.6041L20.643 25.9029ZM19.987 26.2247C20.1353 26.0266 20.3542 25.9285 20.643 25.9029L20.6165 25.6041C20.2714 25.6347 19.9612 25.7586 19.7469 26.045L19.987 26.2247ZM19.6828 27.6812C19.6108 27.2465 19.6428 26.6846 19.987 26.2247L19.7469 26.045C19.336 26.5939 19.3072 27.2495 19.3868 27.7302L19.6828 27.6812ZM19.4504 28.274C19.5912 28.1569 19.7259 27.9421 19.6828 27.6812L19.3868 27.7302C19.4077 27.8568 19.3432 27.973 19.2586 28.0433L19.4504 28.274ZM18.8028 28.3764C19.0618 28.4917 19.3098 28.3909 19.4504 28.274L19.2586 28.0433C19.1736 28.114 19.046 28.1563 18.9248 28.1023L18.8028 28.3764ZM17.952 28.0822C18.2357 28.1465 18.5392 28.259 18.8028 28.3764L18.9248 28.1023C18.6505 27.9802 18.3275 27.8597 18.0184 27.7896L17.952 28.0822ZM17.3194 28.0572C17.4405 28.0149 17.6545 28.0147 17.952 28.0822L18.0184 27.7896C17.7059 27.7187 17.4232 27.7031 17.2204 27.7741L17.3194 28.0572ZM17.1418 28.2028C17.2224 28.1073 17.2839 28.0696 17.3194 28.0572L17.2204 27.7741C17.1163 27.8105 17.013 27.8903 16.9126 28.0093L17.1418 28.2028ZM16.9055 28.5828C16.9829 28.425 17.0629 28.2963 17.1418 28.2028L16.9126 28.0093C16.8126 28.1277 16.72 28.2796 16.6362 28.4507L16.9055 28.5828ZM16.5497 29.6126C16.6297 29.2833 16.7508 28.8985 16.9055 28.5828L16.6362 28.4507C16.4684 28.7931 16.341 29.2007 16.2582 29.5418L16.5497 29.6126ZM15.5491 29.9026C15.8701 30.2093 16.4386 30.07 16.5497 29.6126L16.2582 29.5418C16.2044 29.7629 15.9191 29.8412 15.7563 29.6857L15.5491 29.9026ZM14.8115 29.3499C15.0877 29.5014 15.3481 29.7105 15.5491 29.9026L15.7563 29.6857C15.5426 29.4814 15.2613 29.2545 14.9559 29.0869L14.8115 29.3499ZM14.0594 29.1427C14.2716 29.1223 14.53 29.1954 14.8115 29.3499L14.9559 29.0869C14.649 28.9185 14.3279 28.8155 14.0307 28.8441L14.0594 29.1427ZM13.3395 29.564C13.6153 29.3008 13.8644 29.1615 14.0594 29.1427L14.0307 28.8441C13.7341 28.8726 13.4236 29.0691 13.1323 29.347L13.3395 29.564ZM12.6513 30.4225C12.832 30.1392 13.0738 29.8175 13.3395 29.564L13.1323 29.347C12.8437 29.6224 12.5871 29.9653 12.3984 30.2612L12.6513 30.4225ZM12.0981 30.696C12.2856 30.7085 12.5155 30.6355 12.6513 30.4225L12.3984 30.2612C12.3335 30.3629 12.2205 30.4035 12.118 30.3967L12.0981 30.696ZM11.588 30.3626C11.6976 30.5824 11.9112 30.6836 12.0981 30.696L12.118 30.3967C12.0159 30.3899 11.9096 30.3352 11.8564 30.2287L11.588 30.3626ZM10.4355 29.1048C10.9665 29.3605 11.364 29.9137 11.588 30.3626L11.8564 30.2287C11.6207 29.7562 11.1848 29.1327 10.5656 28.8345L10.4355 29.1048ZM9.77191 29.151C10.0435 29.0302 10.2608 29.0206 10.4355 29.1048L10.5656 28.8345C10.2828 28.6983 9.96742 28.7357 9.64997 28.8769L9.77191 29.151ZM8.98541 29.7168C9.22195 29.486 9.49917 29.2723 9.77191 29.151L9.64997 28.8769C9.33258 29.0181 9.02617 29.2579 8.77589 29.5021L8.98541 29.7168ZM8.31723 29.8453C8.4798 29.9004 8.76859 29.9284 8.98541 29.7168L8.77589 29.5021C8.67502 29.6005 8.52551 29.5991 8.41359 29.5611L8.31723 29.8453ZM7.86166 29.3625C7.92046 29.641 8.15235 29.7893 8.31723 29.8453L8.41359 29.5611C8.3016 29.5232 8.18342 29.4342 8.15519 29.3005L7.86166 29.3625ZM7.22776 28.2459C7.60351 28.5764 7.78571 29.0028 7.86166 29.3625L8.15519 29.3005C8.06979 28.8961 7.86276 28.4049 7.42589 28.0206L7.22776 28.2459ZM6.5228 28.065C6.8119 28.0336 7.04825 28.088 7.22776 28.2459L7.42589 28.0206C7.16421 27.7905 6.83425 27.7294 6.49045 27.7667L6.5228 28.065ZM5.65379 28.3557C5.9173 28.2154 6.22895 28.0968 6.5228 28.065L6.49045 27.7667C6.1457 27.8041 5.79634 27.9399 5.51279 28.0909L5.65379 28.3557ZM5.03088 28.3243C5.18765 28.4238 5.42713 28.4764 5.6538 28.3557L5.51279 28.0909C5.40373 28.149 5.28077 28.1276 5.19173 28.071L5.03088 28.3243ZM4.73846 27.7715C4.72389 28.0294 4.87406 28.2246 5.03088 28.3243L5.19173 28.071C5.10265 28.0144 5.031 27.9121 5.03798 27.7884L4.73846 27.7715ZM4.39907 26.2257C4.69628 26.6203 4.76765 27.2547 4.73846 27.7715L5.03798 27.7884C5.06819 27.2536 5.00219 26.5278 4.63869 26.0452L4.39907 26.2257ZM3.79512 25.9134C4.10127 25.9802 4.29823 26.0919 4.39907 26.2257L4.63869 26.0452C4.47566 25.8288 4.19672 25.694 3.8591 25.6203L3.79512 25.9134ZM2.81912 25.8585C3.14713 25.8378 3.49619 25.8482 3.79512 25.9134L3.8591 25.6203C3.52342 25.547 3.1442 25.5374 2.80025 25.5591L2.81912 25.8585ZM2.21272 25.4885C2.29195 25.6337 2.49372 25.879 2.81912 25.8585L2.80025 25.5591C2.65124 25.5685 2.53563 25.4539 2.47607 25.3448L2.21272 25.4885ZM2.19944 24.802C2.04647 25.0575 2.1308 25.3383 2.21272 25.4885L2.47607 25.3448C2.41626 25.2352 2.38355 25.0785 2.45684 24.9561L2.19944 24.802ZM2.41067 23.8062C2.47827 24.1729 2.36883 24.519 2.19944 24.802L2.45684 24.9561C2.65044 24.6327 2.79056 24.2121 2.7057 23.7519L2.41067 23.8062ZM1.9371 23.3647C2.25678 23.5088 2.38484 23.6661 2.41067 23.8062L2.7057 23.7519C2.65307 23.4664 2.41263 23.2499 2.06034 23.0912L1.9371 23.3647ZM0.85615 23.1009C1.22977 23.1419 1.62869 23.2258 1.9371 23.3647L2.06034 23.0912C1.71158 22.9341 1.27784 22.8454 0.888868 22.8027L0.85615 23.1009ZM0.34334 22.6635C0.400526 22.8493 0.567373 23.0693 0.856151 23.1009L0.888867 22.8027C0.752892 22.7878 0.663278 22.6832 0.630068 22.5753L0.34334 22.6635ZM0.519365 22.0143C0.300556 22.2032 0.286165 22.4778 0.34334 22.6635L0.630068 22.5753C0.596874 22.4674 0.612072 22.3306 0.715374 22.2415L0.519365 22.0143ZM1.14677 21.3348C0.984281 21.5751 0.751934 21.8136 0.519366 22.0143L0.715374 22.2415C0.959278 22.031 1.21269 21.7729 1.39529 21.5028L1.14677 21.3348ZM1.35228 20.7615C1.36969 20.892 1.31571 21.0849 1.14677 21.3348L1.39529 21.5028C1.57959 21.2303 1.68151 20.9607 1.64964 20.7218L1.35228 20.7615ZM0.960398 20.2348C1.21945 20.4442 1.33434 20.6271 1.35228 20.7615L1.64964 20.7218C1.61623 20.4714 1.42649 20.2258 1.14898 20.0015L0.960398 20.2348ZM0.100785 19.7285C0.395291 19.8601 0.713466 20.0352 0.960397 20.2348L1.14898 20.0015C0.874625 19.7798 0.531113 19.5922 0.223212 19.4546L0.100785 19.7285ZM-0.252173 19.1849C-0.248225 19.3819 -0.145186 19.6185 0.100785 19.7285L0.223212 19.4546C0.105843 19.4021 0.0499271 19.2867 0.0477672 19.1789L-0.252173 19.1849ZM0.0824294 18.6271C-0.162163 18.7456 -0.256124 18.9878 -0.252173 19.1849L0.0477672 19.1789C0.0456049 19.071 0.0970327 18.9533 0.213221 18.8971L0.0824294 18.6271ZM0.994949 18.0626C0.739596 18.2758 0.398572 18.4739 0.0824292 18.6271L0.213221 18.8971C0.540605 18.7385 0.905681 18.5279 1.18723 18.2928L0.994949 18.0626ZM1.34875 17.5866C1.34875 17.6212 1.33357 17.6809 1.27645 17.7663C1.2202 17.8504 1.12931 17.9504 0.994949 18.0626L1.18723 18.2928C1.33615 18.1685 1.44909 18.0479 1.52585 17.933C1.60174 17.8195 1.64875 17.7019 1.64875 17.5866H1.34875ZM1.04945 16.9307C1.25738 17.2173 1.34875 17.4439 1.34875 17.5866H1.64875C1.64875 17.3443 1.50805 17.0519 1.29225 16.7545L1.04945 16.9307ZM0.361547 16.1817C0.594061 16.3923 0.852544 16.6594 1.04945 16.9307L1.29225 16.7545C1.07917 16.4609 0.804772 16.1784 0.562978 15.9593L0.361547 16.1817ZM0.629953 15.1576C0.156489 15.2638 0.0125041 15.8654 0.361547 16.1817L0.562978 15.9593C0.389181 15.8019 0.465893 15.5018 0.69565 15.4503L0.629953 15.1576ZM1.90515 14.7284C1.53397 14.917 1.04843 15.0636 0.629953 15.1576L0.69565 15.4503C1.12556 15.3538 1.63829 15.2005 2.04109 14.9958L1.90515 14.7284ZM2.31307 14.451C2.22809 14.5387 2.09152 14.6336 1.90515 14.7284L2.04109 14.9958C2.24266 14.8934 2.4114 14.7806 2.52848 14.6598L2.31307 14.451ZM2.40401 14.2954C2.40401 14.3148 2.39635 14.3651 2.31307 14.451L2.52848 14.6598C2.64553 14.5391 2.70401 14.4179 2.70401 14.2954H2.40401ZM2.17251 13.8642C2.34096 14.0329 2.40401 14.1776 2.40401 14.2954H2.70401C2.70401 14.0665 2.58218 13.8499 2.38483 13.6522L2.17251 13.8642ZM1.53708 13.4259C1.77518 13.547 2.00646 13.6978 2.17251 13.8642L2.38483 13.6522C2.18831 13.4554 1.92691 13.2876 1.67314 13.1585L1.53708 13.4259ZM1.2043 12.844C1.20143 13.0273 1.27738 13.2937 1.53708 13.4259L1.67314 13.1585C1.55083 13.0963 1.50247 12.9633 1.50427 12.8487L1.2043 12.844ZM1.54926 12.2738C1.29106 12.3998 1.20719 12.6605 1.2043 12.844L1.50427 12.8487C1.50606 12.7343 1.55839 12.6032 1.68088 12.5434L1.54926 12.2738ZM2.11714 11.8984C1.95631 12.0473 1.75297 12.1743 1.54926 12.2738L1.68088 12.5434C1.9019 12.4354 2.13227 12.2932 2.32091 12.1186L2.11714 11.8984ZM2.41512 11.4427C2.37846 11.5954 2.27862 11.749 2.11714 11.8984L2.32091 12.1186C2.50976 11.9438 2.65195 11.7412 2.70683 11.5128L2.41512 11.4427ZM2.34456 10.9914C2.42569 11.1648 2.44603 11.314 2.41512 11.4427L2.70683 11.5128C2.75817 11.299 2.71668 11.0789 2.61629 10.8643L2.34456 10.9914ZM1.97428 10.4802C2.12905 10.64 2.26268 10.8164 2.34456 10.9914L2.61629 10.8643C2.51578 10.6494 2.35881 10.446 2.18977 10.2715L1.97428 10.4802ZM1.84866 9.80398C1.78858 9.97271 1.76352 10.2626 1.97428 10.4802L2.18977 10.2715C2.09046 10.1689 2.09108 10.0175 2.13128 9.90462L1.84866 9.80398ZM2.38213 9.36125C2.07429 9.39061 1.9085 9.63594 1.84866 9.80398L2.13128 9.90462C2.17148 9.79172 2.26707 9.67359 2.41061 9.65989L2.38213 9.36125ZM3.14995 9.16814C2.94888 9.27085 2.67253 9.33355 2.38213 9.36125L2.41061 9.65989C2.71909 9.63047 3.03772 9.56235 3.28642 9.43531L3.14995 9.16814ZM3.43888 8.84113C3.42175 8.95937 3.34505 9.06848 3.14995 9.16814L3.28642 9.43531C3.53435 9.30866 3.70002 9.131 3.73578 8.88414L3.43888 8.84113ZM3.14173 7.2903C3.33969 7.75417 3.50865 8.35957 3.43888 8.84113L3.73578 8.88414C3.81765 8.31902 3.6217 7.65067 3.41765 7.17255L3.14173 7.2903ZM3.24633 6.65369C3.1227 6.79928 3.03564 7.04173 3.14173 7.2903L3.41765 7.17255C3.36712 7.05416 3.40497 6.93035 3.47501 6.84787L3.24633 6.65369ZM3.85786 6.44744C3.59522 6.38278 3.36997 6.50809 3.24633 6.65369L3.47501 6.84787C3.54506 6.76538 3.66111 6.70796 3.78614 6.73874L3.85786 6.44744ZM4.66316 6.55058C4.41381 6.55773 4.12346 6.51283 3.85786 6.44744L3.78614 6.73874C4.06594 6.80762 4.38527 6.85868 4.67176 6.85046L4.66316 6.55058ZM5.11285 6.42299C5.0596 6.48027 4.92701 6.54302 4.66316 6.55058L4.67176 6.85046C4.96216 6.84213 5.19648 6.77366 5.33258 6.62725L5.11285 6.42299ZM5.31418 5.86841C5.26829 6.15837 5.19053 6.33943 5.11285 6.42299L5.33258 6.62725C5.47269 6.47652 5.56203 6.22149 5.6105 5.91531L5.31418 5.86841ZM5.34995 4.99459C5.3637 5.27903 5.35777 5.59305 5.31418 5.86841L5.6105 5.91531C5.65839 5.61273 5.66393 5.27661 5.6496 4.98011L5.34995 4.99459ZM5.69007 4.42515C5.52023 4.51288 5.33621 4.71027 5.34995 4.99459L5.6496 4.98011C5.64314 4.84635 5.72904 4.74268 5.82775 4.69169L5.69007 4.42515ZM6.34372 4.46679C6.12111 4.30335 5.85974 4.33751 5.69007 4.42515L5.82775 4.69169C5.92619 4.64084 6.05981 4.63052 6.16619 4.70862L6.34372 4.46679ZM7.07339 4.8526C6.82457 4.77759 6.56711 4.63078 6.34372 4.46679L6.16619 4.70862C6.40574 4.88448 6.69411 5.0516 6.98681 5.13983L7.07339 4.8526ZM7.67613 4.83953C7.52118 4.91995 7.32178 4.92747 7.07339 4.8526L6.98681 5.13983C7.27962 5.2281 7.56622 5.23457 7.81433 5.10581L7.67613 4.83953ZM8.12642 4.3248C8.00672 4.57039 7.85564 4.74637 7.67613 4.83953L7.81433 5.10581C8.07034 4.97293 8.25951 4.73647 8.39609 4.45623L8.12642 4.3248ZM8.35773 3.53696C8.31891 3.79618 8.24548 4.08051 8.12642 4.3248L8.39609 4.45623C8.53247 4.1764 8.61264 3.86041 8.65442 3.58139L8.35773 3.53696ZM8.7728 3.05028C8.58997 3.11247 8.39679 3.27613 8.35773 3.53696L8.65442 3.58139C8.67324 3.45571 8.76757 3.36894 8.86941 3.3343L8.7728 3.05028ZM9.40721 3.19911C9.21771 2.99924 8.95636 2.98784 8.7728 3.05028L8.86941 3.3343C8.97175 3.29948 9.10021 3.31134 9.1895 3.40551L9.40721 3.19911ZM10.1394 3.86044C9.89852 3.68745 9.63409 3.43841 9.40721 3.19911L9.1895 3.40551C9.42237 3.65113 9.7016 3.91537 9.96434 4.10409L10.1394 3.86044ZM10.4388 4.03532C10.3617 4.00499 10.2604 3.94741 10.1394 3.86044L9.96434 4.10409C10.0959 4.19856 10.2197 4.27154 10.329 4.3145L10.4388 4.03532ZM10.4943 4.06112C10.5062 4.05755 10.514 4.05713 10.5153 4.05706C10.5176 4.05695 10.5166 4.05721 10.5117 4.05661C10.5018 4.05539 10.4785 4.05093 10.4388 4.03532L10.329 4.3145C10.4403 4.3583 10.5232 4.36567 10.5805 4.34846L10.4943 4.06112ZM10.6585 3.94679C10.5602 4.03268 10.5058 4.05768 10.4943 4.06112L10.5805 4.34846C10.6539 4.32645 10.7472 4.26763 10.8558 4.17273L10.6585 3.94679ZM10.9634 3.62646C10.8532 3.75784 10.7497 3.86714 10.6585 3.94679L10.8558 4.17273C10.9628 4.07926 11.0774 3.95736 11.1932 3.81932L10.9634 3.62646ZM11.5815 2.76821C11.4065 3.04288 11.1835 3.36419 10.9634 3.62646L11.1932 3.81932C11.4248 3.54334 11.6557 3.21016 11.8345 2.92939L11.5815 2.76821ZM12.002 2.85826L12.0008 2.85749L11.8398 3.11061L11.841 3.11138L12.002 2.85826Z" fill="#888888" mask="url(#path-4-outside-1_16686_192988)"/>
<path d="M9.56484 13.1026C9.77677 13.0893 9.95464 12.9594 10.073 12.7731C10.1913 12.5868 10.2539 12.3394 10.2373 12.0749C10.2206 11.8105 10.1275 11.5729 9.98671 11.4029C9.84596 11.2329 9.6532 11.1263 9.44128 11.1397C9.22935 11.153 9.05148 11.283 8.93315 11.4692C8.81478 11.6556 8.75219 11.9029 8.76884 12.1674C8.78549 12.4318 8.8786 12.6694 9.01941 12.8394C9.16016 13.0094 9.35292 13.116 9.56484 13.1026Z" fill="#222222" stroke="#222222" stroke-width="0.15" stroke-linejoin="round"/>
<path d="M15.527 12.9672C15.7377 12.9408 15.9073 12.8002 16.0139 12.6071C16.1207 12.4138 16.168 12.1631 16.1351 11.9001C16.1023 11.6372 15.9948 11.4058 15.8438 11.2447C15.6929 11.0837 15.494 10.9891 15.2832 11.0155C15.0725 11.0418 14.903 11.1824 14.7963 11.3755C14.6896 11.5688 14.6423 11.8195 14.6751 12.0825C14.7079 12.3454 14.8155 12.5768 14.9664 12.7379C15.1173 12.8989 15.3163 12.9935 15.527 12.9672Z" fill="#222222" stroke="#222222" stroke-width="0.15" stroke-linejoin="round"/>
<path d="M12.6849 12.8543C12.8739 12.8471 13.0237 12.898 13.1124 12.9575C13.1773 13.001 13.191 13.0331 13.1934 13.0419C13.1916 13.0508 13.1805 13.0839 13.119 13.1322C13.0351 13.1983 12.8896 13.2604 12.7006 13.2676C12.5116 13.2748 12.3617 13.2239 12.2731 13.1644C12.2081 13.1209 12.1945 13.0888 12.192 13.08C12.1938 13.071 12.205 13.038 12.2664 12.9896C12.3503 12.9236 12.4959 12.8614 12.6849 12.8543ZM13.1939 13.0443C13.1939 13.0443 13.1938 13.0439 13.1938 13.0431L13.1939 13.0443ZM13.1937 13.0406C13.1937 13.0398 13.1937 13.0395 13.1938 13.0395L13.1937 13.0406ZM13.8467 13.017C13.8373 12.7705 13.6915 12.559 13.4764 12.4147C13.2612 12.2704 12.9721 12.1894 12.66 12.2012C12.3479 12.2131 12.0659 12.3159 11.8623 12.4761C11.6587 12.6363 11.5294 12.8582 11.5388 13.1048C11.5481 13.3514 11.694 13.5629 11.9091 13.7071C12.1243 13.8515 12.4133 13.9325 12.7254 13.9206C13.0375 13.9088 13.3196 13.806 13.5232 13.6457C13.7267 13.4856 13.8561 13.2636 13.8467 13.017Z" fill="#222222" stroke="#222222" stroke-width="0.15" stroke-linejoin="round"/>
<path d="M13.0395 13.6828C13.0395 13.5024 12.8932 13.3561 12.7128 13.3561C12.5323 13.3561 12.386 13.5024 12.386 13.6828C12.386 13.7558 12.3728 13.9014 12.3287 14.0644C12.2844 14.2281 12.2149 14.3869 12.117 14.5058C12.049 14.5883 11.8993 14.6421 11.6657 14.6185C11.5579 14.6077 11.4523 14.5814 11.3653 14.5489C11.2717 14.514 11.2253 14.4816 11.2165 14.4735C11.0839 14.3511 10.8772 14.3593 10.7548 14.4919C10.6324 14.6245 10.6407 14.8312 10.7733 14.9536C10.8708 15.0437 11.0064 15.1125 11.1368 15.1612C11.2737 15.2123 11.434 15.252 11.6002 15.2687C11.9141 15.3003 12.3455 15.2563 12.6214 14.9213C12.7983 14.7064 12.9007 14.4522 12.9595 14.2351C13.0184 14.0173 13.0395 13.8144 13.0395 13.6828Z" fill="#222222" stroke="#222222" stroke-width="0.15" stroke-linecap="round" stroke-linejoin="round"/>
<path d="M12.9099 13.2825C12.7294 13.2825 12.5831 13.4288 12.5831 13.6093C12.5831 13.7652 12.633 13.9995 12.7229 14.2244C12.8133 14.4504 12.9643 14.7183 13.2027 14.8999C13.6306 15.226 14.0976 15.0463 14.3851 14.869C14.6305 14.7177 14.8481 14.5071 14.9638 14.395L14.9652 14.3938M12.9099 13.2825L14.9652 14.3938M12.9099 13.2825C13.0903 13.2825 13.2366 13.4288 13.2366 13.6093C13.2366 13.6579 13.2602 13.8079 13.3297 13.9818C13.3988 14.1545 13.4932 14.2997 13.5987 14.3801C13.6462 14.4163 13.6998 14.4321 13.7681 14.4245C13.8393 14.4165 13.9288 14.3827 14.0421 14.3128C14.2199 14.2032 14.375 14.0543 14.4958 13.9381L14.4962 13.9377C14.5254 13.9096 14.5529 13.8831 14.5779 13.86C14.7105 13.7376 14.9172 13.7459 15.0396 13.8785C15.162 14.0111 15.1537 14.2178 15.0211 14.3402C15.0071 14.3532 14.9886 14.3711 14.9652 14.3938M12.9099 13.2825L14.9652 14.3938" fill="#222222" stroke="#222222" stroke-width="0.15" stroke-linecap="round" stroke-linejoin="round"/>
<path d="M16.665 7.85925V8.25951C16.665 8.30093 16.6986 8.33451 16.74 8.33451H17.3242C17.3656 8.33451 17.3992 8.30093 17.3992 8.25951V7.55543C17.3992 7.15681 16.9836 6.8944 16.6237 7.06578L15.5 7.60087C15.482 7.60942 15.4682 7.62476 15.4615 7.64351C15.4549 7.66225 15.456 7.68287 15.4645 7.70083L15.7157 8.22825C15.7242 8.24621 15.7396 8.26004 15.7583 8.26669C15.777 8.27334 15.7977 8.27227 15.8156 8.26372L16.665 7.85925Z" fill="#222222" stroke="#222222" stroke-width="0.15" stroke-linejoin="round"/>
<path d="M7.45329 8.19413L8.24089 8.62937C8.27714 8.64941 8.32277 8.63626 8.34281 8.60001L8.62536 8.08872C8.63498 8.07131 8.63729 8.05079 8.63178 8.03168C8.62627 8.01257 8.6134 7.99642 8.59599 7.9868L7.52377 7.39427C7.16231 7.19451 6.71912 7.45596 6.71912 7.86894L6.71912 9.16702C6.71912 9.20844 6.7527 9.24202 6.79412 9.24202L7.37829 9.24202C7.39818 9.24202 7.41725 9.23412 7.43132 9.22006C7.44538 9.20599 7.45329 9.18691 7.45329 9.16702L7.45329 8.19413Z" fill="#222222" stroke="#222222" stroke-width="0.15" stroke-linejoin="round"/>
</g>
</svg>
