<svg width="240" height="183" viewBox="0 0 240 183" fill="none" xmlns="http://www.w3.org/2000/svg">
<path fill-rule="evenodd" clip-rule="evenodd" d="M114.597 6.13296C117.453 2.85379 122.547 2.85379 125.403 6.13296L135.795 18.0666C137.936 20.526 141.469 21.2286 144.388 19.776L158.556 12.7276C162.449 10.7908 167.156 12.7404 168.539 16.8627L173.573 31.8647C174.611 34.9565 177.605 36.9574 180.859 36.7327L196.645 35.6426C200.983 35.343 204.585 38.9454 204.286 43.2833L203.196 59.0698C202.971 62.3232 204.972 65.3178 208.064 66.3553L223.066 71.3893C227.188 72.7726 229.138 77.4794 227.201 81.3724L220.152 95.54C218.7 98.4598 219.403 101.992 221.862 104.134L233.796 114.526C237.075 117.381 237.075 122.476 233.796 125.331L222.657 135.031C219.847 137.478 219.382 141.67 221.587 144.673L228.762 154.447C232.236 159.178 228.857 165.851 222.987 165.851H202.814H167.05C185.361 159.267 193.786 138.089 184.935 120.705C175.263 101.708 150.187 97.0851 134.376 111.384L133.391 112.275C125.762 119.175 114.147 119.175 106.518 112.275L105.533 111.384C89.7226 97.0851 64.6466 101.708 54.974 120.705C46.1229 138.089 54.5482 159.267 72.8592 165.851H37.1855H17.0127C11.1428 165.851 7.76393 159.178 11.2376 154.447L18.4128 144.673C20.6177 141.67 20.1524 137.478 17.3426 135.031L6.20425 125.331C2.92508 122.476 2.92508 117.381 6.20425 114.526L18.1378 104.134C20.5972 101.992 21.2999 98.4598 19.8473 95.54L12.7989 81.3724C10.8621 77.4794 12.8117 72.7726 16.934 71.3893L31.936 66.3553C35.0278 65.3178 37.0287 62.3232 36.804 59.0698L35.7139 43.2833C35.4143 38.9454 39.0167 35.343 43.3546 35.6426L59.1411 36.7327C62.3945 36.9574 65.3891 34.9565 66.4266 31.8647L71.4606 16.8627C72.8439 12.7404 77.5507 10.7908 81.4437 12.7276L95.6113 19.776C98.5311 21.2286 102.064 20.526 104.205 18.0666L114.597 6.13296ZM120.689 164.156C129.343 164.156 136.359 159.628 136.359 154.042C136.359 148.456 129.343 143.928 120.689 143.928C112.035 143.928 105.02 148.456 105.02 154.042C105.02 159.628 112.035 164.156 120.689 164.156ZM92.3536 134.617C92.3536 139.774 88.1733 143.954 83.0166 143.954C77.86 143.954 73.6797 139.774 73.6797 134.617C73.6797 129.46 77.86 125.28 83.0166 125.28C88.1733 125.28 92.3536 129.46 92.3536 134.617ZM158.377 143.954C163.533 143.954 167.714 139.774 167.714 134.617C167.714 129.46 163.533 125.28 158.377 125.28C153.22 125.28 149.04 129.46 149.04 134.617C149.04 139.774 153.22 143.954 158.377 143.954Z" fill="#FE3C9C"/>
</svg>
