<svg width="240" height="240" viewBox="0 0 240 240" fill="none" xmlns="http://www.w3.org/2000/svg">
<rect width="240" height="240" rx="40" fill="white"/>
<path fill-rule="evenodd" clip-rule="evenodd" d="M114.852 41.4594C117.708 38.1802 122.802 38.1802 125.658 41.4594L136.05 53.393C138.191 55.8524 141.724 56.555 144.643 55.1024L158.811 48.054C162.704 46.1172 167.411 48.0668 168.794 52.1891L173.828 67.1911C174.866 70.2829 177.86 72.2838 181.114 72.0591L196.9 70.969C201.238 70.6694 204.84 74.2718 204.541 78.6097L203.451 94.3962C203.226 97.6496 205.227 100.644 208.319 101.682L223.321 106.716C227.443 108.099 229.393 112.806 227.456 116.699L220.407 130.866C218.955 133.786 219.658 137.318 222.117 139.46L234.051 149.852C237.33 152.707 237.33 157.802 234.051 160.657L222.912 170.357C220.102 172.804 219.637 176.996 221.842 179.999L229.017 189.773C232.491 194.504 229.112 201.177 223.242 201.177H203.069H167.305C185.616 194.593 194.041 173.415 185.19 156.031C175.518 137.034 150.442 132.412 134.631 146.71L133.646 147.601C126.017 154.501 114.402 154.501 106.773 147.601L105.788 146.71C89.9777 132.412 64.9017 137.034 55.2291 156.031C46.378 173.415 54.8033 194.593 73.1143 201.177H37.4406H17.2678C11.3979 201.177 8.01906 194.504 11.4927 189.773L18.6679 179.999C20.8728 176.996 20.4075 172.804 17.5977 170.357L6.45938 160.657C3.18021 157.802 3.18021 152.707 6.45938 149.852L18.3929 139.46C20.8523 137.318 21.555 133.786 20.1024 130.866L13.054 116.699C11.1172 112.806 13.0668 108.099 17.1891 106.716L32.1911 101.682C35.2829 100.644 37.2838 97.6496 37.0591 94.3962L35.969 78.6097C35.6694 74.2718 39.2718 70.6694 43.6097 70.969L59.3962 72.0591C62.6496 72.2838 65.6442 70.2829 66.6817 67.1911L71.7157 52.1891C73.099 48.0668 77.8058 46.1172 81.6988 48.054L95.8664 55.1024C98.7862 56.555 102.319 55.8524 104.46 53.393L114.852 41.4594ZM120.944 199.482C129.598 199.482 136.614 194.954 136.614 189.368C136.614 183.782 129.598 179.254 120.944 179.254C112.29 179.254 105.275 183.782 105.275 189.368C105.275 194.954 112.29 199.482 120.944 199.482ZM92.6087 169.943C92.6087 175.1 88.4284 179.28 83.2717 179.28C78.1151 179.28 73.9348 175.1 73.9348 169.943C73.9348 164.786 78.1151 160.606 83.2717 160.606C88.4284 160.606 92.6087 164.786 92.6087 169.943ZM158.632 179.28C163.788 179.28 167.969 175.1 167.969 169.943C167.969 164.786 163.788 160.606 158.632 160.606C153.475 160.606 149.295 164.786 149.295 169.943C149.295 175.1 153.475 179.28 158.632 179.28Z" fill="#FE3C9C"/>
</svg>
